<svg width="1920" height="1280" viewBox="0 0 1920 1280" fill="none" xmlns="http://www.w3.org/2000/svg">
<g clip-path="url(#clip0_527_4854)">
<path d="M-170 378.887C178.217 519.349 365.919 704.602 474.172 856.151C564.413 982.5 562.812 1034.18 658.634 1128.45C866.578 1333 1264.92 1474.06 1457.97 1298.28C1553.07 1211.68 1517.89 1101.95 1563.38 894.212C1604.31 707.339 1710.11 450.323 2005.51 171" stroke="#737373" stroke-width="0.862752" stroke-miterlimit="10"/>
<path d="M-169.303 424.204C169.396 544.921 355.221 719.199 463.418 861.029C554.456 980.402 561.858 1028.14 663.638 1120.78C877.151 1315.13 1251.24 1450.44 1444.57 1286.42C1544.15 1201.94 1521.5 1094.09 1574.8 886.959C1621.72 704.607 1729.69 451.987 2019.99 175.168" stroke="#737373" stroke-width="0.862752" stroke-miterlimit="10"/>
<path d="M-168.607 469.516C160.567 570.493 344.659 733.84 452.68 865.908C544.704 978.418 560.739 1022.1 668.66 1113.12C887.27 1297.49 1238.16 1427.13 1431.19 1274.57C1535.47 1192.15 1524.96 1086.33 1586.23 879.715C1638.97 701.927 1749.29 453.67 2034.52 179.369" stroke="#737373" stroke-width="0.862752" stroke-miterlimit="10"/>
<path d="M-167.91 514.834C151.74 596.071 334.281 748.525 441.944 870.824C535.073 976.553 559.44 1016.1 673.708 1105.44C896.983 1280.1 1225.65 1404.18 1417.83 1262.72C1527.03 1182.36 1528.26 1078.67 1597.69 872.463C1656 699.283 1768.91 455.352 2049.02 183.55" stroke="#737373" stroke-width="0.862752" stroke-miterlimit="10"/>
<path d="M-167.211 560.146C142.946 621.631 324.118 763.211 431.21 875.671C525.607 974.789 558.035 1010.16 678.695 1097.78C906.246 1262.97 1213.59 1381.6 1404.42 1250.87C1518.75 1172.54 1531.33 1071.05 1609.1 865.211C1672.79 696.653 1788.48 457.028 2063.49 187.763" stroke="#737373" stroke-width="0.862752" stroke-miterlimit="10"/>
<path d="M-166.516 605.458C134.092 647.203 314.184 777.902 420.472 880.549C516.338 973.132 556.401 1004.31 683.716 1090.11C915.198 1246.11 1202.02 1359.41 1391.03 1239.02C1510.71 1162.79 1534.18 1063.47 1620.53 857.959C1689.39 694.016 1808.07 458.711 2077.99 191.913" stroke="#737373" stroke-width="0.862752" stroke-miterlimit="10"/>
<path d="M-165.818 650.77C125.265 672.744 304.528 792.531 409.736 885.428C507.285 971.562 554.663 998.56 688.733 1082.44C923.863 1229.54 1190.87 1337.62 1377.65 1227.17C1502.86 1153.12 1536.91 1055.89 1631.96 850.714C1705.79 691.354 1827.69 460.394 2092.49 196.101" stroke="#737373" stroke-width="0.862752" stroke-miterlimit="10"/>
<path d="M-165.098 696.088C116.461 698.342 295.197 807.091 399.024 890.306C498.507 970.043 552.847 992.934 693.774 1074.77C932.293 1213.25 1180.12 1316.22 1364.28 1215.31C1495.23 1143.57 1539.41 1048.3 1643.42 843.463C1721.99 688.66 1847.26 462.095 2106.99 200.283" stroke="#737373" stroke-width="0.862752" stroke-miterlimit="10"/>
<path d="M-164.426 741.399C107.608 723.914 286.143 821.513 388.263 895.191C489.974 968.548 550.825 987.484 698.772 1067.1C940.493 1197.23 1169.66 1295.22 1350.87 1203.46C1487.74 1134.17 1541.66 1040.65 1654.83 836.211C1738.03 685.91 1866.86 463.752 2121.53 204.464" stroke="#737373" stroke-width="0.862752" stroke-miterlimit="10"/>
<path d="M-163.729 786.692C98.7874 749.467 277.448 835.727 377.527 900.05C481.706 967.004 548.754 982.097 703.788 1059.42C948.511 1181.46 1159.46 1274.59 1337.49 1191.59C1480.42 1124.96 1543.73 1032.9 1666.26 828.94C1753.9 683.072 1886.46 465.416 2135.99 208.626" stroke="#737373" stroke-width="0.862752" stroke-miterlimit="10"/>
<path d="M-163.029 832.029C89.9936 775.058 269.094 849.741 366.799 904.947C473.772 965.397 546.609 976.943 708.813 1051.76C956.424 1165.98 1149.49 1254.38 1324.1 1179.76C1473.26 1116.02 1545.6 1025.09 1677.7 821.707C1769.61 680.197 1906.06 467.118 2150.5 212.839" stroke="#737373" stroke-width="0.862752" stroke-miterlimit="10"/>
<path d="M-162.334 877.341C81.133 800.624 261.055 863.434 356.061 909.826C466.136 963.582 544.416 971.945 713.828 1044.1C964.239 1150.73 1139.71 1234.51 1310.72 1167.91C1466.24 1107.34 1547.27 1017.13 1689.13 814.462C1785.19 677.214 1925.65 468.794 2164.99 217.015" stroke="#737373" stroke-width="0.862752" stroke-miterlimit="10"/>
<path d="M-161.637 922.659C72.3058 826.197 253.296 876.776 345.326 914.711C458.79 961.479 542.118 967.117 718.852 1036.43C971.994 1135.71 1130.05 1214.99 1297.34 1156.06C1459.32 1098.98 1548.77 1009.02 1700.56 807.211C1800.65 674.138 1945.25 470.477 2179.5 221.196" stroke="#737373" stroke-width="0.862752" stroke-miterlimit="10"/>
<path d="M-160.941 967.971C63.483 851.769 245.766 889.729 334.588 919.589C451.7 958.961 539.806 962.471 723.854 1028.76C979.689 1120.9 1120.47 1195.77 1283.94 1144.21C1452.53 1091 1550.07 1000.74 1711.98 799.959C1816.02 670.955 1964.84 472.141 2193.99 225.396" stroke="#737373" stroke-width="0.862752" stroke-miterlimit="10"/>
<path d="M-160.244 1013.28C54.6558 877.335 238.389 902.26 323.827 924.467C444.776 955.897 537.446 958 728.864 1021.09C987.381 1106.3 1110.93 1176.91 1270.54 1132.35C1445.8 1083.43 1551.23 992.275 1723.4 792.688C1831.28 667.646 1984.42 473.817 2208.47 229.54" stroke="#737373" stroke-width="0.862752" stroke-miterlimit="10"/>
<path d="M-159.547 1058.6C45.86 902.907 231.075 914.365 313.116 929.346C437.995 952.149 535.117 953.713 733.906 1013.42C995.091 1091.9 1101.42 1158.32 1257.18 1120.51C1439.16 1076.31 1552.27 983.636 1734.86 785.462C1846.53 664.262 2004.04 475.519 2222.99 233.747" stroke="#737373" stroke-width="0.862752" stroke-miterlimit="10"/>
<path d="M-158.818 1103.91C37.0327 928.479 224.609 948.758 302.412 934.23C429.67 910.46 532.794 949.606 738.961 1005.75C1002.85 1077.64 1091.86 1140.01 1243.79 1108.65C1432.52 1069.73 1553.17 974.739 1746.29 778.21C1861.7 660.765 2023.63 477.201 2237.5 237.953" stroke="#737373" stroke-width="0.862752" stroke-miterlimit="10"/>
<path d="M-158.152 1149.22C28.1805 954.052 217.992 956.105 291.644 939.109C420.736 909.324 530.409 945.67 743.946 998.089C1010.62 1063.57 1082.17 1121.96 1230.41 1096.8C1425.86 1063.66 1553.96 965.654 1757.73 770.946C1876.84 657.136 2043.23 478.865 2251.99 242.097" stroke="#737373" stroke-width="0.862752" stroke-miterlimit="10"/>
<path d="M-157.455 1194.54C19.3533 979.618 210.508 962.729 280.909 943.987C412.324 909.01 528.067 941.909 748.97 990.448C1018.45 1049.63 1072.37 1104.13 1217.02 1084.98C1419.15 1058.23 1554.66 956.375 1769.16 763.738C1891.96 653.457 2062.83 480.579 2266.5 246.323" stroke="#737373" stroke-width="0.862752" stroke-miterlimit="10"/>
<path d="M-156.758 1239.85C10.5261 1005.19 199.891 959.206 270.179 948.865C408.626 928.542 525.764 938.305 753.993 982.769C1026.35 1035.8 1062.4 1086.47 1203.65 1073.12C1412.33 1053.36 1555.29 946.794 1780.61 756.455C1907.09 649.596 2082.44 482.243 2281 250.473" stroke="#737373" stroke-width="0.862752" stroke-miterlimit="10"/>
<path d="M-156.062 1285.17C1.69694 1030.76 191.138 969.867 259.435 953.75C399.853 920.618 523.47 934.864 759.001 975.097C1034.31 1022.1 1052.21 1069.01 1190.25 1061.26C1405.36 1049.2 1555.87 937.074 1792.03 749.222C1922.2 645.671 2102.02 483.938 2295.5 254.673" stroke="#737373" stroke-width="0.862752" stroke-miterlimit="10"/>
<path d="M-155.365 1330.48C-7.12397 1056.33 181.789 980.54 248.699 958.628C390.279 912.243 521.223 931.574 764.024 967.418C1042.36 1008.5 1041.77 1051.69 1176.87 1049.4C1398.19 1045.64 1556.4 927.092 1803.46 741.964C1937.34 641.659 2121.61 485.602 2310 258.842" stroke="#737373" stroke-width="0.862752" stroke-miterlimit="10"/>
</g>
<defs>
<clipPath id="clip0_527_4854">
<rect width="1920" height="1280" fill="white"/>
</clipPath>
</defs>
</svg>
