<svg width="300" height="330" viewBox="0 0 300 330" fill="none" xmlns="http://www.w3.org/2000/svg">
<g filter="url(#filter0_f_566_8319)">
<path d="M46.8469 263.67C29.3322 246.155 67.2503 199.573 84.8545 181.969C102.459 164.365 163.75 176.926 181.265 194.441C198.779 211.956 149.462 226.243 131.858 243.847C114.254 261.452 64.3616 281.185 46.8469 263.67Z" fill="url(#paint0_linear_566_8319)"/>
<path d="M46.8469 263.67C29.3322 246.155 67.2503 199.573 84.8545 181.969C102.459 164.365 163.75 176.926 181.265 194.441C198.779 211.956 149.462 226.243 131.858 243.847C114.254 261.452 64.3616 281.185 46.8469 263.67Z" fill="url(#paint1_linear_566_8319)"/>
</g>
<g filter="url(#filter1_f_566_8319)">
<path d="M149.558 179.351C161.078 157.424 216.823 179.789 238.862 191.368C260.902 202.947 267.118 265.203 255.598 287.13C244.078 309.058 215.783 266.213 193.743 254.634C171.704 243.055 138.038 201.279 149.558 179.351Z" fill="url(#paint2_linear_566_8319)"/>
<path d="M149.558 179.351C161.078 157.424 216.823 179.789 238.862 191.368C260.902 202.947 267.118 265.203 255.598 287.13C244.078 309.058 215.783 266.213 193.743 254.634C171.704 243.055 138.038 201.279 149.558 179.351Z" fill="url(#paint3_linear_566_8319)"/>
</g>
<g filter="url(#filter2_f_566_8319)">
<path d="M81.5769 265.137C62.8694 246.429 54.456 211.104 73.24 192.32C92.024 173.536 148.429 160.869 167.137 179.577C185.844 198.284 192.105 248.817 173.321 267.601C154.537 286.385 100.284 283.844 81.5769 265.137Z" fill="url(#paint4_linear_566_8319)"/>
</g>
<g filter="url(#filter3_f_566_8319)">
<path d="M89.1677 273.305C70.4603 254.597 62.0469 219.272 80.8308 200.488C99.6148 181.704 156.02 169.037 174.728 187.745C193.435 206.452 199.696 256.985 180.912 275.769C162.128 294.553 107.875 292.012 89.1677 273.305Z" fill="url(#paint5_linear_566_8319)"/>
</g>
<rect y="230" width="300" height="100" rx="10" fill="#4F4F53"/>
<path d="M279.951 179.457C279.951 179.515 222.093 179.557 150.737 179.557C79.3811 179.557 21.5156 179.515 21.5156 179.457C21.5156 179.399 79.358 179.357 150.737 179.357C222.116 179.357 279.951 179.403 279.951 179.457Z" fill="#263238"/>
<path d="M57.6325 124.88C57.4619 124.504 57.3865 124.092 57.4129 123.68L58.4918 108.12C58.4918 103.774 60.981 100.142 65.3199 100.242L65.7052 100.277C67.6477 100.437 69.4588 101.323 70.7783 102.76C72.0977 104.197 72.8289 106.079 72.8262 108.032C72.8262 111.795 72.7684 115.956 72.5757 117.963C72.1904 122.113 67.9825 122.418 67.9825 122.418L67.786 124.035C67.786 124.035 67.786 130.404 64.4876 131.234C61.9559 131.875 59.4782 126.644 58.3877 125.83C58.0601 125.582 57.8003 125.256 57.6325 124.88Z" fill="#FFBE9D"/>
<path d="M68.0327 122.414C66.1069 122.257 64.2666 121.55 62.7305 120.376C62.7305 120.376 63.7632 123.464 67.9325 123.437L68.0327 122.414Z" fill="#EB996E"/>
<path d="M71.7204 111.972C71.7095 112.127 71.6384 112.272 71.5225 112.375C71.4065 112.478 71.2549 112.532 71.1 112.524C71.0239 112.525 70.9487 112.509 70.8787 112.48C70.8086 112.45 70.7453 112.406 70.6925 112.352C70.6396 112.297 70.5983 112.232 70.571 112.161C70.5437 112.09 70.5309 112.014 70.5335 111.938C70.5454 111.783 70.6167 111.639 70.7324 111.536C70.8481 111.433 70.9993 111.379 71.1539 111.386C71.2298 111.386 71.3048 111.402 71.3746 111.432C71.4444 111.462 71.5075 111.505 71.5602 111.56C71.613 111.615 71.6543 111.679 71.6818 111.75C71.7093 111.821 71.7224 111.897 71.7204 111.972Z" fill="#263238"/>
<path d="M71.7824 110.004C71.7053 110.077 71.2814 109.707 70.6456 109.657C70.0098 109.606 69.5127 109.888 69.4511 109.803C69.3894 109.718 69.505 109.633 69.7208 109.502C70.0111 109.33 70.3483 109.255 70.6842 109.286C71.018 109.316 71.3338 109.451 71.5858 109.672C71.7669 109.815 71.8209 109.958 71.7824 110.004Z" fill="#263238"/>
<path d="M65.6012 111.618C65.5903 111.772 65.5193 111.917 65.4033 112.02C65.2874 112.123 65.1357 112.177 64.9808 112.169C64.9048 112.17 64.8295 112.154 64.7595 112.125C64.6895 112.095 64.6262 112.051 64.5733 111.997C64.5205 111.942 64.4792 111.877 64.4518 111.806C64.4245 111.735 64.4118 111.659 64.4144 111.583C64.4262 111.428 64.4975 111.284 64.6133 111.181C64.729 111.078 64.8801 111.024 65.0348 111.031C65.1107 111.031 65.1857 111.047 65.2554 111.077C65.3252 111.107 65.3883 111.15 65.4411 111.205C65.4938 111.26 65.5352 111.324 65.5627 111.395C65.5902 111.466 65.6033 111.542 65.6012 111.618Z" fill="#263238"/>
<path d="M65.4974 109.595C65.4165 109.664 64.9926 109.297 64.3414 109.247C63.6902 109.197 63.2085 109.475 63.1469 109.39C63.0852 109.305 63.2008 109.22 63.4166 109.089C63.7082 108.921 64.0447 108.846 64.38 108.877C64.7138 108.906 65.0296 109.042 65.2816 109.263C65.4974 109.417 65.5475 109.564 65.4974 109.595Z" fill="#263238"/>
<path d="M67.4238 114.52C67.769 114.443 68.1223 114.41 68.4758 114.42C68.6415 114.42 68.7956 114.397 68.8341 114.285C68.8597 114.118 68.8356 113.948 68.7648 113.795C68.6415 113.385 68.5182 112.961 68.3795 112.513C67.8554 110.691 67.4932 109.197 67.5664 109.174C67.6396 109.151 68.1213 110.618 68.6453 112.44C68.7738 112.887 68.8932 113.316 69.0037 113.725C69.093 113.93 69.1053 114.16 69.0384 114.374C69.0102 114.429 68.9694 114.478 68.9192 114.516C68.8691 114.553 68.811 114.578 68.7494 114.59C68.6573 114.602 68.564 114.602 68.4719 114.59C68.121 114.612 67.7688 114.588 67.4238 114.52Z" fill="#263238"/>
<path d="M65.5205 114.81C65.6246 114.81 65.5706 115.504 66.1216 116.045C66.6727 116.585 67.4241 116.566 67.4241 116.666C67.4241 116.767 67.2507 116.79 66.9386 116.77C66.533 116.742 66.15 116.573 65.8558 116.292C65.5754 116.019 65.4111 115.649 65.3972 115.257C65.3818 114.964 65.4743 114.802 65.5205 114.81Z" fill="#263238"/>
<path d="M65.8829 107.105C65.8059 107.275 65.1778 107.14 64.4225 107.167C63.6673 107.194 63.0469 107.352 62.9583 107.167C62.9197 107.09 63.0392 106.935 63.2973 106.781C63.637 106.596 64.0166 106.496 64.4033 106.491C64.7894 106.477 65.1735 106.554 65.5246 106.715C65.7828 106.877 65.9099 107.024 65.8829 107.105Z" fill="#263238"/>
<path d="M71.7014 108.124C71.5781 108.259 71.1504 108.07 70.6225 108.02C70.0946 107.97 69.6399 108.02 69.5474 107.877C69.5088 107.8 69.5898 107.661 69.7978 107.541C70.0737 107.398 70.386 107.34 70.6948 107.375C71.0036 107.41 71.295 107.536 71.5318 107.738C71.7052 107.9 71.7553 108.074 71.7014 108.124Z" fill="#263238"/>
<path d="M58.827 112.22C58.8343 112.066 58.8105 111.913 58.7571 111.77C58.7037 111.626 58.6218 111.495 58.5162 111.383C58.4107 111.272 58.2838 111.184 58.1432 111.123C58.0025 111.063 57.8511 111.031 57.698 111.031C56.9273 111.031 56.0218 111.417 55.9409 113.019C55.8022 115.867 58.6845 115.42 58.6922 115.335C58.6999 115.25 58.7769 113.412 58.827 112.22Z" fill="#FFBE9D"/>
<path d="M58.1299 114.25C58.1299 114.25 58.076 114.281 57.9912 114.316C57.9303 114.341 57.8647 114.355 57.7985 114.355C57.7323 114.355 57.6668 114.341 57.6059 114.316C57.4275 114.19 57.2858 114.019 57.1957 113.82C57.1056 113.621 57.0703 113.402 57.0934 113.185C57.0983 112.94 57.1575 112.7 57.2668 112.482C57.297 112.395 57.3478 112.316 57.4149 112.253C57.482 112.19 57.5634 112.144 57.6521 112.119C57.7097 112.107 57.7696 112.116 57.8215 112.143C57.8735 112.171 57.9144 112.216 57.9373 112.27C57.9719 112.351 57.9373 112.409 57.9642 112.413C57.9912 112.416 58.0297 112.37 58.0105 112.25C57.9992 112.179 57.9638 112.114 57.9103 112.065C57.8334 112.003 57.7354 111.972 57.6367 111.98C57.5187 111.998 57.4071 112.045 57.3127 112.118C57.2183 112.191 57.1441 112.287 57.0972 112.397C56.9663 112.634 56.8948 112.899 56.8892 113.169C56.8892 113.744 57.1435 114.296 57.5481 114.435C57.6235 114.461 57.7037 114.47 57.7829 114.461C57.8622 114.453 57.9385 114.427 58.0066 114.385C58.1184 114.304 58.1376 114.25 58.1299 114.25Z" fill="#EB996E"/>
<path d="M72.8419 107.912C72.8612 108.487 73.6704 106.569 73.3929 106.063C73.5959 106.126 73.8098 106.145 74.0206 106.119C74.2315 106.093 74.4344 106.022 74.6158 105.912C74.7973 105.801 74.9533 105.653 75.0733 105.477C75.1934 105.302 75.2748 105.103 75.3123 104.893C75.3497 104.684 75.3422 104.469 75.2904 104.262C75.2386 104.056 75.1435 103.863 75.0116 103.696C74.8797 103.529 74.7138 103.393 74.5251 103.295C74.3364 103.197 74.1291 103.141 73.917 103.129C74.0735 102.874 74.1404 102.574 74.1068 102.277C74.0733 101.98 73.9414 101.702 73.732 101.489C73.4893 101.305 73.2068 101.181 72.9074 101.126C72.9268 100.773 72.8566 100.421 72.7032 100.103C72.5407 99.7547 72.3009 99.4481 72.002 99.2067C71.7032 98.9653 71.3532 98.7955 70.9789 98.7102C70.6046 98.625 70.2157 98.6265 69.8421 98.7147C69.4684 98.8029 69.1198 98.9754 68.8229 99.2192C68.5951 98.8819 68.2888 98.6053 67.9303 98.4134C67.5718 98.2215 67.172 98.12 66.7655 98.1177C66.3591 98.1154 65.9582 98.2124 65.5976 98.4003C65.2369 98.5882 64.9275 98.8613 64.696 99.196C64.3352 98.9645 63.9202 98.8317 63.4923 98.8107C63.0644 98.7897 62.6384 98.8813 62.2568 99.0763C61.7807 99.3318 61.4037 99.7394 61.1856 100.234C60.8383 100.029 60.4337 99.9431 60.0332 99.9891C59.6327 100.035 59.258 100.211 58.9661 100.489C58.7634 100.762 58.5419 101.02 58.3033 101.261C57.9677 101.453 57.614 101.613 57.2475 101.736C56.993 101.88 56.773 102.079 56.6025 102.317C56.4321 102.555 56.3153 102.827 56.2604 103.115C56.2054 103.403 56.2135 103.699 56.2841 103.984C56.3548 104.268 56.4863 104.534 56.6695 104.762C56.2485 105.048 55.8763 105.4 55.5674 105.804C55.4141 106.008 55.3113 106.245 55.2678 106.496C55.2242 106.747 55.2411 107.005 55.317 107.248C55.5366 107.815 56.1647 108.155 56.3766 108.726C56.4768 108.989 56.4768 109.282 56.5693 109.549C56.655 109.763 56.7853 109.956 56.9514 110.116C57.1175 110.275 57.3156 110.398 57.5326 110.475C57.7561 111.633 58.5422 111.976 58.5538 112.316C58.6501 115.867 60.1876 113.86 61.2049 106.422C61.4438 104.677 60.8195 103.755 62.2607 102.728C62.4342 102.957 62.595 103.195 62.7423 103.442C62.945 103.699 63.1989 103.911 63.4878 104.065C63.7767 104.218 64.0943 104.31 64.4204 104.334C64.7465 104.358 65.0741 104.313 65.3822 104.204C65.6904 104.094 65.9724 103.921 66.2103 103.697C66.3608 103.976 66.5747 104.215 66.8346 104.396C67.0946 104.577 67.3935 104.695 67.707 104.739C68.0206 104.783 68.34 104.752 68.6396 104.65C68.9392 104.547 69.2106 104.375 69.4317 104.148C69.9249 104.627 71.0848 105.441 72.0173 104.654C72.5297 105.665 72.8114 106.778 72.8419 107.912Z" fill="#263238"/>
<path d="M71.3159 235.84L75.2733 248.482L91.072 243.776C90.5325 242.29 80.8067 241.943 80.8067 241.943L78.3598 233.389L71.3159 235.84Z" fill="#6F5FFE"/>
<g opacity="0.6">
<path d="M76.3677 242.475C76.2295 242.566 76.1298 242.706 76.0878 242.866C76.0459 243.026 76.0646 243.196 76.1403 243.344C76.2276 243.485 76.3655 243.588 76.526 243.631C76.6865 243.674 76.8573 243.654 77.0035 243.575C77.1491 243.477 77.2535 243.329 77.2969 243.159C77.3403 242.989 77.3195 242.809 77.2385 242.653C77.1329 242.515 76.9782 242.423 76.8067 242.396C76.6351 242.37 76.4599 242.41 76.3176 242.51" fill="white"/>
</g>
<g opacity="0.6">
<path d="M75.2732 248.493L74.9341 247.196L90.2241 243.174C90.2241 243.174 91.0179 243.271 91.0873 243.792L75.2732 248.493Z" fill="white"/>
</g>
<path d="M81.1032 242.016C81.1225 242.097 80.7487 242.244 80.4404 242.607C80.1322 242.969 80.0281 243.352 79.9511 243.344C79.874 243.336 79.8509 242.854 80.2285 242.421C80.6061 241.989 81.0993 241.95 81.1032 242.016Z" fill="#263238"/>
<path d="M83.3883 242.128C83.4268 242.197 83.134 242.429 82.9683 242.83C82.8026 243.232 82.8296 243.602 82.7525 243.626C82.6754 243.649 82.4943 243.22 82.7101 242.722C82.9259 242.224 83.3652 242.055 83.3883 242.128Z" fill="#263238"/>
<path d="M84.8641 243.768C84.7986 243.803 84.5751 243.452 84.6483 242.969C84.7216 242.487 85.0337 242.197 85.0838 242.267C85.1339 242.336 84.9797 242.614 84.9258 243.008C84.8718 243.402 84.9373 243.737 84.8641 243.768Z" fill="#263238"/>
<path d="M80.3522 239.943C80.3522 240.024 79.9668 240.02 79.5275 240.183C79.0883 240.345 78.7993 240.569 78.7569 240.526C78.7145 240.484 78.9457 240.098 79.4505 239.916C79.9553 239.735 80.3714 239.87 80.3522 239.943Z" fill="#263238"/>
<path d="M31.9733 233.566L30.2085 246.69L46.5235 249.142C46.6584 247.57 37.9999 243.124 37.9999 243.124L39.4025 234.335L31.9733 233.566Z" fill="#6F5FFE"/>
<g opacity="0.6">
<path d="M33.7304 241.707C33.5661 241.732 33.4166 241.816 33.3106 241.945C33.2047 242.073 33.1497 242.236 33.1563 242.402C33.1747 242.568 33.2557 242.72 33.3825 242.827C33.5093 242.935 33.6724 242.99 33.8383 242.981C34.0122 242.955 34.1701 242.865 34.2818 242.729C34.3935 242.592 34.451 242.42 34.4433 242.244C34.4053 242.075 34.3044 241.927 34.1611 241.83C34.0179 241.733 33.8432 241.695 33.6726 241.723" fill="white"/>
</g>
<g opacity="0.6">
<path d="M30.1934 246.694L30.4361 245.378L45.9882 248.223C45.9882 248.223 46.6664 248.647 46.5084 249.145L30.1934 246.694Z" fill="white"/>
</g>
<path d="M38.2082 243.313C38.2082 243.39 37.792 243.367 37.3605 243.564C36.9289 243.761 36.6707 244.066 36.5898 244.023C36.5089 243.981 36.7054 243.537 37.2333 243.309C37.7612 243.081 38.239 243.243 38.2082 243.313Z" fill="#263238"/>
<path d="M40.2349 244.375C40.2349 244.456 39.8766 244.537 39.5567 244.834C39.2369 245.131 39.1059 245.475 39.025 245.459C38.9441 245.444 38.9633 244.988 39.3679 244.625C39.7725 244.263 40.2465 244.297 40.2349 244.375Z" fill="#263238"/>
<path d="M40.8784 246.486C40.8052 246.486 40.7512 246.077 41.021 245.671C41.2907 245.266 41.6915 245.15 41.7146 245.22C41.7377 245.289 41.4718 245.49 41.256 245.826C41.0402 246.162 40.9593 246.49 40.8784 246.486Z" fill="#263238"/>
<path d="M38.4085 241.109C38.3661 241.175 38.0231 241.009 37.5607 240.974C37.0983 240.939 36.7323 241.024 36.7014 240.951C36.6706 240.877 37.0521 240.642 37.5877 240.692C38.1233 240.742 38.4586 241.051 38.4085 241.109Z" fill="#263238"/>
<path d="M47.9069 169.641C46.9027 171.091 46.2436 172.752 45.9802 174.497C45.5913 176.79 45.334 179.103 45.2096 181.426L42.7897 195.951L40.863 203.733C40.863 203.733 38.316 212.553 34.4973 219.736C30.6787 226.92 30.0352 240.194 30.0352 240.194C32.5475 240.847 39.0597 241.391 39.0597 241.391C39.0597 241.391 40.6434 234.111 42.0383 230.008C43.4332 225.904 49.7681 213.587 51.2593 212.19C52.7506 210.793 69.6975 176.828 69.6975 176.828V172.629L47.9069 169.641Z" fill="#263238"/>
<path d="M58.0566 195.31L59.5479 182.155L66.7921 172.181L71.3044 172.922C71.3044 172.922 76.2598 208.959 76.1673 209.978C76.0748 210.997 81.246 239.577 81.246 239.577C81.246 239.577 73.8129 242.865 71.4817 242.529C71.4817 242.529 66.1602 224.028 64.9503 218.057L58.0566 195.31Z" fill="#263238"/>
<path d="M54.0029 180.183C54.0042 181.122 54.1338 182.057 54.3883 182.962C54.3883 182.962 58.7926 180.549 59.6596 178.716L58.5036 176.921L54.0029 180.183Z" fill="#FFBE9D"/>
<path d="M53.3169 183.471C53.3169 183.44 53.8833 183.193 54.7696 182.699C57.088 181.43 59.1169 179.691 60.7269 177.593C61.3434 176.79 61.6786 176.253 61.7056 176.272C61.6525 176.409 61.584 176.538 61.5014 176.658C61.2988 177.006 61.0789 177.344 60.8425 177.67C60.06 178.749 59.1548 179.734 58.1451 180.603C57.1334 181.471 56.0223 182.215 54.8351 182.819C54.3804 183.047 54.0028 183.205 53.7369 183.317C53.6031 183.384 53.4622 183.436 53.3169 183.471Z" fill="#455A64"/>
<path d="M49.6372 177.882C49.8878 178.029 50.1228 178.201 50.3385 178.395C50.7585 178.727 51.3365 179.167 51.9877 179.669C52.639 180.171 53.2401 180.588 53.6755 180.897C53.9231 181.049 54.1542 181.226 54.3652 181.426C54.0923 181.322 53.8334 181.184 53.5946 181.016C53.1399 180.735 52.5195 180.322 51.8644 179.831C51.2094 179.341 50.6429 178.863 50.2422 178.504C50.0158 178.322 49.8126 178.113 49.6372 177.882Z" fill="#455A64"/>
<path d="M48.2114 179.233C49.1264 179.652 50.0133 180.131 50.8664 180.665C51.7523 181.144 52.6058 181.68 53.4211 182.271C52.5048 181.854 51.6177 181.376 50.7662 180.839C49.8796 180.362 49.0261 179.825 48.2114 179.233Z" fill="#455A64"/>
<path d="M66.1986 181.939C66.1815 182.02 66.1569 182.098 66.1254 182.174C66.0637 182.344 65.9867 182.56 65.8865 182.834C65.6745 183.406 65.3509 184.228 64.9231 185.232C64.0793 187.243 62.8269 189.983 61.3819 192.982C59.9369 195.982 58.5844 198.668 57.5941 200.61L56.4073 202.903C56.2724 203.157 56.1645 203.362 56.0759 203.524C56.0421 203.598 55.9994 203.668 55.9487 203.733C55.9731 203.654 56.0041 203.578 56.0412 203.505C56.1183 203.339 56.2185 203.119 56.3379 202.868L57.4669 200.552L61.2047 192.898C62.6458 189.902 63.902 187.173 64.7921 185.178C65.2353 184.182 65.5628 183.371 65.8171 182.811L66.0907 182.163C66.1157 182.083 66.152 182.008 66.1986 181.939Z" fill="#455A64"/>
<path d="M57.6212 121.792C53.2985 122.079 49.0276 122.898 44.9052 124.232C43.8725 124.568 42.7859 125.668 42.0614 126.479C41.1366 127.517 41.0172 129.03 40.9863 130.42C40.944 132.249 41.0172 134.202 42.0614 135.7C43.1057 137.198 45.4716 137.167 46.7818 135.893L58.0412 125.34L57.6212 121.792Z" fill="#6F5FFE"/>
<path d="M48.45 128.169L47.5599 130.366C46.7314 133.068 45.2017 150.797 45.2017 150.797C45.2017 150.797 45.3173 163.785 45.7912 165.557C46.0066 166.515 46.4509 167.407 47.0859 168.155L46.7314 171.548L71.5199 173.845L71.9284 170.803C72.0555 167.549 71.2618 162.133 71.2618 162.133C70.9111 160.45 70.8417 156.66 70.8417 156.66C70.8417 156.66 70.7454 146.871 70.5373 144.161C70.2252 140.193 69.5894 132.242 69.2966 128.578C69.1959 127.314 68.7654 126.099 68.0481 125.054L67.7745 124.668L67.4238 127.065L57.3011 122.796C57.3011 122.796 49.529 127.146 48.45 128.169Z" fill="#6F5FFE"/>
<path d="M48.3695 128.37C43.9189 128.953 42.9131 150.221 42.7629 153.935C42.6126 157.648 49.0284 173.987 49.9223 175.578C50.8163 177.168 51.6063 177.068 51.6063 177.068L52.9935 180.244C56.0761 180.839 58.8428 176.77 58.8428 176.77L52.9935 155.517L56.1108 140.429" fill="#6F5FFE"/>
<path d="M56.1259 140.428C56.1259 140.428 56.1259 140.517 56.0797 140.695C56.0334 140.872 55.9949 141.139 55.9294 141.467C55.7907 142.158 55.5865 143.169 55.3283 144.47C54.7965 147.083 54.0297 150.858 53.0779 155.521V155.486C54.6848 161.303 56.7001 168.61 58.9504 176.716V176.763L58.9273 176.797C58.2411 177.763 57.4061 178.614 56.4535 179.318C55.9604 179.682 55.4146 179.968 54.8351 180.167C54.237 180.366 53.5996 180.417 52.9777 180.314H52.9277L52.9045 180.264L51.5173 177.087L51.6214 177.149C51.2606 177.122 50.922 176.964 50.6696 176.705C50.4124 176.462 50.1883 176.187 50.003 175.886C49.779 175.516 49.5845 175.129 49.4211 174.728C49.24 174.342 49.082 173.956 48.9163 173.547C48.5901 172.755 48.2728 171.967 47.9646 171.185C47.3506 169.613 46.7662 168.06 46.2113 166.526C45.1015 163.457 44.0843 160.477 43.3136 157.575C43.2095 157.212 43.1325 156.845 43.0477 156.486C42.9629 156.127 42.882 155.764 42.8281 155.398L42.7394 154.857C42.7086 154.676 42.7125 154.49 42.6971 154.309C42.6739 153.95 42.6739 153.591 42.6971 153.232C42.7626 151.812 42.8396 150.434 42.9321 149.106C43.1209 146.442 43.356 143.968 43.6334 141.718C44.1921 137.221 44.932 133.612 45.8838 131.234C46.3577 130.057 46.9049 129.2 47.4251 128.775C47.618 128.603 47.8434 128.472 48.0879 128.389C48.171 128.366 48.2562 128.35 48.3422 128.343C48.0098 128.407 47.7016 128.562 47.4521 128.791C46.9396 129.215 46.4078 130.068 45.9493 131.242C45.0245 133.6 44.3077 137.221 43.7683 141.718C43.4985 143.964 43.2712 146.438 43.0939 149.098C43.0015 150.426 42.9257 151.8 42.8666 153.22C42.751 154.637 43.1132 156.058 43.4754 157.505C44.2461 160.396 45.2711 163.376 46.3808 166.441C46.9357 167.985 47.5201 169.535 48.1341 171.092C48.4424 171.864 48.7583 172.659 49.0859 173.451C49.2516 173.837 49.4096 174.223 49.5868 174.628C49.7466 175.028 49.9373 175.415 50.1571 175.786C50.3327 176.07 50.5453 176.33 50.7891 176.558C51.0021 176.773 51.2821 176.91 51.5828 176.944H51.6599L51.6869 177.002C52.1608 178.094 52.6348 179.175 53.0741 180.183L53.0009 180.125C53.5895 180.219 54.1922 180.17 54.758 179.982C55.3195 179.792 55.8475 179.515 56.3224 179.16C57.2577 178.471 58.0772 177.637 58.75 176.689V176.77C56.5151 168.63 54.5114 161.33 52.9238 155.513V155.482C53.8987 150.82 54.6886 147.052 55.2358 144.443C55.5094 143.146 55.7252 142.127 55.8716 141.447C55.9487 141.108 56.0026 140.849 56.045 140.675C56.0874 140.502 56.1259 140.428 56.1259 140.428Z" fill="#263238"/>
<path d="M60.2065 161.408C60.2065 161.369 60.7768 161.327 61.667 161.107C62.1864 160.974 62.6952 160.802 63.189 160.593C63.7914 160.334 64.3714 160.026 64.923 159.671C65.4704 159.306 65.986 158.895 66.4644 158.443C66.8515 158.071 67.2109 157.671 67.5394 157.247C68.0982 156.521 68.3602 156.008 68.3949 156.027C68.3578 156.163 68.3021 156.293 68.2292 156.413C68.1593 156.554 68.0821 156.692 67.998 156.826C67.8978 156.98 67.7938 157.162 67.6512 157.347C67.3336 157.792 66.9792 158.209 66.5915 158.594C66.1175 159.06 65.6015 159.481 65.0502 159.852C64.4899 160.217 63.8964 160.529 63.2777 160.782C62.7722 160.986 62.25 161.145 61.717 161.257C61.4897 161.315 61.2816 161.338 61.1005 161.369C60.9449 161.395 60.7879 161.411 60.6304 161.419C60.4892 161.433 60.3468 161.429 60.2065 161.408Z" fill="#263238"/>
<path d="M56.658 122.985C56.658 123.02 56.0954 123.163 55.2169 123.518C54.7737 123.688 54.2651 123.935 53.7063 124.213C53.1476 124.491 52.5503 124.849 51.9415 125.235C50.8982 125.906 49.8922 126.632 48.9282 127.413L48.0535 128.123C47.95 128.216 47.8378 128.299 47.7183 128.37C47.7995 128.256 47.8939 128.152 47.9996 128.061C48.1922 127.876 48.4735 127.613 48.8357 127.289C49.7771 126.474 50.775 125.727 51.8221 125.054C52.4386 124.668 53.0474 124.325 53.61 124.039C54.1107 123.788 54.6253 123.567 55.1513 123.375C55.3748 123.29 55.5829 123.224 55.764 123.17C55.9451 123.116 56.1031 123.074 56.2341 123.047C56.3716 123.006 56.5144 122.985 56.658 122.985Z" fill="#263238"/>
<path d="M56.0336 122.603C55.8452 122.678 55.6504 122.736 55.4517 122.777C55.0664 122.877 54.5308 123.031 53.8719 123.248C52.1551 123.843 50.4813 124.556 48.8625 125.382C46.959 126.332 45.2597 127.247 43.9919 127.845C43.702 127.986 43.3884 128.073 43.0671 128.1C42.8202 128.111 42.5752 128.051 42.3619 127.926C42.2255 127.85 42.1123 127.738 42.0344 127.602C42.004 127.557 41.9855 127.505 41.9805 127.451C42.0769 127.625 42.2232 127.766 42.4005 127.856C42.6048 127.961 42.8344 128.007 43.0633 127.988C43.3678 127.95 43.663 127.858 43.9341 127.714C45.1749 127.088 46.8665 126.17 48.7739 125.205C50.3962 124.369 52.0845 123.67 53.8218 123.113C54.4922 122.912 55.0433 122.777 55.4247 122.7C55.625 122.652 55.8285 122.62 56.0336 122.603Z" fill="#263238"/>
<g opacity="0.3">
<path d="M46.1305 124.599C44.7317 125.058 43.2713 125.668 42.4544 126.892C42.2858 127.12 42.1712 127.384 42.1191 127.664C42.2333 127.825 42.3898 127.952 42.5713 128.03C42.7528 128.109 42.9523 128.135 43.148 128.107C43.528 128.05 43.8932 127.919 44.2231 127.721L52.1571 123.792C52.7505 123.499 53.34 123.367 53.9335 123.074C51.2861 123.305 48.6706 123.816 46.1305 124.599Z" fill="black"/>
</g>
<path d="M55.864 135.001C55.8294 135.001 55.7484 134.581 55.5481 133.921C55.0259 132.197 54.1013 130.622 52.8507 129.327C52.3691 128.829 52.0377 128.555 52.057 128.532C52.0762 128.509 52.1571 128.578 52.3151 128.694C52.5379 128.857 52.7491 129.035 52.9471 129.227C54.282 130.489 55.2354 132.102 55.6984 133.882C55.7686 134.15 55.8226 134.422 55.8602 134.696C55.8759 134.797 55.8772 134.9 55.864 135.001Z" fill="#263238"/>
<path d="M58.8579 167.41C58.7963 167.391 59.1392 166.294 59.2818 164.897C59.4244 163.5 59.3203 162.357 59.382 162.353C59.4639 162.593 59.5056 162.845 59.5053 163.098C59.5509 163.705 59.5419 164.315 59.4783 164.92C59.4174 165.525 59.3013 166.123 59.1315 166.707C59.0761 166.954 58.9838 167.191 58.8579 167.41Z" fill="#263238"/>
<path d="M71.7438 171.378C71.5516 171.41 71.3567 171.423 71.162 171.417C70.7766 171.417 70.2449 171.436 69.5744 171.417C68.2296 171.417 66.3723 171.336 64.3339 171.15C62.2955 170.965 60.4536 170.699 59.1319 170.467C58.4691 170.351 57.9373 170.247 57.5674 170.166C57.3754 170.132 57.186 170.085 57.001 170.023C57.1967 170.025 57.3917 170.047 57.5828 170.089L59.1511 170.324C60.4805 170.521 62.3147 170.764 64.3493 170.953C66.3838 171.143 68.2373 171.228 69.5744 171.274L71.162 171.324C71.3572 171.324 71.552 171.342 71.7438 171.378Z" fill="#263238"/>
<g opacity="0.3">
<path d="M58.9468 167.784C60.7337 168.857 62.7216 169.55 64.787 169.821C66.8525 170.092 68.9514 169.935 70.9538 169.359C70.5338 170.224 69.4124 170.405 68.4298 170.425C65.9458 170.461 63.4674 170.179 61.0546 169.587C60.5524 169.495 60.0724 169.308 59.6404 169.035C59.4254 168.896 59.2495 168.704 59.1294 168.478C59.0093 168.252 58.9491 167.998 58.9545 167.742" fill="black"/>
</g>
<g opacity="0.3">
<path d="M59.3628 162.57C58.9704 163.216 58.7292 163.944 58.6571 164.697C58.5851 165.45 58.684 166.21 58.9466 166.92C59.4618 165.531 59.6039 164.031 59.3589 162.57" fill="black"/>
</g>
<g opacity="0.3">
<path d="M55.0474 162.747C54.2394 158.914 54.2947 154.949 55.2092 151.14C55.5945 149.596 56.0955 148.083 56.3652 146.508C56.6349 144.933 56.685 142.872 56.0492 141.417C55.2362 145.277 54.427 148.84 53.6101 152.684C53.4097 153.634 53.0205 155.513 53.0205 155.513C53.0205 155.513 54.6389 160.393 54.8316 162.573" fill="black"/>
</g>
<path d="M56.0337 139.815C55.8838 139.87 55.7289 139.91 55.5713 139.934C55.1464 140.025 54.7167 140.09 54.2843 140.131C52.853 140.283 51.408 140.241 49.9878 140.008C49.2051 139.875 48.4326 139.688 47.6758 139.448C47.0615 139.251 46.4604 139.016 45.8763 138.742C45.4805 138.559 45.0946 138.355 44.7203 138.132C44.5832 138.056 44.4541 137.967 44.335 137.865C44.335 137.831 44.9399 138.178 45.9418 138.61C46.5299 138.862 47.1305 139.084 47.7413 139.274C48.4903 139.499 49.252 139.678 50.0225 139.811C51.4238 140.034 52.846 140.095 54.2611 139.992C55.3593 139.907 56.026 139.776 56.0337 139.815Z" fill="white"/>
<path d="M55.7906 141.432C55.6409 141.492 55.4843 141.534 55.3244 141.556C54.8967 141.646 54.4645 141.713 54.0297 141.756C52.5878 141.913 51.1316 141.879 49.6985 141.656C48.9166 141.532 48.1442 141.354 47.3865 141.123C46.7681 140.927 46.162 140.694 45.5716 140.425C45.175 140.244 44.789 140.04 44.4156 139.815C44.2775 139.741 44.1482 139.652 44.0303 139.549C44.0303 139.518 44.6352 139.865 45.6487 140.294C46.2396 140.545 46.8442 140.763 47.4597 140.946C48.2192 141.164 48.9913 141.336 49.7717 141.459C51.1861 141.67 52.6197 141.719 54.0451 141.606C55.1125 141.529 55.7829 141.397 55.7906 141.432Z" fill="white"/>
<path d="M70.2641 141.378C70.0877 141.461 69.9046 141.528 69.7169 141.579C69.3662 141.699 68.846 141.853 68.2025 142.023C66.5183 142.457 64.8039 142.765 63.0737 142.941C61.343 143.117 59.6013 143.16 57.864 143.069C57.1974 143.034 56.6579 142.988 56.288 142.941C56.0942 142.931 55.9018 142.901 55.7139 142.853C55.9075 142.837 56.1021 142.837 56.2957 142.853C56.6811 142.876 57.2051 142.899 57.8679 142.918C59.5977 142.963 61.3286 142.9 63.0506 142.729C64.7728 142.553 66.482 142.267 68.1678 141.872C68.8152 141.722 69.3238 141.59 69.7092 141.486C69.8904 141.433 70.0762 141.397 70.2641 141.378Z" fill="white"/>
<path d="M70.2602 139.56C70.0906 139.63 69.9153 139.686 69.7362 139.726C69.3894 139.823 68.8846 139.942 68.2565 140.073C66.6187 140.415 64.963 140.664 63.2973 140.818C61.6321 140.97 59.9596 141.027 58.2879 140.988C57.6444 140.988 57.1319 140.946 56.7697 140.915C56.583 140.913 56.397 140.891 56.2148 140.849C56.4008 140.834 56.5876 140.834 56.7736 140.849H58.2879C59.5672 140.849 61.3359 140.799 63.2973 140.622C65.2586 140.444 66.9888 140.17 68.2488 139.938L69.7362 139.653C69.9072 139.604 70.0828 139.573 70.2602 139.56Z" fill="white"/>
<path d="M91.4343 211.136C88.5944 210.283 86.1244 208.654 85.8238 205.89C85.5233 203.127 87.1532 200.432 89.3574 198.749C91.5615 197.066 94.2819 196.217 96.9638 195.499C111.495 191.597 126.608 190.504 141.624 189.563C174.516 187.497 208.237 186.146 239.73 195.889C243.888 197.174 248.592 199.309 249.486 203.578C250.442 208.191 246.188 212.31 241.818 214.054C237.449 215.799 233.233 217.239 228.879 218.98C224.96 220.547 216.934 223.592 217.091 227.132C217.144 227.886 217.047 228.642 216.806 229.358C216.564 230.073 216.183 230.734 215.685 231.301C214.325 232.779 211.982 234.454 207.998 235.404C177.942 242.572 149.92 239.797 119.837 232.702C118.057 232.285 116.238 231.764 114.847 230.571C112.766 228.788 114.177 226.244 116.913 226.036C118.839 225.889 120.766 224.65 120.427 222.724C120.353 222.322 120.175 221.947 119.912 221.635C119.648 221.324 119.307 221.087 118.924 220.948C110.643 217.86 99.8924 214.263 91.4305 211.125" fill="#F5F5F5"/>
<path d="M91.4343 211.136L92.3514 211.464L95.0487 212.429C97.407 213.275 100.894 214.498 105.391 216.066L112.863 218.694L117.124 220.238L118.242 220.651L118.808 220.86C119.004 220.925 119.193 221.01 119.371 221.114C119.648 221.28 119.888 221.499 120.078 221.76C120.267 222.021 120.402 222.318 120.474 222.633C120.546 222.947 120.554 223.273 120.497 223.591C120.44 223.908 120.319 224.211 120.142 224.48C119.892 224.847 119.569 225.157 119.194 225.391C118.419 225.854 117.543 226.119 116.643 226.163C116.421 226.194 116.202 226.242 115.988 226.306C115.775 226.376 115.569 226.464 115.371 226.569C114.967 226.776 114.616 227.075 114.346 227.441C114.078 227.815 113.937 228.266 113.942 228.726C113.962 229.192 114.126 229.64 114.412 230.008C114.706 230.384 115.06 230.709 115.46 230.969C115.861 231.242 116.285 231.478 116.728 231.675C117.643 232.066 118.593 232.372 119.564 232.59L125.61 233.957C134.672 235.947 143.832 237.46 153.053 238.488L156.822 238.832C157.453 238.886 158.089 238.952 158.748 238.998L160.675 239.114C161.966 239.187 163.264 239.295 164.574 239.338L168.54 239.461C169.206 239.488 169.873 239.488 170.543 239.484H174.585C175.264 239.484 175.946 239.442 176.632 239.422C177.999 239.368 179.379 239.345 180.762 239.264L184.951 238.967C190.685 238.489 196.39 237.703 202.04 236.612C203.482 236.323 204.923 235.987 206.379 235.674C207.1 235.508 207.836 235.373 208.553 235.176C209.274 234.985 209.984 234.755 210.68 234.486C212.085 233.951 213.396 233.195 214.564 232.247C215.151 231.779 215.67 231.23 216.105 230.618C216.526 229.98 216.808 229.261 216.934 228.506C216.998 228.133 217.027 227.754 217.022 227.375C217.022 227.194 217.022 226.989 217.022 226.793C217.044 226.593 217.085 226.397 217.145 226.206C217.427 225.463 217.886 224.8 218.483 224.276C219.659 223.248 220.965 222.38 222.367 221.693C225.149 220.265 228.097 219.169 231.041 218.011C233.985 216.853 236.994 215.803 239.98 214.653C241.475 214.07 242.99 213.518 244.335 212.638C245.704 211.789 246.907 210.697 247.883 209.415C248.117 209.1 248.333 208.773 248.531 208.434C248.724 208.083 248.894 207.72 249.039 207.346C249.335 206.609 249.494 205.824 249.51 205.03C249.526 203.427 248.965 201.871 247.93 200.649C246.886 199.448 245.611 198.471 244.18 197.777C242.766 197.066 241.292 196.481 239.776 196.028C233.822 194.231 227.777 192.755 221.665 191.605C215.643 190.532 209.678 189.752 203.813 189.204C202.349 189.08 200.888 188.984 199.436 188.872L197.262 188.71L195.101 188.602C193.659 188.536 192.23 188.451 190.808 188.401L186.569 188.285C185.163 188.235 183.768 188.235 182.377 188.223C180.986 188.212 179.61 188.193 178.242 188.204C175.502 188.239 172.797 188.239 170.15 188.324L166.181 188.424L162.278 188.571C159.692 188.656 157.153 188.802 154.656 188.914C149.657 189.172 144.838 189.451 140.198 189.752C135.574 190.045 131.116 190.35 126.881 190.725C119.248 191.333 111.657 192.388 104.146 193.886C100.84 194.577 97.7807 195.31 95.0063 196.136C93.676 196.528 92.3858 197.045 91.153 197.68C90.0398 198.26 89.0284 199.017 88.159 199.923C86.5329 201.649 85.7275 203.783 85.847 205.605C85.8686 206.044 85.9463 206.479 86.0782 206.898C86.2058 207.281 86.3819 207.645 86.6022 207.983C86.9851 208.568 87.4692 209.081 88.0318 209.496C88.7986 210.058 89.6404 210.509 90.5326 210.835C90.8332 210.951 91.0605 211.028 91.2147 211.078L91.4459 211.156L91.2147 211.086C91.0567 211.04 90.8293 210.967 90.5249 210.855C89.6261 210.537 88.7785 210.09 88.0087 209.527C87.4381 209.113 86.9472 208.599 86.5598 208.01C86.3372 207.668 86.1573 207.3 86.0242 206.914C85.8889 206.491 85.8098 206.052 85.7892 205.609C85.6582 203.764 86.4635 201.614 88.1012 199.869C88.9743 198.955 89.9909 198.191 91.1106 197.607C92.342 196.963 93.6324 196.44 94.964 196.044C97.7384 195.21 100.802 194.473 104.112 193.778C111.621 192.268 119.212 191.2 126.846 190.582C131.085 190.196 135.536 189.895 140.171 189.598C144.807 189.3 149.631 189.011 154.625 188.748C157.126 188.636 159.665 188.486 162.251 188.401L166.158 188.25L170.123 188.146C172.79 188.061 175.495 188.057 178.215 188.023C179.587 188.023 180.966 188.023 182.358 188.023C183.749 188.023 185.144 188.023 186.55 188.084L190.789 188.196C192.211 188.25 193.644 188.332 195.081 188.401L197.247 188.505L199.42 188.663C200.873 188.775 202.337 188.872 203.805 188.999C209.674 189.544 215.643 190.323 221.677 191.396C227.801 192.547 233.859 194.023 239.826 195.82C241.363 196.277 242.857 196.867 244.292 197.584C245.746 198.29 247.043 199.284 248.103 200.506C249.169 201.765 249.746 203.367 249.729 205.018C249.717 205.842 249.552 206.656 249.244 207.419C249.098 207.803 248.925 208.175 248.727 208.535C248.52 208.888 248.293 209.229 248.049 209.558C247.056 210.858 245.835 211.968 244.446 212.831C243.057 213.66 241.585 214.341 240.054 214.861C237.059 216.019 234.062 217.089 231.11 218.219C228.158 219.35 225.222 220.478 222.459 221.894C221.067 222.568 219.771 223.426 218.606 224.446C218.035 224.943 217.594 225.572 217.323 226.279C217.265 226.455 217.227 226.636 217.207 226.82C217.207 227.001 217.207 227.186 217.207 227.387C217.212 227.775 217.182 228.162 217.118 228.545C216.99 229.316 216.704 230.052 216.278 230.707C215.832 231.336 215.299 231.899 214.695 232.378C213.515 233.34 212.19 234.108 210.768 234.652C210.064 234.923 209.347 235.156 208.618 235.35C207.894 235.547 207.161 235.682 206.437 235.848C204.98 236.161 203.535 236.497 202.094 236.786C196.426 237.881 190.703 238.671 184.951 239.152L180.766 239.442C179.379 239.523 177.999 239.546 176.628 239.6C175.942 239.619 175.26 239.654 174.582 239.662H170.532C169.857 239.662 169.191 239.662 168.524 239.635L164.555 239.511C163.241 239.469 161.943 239.357 160.652 239.287L158.725 239.168C158.085 239.121 157.45 239.052 156.798 238.998L153.03 238.654C143.816 237.619 134.663 236.097 125.61 234.096L119.533 232.71C118.553 232.49 117.596 232.18 116.674 231.784C116.223 231.583 115.791 231.342 115.383 231.066C114.973 230.795 114.61 230.46 114.308 230.074C114.009 229.681 113.837 229.207 113.814 228.715C113.811 228.229 113.962 227.754 114.246 227.36C114.527 226.978 114.892 226.666 115.313 226.449C115.518 226.34 115.732 226.25 115.953 226.179C116.173 226.113 116.397 226.064 116.624 226.032C117.508 225.995 118.37 225.739 119.132 225.287C119.494 225.062 119.805 224.764 120.045 224.411C120.28 224.069 120.414 223.668 120.431 223.253C120.451 222.844 120.358 222.438 120.163 222.079C119.968 221.719 119.678 221.42 119.325 221.215C118.967 221.035 118.596 220.882 118.215 220.759L117.101 220.342L112.843 218.798L105.349 216.154C100.86 214.576 97.3761 213.34 95.0179 212.484L92.3437 211.499L91.4343 211.136Z" fill="#263238"/>
<path d="M117.953 229.008C119.88 228.861 121.806 227.622 121.467 225.696C121.344 224.982 121.19 222.647 120.311 222.095C121.043 225.098 118.342 225.862 116.92 225.955C114.185 226.163 112.774 228.707 114.859 230.49C114.944 230.565 115.028 230.634 115.113 230.699C115.526 229.815 116.57 229.112 117.953 229.008Z" fill="#455A64"/>
<path d="M90.394 201.71C92.6019 200.023 95.3185 199.178 97.9966 198.46C112.528 194.557 127.644 193.465 142.657 192.523C175.553 190.454 209.273 189.107 240.763 198.846C244.103 199.88 247.799 201.463 249.583 204.25C249.564 203.99 249.528 203.732 249.475 203.478C248.589 199.209 243.876 197.074 239.718 195.789C208.225 186.046 174.508 187.397 141.612 189.462C126.584 190.404 111.483 191.496 96.9523 195.399C94.2743 196.121 91.5577 196.966 89.3497 198.649C87.1417 200.332 85.4964 203.03 85.8162 205.794C85.9097 206.697 86.2601 207.555 86.8258 208.264C86.7872 205.732 88.3401 203.277 90.394 201.71Z" fill="#455A64"/>
<path d="M123.56 208.809L129.945 201.336H141.439L146.818 199.919L155.893 202.467L160.798 206.655L160.193 208.137L159.126 208.488L162.008 213.591L158.112 215.61L148.849 216.316L140.029 214.668L138.214 212.985L139.089 212.31L129.474 211.974L123.56 208.809Z" fill="#EBEBEB"/>
<path d="M123.559 208.82L123.667 208.87L123.968 209.029L125.124 209.635L129.497 211.951H129.474L139.088 212.263H139.296L139.131 212.395L138.256 213.066V212.95L140.075 214.63L140.032 214.61L148.857 216.251H148.83L158.078 215.537H158.039L161.939 213.514L161.896 213.653L159.738 209.835L159.014 208.55L158.952 208.446L159.068 208.407L160.135 208.056L160.074 208.114L160.679 206.632L160.709 206.744L155.804 202.555L155.839 202.579L146.803 200.008H146.849L141.454 201.417H141.431L129.937 201.394L129.983 201.374L125.263 206.844L123.999 208.303L123.671 208.689L123.552 208.816L123.652 208.689L123.964 208.303L125.197 206.84L129.89 201.289L129.91 201.27H129.937L141.431 201.247H141.408L146.803 199.826H146.826H146.849L155.927 202.366C157.525 203.725 159.162 205.12 160.837 206.551L160.894 206.597L160.864 206.666C160.663 207.157 160.478 207.651 160.259 208.145V208.187H160.216L159.145 208.538L159.203 208.396L159.927 209.677C160.667 210.986 161.399 212.279 162.085 213.499L162.135 213.587L162.043 213.637L158.143 215.656H158.124L148.876 216.359H148.853L140.032 214.695H140.009C139.374 214.108 138.757 213.537 138.194 213.008L138.129 212.947L138.202 212.889C138.507 212.657 138.811 212.425 139.077 212.217L139.119 212.356L129.463 212.024L125.089 209.65L123.953 209.025L123.664 208.867L123.559 208.82Z" fill="#263238"/>
<path d="M132.283 205.346C131.391 204.073 130.608 202.726 129.944 201.32C130.421 201.934 130.842 202.591 131.201 203.281C131.622 203.935 131.985 204.627 132.283 205.346Z" fill="#263238"/>
<path d="M132.233 205.385C131.874 206.503 131.452 207.599 130.969 208.67C130.545 209.766 130.062 210.838 129.521 211.881C129.878 210.761 130.3 209.663 130.784 208.592C131.207 207.497 131.691 206.426 132.233 205.385Z" fill="#263238"/>
<path d="M145.57 205.778C145.57 205.836 142.583 205.778 138.907 205.663C135.231 205.547 132.249 205.4 132.252 205.346C132.256 205.292 135.235 205.346 138.915 205.462C142.595 205.578 145.573 205.732 145.57 205.778Z" fill="#263238"/>
<path d="M159.133 208.488C159.076 208.47 159.021 208.447 158.968 208.419L158.498 208.195L156.748 207.319H156.779C154.752 207.376 151.65 207.446 148.182 207.508L145.211 207.554L145.269 207.535L140.587 211.186L139.216 212.236L138.83 212.51C138.79 212.545 138.744 212.574 138.695 212.595C138.695 212.595 138.73 212.553 138.811 212.483L139.162 212.186L140.499 211.09L145.123 207.384L145.146 207.361H145.18L148.151 207.307C151.619 207.245 154.725 207.203 156.748 207.191H156.767L158.49 208.118L158.945 208.372C159.079 208.434 159.133 208.48 159.133 208.488Z" fill="#263238"/>
<path d="M156.571 212.232C156.365 212.299 156.154 212.347 155.939 212.375L154.205 212.699C152.737 212.966 150.71 213.329 148.464 213.684C146.217 214.039 144.171 214.305 142.684 214.456C141.944 214.533 141.343 214.583 140.927 214.606C140.71 214.629 140.493 214.637 140.275 214.629C140.486 214.577 140.702 214.543 140.919 214.529L142.668 214.317C144.148 214.132 146.183 213.846 148.448 213.491L154.197 212.564L155.943 212.302C156.15 212.262 156.36 212.239 156.571 212.232Z" fill="#263238"/>
<path d="M156.671 207.697C156.753 208.45 156.77 209.21 156.721 209.966C156.737 210.725 156.687 211.483 156.571 212.232C156.489 211.479 156.472 210.719 156.521 209.963C156.502 209.204 156.553 208.446 156.671 207.697Z" fill="#263238"/>
<path d="M158.113 215.61C158.051 215.645 157.631 214.9 157.203 213.954C156.983 213.483 156.787 213.059 156.629 212.757C156.531 212.602 156.449 212.436 156.386 212.263C156.405 212.244 156.567 212.395 156.752 212.688C156.991 213.066 157.202 213.461 157.384 213.869C157.667 214.432 157.91 215.013 158.113 215.61Z" fill="#263238"/>
<path d="M155.893 202.467C155.773 202.543 155.643 202.604 155.508 202.648C155.253 202.752 154.883 202.895 154.421 203.061C153.5 203.405 152.221 203.833 150.795 204.312C149.369 204.79 148.071 205.157 147.123 205.416C146.649 205.543 146.263 205.643 145.998 205.705C145.86 205.749 145.718 205.774 145.574 205.778C145.696 205.714 145.826 205.664 145.959 205.628L147.069 205.28L150.718 204.122L154.359 202.934L155.465 202.578C155.603 202.525 155.747 202.488 155.893 202.467Z" fill="#263238"/>
<path d="M146.394 207.446C146.344 207.469 146.117 207.118 145.894 206.674C145.726 206.408 145.615 206.109 145.57 205.798C145.62 205.771 145.843 206.126 146.071 206.57C146.237 206.837 146.347 207.135 146.394 207.446Z" fill="#263238"/>
<path d="M220.07 202.366C219.55 201.872 218.942 201.48 218.278 201.208C212.702 198.68 205.801 199.278 200.819 202.872C200.638 202.999 200.498 203.176 200.418 203.382C200.338 203.588 200.32 203.814 200.368 204.03C200.53 204.682 201.247 204.767 201.836 204.771C204.194 204.771 206.992 204.81 209.312 204.385L206.31 206.577C206.22 206.642 206.153 206.733 206.116 206.837C206.079 206.942 206.074 207.055 206.103 207.161C206.131 207.268 206.191 207.364 206.275 207.436C206.358 207.508 206.462 207.554 206.572 207.566C210.291 207.948 214.047 207.678 217.673 206.767C218.371 206.621 219.039 206.361 219.65 205.995C219.953 205.81 220.212 205.562 220.412 205.269C220.611 204.975 220.745 204.642 220.806 204.292C220.83 203.937 220.776 203.581 220.649 203.248C220.522 202.916 220.325 202.615 220.07 202.366Z" fill="#455A64"/>
<path d="M91.4343 211.136L92.3514 211.464L95.0487 212.429C97.407 213.275 100.894 214.498 105.391 216.066L112.863 218.694L117.124 220.238L118.242 220.651L118.808 220.86C119.004 220.925 119.193 221.01 119.371 221.114C119.648 221.28 119.888 221.499 120.078 221.76C120.267 222.021 120.402 222.318 120.474 222.633C120.546 222.947 120.554 223.273 120.497 223.591C120.44 223.908 120.319 224.211 120.142 224.48C119.892 224.847 119.569 225.157 119.194 225.391C118.419 225.854 117.543 226.119 116.643 226.163C116.421 226.194 116.202 226.242 115.988 226.306C115.775 226.376 115.569 226.464 115.371 226.569C114.967 226.776 114.616 227.075 114.346 227.441C114.078 227.815 113.937 228.266 113.942 228.726C113.962 229.192 114.126 229.64 114.412 230.008C114.706 230.384 115.06 230.709 115.46 230.969C115.861 231.242 116.285 231.478 116.728 231.675C117.643 232.066 118.593 232.372 119.564 232.59L125.61 233.957C134.672 235.947 143.832 237.46 153.053 238.488L156.822 238.832C157.453 238.886 158.089 238.952 158.748 238.998L160.675 239.114C161.966 239.187 163.264 239.295 164.574 239.338L168.54 239.461C169.206 239.488 169.873 239.488 170.543 239.484H174.585C175.264 239.484 175.946 239.442 176.632 239.422C177.999 239.368 179.379 239.345 180.762 239.264L184.951 238.967C190.685 238.489 196.39 237.703 202.04 236.612C203.482 236.323 204.923 235.987 206.379 235.674C207.1 235.508 207.836 235.373 208.553 235.176C209.274 234.985 209.984 234.755 210.68 234.486C212.085 233.951 213.396 233.195 214.564 232.247C215.151 231.779 215.67 231.23 216.105 230.618C216.526 229.98 216.808 229.261 216.934 228.506C216.998 228.133 217.027 227.754 217.022 227.375C217.022 227.194 217.022 226.989 217.022 226.793C217.044 226.593 217.085 226.397 217.145 226.206C217.427 225.463 217.886 224.8 218.483 224.276C219.659 223.248 220.965 222.38 222.367 221.693C225.149 220.265 228.097 219.169 231.041 218.011C233.985 216.853 236.994 215.803 239.98 214.653C241.475 214.07 242.99 213.518 244.335 212.638C245.704 211.789 246.907 210.697 247.883 209.415C248.117 209.1 248.333 208.773 248.531 208.434C248.724 208.083 248.894 207.72 249.039 207.346C249.335 206.609 249.494 205.824 249.51 205.03C249.526 203.427 248.965 201.871 247.93 200.649C246.886 199.448 245.611 198.471 244.18 197.777C242.766 197.066 241.292 196.481 239.776 196.028C233.822 194.231 227.777 192.755 221.665 191.605C215.643 190.532 209.678 189.752 203.813 189.204C202.349 189.08 200.888 188.984 199.436 188.872L197.262 188.71L195.101 188.602C193.659 188.536 192.23 188.451 190.808 188.401L186.569 188.285C185.163 188.235 183.768 188.235 182.377 188.223C180.986 188.212 179.61 188.193 178.242 188.204C175.502 188.239 172.797 188.239 170.15 188.324L166.181 188.424L162.278 188.571C159.692 188.656 157.153 188.802 154.656 188.914C149.657 189.172 144.838 189.451 140.198 189.752C135.574 190.045 131.116 190.35 126.881 190.725C119.248 191.333 111.657 192.388 104.146 193.886C100.84 194.577 97.7807 195.31 95.0063 196.136C93.676 196.528 92.3858 197.045 91.153 197.68C90.0398 198.26 89.0284 199.017 88.159 199.923C86.5329 201.649 85.7275 203.783 85.847 205.605C85.8686 206.044 85.9463 206.479 86.0782 206.898C86.2058 207.281 86.3819 207.645 86.6022 207.983C86.9851 208.568 87.4692 209.081 88.0318 209.496C88.7986 210.058 89.6404 210.509 90.5326 210.835C90.8332 210.951 91.0605 211.028 91.2147 211.078L91.4459 211.156L91.2147 211.086C91.0567 211.04 90.8293 210.967 90.5249 210.855C89.6261 210.537 88.7785 210.09 88.0087 209.527C87.4381 209.113 86.9472 208.599 86.5598 208.01C86.3372 207.668 86.1573 207.3 86.0242 206.914C85.8889 206.491 85.8098 206.052 85.7892 205.609C85.6582 203.764 86.4635 201.614 88.1012 199.869C88.9743 198.955 89.9909 198.191 91.1106 197.607C92.342 196.963 93.6324 196.44 94.964 196.044C97.7384 195.21 100.802 194.473 104.112 193.778C111.621 192.268 119.212 191.2 126.846 190.582C131.085 190.196 135.536 189.895 140.171 189.598C144.807 189.3 149.631 189.011 154.625 188.748C157.126 188.636 159.665 188.486 162.251 188.401L166.158 188.25L170.123 188.146C172.79 188.061 175.495 188.057 178.215 188.023C179.587 188.023 180.966 188.023 182.358 188.023C183.749 188.023 185.144 188.023 186.55 188.084L190.789 188.196C192.211 188.25 193.644 188.332 195.081 188.401L197.247 188.505L199.42 188.663C200.873 188.775 202.337 188.872 203.805 188.999C209.674 189.544 215.643 190.323 221.677 191.396C227.801 192.547 233.859 194.023 239.826 195.82C241.363 196.277 242.857 196.867 244.292 197.584C245.746 198.29 247.043 199.284 248.103 200.506C249.169 201.765 249.746 203.367 249.729 205.018C249.717 205.842 249.552 206.656 249.244 207.419C249.098 207.803 248.925 208.175 248.727 208.535C248.52 208.888 248.293 209.229 248.049 209.558C247.056 210.858 245.835 211.968 244.446 212.831C243.057 213.66 241.585 214.341 240.054 214.861C237.059 216.019 234.062 217.089 231.11 218.219C228.158 219.35 225.222 220.478 222.459 221.894C221.067 222.568 219.771 223.426 218.606 224.446C218.035 224.943 217.594 225.572 217.323 226.279C217.265 226.455 217.227 226.636 217.207 226.82C217.207 227.001 217.207 227.186 217.207 227.387C217.212 227.775 217.182 228.162 217.118 228.545C216.99 229.316 216.704 230.052 216.278 230.707C215.832 231.336 215.299 231.899 214.695 232.378C213.515 233.34 212.19 234.108 210.768 234.652C210.064 234.923 209.347 235.156 208.618 235.35C207.894 235.547 207.161 235.682 206.437 235.848C204.98 236.161 203.535 236.497 202.094 236.786C196.426 237.881 190.703 238.671 184.951 239.152L180.766 239.442C179.379 239.523 177.999 239.546 176.628 239.6C175.942 239.619 175.26 239.654 174.582 239.662H170.532C169.857 239.662 169.191 239.662 168.524 239.635L164.555 239.511C163.241 239.469 161.943 239.357 160.652 239.287L158.725 239.168C158.085 239.121 157.45 239.052 156.798 238.998L153.03 238.654C143.816 237.619 134.663 236.097 125.61 234.096L119.533 232.71C118.553 232.49 117.596 232.18 116.674 231.784C116.223 231.583 115.791 231.342 115.383 231.066C114.973 230.795 114.61 230.46 114.308 230.074C114.009 229.681 113.837 229.207 113.814 228.715C113.811 228.229 113.962 227.754 114.246 227.36C114.527 226.978 114.892 226.666 115.313 226.449C115.518 226.34 115.732 226.25 115.953 226.179C116.173 226.113 116.397 226.064 116.624 226.032C117.508 225.995 118.37 225.739 119.132 225.287C119.494 225.062 119.805 224.764 120.045 224.411C120.28 224.069 120.414 223.668 120.431 223.253C120.451 222.844 120.358 222.438 120.163 222.079C119.968 221.719 119.678 221.42 119.325 221.215C118.967 221.035 118.596 220.882 118.215 220.759L117.101 220.342L112.843 218.798L105.349 216.154C100.86 214.576 97.3761 213.34 95.0179 212.484L92.3437 211.499L91.4343 211.136Z" fill="#263238"/>
<path d="M193.548 205.666C193.915 205.611 194.291 205.646 194.642 205.767C194.818 205.816 194.997 205.85 195.178 205.871C195.398 205.893 195.613 205.948 195.817 206.033C196.052 206.142 196.239 206.331 196.345 206.566C196.412 206.692 196.446 206.833 196.442 206.976C196.439 207.118 196.399 207.258 196.326 207.38C196.245 207.498 196.138 207.594 196.013 207.661C195.887 207.728 195.748 207.764 195.606 207.766C195.349 207.772 195.097 207.693 194.889 207.542C194.576 207.283 194.315 206.967 194.118 206.612C193.902 206.315 193.713 206 193.552 205.67C193.807 205.932 194.036 206.219 194.234 206.527C194.439 206.857 194.7 207.148 195.004 207.388C195.18 207.511 195.391 207.575 195.606 207.569C195.716 207.568 195.824 207.541 195.922 207.49C196.02 207.439 196.104 207.366 196.168 207.276C196.221 207.18 196.249 207.073 196.249 206.963C196.249 206.854 196.221 206.746 196.168 206.651C196.08 206.456 195.928 206.298 195.737 206.203C195.351 206.033 194.927 206.033 194.608 205.91C194.26 205.806 193.906 205.725 193.548 205.666Z" fill="#263238"/>
<path d="M193.293 206.759C193.293 206.736 193.548 206.867 193.817 207.195C193.997 207.369 194.163 207.556 194.315 207.755C194.395 207.902 194.421 208.073 194.388 208.237C194.374 208.331 194.336 208.419 194.278 208.494C194.22 208.568 194.144 208.626 194.056 208.662C193.972 208.685 193.884 208.691 193.797 208.68C193.71 208.669 193.626 208.641 193.55 208.597C193.474 208.553 193.407 208.495 193.354 208.425C193.301 208.355 193.262 208.276 193.239 208.191C193.177 207.939 193.164 207.676 193.201 207.419C193.199 207.19 193.23 206.963 193.293 206.743C193.344 206.965 193.361 207.192 193.343 207.419C193.329 207.653 193.354 207.888 193.417 208.114C193.456 208.232 193.533 208.334 193.636 208.403C193.686 208.44 193.744 208.465 193.805 208.475C193.866 208.485 193.928 208.48 193.987 208.461C194.092 208.397 194.167 208.295 194.197 208.176C194.227 208.057 194.21 207.931 194.149 207.824C194.037 207.616 193.817 207.438 193.71 207.268C193.475 206.944 193.278 206.782 193.293 206.759Z" fill="#263238"/>
<path d="M134.337 215.402C134.267 215.411 134.196 215.411 134.125 215.402L133.513 215.367C132.985 215.32 132.222 215.239 131.285 215.073C128.845 214.643 126.476 213.873 124.249 212.784C123.022 212.188 121.842 211.499 120.72 210.723C120.211 210.376 119.679 209.978 119.521 209.38C119.451 209.095 119.495 208.795 119.644 208.542C119.785 208.323 119.972 208.138 120.192 207.998C120.562 207.774 120.965 207.608 121.386 207.508C121.693 207.423 121.99 207.307 122.272 207.16C122.511 207.03 122.718 206.849 122.881 206.632C122.858 206.7 122.822 206.764 122.777 206.821C122.65 206.984 122.493 207.122 122.315 207.226C122.032 207.387 121.732 207.517 121.421 207.612C121.012 207.721 120.622 207.891 120.265 208.118C120.065 208.246 119.896 208.417 119.772 208.62C119.645 208.838 119.611 209.097 119.675 209.341C119.81 209.851 120.307 210.233 120.831 210.573C123.999 212.718 127.567 214.202 131.32 214.934C132.245 215.12 133.004 215.22 133.528 215.286L134.133 215.359C134.203 215.365 134.271 215.379 134.337 215.402Z" fill="#263238"/>
<path d="M129.825 216.876C129.635 216.879 129.445 216.863 129.259 216.83C128.896 216.787 128.372 216.695 127.717 216.552C126.97 216.382 126.233 216.169 125.509 215.915C123.736 215.285 122.058 214.412 120.523 213.321C119.898 212.875 119.3 212.393 118.731 211.877C118.345 211.534 117.978 211.17 117.629 210.789C117.492 210.657 117.369 210.511 117.263 210.353C117.415 210.467 117.556 210.597 117.683 210.739C117.941 210.993 118.331 211.352 118.839 211.777C119.418 212.273 120.021 212.739 120.646 213.174C122.184 214.239 123.852 215.102 125.61 215.741C126.415 216.031 127.151 216.258 127.787 216.417C128.422 216.575 128.943 216.687 129.289 216.752C129.471 216.779 129.65 216.82 129.825 216.876Z" fill="#263238"/>
<path d="M157.207 218.821C157.364 218.742 157.527 218.679 157.696 218.632C158.012 218.524 158.467 218.35 159.014 218.107C160.44 217.472 161.758 216.617 162.922 215.575C163.251 215.285 163.535 214.949 163.765 214.575C163.979 214.226 164.099 213.827 164.112 213.417C164.102 212.721 163.872 212.046 163.457 211.487C163.181 211.104 162.874 210.744 162.54 210.41C162.413 210.292 162.295 210.163 162.189 210.024C162.338 210.123 162.476 210.237 162.602 210.364C162.961 210.683 163.289 211.036 163.58 211.418C164.033 211.99 164.286 212.695 164.301 213.425C164.293 213.861 164.169 214.288 163.943 214.66C163.705 215.051 163.41 215.403 163.068 215.706C161.891 216.766 160.542 217.617 159.08 218.223C158.639 218.407 158.187 218.564 157.727 218.694C157.559 218.755 157.384 218.798 157.207 218.821Z" fill="#263238"/>
<path d="M164.251 216.791C164.251 216.76 164.513 216.613 164.871 216.274C165.338 215.829 165.681 215.27 165.866 214.653C166.034 214.029 166.034 213.373 165.866 212.75C165.742 212.271 165.584 211.997 165.615 211.978C165.799 212.187 165.931 212.437 166 212.707C166.215 213.353 166.23 214.049 166.043 214.703C165.856 215.357 165.476 215.94 164.952 216.374C164.755 216.567 164.515 216.71 164.251 216.791Z" fill="#263238"/>
<path d="M220.355 203.802C220.355 203.802 220.355 203.848 220.301 203.933C220.244 204.059 220.173 204.178 220.089 204.288C219.779 204.697 219.384 205.035 218.933 205.28C218.272 205.639 217.565 205.909 216.833 206.083C216.02 206.296 215.115 206.492 214.155 206.643C212.516 206.908 210.856 207.025 209.196 206.99C208.56 206.99 208.04 206.94 207.693 206.909C207.509 206.899 207.326 206.873 207.146 206.832C207.329 206.813 207.514 206.813 207.697 206.832C208.052 206.832 208.564 206.855 209.2 206.851C210.849 206.85 212.495 206.721 214.124 206.465C215.076 206.315 215.978 206.126 216.791 205.921C217.51 205.752 218.205 205.494 218.86 205.153C219.299 204.923 219.691 204.613 220.016 204.238C220.251 203.964 220.34 203.802 220.355 203.802Z" fill="#263238"/>
<path d="M187.602 210.519C187.602 210.519 187.64 210.519 187.71 210.557C187.805 210.612 187.89 210.684 187.96 210.769C188.086 210.931 188.17 211.121 188.208 211.322C188.245 211.524 188.235 211.731 188.176 211.927C188.073 212.218 187.884 212.47 187.634 212.651C187.384 212.831 187.085 212.93 186.777 212.935C186.405 212.946 186.035 212.867 185.7 212.705C185.364 212.542 185.073 212.301 184.851 212.001C184.747 211.879 184.652 211.75 184.565 211.615L184.215 211.063L184.716 211.48C185.234 211.923 185.597 212.521 185.752 213.186C185.884 213.714 185.884 214.267 185.752 214.795C185.676 215.149 185.532 215.484 185.328 215.784C185.26 215.896 185.174 215.996 185.074 216.081C185.331 215.678 185.516 215.234 185.621 214.768C185.722 214.256 185.703 213.728 185.567 213.224C185.412 212.603 185.065 212.047 184.577 211.634L184.723 211.503C184.805 211.628 184.894 211.748 184.989 211.862C185.193 212.136 185.458 212.358 185.764 212.511C186.069 212.664 186.405 212.743 186.746 212.742C187.019 212.747 187.287 212.67 187.517 212.521C187.746 212.373 187.926 212.159 188.033 211.908C188.091 211.73 188.109 211.541 188.084 211.355C188.059 211.17 187.993 210.992 187.891 210.835C187.745 210.596 187.59 210.538 187.602 210.519Z" fill="#263238"/>
<path d="M192.496 214.61C192.226 214.613 191.96 214.545 191.725 214.413C191.465 214.293 191.225 214.135 191.012 213.942C190.753 213.704 190.528 213.43 190.346 213.128C190.169 212.822 190.039 212.492 189.96 212.148C189.897 211.868 189.875 211.58 189.895 211.294C189.892 211.024 189.959 210.758 190.091 210.522C190.126 210.522 190.037 210.816 190.037 211.294C190.038 211.566 190.072 211.837 190.137 212.101C190.226 212.424 190.356 212.734 190.523 213.024C190.696 213.306 190.903 213.565 191.139 213.796C191.339 213.981 191.559 214.143 191.794 214.278C192.214 214.521 192.503 214.583 192.496 214.61Z" fill="#263238"/>
<path d="M197.143 235.153C197.043 235.184 196.941 235.21 196.838 235.23L195.952 235.419C195.181 235.582 194.064 235.786 192.677 236.01C191.289 236.234 189.633 236.466 187.787 236.674C185.941 236.882 183.903 237.06 181.76 237.153C179.618 237.245 177.575 237.284 175.714 237.268C173.853 237.253 172.185 237.18 170.782 237.087C169.379 236.994 168.247 236.906 167.464 236.817L166.567 236.716C166.461 236.711 166.357 236.695 166.254 236.67C166.36 236.661 166.465 236.661 166.57 236.67L167.472 236.732C168.243 236.794 169.399 236.867 170.79 236.936C172.181 237.006 173.872 237.06 175.718 237.075C177.564 237.091 179.61 237.048 181.753 236.944C183.895 236.84 185.922 236.67 187.768 236.481C189.613 236.292 191.27 236.072 192.657 235.863C194.045 235.655 195.166 235.477 195.937 235.335L196.831 235.184C196.933 235.163 197.038 235.152 197.143 235.153Z" fill="#263238"/>
<path d="M192.95 234.748C192.95 234.806 191.112 235.026 188.835 235.246C186.558 235.466 184.704 235.597 184.7 235.543C184.696 235.489 186.538 235.265 188.816 235.045C191.093 234.825 192.946 234.682 192.95 234.748Z" fill="#263238"/>
<path d="M216.163 208.82C216.022 208.897 215.872 208.957 215.716 208.998C215.427 209.098 214.995 209.225 214.464 209.364C211.665 210.074 208.757 210.246 205.894 209.87C205.347 209.797 204.907 209.719 204.603 209.654C204.444 209.632 204.289 209.59 204.141 209.53C204.296 209.536 204.451 209.557 204.603 209.592C204.907 209.635 205.347 209.689 205.894 209.746C207.316 209.889 208.748 209.92 210.175 209.839C211.601 209.753 213.019 209.553 214.414 209.241C214.949 209.121 215.381 209.017 215.678 208.936C215.835 208.88 215.998 208.842 216.163 208.82Z" fill="#263238"/>
<path d="M219.924 208.82C219.68 209.026 219.411 209.2 219.122 209.337C218.451 209.711 217.756 210.04 217.042 210.322C216.329 210.606 215.597 210.842 214.853 211.028C214.549 211.123 214.234 211.181 213.917 211.202C214.205 211.07 214.506 210.966 214.814 210.893C215.373 210.719 216.14 210.464 216.968 210.121C217.797 209.777 218.533 209.453 219.057 209.198C219.334 209.047 219.624 208.92 219.924 208.82Z" fill="#263238"/>
<path d="M221.461 209.943C220.776 210.893 219.792 211.585 218.668 211.908C218.644 211.854 219.346 211.541 220.116 211.001C220.887 210.461 221.419 209.905 221.461 209.943Z" fill="#263238"/>
<path d="M121.81 215.676C121.508 215.68 121.207 215.639 120.916 215.556C120.207 215.384 119.523 215.125 118.878 214.784C118.233 214.447 117.633 214.029 117.094 213.541C116.857 213.354 116.652 213.131 116.485 212.881C117.26 213.53 118.094 214.106 118.974 214.602C119.885 215.045 120.835 215.404 121.81 215.676Z" fill="#263238"/>
<path d="M163.781 226.275C160.848 224.561 157.561 226.402 154.386 226.206C152.259 226.074 150.309 225.048 148.275 224.399C143.604 222.932 138.333 223.774 134.21 226.391C133.774 226.669 133.429 227.069 133.219 227.542C133.01 228.016 132.944 228.54 133.031 229.051C133.118 229.561 133.353 230.035 133.708 230.412C134.062 230.788 134.52 231.052 135.023 231.169C143.674 233.2 152.926 233.416 161.48 231.335C163.183 230.919 165.233 229.996 165.025 228.112C164.973 227.731 164.834 227.366 164.618 227.048C164.402 226.729 164.115 226.464 163.781 226.275Z" fill="white"/>
<path d="M178.142 227.599C177.971 227.213 177.689 226.888 177.332 226.664C176.975 226.441 176.559 226.329 176.138 226.345C175.189 226.213 174.223 226.396 173.387 226.866C172.759 227.252 172.285 227.819 172.327 228.433C172.385 229.34 173.557 230.012 174.72 230.124C175.624 230.228 176.537 230.022 177.31 229.541C177.639 229.35 177.897 229.058 178.047 228.708C178.197 228.358 178.23 227.969 178.142 227.599Z" fill="white"/>
<path d="M218.178 202.235C217.964 202.164 217.755 202.078 217.554 201.976C217.316 201.863 217.073 201.762 216.825 201.675C216.536 201.571 216.213 201.428 215.839 201.328L215.261 201.146C215.057 201.089 214.841 201.046 214.621 200.988C214.182 200.869 213.7 200.799 213.199 200.71C211 200.388 208.759 200.5 206.603 201.042C206.113 201.181 205.639 201.297 205.215 201.459C205.003 201.536 204.791 201.602 204.595 201.683L204.036 201.918C203.674 202.057 203.37 202.231 203.092 202.362C202.854 202.479 202.623 202.608 202.399 202.748C202.208 202.87 202.008 202.977 201.801 203.069C201.976 202.926 202.161 202.797 202.356 202.683C202.581 202.525 202.817 202.383 203.061 202.258C203.365 202.083 203.678 201.923 203.998 201.779C204.179 201.702 204.383 201.617 204.556 201.529C204.73 201.44 204.965 201.378 205.181 201.297C205.608 201.127 206.082 201 206.579 200.857C207.665 200.579 208.775 200.407 209.893 200.344C211.014 200.296 212.136 200.355 213.246 200.521C213.754 200.614 214.24 200.691 214.679 200.818C214.903 200.88 215.118 200.926 215.323 200.992L215.904 201.185C216.29 201.297 216.598 201.448 216.887 201.571C217.134 201.667 217.375 201.78 217.608 201.907C217.805 202.002 217.996 202.112 218.178 202.235Z" fill="white"/>
<path d="M182.824 195.557C184.909 195.748 186.897 196.524 188.561 197.796C187.845 198.594 186.964 199.226 185.98 199.649" fill="#6F5FFE"/>
<path d="M178.319 200.471C178.392 201.596 178.752 202.683 179.364 203.628C179.473 203.83 179.641 203.993 179.845 204.095C179.975 204.138 180.114 204.148 180.248 204.124C180.383 204.1 180.509 204.042 180.616 203.957C180.825 203.786 181.004 203.583 181.148 203.354" fill="#6F5FFE"/>
<path d="M185.887 203.35L184.785 203.933C184.271 204.593 183.973 205.396 183.931 206.231C183.889 207.067 184.105 207.896 184.55 208.604C185.179 208.192 185.681 207.613 185.999 206.931C186.317 206.249 186.438 205.491 186.35 204.744C187.099 205.072 187.933 205.152 188.73 204.971C189.527 204.791 190.246 204.359 190.781 203.74C190.056 203.287 189.233 203.016 188.382 202.948C187.53 202.88 186.675 203.018 185.887 203.35Z" fill="#6F5FFE"/>
<path opacity="0.2" d="M185.887 203.35L184.785 203.933C184.271 204.593 183.973 205.396 183.931 206.231C183.889 207.067 184.105 207.896 184.55 208.604C185.179 208.192 185.681 207.613 185.999 206.931C186.317 206.249 186.438 205.491 186.35 204.744C187.099 205.072 187.933 205.152 188.73 204.971C189.527 204.791 190.246 204.359 190.781 203.74C190.056 203.287 189.233 203.016 188.382 202.948C187.53 202.88 186.675 203.018 185.887 203.35Z" fill="black"/>
<path d="M178.786 194.924C178.786 194.924 183.729 194.399 186.053 197.626C188.376 200.853 185.668 203.98 185.668 203.98C185.668 203.98 182.011 204.883 179.502 202.393C176.994 199.903 178.786 194.924 178.786 194.924Z" fill="#6F5FFE"/>
<path d="M182.227 196.036C182.226 196.104 182.212 196.172 182.188 196.237C182.136 196.412 182.066 196.581 181.98 196.742C181.699 197.284 181.275 197.739 180.755 198.058C180.235 198.377 179.638 198.548 179.028 198.553C178.846 198.554 178.664 198.538 178.485 198.506C178.358 198.483 178.289 198.46 178.289 198.448C178.289 198.437 178.574 198.483 179.025 198.448C179.612 198.419 180.183 198.243 180.684 197.935C181.186 197.628 181.602 197.199 181.895 196.688C182.127 196.306 182.204 196.028 182.227 196.036Z" fill="#263238"/>
<path d="M181.171 196.136C181.144 196.081 181.106 196.033 181.058 195.995C181.011 195.957 180.956 195.93 180.896 195.916C180.837 195.902 180.776 195.902 180.716 195.915C180.657 195.928 180.601 195.954 180.553 195.991C180.505 196.028 180.466 196.076 180.438 196.13C180.411 196.185 180.396 196.244 180.395 196.305C180.393 196.366 180.406 196.427 180.43 196.482C180.455 196.538 180.492 196.587 180.539 196.626C180.584 196.665 180.638 196.693 180.696 196.709C180.754 196.725 180.814 196.727 180.873 196.716C180.932 196.706 180.988 196.682 181.036 196.647C181.085 196.612 181.125 196.567 181.154 196.514C181.184 196.462 181.201 196.404 181.205 196.344C181.208 196.284 181.199 196.224 181.177 196.168C181.155 196.113 181.121 196.062 181.077 196.022C181.033 195.981 180.981 195.95 180.924 195.932" fill="white"/>
<path d="M178.289 200.328C178.321 200.378 178.348 200.431 178.37 200.486C178.42 200.591 178.497 200.741 178.601 200.934C178.884 201.494 179.252 202.007 179.691 202.455C180.793 203.632 183.159 204.269 185.706 203.879L185.641 203.926C186.154 203.102 186.543 202.207 186.797 201.27C187.012 200.508 186.981 199.697 186.708 198.954C186.41 198.276 185.983 197.663 185.452 197.147C184.978 196.672 184.438 196.268 183.849 195.947C183.582 195.804 183.308 195.676 183.028 195.561C182.755 195.453 182.485 195.368 182.231 195.279C181.098 194.991 179.93 194.87 178.763 194.92C178.841 194.904 178.921 194.893 179.001 194.889L179.703 194.839C180.564 194.824 181.424 194.926 182.258 195.144C182.52 195.229 182.793 195.31 183.074 195.418C183.362 195.53 183.642 195.659 183.914 195.804C184.524 196.125 185.082 196.535 185.571 197.02C186.124 197.548 186.568 198.181 186.878 198.881C187.168 199.662 187.205 200.516 186.982 201.32C186.723 202.276 186.321 203.187 185.791 204.022L185.768 204.065H185.726C184.52 204.255 183.289 204.204 182.103 203.914C181.599 203.784 181.112 203.596 180.651 203.354C180.258 203.135 179.9 202.859 179.587 202.536C179.147 202.075 178.789 201.543 178.527 200.961C178.451 200.809 178.382 200.654 178.323 200.494C178.305 200.44 178.294 200.385 178.289 200.328Z" fill="#263238"/>
<path d="M183.251 199.29C183.251 199.29 183.34 199.363 183.475 199.506C183.61 199.649 183.803 199.869 184.026 200.143C184.142 200.282 184.261 200.436 184.381 200.61C184.445 200.7 184.504 200.794 184.558 200.892C184.627 201.001 184.671 201.125 184.685 201.254C184.668 201.391 184.622 201.523 184.551 201.641C184.479 201.759 184.383 201.86 184.269 201.938C184.042 202.091 183.792 202.207 183.529 202.281C183.266 202.406 182.966 202.426 182.689 202.339C182.555 202.274 182.448 202.165 182.384 202.03C182.327 201.908 182.289 201.778 182.269 201.644C182.188 201.196 182.115 200.783 182.049 200.413C181.966 200.032 181.917 199.644 181.903 199.255C182.03 199.618 182.125 199.991 182.188 200.37C182.269 200.737 182.354 201.142 182.45 201.59C182.5 201.806 182.577 202.042 182.77 202.123C183.002 202.184 183.248 202.159 183.463 202.053C183.708 201.988 183.941 201.883 184.153 201.745C184.243 201.685 184.32 201.608 184.38 201.518C184.44 201.427 184.48 201.326 184.5 201.22C184.453 201.02 184.365 200.832 184.242 200.668C184.134 200.494 184.018 200.34 183.914 200.197C183.668 199.913 183.447 199.61 183.251 199.29Z" fill="#263238"/>
<path d="M185.471 206.504C185.305 206.142 185.244 205.741 185.294 205.346C185.273 204.943 185.364 204.542 185.556 204.188C185.559 204.575 185.539 204.962 185.494 205.346C185.512 205.732 185.505 206.119 185.471 206.504Z" fill="#263238"/>
<path d="M184.531 205.659C184.51 205.322 184.611 204.989 184.816 204.721C185.109 204.246 185.502 204.007 185.533 204.053C185.564 204.099 185.256 204.389 184.986 204.825C184.716 205.261 184.589 205.674 184.531 205.659Z" fill="#263238"/>
<path d="M188.149 203.891C188.149 203.949 187.571 203.868 186.878 203.891C186.184 203.914 185.621 204.03 185.606 203.972C186.413 203.626 187.321 203.595 188.149 203.887V203.891Z" fill="#263238"/>
<path d="M185.949 202.389C185.992 202.163 186.048 201.94 186.119 201.721C186.357 200.646 186.174 199.519 185.606 198.576C185.465 198.391 185.336 198.198 185.221 197.997C185.418 198.127 185.585 198.298 185.71 198.498C186.039 198.966 186.258 199.503 186.35 200.068C186.441 200.633 186.403 201.212 186.238 201.76C186.192 201.989 186.093 202.205 185.949 202.389Z" fill="white"/>
<path d="M184.199 197.082C184.157 197.113 184.08 197.082 184.038 197.016C183.995 196.951 183.991 196.866 184.038 196.835C184.084 196.804 184.157 196.835 184.203 196.904C184.226 196.928 184.238 196.961 184.237 196.994C184.237 197.027 184.223 197.058 184.199 197.082Z" fill="white"/>
<path d="M169.784 164.835C170.117 164.995 170.414 165.22 170.659 165.497C170.903 165.774 171.089 166.098 171.206 166.449C171.434 167.153 171.498 167.9 171.394 168.634C171.233 170.05 170.431 171.478 169.564 172.613C168.373 171.571 168.1 169.753 168.023 168.823C167.892 167.352 168.551 164.615 169.788 164.835" fill="#6F5FFE"/>
<path d="M170.947 174.952C170.868 174.546 170.897 174.126 171.033 173.735C171.168 173.343 171.405 172.995 171.718 172.725C172.032 172.458 172.397 172.257 172.79 172.134C173.183 172.011 173.597 171.968 174.007 172.007C174.197 172.004 174.386 172.043 174.56 172.121C174.734 172.199 174.888 172.314 175.013 172.459C175.104 172.612 175.152 172.788 175.152 172.966C175.152 173.145 175.104 173.32 175.013 173.474C174.826 173.785 174.56 174.041 174.242 174.215C173.209 174.864 172.092 175.304 170.924 174.952" fill="#6F5FFE"/>
<path d="M169.422 179.295C169.426 179.197 169.44 179.1 169.464 179.005C169.503 178.801 169.549 178.538 169.607 178.233C169.74 177.357 170.014 176.508 170.42 175.72C170.838 174.928 171.459 174.262 172.219 173.79C172.452 173.655 172.699 173.546 172.955 173.466C173.025 173.444 173.096 173.426 173.167 173.412C173.214 173.412 173.241 173.412 173.241 173.412C172.899 173.53 172.57 173.681 172.258 173.864C171.524 174.342 170.923 174.998 170.509 175.771C170.112 176.551 169.833 177.386 169.68 178.249C169.607 178.577 169.549 178.847 169.503 179.021C169.485 179.115 169.458 179.206 169.422 179.295Z" fill="#263238"/>
<path d="M169.468 166.962C169.47 167.005 169.47 167.047 169.468 167.09C169.468 167.186 169.468 167.306 169.491 167.456C169.491 167.773 169.526 168.228 169.545 168.8C169.58 169.938 169.61 171.502 169.603 173.239C169.595 174.976 169.553 176.543 169.506 177.678C169.483 178.245 169.46 178.704 169.441 179.021C169.441 179.171 169.441 179.295 169.418 179.387C169.417 179.431 169.411 179.473 169.398 179.515C169.398 179.515 169.398 179.469 169.398 179.387C169.398 179.306 169.398 179.171 169.398 179.021C169.398 178.689 169.398 178.249 169.429 177.678C169.456 176.543 169.487 174.976 169.495 173.239C169.502 171.502 169.495 169.938 169.468 168.803C169.468 168.244 169.468 167.788 169.449 167.456C169.449 167.306 169.449 167.186 169.449 167.093C169.449 167.049 169.456 167.005 169.468 166.962Z" fill="#263238"/>
<path d="M168.886 175.813C168.743 174.954 168.398 174.142 167.878 173.444C167.359 172.745 166.681 172.181 165.9 171.799C165.514 171.61 164.983 171.482 164.655 171.799C164.328 172.115 164.401 172.629 164.563 173.042C164.912 173.897 165.506 174.63 166.271 175.148C167.036 175.665 167.936 175.944 168.859 175.948" fill="#6F5FFE"/>
<path d="M166.092 173.142C166.18 173.173 166.265 173.211 166.347 173.254C166.444 173.299 166.539 173.349 166.632 173.405C166.74 173.474 166.867 173.54 166.994 173.636C167.139 173.731 167.279 173.835 167.41 173.949C167.565 174.069 167.713 174.198 167.853 174.335C168.173 174.665 168.456 175.028 168.697 175.419C168.928 175.815 169.113 176.236 169.248 176.674C169.306 176.866 169.354 177.06 169.391 177.257C169.423 177.428 169.447 177.601 169.46 177.774C169.475 177.916 169.482 178.059 169.479 178.203C169.488 178.31 169.488 178.419 169.479 178.527C169.48 178.619 169.47 178.711 169.449 178.801C169.425 178.801 169.449 178.415 169.395 177.782C169.377 177.611 169.35 177.441 169.314 177.272C169.275 177.079 169.226 176.889 169.167 176.701C169.027 176.274 168.842 175.862 168.616 175.474C168.381 175.089 168.106 174.73 167.795 174.404C167.659 174.261 167.515 174.126 167.364 173.999C167.229 173.875 167.086 173.775 166.979 173.679C166.455 173.327 166.069 173.165 166.092 173.142Z" fill="#263238"/>
<path d="M255.683 243.591L255.852 243.56C255.513 238.492 252.978 233.084 251.14 228.344C249.248 223.469 247.475 218.458 243.171 215.498C247.825 224.635 252.002 234.008 255.687 243.579" fill="#455A64"/>
<path d="M258.703 217.899C258.703 217.899 258.703 217.922 258.703 217.964C258.703 218.007 258.669 218.076 258.642 218.153C258.588 218.327 258.507 218.566 258.403 218.875C258.353 219.03 258.295 219.203 258.229 219.393C258.164 219.582 258.11 219.779 258.041 220.018C257.91 220.466 257.744 220.975 257.605 221.562C257.528 221.847 257.451 222.145 257.37 222.457C257.289 222.77 257.22 223.094 257.143 223.43C256.977 224.106 256.85 224.831 256.7 225.599C256.438 227.143 256.206 228.83 256.072 230.617C255.937 232.405 255.925 234.122 255.964 235.682C255.994 236.454 256.018 237.199 256.079 237.89C256.106 238.233 256.122 238.569 256.156 238.889C256.191 239.21 256.222 239.515 256.253 239.808C256.303 240.395 256.387 240.92 256.449 241.383C256.48 241.615 256.511 241.831 256.538 242.031C256.565 242.232 256.599 242.417 256.626 242.572C256.68 242.892 256.719 243.143 256.75 243.321L256.777 243.518C256.777 243.56 256.777 243.583 256.777 243.583C256.777 243.583 256.449 242.159 256.168 239.816C256.137 239.522 256.102 239.214 256.064 238.897C256.025 238.581 256.01 238.241 255.983 237.893C255.917 237.203 255.894 236.461 255.856 235.686C255.813 234.122 255.833 232.408 255.96 230.61C256.087 228.811 256.345 227.113 256.596 225.592C256.746 224.82 256.881 224.098 257.05 223.422C257.127 223.087 257.197 222.758 257.281 222.446L257.524 221.554C257.671 220.983 257.84 220.477 257.975 220.029C258.048 219.806 258.114 219.597 258.175 219.404C258.237 219.211 258.303 219.045 258.357 218.887C258.468 218.582 258.553 218.343 258.615 218.173L258.684 217.987L258.703 217.899Z" fill="#455A64"/>
<path d="M257.935 215.098L256.203 221.219C256.029 221.834 256.386 222.474 257 222.648L257.26 222.722C257.874 222.896 258.513 222.539 258.687 221.924L260.418 215.803C260.593 215.188 260.236 214.548 259.621 214.373L259.362 214.3C258.748 214.125 258.109 214.483 257.935 215.098Z" fill="#F5F5F5"/>
<path d="M257.27 222.716C257.27 222.716 257.339 222.735 257.474 222.743C257.671 222.759 257.869 222.725 258.048 222.643C258.188 222.577 258.314 222.483 258.417 222.368C258.52 222.253 258.599 222.118 258.65 221.971C258.75 221.62 258.858 221.199 258.985 220.763C259.235 219.867 259.532 218.802 259.863 217.621L260.384 215.764C260.448 215.525 260.429 215.272 260.331 215.045C260.233 214.818 260.062 214.63 259.844 214.514C259.689 214.439 259.526 214.382 259.359 214.344C259.197 214.3 259.028 214.292 258.863 214.322C258.698 214.352 258.542 214.419 258.407 214.517C258.274 214.614 258.164 214.739 258.087 214.884C258.016 215.032 257.962 215.187 257.925 215.347C257.744 215.992 257.567 216.613 257.397 217.204C257.058 218.381 256.754 219.447 256.499 220.342C256.435 220.563 256.374 220.776 256.314 220.979C256.248 221.161 256.209 221.353 256.199 221.546C256.202 221.701 256.235 221.853 256.297 221.994C256.359 222.135 256.449 222.263 256.561 222.369C256.707 222.503 256.883 222.599 257.074 222.65L257.22 222.697H257.27C257.27 222.697 257.27 222.697 257.216 222.697L257.066 222.658C256.808 222.602 256.576 222.461 256.408 222.257C256.239 222.054 256.144 221.799 256.137 221.535C256.147 221.335 256.184 221.137 256.249 220.948C256.307 220.744 256.365 220.531 256.426 220.307C256.677 219.412 256.973 218.346 257.305 217.165L257.825 215.309C257.862 215.14 257.919 214.977 257.995 214.822C258.081 214.669 258.2 214.537 258.345 214.436C258.493 214.327 258.663 214.254 258.844 214.221C259.024 214.188 259.209 214.197 259.386 214.247C259.561 214.287 259.731 214.345 259.894 214.421C260.132 214.551 260.319 214.757 260.426 215.006C260.533 215.255 260.553 215.533 260.484 215.795C260.299 216.44 260.125 217.057 259.956 217.652C259.617 218.829 259.312 219.891 259.058 220.79C258.927 221.234 258.815 221.639 258.704 221.994C258.651 222.147 258.568 222.287 258.458 222.405C258.349 222.523 258.216 222.617 258.068 222.681C257.881 222.763 257.676 222.793 257.474 222.77C257.404 222.764 257.335 222.746 257.27 222.716Z" fill="#263238"/>
<path d="M256.769 243.56C256.611 239.65 256.607 235.35 258.819 232.127C260.075 230.301 261.959 228.985 263.979 228.077C265.998 227.17 268.159 226.638 270.306 226.109C267.913 229.471 262.491 229.51 260.195 232.941C259.516 233.956 259.197 235.168 258.888 236.353C258.249 238.801 257.686 241.128 257.05 243.579" fill="#455A64"/>
<path d="M239.668 229.849H239.722H239.876C240.015 229.869 240.215 229.884 240.473 229.934C241.199 230.056 241.914 230.235 242.612 230.471C243.649 230.818 244.646 231.275 245.587 231.833C246.14 232.168 246.673 232.535 247.182 232.933C247.727 233.365 248.242 233.833 248.723 234.335C249.202 234.837 249.642 235.373 250.041 235.94C250.242 236.211 250.426 236.492 250.592 236.763C250.758 237.033 250.927 237.311 251.07 237.585C251.597 238.543 252.028 239.552 252.357 240.596C252.58 241.298 252.75 242.017 252.866 242.746C252.912 243.004 252.923 243.209 252.939 243.344V243.498C252.939 243.533 252.939 243.552 252.939 243.552V243.502C252.939 243.46 252.939 243.409 252.916 243.348C252.889 243.213 252.873 243.008 252.819 242.753C252.691 242.03 252.51 241.316 252.28 240.619C251.944 239.583 251.508 238.582 250.977 237.631C250.835 237.361 250.665 237.094 250.504 236.817C250.342 236.539 250.153 236.272 249.953 236.002C249.556 235.439 249.118 234.906 248.642 234.408C248.161 233.908 247.646 233.443 247.101 233.014C246.597 232.618 246.069 232.252 245.521 231.918C244.589 231.357 243.601 230.896 242.573 230.54C241.879 230.303 241.17 230.113 240.45 229.973C240.196 229.919 239.996 229.896 239.861 229.869L239.706 229.842L239.668 229.849Z" fill="#455A64"/>
<path d="M235.817 227.323L235.7 227.566C235.424 228.143 235.666 228.835 236.241 229.112L241.964 231.869C242.539 232.146 243.23 231.903 243.507 231.327L243.624 231.083C243.9 230.507 243.658 229.815 243.083 229.538L237.36 226.781C236.784 226.504 236.094 226.747 235.817 227.323Z" fill="#F5F5F5"/>
<path d="M243.637 231.1C243.637 231.1 243.664 231.034 243.698 230.903C243.747 230.71 243.747 230.509 243.698 230.316C243.658 230.167 243.587 230.028 243.491 229.907C243.395 229.786 243.276 229.687 243.14 229.614C242.812 229.452 242.431 229.274 242.011 229.073L239.07 227.668L237.333 226.838C237.109 226.735 236.857 226.71 236.617 226.767C236.377 226.825 236.164 226.961 236.011 227.155C235.911 227.295 235.828 227.446 235.764 227.606C235.691 227.757 235.653 227.923 235.653 228.091C235.653 228.259 235.691 228.424 235.764 228.575C235.836 228.725 235.94 228.857 236.069 228.961C236.204 229.055 236.349 229.136 236.5 229.201L238.234 230.038L241.167 231.463L241.76 231.752C241.929 231.849 242.11 231.921 242.3 231.964C242.452 231.99 242.608 231.984 242.757 231.946C242.907 231.909 243.048 231.842 243.17 231.748C243.327 231.628 243.452 231.471 243.536 231.293L243.61 231.154C243.61 231.123 243.633 231.107 243.637 231.107C243.639 231.124 243.639 231.141 243.637 231.158L243.575 231.3C243.498 231.489 243.375 231.655 243.217 231.783C243.09 231.883 242.944 231.955 242.789 231.997C242.633 232.038 242.47 232.046 242.311 232.022C242.115 231.983 241.926 231.913 241.752 231.814L241.151 231.528L238.211 230.127L236.454 229.278C236.295 229.212 236.144 229.127 236.003 229.027C235.787 228.857 235.635 228.618 235.574 228.35C235.512 228.081 235.544 227.8 235.664 227.552C235.731 227.386 235.818 227.228 235.922 227.082C236.037 226.939 236.182 226.825 236.346 226.746C236.507 226.669 236.683 226.63 236.861 226.63C237.039 226.63 237.214 226.669 237.375 226.746L239.109 227.583L242.041 229.008C242.458 229.216 242.835 229.394 243.167 229.563C243.308 229.642 243.431 229.749 243.529 229.878C243.627 230.007 243.696 230.155 243.733 230.312C243.788 230.508 243.788 230.715 243.733 230.911C243.711 230.978 243.679 231.042 243.637 231.1Z" fill="#263238"/>
<path d="M98.9174 182.186C98.7517 182.035 96.486 175.975 96.5476 175.45C96.6093 174.925 96.933 167.919 96.933 167.919L98.7748 177.716L98.9174 182.186Z" fill="#6F5FFE"/>
<path d="M99.9651 187.752C99.9651 187.752 99.9228 185.004 100.327 184.583C100.732 184.162 105.926 177.751 105.926 177.751L109.009 176.276L106.581 178.353L99.9651 187.752Z" fill="#6F5FFE"/>
<path d="M95.7305 182.313L100.089 192.446L101.021 193.114L100.586 190.273L95.7305 182.313Z" fill="#6F5FFE"/>
<path d="M94.4014 192.164L99.8962 198.618L102.293 198.985L99.7074 196.04L94.4014 192.164Z" fill="#6F5FFE"/>
<path d="M106.894 193.457L105.036 201.733L103.09 203.177L104.004 199.363L106.894 193.457Z" fill="#6F5FFE"/>
<path d="M99.5605 203.578L102.489 207.662L104.046 207.593L103.788 206.554L99.5605 203.578Z" fill="#6F5FFE"/>
<path d="M104.505 210.032C104.458 210.032 103.09 203.493 101.453 195.41C99.8151 187.327 98.5204 180.765 98.5666 180.742C98.6129 180.719 99.9769 187.277 101.618 195.364C103.26 203.451 104.547 210.02 104.505 210.032Z" fill="#263238"/>
<path d="M116.939 209.723C116.886 209.763 116.83 209.797 116.77 209.824C116.6 209.906 116.42 209.964 116.234 209.997C115.543 210.097 114.838 210.014 114.188 209.758C113.772 209.619 113.336 209.426 112.858 209.241C112.366 209.034 111.847 208.896 111.317 208.832C110.724 208.796 110.131 208.896 109.583 209.125C109.001 209.341 108.427 209.634 107.776 209.839C107.151 210.025 106.5 210.105 105.849 210.074C105.245 210.046 104.643 209.981 104.046 209.881C103.476 209.8 102.936 209.712 102.431 209.669C101.962 209.629 101.49 209.629 101.021 209.669C100.342 209.714 99.6831 209.915 99.0943 210.256C98.6858 210.515 98.5047 210.723 98.4932 210.708C98.6554 210.512 98.848 210.344 99.0635 210.21C99.6544 209.84 100.326 209.618 101.021 209.565C101.497 209.522 101.975 209.522 102.451 209.565C102.967 209.604 103.506 209.688 104.077 209.77C104.669 209.861 105.266 209.922 105.865 209.951C106.504 209.979 107.144 209.899 107.757 209.716C108.381 209.519 108.963 209.229 109.556 209.009C110.124 208.775 110.739 208.675 111.352 208.716C111.882 208.781 112.401 208.92 112.893 209.129C113.371 209.318 113.802 209.515 114.211 209.661C114.845 209.918 115.531 210.014 116.211 209.943C116.462 209.902 116.707 209.828 116.939 209.723Z" fill="#263238"/>
<path d="M188.503 179.523C188.434 179.523 188.226 178.006 187.262 176.412C186.299 174.817 185.097 173.864 185.147 173.814C185.432 173.982 185.692 174.19 185.918 174.431C186.503 174.985 187.01 175.616 187.424 176.307C187.836 177.002 188.146 177.752 188.345 178.535C188.446 178.854 188.499 179.187 188.503 179.523Z" fill="#263238"/>
<path d="M189.994 179.523C189.623 178.313 189.314 177.085 189.07 175.844C188.762 174.617 188.521 173.375 188.345 172.123C188.717 173.332 189.024 174.56 189.266 175.802C189.573 177.028 189.816 178.27 189.994 179.523Z" fill="#263238"/>
<path d="M191.116 179.523C191.095 179.213 191.108 178.903 191.155 178.596C191.209 177.955 191.274 177.207 191.344 176.381C191.413 175.555 191.513 174.732 191.598 174.169C191.619 173.86 191.679 173.556 191.775 173.262C191.794 173.57 191.781 173.879 191.737 174.184C191.683 174.825 191.617 175.574 191.544 176.4C191.471 177.226 191.374 178.048 191.293 178.616C191.269 178.924 191.21 179.228 191.116 179.523Z" fill="#263238"/>
<path d="M87.3804 225.31C87.3804 225.31 87.4767 225.383 87.6193 225.538C87.7619 225.692 87.9661 225.924 88.2011 226.213C88.8157 226.981 89.3684 227.797 89.8542 228.653C90.3414 229.507 90.7589 230.399 91.1027 231.32C91.2337 231.675 91.33 231.964 91.3878 232.165C91.4267 232.268 91.4513 232.376 91.4611 232.486C91.2759 232.125 91.1125 231.754 90.9717 231.374C90.5911 230.477 90.1601 229.602 89.6808 228.753C89.1958 227.906 88.6645 227.086 88.0894 226.298C87.8321 225.984 87.5953 225.654 87.3804 225.31Z" fill="#263238"/>
<path d="M90.3975 224.742C90.9732 225.838 91.4878 226.964 91.9388 228.116C92.4482 229.242 92.8971 230.393 93.2836 231.567C92.7068 230.472 92.1922 229.346 91.7423 228.193C91.2338 227.067 90.7849 225.916 90.3975 224.742Z" fill="#263238"/>
<path d="M94.6054 225.488C94.7993 227.57 94.8623 229.662 94.7943 231.752C94.6632 230.714 94.5976 229.668 94.5977 228.622C94.5327 227.578 94.5352 226.531 94.6054 225.488Z" fill="#263238"/>
<path d="M137.031 188.891C136.916 188.571 136.818 188.245 136.738 187.914C136.264 186.355 135.442 184.924 134.333 183.73C134.089 183.495 133.857 183.246 133.64 182.985C133.934 183.161 134.203 183.378 134.437 183.63C135.623 184.795 136.466 186.264 136.876 187.876C136.977 188.205 137.029 188.547 137.031 188.891Z" fill="#263238"/>
<path d="M138.529 188.895C138.15 187.652 137.834 186.391 137.585 185.116C137.269 183.856 137.018 182.58 136.834 181.294C137.214 182.537 137.531 183.798 137.782 185.073C138.096 186.333 138.346 187.609 138.529 188.895Z" fill="#263238"/>
<path d="M139.504 188.32C139.531 187.329 139.624 186.341 139.782 185.363C139.875 184.375 140.036 183.395 140.264 182.429C140.234 183.42 140.14 184.408 139.982 185.386C139.889 186.373 139.729 187.354 139.504 188.32Z" fill="#263238"/>
<path d="M258.38 203.771C258.326 203.79 257.682 201.806 256.939 199.344C256.195 196.881 255.64 194.87 255.694 194.855C255.748 194.839 256.391 196.823 257.131 199.286C257.871 201.749 258.434 203.756 258.38 203.771Z" fill="#263238"/>
<path d="M260.014 202.644C259.956 202.644 259.694 200.571 259.428 198.012C259.162 195.453 258.989 193.357 259.043 193.349C259.097 193.341 259.362 195.422 259.628 197.981C259.894 200.54 260.068 202.644 260.014 202.644Z" fill="#263238"/>
<path d="M264.267 195.403C264.298 195.403 264.117 195.789 263.882 196.418C263.587 197.235 263.38 198.081 263.266 198.942C263.158 199.805 263.145 200.678 263.227 201.544C263.289 202.208 263.37 202.617 263.339 202.625C263.204 202.283 263.118 201.925 263.084 201.559C262.967 200.683 262.967 199.795 263.084 198.919C263.196 198.042 263.425 197.183 263.767 196.368C263.887 196.024 264.056 195.699 264.267 195.403Z" fill="#263238"/>
<path d="M223.264 243.853C222.624 242.991 222.038 242.088 221.511 241.151C220.923 240.256 220.393 239.324 219.923 238.361C221.151 240.114 222.267 241.944 223.264 243.838V243.853Z" fill="#263238"/>
<path d="M225.068 243.255C224.561 242.122 224.115 240.962 223.731 239.781C223.283 238.629 222.897 237.454 222.575 236.261C223.084 237.387 223.532 238.54 223.916 239.715C224.365 240.873 224.749 242.055 225.068 243.255Z" fill="#263238"/>
<path d="M226.609 244.158C226.552 243.793 226.54 243.422 226.574 243.054C226.609 242.166 226.717 241.281 226.898 240.41C227.083 239.538 227.34 238.684 227.668 237.855C227.785 237.504 227.943 237.169 228.139 236.855C228.048 237.211 227.935 237.56 227.799 237.901C227.52 238.738 227.288 239.59 227.106 240.453C226.927 241.316 226.798 242.188 226.721 243.066C226.706 243.432 226.668 243.797 226.609 244.158Z" fill="#263238"/>
<path d="M234.697 152.827L230.917 150.654L229.661 144.134L228.609 144.427L229.522 150.584L225.9 148.133L225.106 149.044L229.9 152.097L234.697 154.348V152.827Z" fill="#455A64"/>
<path d="M236.94 143.316H234.169V179.295H236.94V143.316Z" fill="#455A64"/>
<path d="M234.801 74.5923C234.801 74.9783 227.368 98.4432 227.368 98.4432L231.083 94.6604L225.73 111.065L229.264 106.144L225.106 126.714L227.122 124.568L223.596 139.081L226.621 135.295L223.596 146.145L247.533 144.381L241.861 123.923L245.286 127.71L240.855 112.818L243.121 114.08L237.949 94.9113L240.342 96.5518L234.801 74.5923Z" fill="#455A64"/>
<path d="M235.603 116.489C235.573 116.608 235.533 116.724 235.483 116.836L235.098 117.79C234.759 118.623 234.296 119.758 233.757 121.074L233.699 121.221L233.626 121.082C233.248 120.382 232.921 119.656 232.647 118.909C232.543 118.616 232.443 118.326 232.358 118.048H232.505C231.846 119.735 231.198 121.202 230.713 122.248C230.47 122.769 230.266 123.182 230.123 123.468L229.954 123.792C229.915 123.865 229.892 123.904 229.884 123.9C229.935 123.744 229.997 123.592 230.069 123.444L230.616 122.202C231.079 121.152 231.707 119.677 232.362 117.99L232.443 117.786L232.508 117.998C232.593 118.272 232.689 118.562 232.794 118.851C233.066 119.591 233.388 120.312 233.757 121.009H233.622L235.013 117.743L235.425 116.805C235.475 116.695 235.534 116.589 235.603 116.489Z" fill="#263238"/>
<path d="M238.153 107.726C238.099 107.648 238.054 107.564 238.019 107.476L237.672 106.758C237.379 106.148 236.944 105.299 236.377 104.345H236.516C236.396 104.808 236.265 105.306 236.13 105.82C236.046 106.144 235.961 106.457 235.884 106.758L235.826 106.97L235.737 106.773C235.229 105.615 234.786 104.631 234.477 103.913C234.331 103.573 234.211 103.287 234.119 103.064C234.071 102.962 234.032 102.856 234.003 102.747C234.07 102.838 234.125 102.937 234.169 103.04L234.554 103.87C234.89 104.577 235.352 105.573 235.868 106.707H235.722C235.803 106.406 235.884 106.09 235.965 105.769C236.103 105.256 236.235 104.758 236.35 104.295L236.396 104.121L236.489 104.276C236.952 105.069 237.37 105.887 237.741 106.727C237.876 107.039 237.98 107.29 238.046 107.464C238.091 107.547 238.127 107.635 238.153 107.726Z" fill="#263238"/>
<path d="M234.763 89.7466C234.642 90.0344 234.5 90.3131 234.339 90.5803C234.061 91.0899 233.66 91.8001 233.202 92.6068L233.098 92.7883L233.059 92.5798L232.932 91.8619C232.855 91.4373 232.786 91.0242 232.716 90.646L232.855 90.6691C232.427 91.3485 232.054 91.9275 231.788 92.3366C231.657 92.561 231.506 92.7729 231.337 92.9697C231.447 92.732 231.576 92.5035 231.722 92.2865C231.961 91.8619 232.308 91.2713 232.732 90.5881L232.832 90.4221L232.867 90.6151C232.936 91.0011 233.009 91.3871 233.086 91.831C233.133 92.078 233.175 92.3212 233.213 92.5567L233.075 92.5296C233.537 91.7268 233.953 91.0281 234.258 90.5302C234.405 90.2561 234.574 89.9941 234.763 89.7466Z" fill="#263238"/>
<path d="M129.648 157.374H125.864V179.426H129.648V157.374Z" fill="#455A64"/>
<path d="M126.95 84.8484C126.95 85.2537 119.012 110.324 119.012 110.324L122.981 106.283L117.267 123.784L121.032 118.531L116.593 140.498L118.747 138.209L114.978 153.703L118.207 149.662L114.978 161.242L140.533 159.354L134.472 137.53L138.129 141.571L133.397 125.672L135.817 127.019L130.31 106.53L132.869 108.279L126.95 84.8484Z" fill="#455A64"/>
<path d="M130.754 125.355C130.722 125.336 130.694 125.313 130.669 125.286L130.438 125.062L129.578 124.209L126.627 121.198L126.746 121.159C126.58 122.144 126.395 123.217 126.207 124.34C126.095 124.973 125.991 125.587 125.887 126.177L125.844 126.44L125.744 126.193C125.101 124.593 124.611 122.936 124.28 121.244C124.153 120.607 124.076 120.086 124.033 119.747C124.01 119.569 123.995 119.434 123.987 119.341C123.983 119.294 123.983 119.246 123.987 119.198C123.987 119.198 124.006 119.245 124.022 119.337C124.037 119.43 124.064 119.577 124.091 119.723C124.153 120.071 124.245 120.58 124.38 121.21C124.744 122.887 125.249 124.531 125.891 126.123H125.748C125.848 125.529 125.956 124.915 126.064 124.286L126.615 121.105L126.638 120.966L126.735 121.067L129.651 124.112L130.476 124.992L130.692 125.232C130.734 125.324 130.757 125.351 130.754 125.355Z" fill="#263238"/>
<path d="M121.459 145.257C121.477 144.683 121.547 144.112 121.668 143.551C121.742 142.982 121.863 142.421 122.03 141.872C122.012 142.446 121.943 143.017 121.822 143.578C121.752 144.148 121.63 144.71 121.459 145.257Z" fill="#263238"/>
<path d="M130.191 136.657C130.173 136.722 130.15 136.785 130.122 136.846L129.898 137.383L129.054 139.34C128.322 141.011 127.313 143.304 126.191 145.863L126.095 146.076L126.045 145.848C126.002 145.663 125.96 145.462 125.918 145.265C125.532 143.536 125.182 141.903 124.87 140.49L124.993 140.513L122.654 143.972L121.987 144.937C121.914 145.041 121.852 145.122 121.806 145.192C121.786 145.221 121.763 145.248 121.737 145.273C121.737 145.273 121.737 145.238 121.787 145.176C121.837 145.114 121.887 145.022 121.953 144.914L122.588 143.926L124.881 140.452L124.966 140.32L125.004 140.475C125.317 141.888 125.679 143.516 126.064 145.246C126.11 145.446 126.153 145.632 126.195 145.829H126.049L128.958 139.324C129.343 138.51 129.632 137.85 129.848 137.394C129.948 137.174 130.033 137.008 130.095 136.87C130.117 136.795 130.15 136.723 130.191 136.657Z" fill="#263238"/>
<path d="M132.203 156.362C131.561 155.668 130.959 154.937 130.399 154.174C129.798 153.443 129.236 152.682 128.715 151.893C129.356 152.589 129.958 153.319 130.519 154.081C131.118 154.812 131.68 155.574 132.203 156.362Z" fill="#263238"/>
<path d="M129.771 104.492C129.698 104.412 129.634 104.326 129.578 104.233L129.077 103.484L127.359 100.84L127.486 100.817C127.313 101.69 127.155 102.67 127.035 103.704C126.939 104.527 126.881 105.322 126.846 106.047V106.325L126.723 106.078C126.194 105.011 125.778 103.89 125.482 102.736C125.374 102.307 125.309 101.964 125.266 101.732C125.241 101.611 125.225 101.489 125.22 101.365C125.26 101.481 125.291 101.6 125.313 101.72C125.371 101.952 125.451 102.292 125.571 102.712C125.89 103.852 126.32 104.957 126.854 106.013L126.715 106.04C126.746 105.31 126.804 104.496 126.896 103.689C127.016 102.647 127.182 101.666 127.367 100.79L127.401 100.616L127.494 100.767L129.151 103.442C129.343 103.755 129.497 104.013 129.617 104.214C129.677 104.301 129.729 104.394 129.771 104.492Z" fill="#263238"/>
<defs>
<filter id="filter0_f_566_8319" x="8.06551" y="139.213" width="211.174" height="165.545" filterUnits="userSpaceOnUse" color-interpolation-filters="sRGB">
<feFlood flood-opacity="0" result="BackgroundImageFix"/>
<feBlend mode="normal" in="SourceGraphic" in2="BackgroundImageFix" result="shape"/>
<feGaussianBlur stdDeviation="17.135" result="effect1_foregroundBlur_566_8319"/>
</filter>
<filter id="filter1_f_566_8319" x="112.951" y="135.816" width="182.597" height="191.737" filterUnits="userSpaceOnUse" color-interpolation-filters="sRGB">
<feFlood flood-opacity="0" result="BackgroundImageFix"/>
<feBlend mode="normal" in="SourceGraphic" in2="BackgroundImageFix" result="shape"/>
<feGaussianBlur stdDeviation="17.135" result="effect1_foregroundBlur_566_8319"/>
</filter>
<filter id="filter2_f_566_8319" x="28.3995" y="136.11" width="190.539" height="178.65" filterUnits="userSpaceOnUse" color-interpolation-filters="sRGB">
<feFlood flood-opacity="0" result="BackgroundImageFix"/>
<feBlend mode="normal" in="SourceGraphic" in2="BackgroundImageFix" result="shape"/>
<feGaussianBlur stdDeviation="17.135" result="effect1_foregroundBlur_566_8319"/>
</filter>
<filter id="filter3_f_566_8319" x="35.9903" y="144.278" width="190.539" height="178.65" filterUnits="userSpaceOnUse" color-interpolation-filters="sRGB">
<feFlood flood-opacity="0" result="BackgroundImageFix"/>
<feBlend mode="normal" in="SourceGraphic" in2="BackgroundImageFix" result="shape"/>
<feGaussianBlur stdDeviation="17.135" result="effect1_foregroundBlur_566_8319"/>
</filter>
<linearGradient id="paint0_linear_566_8319" x1="169.196" y1="215.739" x2="65.7213" y2="200.67" gradientUnits="userSpaceOnUse">
<stop stop-color="#FF2E00"/>
<stop offset="1" stop-color="#8C4E96"/>
</linearGradient>
<linearGradient id="paint1_linear_566_8319" x1="148.281" y1="245.395" x2="84.8545" y2="181.969" gradientUnits="userSpaceOnUse">
<stop stop-color="#00FFA3" stop-opacity="0.58"/>
<stop offset="1" stop-color="#3300FF" stop-opacity="0.2"/>
</linearGradient>
<linearGradient id="paint2_linear_566_8319" x1="231.676" y1="281.934" x2="215.321" y2="178.655" gradientUnits="userSpaceOnUse">
<stop stop-color="#FF2E00"/>
<stop offset="1" stop-color="#1400FF" stop-opacity="0.2"/>
</linearGradient>
<linearGradient id="paint3_linear_566_8319" x1="197.145" y1="270.775" x2="238.863" y2="191.368" gradientUnits="userSpaceOnUse">
<stop stop-color="#6F5FFE"/>
<stop offset="1" stop-color="#4E43B2"/>
</linearGradient>
<linearGradient id="paint4_linear_566_8319" x1="166.998" y1="247.461" x2="99.2526" y2="179.715" gradientUnits="userSpaceOnUse">
<stop stop-color="#00FFA3" stop-opacity="0.48"/>
<stop offset="1" stop-color="#3300FF" stop-opacity="0.2"/>
</linearGradient>
<linearGradient id="paint5_linear_566_8319" x1="174.589" y1="255.629" x2="106.843" y2="187.883" gradientUnits="userSpaceOnUse">
<stop stop-color="#C785D3"/>
<stop offset="0.0001" stop-color="#4E43B2"/>
<stop offset="1" stop-color="#6F5FFE"/>
</linearGradient>
</defs>
</svg>
