<svg width="300" height="330" viewBox="0 0 300 330" fill="none" xmlns="http://www.w3.org/2000/svg">
<g filter="url(#filter0_f_566_8061)">
<path d="M41.8469 209.67C24.3322 192.155 62.2503 145.573 79.8545 127.969C97.4586 110.365 158.75 122.926 176.265 140.441C193.779 157.956 144.462 172.243 126.858 189.847C109.254 207.452 59.3616 227.185 41.8469 209.67Z" fill="url(#paint0_linear_566_8061)"/>
<path d="M41.8469 209.67C24.3322 192.155 62.2503 145.573 79.8545 127.969C97.4586 110.365 158.75 122.926 176.265 140.441C193.779 157.956 144.462 172.243 126.858 189.847C109.254 207.452 59.3616 227.185 41.8469 209.67Z" fill="url(#paint1_linear_566_8061)"/>
</g>
<g filter="url(#filter1_f_566_8061)">
<path d="M144.558 125.351C156.078 103.424 211.823 125.789 233.862 137.368C255.902 148.947 262.118 211.203 250.598 233.13C239.078 255.058 210.783 212.213 188.743 200.634C166.704 189.055 133.038 147.279 144.558 125.351Z" fill="url(#paint2_linear_566_8061)"/>
<path d="M144.558 125.351C156.078 103.424 211.823 125.789 233.862 137.368C255.902 148.947 262.118 211.203 250.598 233.13C239.078 255.058 210.783 212.213 188.743 200.634C166.704 189.055 133.038 147.279 144.558 125.351Z" fill="url(#paint3_linear_566_8061)"/>
</g>
<g filter="url(#filter2_f_566_8061)">
<path d="M76.5769 211.137C57.8694 192.429 49.456 157.104 68.24 138.32C87.024 119.536 143.429 106.869 162.137 125.577C180.844 144.284 187.105 194.817 168.321 213.601C149.537 232.385 95.2843 229.844 76.5769 211.137Z" fill="url(#paint4_linear_566_8061)"/>
</g>
<g filter="url(#filter3_f_566_8061)">
<path d="M84.1677 219.305C65.4603 200.597 57.0469 165.272 75.8308 146.488C94.6148 127.704 151.02 115.037 169.728 133.745C188.435 152.452 194.696 202.985 175.912 221.769C157.128 240.553 102.875 238.012 84.1677 219.305Z" fill="url(#paint5_linear_566_8061)"/>
</g>
<rect y="230" width="300" height="100" rx="10" fill="#4F4F53"/>
<path d="M279.092 238.149C279.092 238.205 220.957 238.246 149.266 238.246C77.5755 238.246 19.4253 238.205 19.4253 238.149C19.4253 238.094 77.5458 238.053 149.266 238.053C220.986 238.053 279.092 238.098 279.092 238.149Z" fill="#263238"/>
<path d="M254.695 219.265C254.695 219.265 244.869 207.98 241.162 196.695C237.456 185.41 239.216 186.705 239.216 186.705C239.216 186.705 244.22 197.672 248.02 202.966C251.819 208.261 258.606 216.027 258.606 216.027L254.695 219.265Z" fill="#455A64"/>
<path d="M256.652 188.44C256.588 188.321 256.483 188.23 256.357 188.181C256.23 188.132 256.091 188.13 255.963 188.174C255.835 188.219 255.727 188.307 255.659 188.424C255.59 188.54 255.565 188.677 255.589 188.81C256.185 192.777 257.483 202.082 257.442 208.117C257.375 215.957 257.442 218.987 257.442 218.987H261.519C261.519 218.987 260.778 202.781 259.87 197.838C259.225 194.382 257.864 190.534 256.652 188.44Z" fill="#455A64"/>
<path d="M258.884 217.67C260.597 213.794 261.731 209.687 262.249 205.482C262.587 202.596 261.983 198.697 261.089 193.491C260.746 191.587 260.573 189.657 260.574 187.722C260.575 187.507 260.649 187.297 260.782 187.128C260.916 186.958 261.102 186.837 261.312 186.785C261.521 186.732 261.742 186.751 261.94 186.838C262.138 186.924 262.302 187.074 262.405 187.264C262.898 188.144 264.329 191.149 264.692 193.028C265.682 198.167 266.801 200.739 265.945 205.608C265.089 210.477 261.92 217.996 261.92 217.996L258.884 217.67Z" fill="#455A64"/>
<path d="M262.564 218.007C262.564 218.007 273.355 194.863 274.103 191.43C274.852 187.996 277.391 180.085 277.691 180.533C277.992 180.981 278.433 185.162 276.494 189.939C274.556 194.715 266.249 218.71 266.249 218.71H262.564" fill="#455A64"/>
<path d="M257.701 216.971C257.595 216.909 257.493 216.84 257.397 216.764C257.208 216.619 256.915 216.416 256.563 216.127C255.553 215.326 254.586 214.472 253.665 213.571C250.625 210.586 247.993 207.214 245.836 203.544C243.685 199.875 241.896 196.006 240.495 191.992C239.954 190.457 239.557 189.199 239.301 188.322C239.168 187.889 239.075 187.545 239.012 187.315C238.973 187.195 238.946 187.071 238.931 186.945C238.982 187.056 239.024 187.172 239.057 187.289L239.387 188.285C239.668 189.151 240.087 190.401 240.647 191.926C242.092 195.911 243.896 199.757 246.036 203.418C248.187 207.075 250.791 210.448 253.787 213.456C254.94 214.603 255.929 215.472 256.626 216.046C256.971 216.346 257.253 216.56 257.434 216.716C257.53 216.793 257.619 216.879 257.701 216.971Z" fill="#263238"/>
<path d="M258.88 205.867C258.829 205.644 258.797 205.418 258.784 205.19C258.732 204.709 258.665 204.08 258.587 203.34C258.417 201.771 258.15 199.614 257.768 197.242C257.386 194.871 256.96 192.736 256.63 191.197C256.471 190.457 256.337 189.842 256.237 189.372C256.177 189.15 256.137 188.924 256.115 188.695C256.203 188.907 256.272 189.126 256.322 189.35C256.445 189.776 256.604 190.394 256.789 191.16C257.16 192.691 257.612 194.826 257.994 197.205C258.376 199.584 258.617 201.749 258.735 203.321C258.802 204.11 258.843 204.746 258.861 205.171C258.892 205.402 258.898 205.635 258.88 205.867Z" fill="#263238"/>
<path d="M261.408 187.09C261.459 187.184 261.501 187.283 261.534 187.386C261.619 187.604 261.727 187.889 261.86 188.244C261.993 188.599 262.164 189.077 262.323 189.624C262.483 190.172 262.694 190.779 262.846 191.474L263.113 192.562C263.206 192.932 263.269 193.343 263.35 193.753C263.528 194.575 263.636 195.466 263.765 196.402C264.258 200.478 264.11 204.605 263.328 208.635C263.131 209.56 262.957 210.44 262.724 211.247C262.612 211.65 262.52 212.046 262.401 212.416C262.283 212.786 262.168 213.156 262.056 213.485C261.849 214.17 261.601 214.766 261.4 215.295C261.2 215.824 261.008 216.275 260.841 216.638L260.47 217.47C260.43 217.57 260.381 217.665 260.322 217.755C260.348 217.651 260.384 217.549 260.429 217.452L260.77 216.601C260.926 216.231 261.111 215.783 261.293 215.25C261.475 214.717 261.719 214.118 261.916 213.434C262.019 213.093 262.131 212.738 262.246 212.368C262.36 211.998 262.446 211.602 262.553 211.199C262.779 210.392 262.924 209.515 263.135 208.609C263.888 204.597 264.035 200.495 263.573 196.439C263.447 195.507 263.346 194.619 263.18 193.801C263.098 193.391 263.039 192.991 262.954 192.614C262.868 192.236 262.783 191.874 262.701 191.526C262.557 190.83 262.36 190.216 262.212 189.676C262.064 189.136 261.919 188.669 261.79 188.292C261.66 187.915 261.578 187.641 261.508 187.419C261.463 187.313 261.43 187.203 261.408 187.09Z" fill="#263238"/>
<path d="M277.565 180.999C277.572 181.033 277.572 181.069 277.565 181.103C277.565 181.184 277.536 181.284 277.517 181.403C277.469 181.665 277.41 182.057 277.306 182.557C277.098 183.552 276.75 184.984 276.194 186.723C275.638 188.462 274.922 190.497 274.048 192.739C273.173 194.982 272.165 197.42 271.208 200.017C270.252 202.615 269.485 205.145 268.78 207.439C268.076 209.733 267.424 211.805 266.783 213.507C266.289 214.857 265.721 216.179 265.081 217.466C264.859 217.925 264.659 218.266 264.533 218.502L264.381 218.765C264.365 218.797 264.345 218.827 264.321 218.854C264.329 218.819 264.342 218.786 264.358 218.754L264.492 218.48C264.607 218.236 264.792 217.888 265 217.426C265.433 216.508 266.019 215.161 266.631 213.452C267.242 211.743 267.891 209.682 268.58 207.38C269.27 205.079 270.015 202.541 270.99 199.94C271.964 197.338 272.969 194.896 273.851 192.662C274.733 190.427 275.486 188.399 276.038 186.671C276.59 184.943 276.968 183.523 277.202 182.535C277.321 182.043 277.395 181.654 277.458 181.395C277.487 181.277 277.51 181.181 277.528 181.099C277.535 181.064 277.548 181.03 277.565 180.999Z" fill="#263238"/>
<path d="M244.302 175.886C244.153 175.744 243.961 175.655 243.756 175.634C243.551 175.613 243.344 175.66 243.169 175.768C242.994 175.877 242.86 176.04 242.788 176.233C242.716 176.426 242.71 176.637 242.771 176.833C243.14 178.023 243.593 179.185 244.127 180.311C245.61 183.46 249.969 194.741 252.008 200.946C254.047 207.151 256.919 218.706 256.919 218.706L261.275 218.003C261.275 218.003 257.29 199.004 253.416 192.14C250.269 186.653 247.141 178.705 244.302 175.886Z" fill="#455A64"/>
<path d="M253.198 204.824C253.293 204.989 253.368 205.164 253.424 205.345C253.554 205.686 253.728 206.182 253.924 206.803C254.325 208.043 254.818 209.763 255.311 211.698C255.804 213.633 256.215 215.376 256.5 216.645C256.634 217.245 256.741 217.755 256.83 218.151C256.878 218.334 256.908 218.521 256.919 218.71C256.841 218.538 256.781 218.358 256.741 218.173C256.638 217.777 256.504 217.278 256.345 216.693L255.088 211.75C254.595 209.826 254.128 208.091 253.769 206.844L253.339 205.364C253.274 205.189 253.227 205.008 253.198 204.824Z" fill="#263238"/>
<path d="M259.106 218.358C259.094 218.321 259.087 218.283 259.084 218.244C259.084 218.151 259.054 218.04 259.032 217.899C258.988 217.6 258.947 217.159 258.854 216.582C258.695 215.443 258.409 213.796 257.942 211.791C257.384 209.442 256.703 207.124 255.904 204.846C255.01 202.256 253.891 199.488 252.619 196.606C250.058 190.852 247.501 185.75 245.818 181.98C244.969 180.097 244.309 178.561 243.875 177.488C243.653 176.955 243.505 176.537 243.386 176.252C243.338 176.119 243.297 176.015 243.264 175.927C243.248 175.891 243.236 175.854 243.23 175.816C243.23 175.816 243.253 175.849 243.286 175.919C243.319 175.99 243.371 176.108 243.431 176.234L243.957 177.455C244.417 178.513 245.099 180.045 245.966 181.895C247.682 185.65 250.266 190.738 252.831 196.499C254.102 199.385 255.218 202.174 256.104 204.761C256.897 207.052 257.564 209.386 258.102 211.75C258.462 213.338 258.743 214.944 258.943 216.56C259.021 217.134 259.047 217.581 259.08 217.885C259.08 218.025 259.099 218.136 259.106 218.229C259.112 218.272 259.112 218.315 259.106 218.358Z" fill="#263238"/>
<path d="M261.274 218.007C261.207 217.764 261.157 217.517 261.126 217.267C261.041 216.756 260.926 216.083 260.789 215.269C260.489 213.585 260.048 211.265 259.373 208.742C258.698 206.219 257.983 203.965 257.419 202.352L256.752 200.45C256.656 200.221 256.579 199.983 256.522 199.74C256.645 199.957 256.75 200.184 256.838 200.417C257.023 200.857 257.286 201.501 257.579 202.304C258.367 204.395 259.042 206.527 259.603 208.69C260.163 210.853 260.615 213.042 260.956 215.25C261.082 216.098 261.174 216.786 261.223 217.263C261.258 217.509 261.276 217.758 261.274 218.007Z" fill="#263238"/>
<path d="M270.211 217.382H253.212V238.053H270.211V217.382Z" fill="#6F5FFE"/>
<g opacity="0.3">
<path d="M270.211 217.382H253.212V238.053H270.211V217.382Z" fill="black"/>
</g>
<path d="M264.788 217.382H249.709V238.053H264.788V217.382Z" fill="#6F5FFE"/>
<path d="M43.8154 210.196C40.9168 208.346 36.9062 208.309 34.0892 210.274C31.4129 212.142 30.0526 215.539 30.1712 218.784C30.2898 222.029 31.8726 226.017 34.8268 227.73L43.5004 227.693C44.8943 226.681 46.0456 225.372 46.8712 223.861C47.6968 222.351 48.1761 220.676 48.2746 218.958C48.4043 215.539 46.7104 212.046 43.8154 210.196Z" fill="#455A64"/>
<path d="M39.5415 228.056C39.5007 227.811 39.4833 227.564 39.4896 227.316C39.4896 226.783 39.4525 226.102 39.4303 225.285C39.3858 223.571 39.3191 221.215 39.2042 218.591C39.0893 215.968 38.9484 213.611 38.8335 211.898C38.7853 211.084 38.7445 210.418 38.7112 209.87C38.6874 209.624 38.6874 209.376 38.7112 209.13C38.7733 209.373 38.813 209.621 38.8298 209.87C38.8891 210.348 38.9595 211.04 39.0411 211.894C39.1968 213.604 39.3673 215.964 39.4859 218.588C39.6045 221.211 39.6379 223.579 39.6304 225.296C39.6304 226.154 39.6304 226.846 39.6008 227.327C39.603 227.571 39.5831 227.815 39.5415 228.056Z" fill="#263238"/>
<path d="M31.0461 218.059C31.0461 218.133 30.5679 218.158 29.9934 218.11C29.4188 218.062 28.9592 217.962 28.9629 217.888C28.9666 217.814 29.4411 217.788 30.0156 217.833C30.5901 217.877 31.0535 217.981 31.0461 218.059Z" fill="#263238"/>
<path d="M31.2087 215.136C31.1754 215.206 30.7714 215.095 30.3006 214.884C29.8299 214.673 29.474 214.451 29.5037 214.381C29.5333 214.311 29.9411 214.425 30.4118 214.632C30.8826 214.84 31.2384 215.08 31.2087 215.136Z" fill="#263238"/>
<path d="M32.7139 212.967C32.6732 213.03 32.2172 212.816 31.7428 212.423C31.2683 212.031 30.9681 211.621 31.0237 211.572C31.0793 211.524 31.4574 211.828 31.917 212.209C32.3766 212.59 32.7547 212.901 32.7139 212.967Z" fill="#263238"/>
<path d="M34.2301 210.921C34.1596 210.951 33.9409 210.611 33.7408 210.159C33.5406 209.708 33.4331 209.316 33.5036 209.282C33.574 209.249 33.7927 209.593 33.9928 210.048C34.193 210.503 34.2968 210.892 34.2301 210.921Z" fill="#263238"/>
<path d="M36.6058 209.471C36.5354 209.501 36.3018 209.138 36.1424 208.635C35.9831 208.132 35.9719 207.695 36.0461 207.684C36.1202 207.673 36.2574 208.054 36.4167 208.55C36.5761 209.045 36.6762 209.438 36.6058 209.471Z" fill="#263238"/>
<path d="M40.5683 207.832C40.6425 207.858 40.598 208.168 40.4719 208.527C40.3459 208.886 40.1828 209.153 40.1013 209.127C40.0197 209.101 40.0716 208.794 40.1977 208.435C40.3237 208.076 40.4979 207.806 40.5683 207.832Z" fill="#263238"/>
<path d="M43.5112 209.094C43.5631 209.149 43.3741 209.408 43.0886 209.671C42.8032 209.934 42.5326 210.1 42.4807 210.041C42.4289 209.982 42.6179 209.726 42.8996 209.464C43.1813 209.201 43.4593 209.038 43.5112 209.094Z" fill="#263238"/>
<path d="M46.0985 210.762C46.143 210.825 45.9132 211.055 45.587 211.277C45.2608 211.499 44.9606 211.624 44.9161 211.561C44.8716 211.499 45.1051 211.269 45.4313 211.047C45.7575 210.825 46.0577 210.699 46.0985 210.762Z" fill="#263238"/>
<path d="M47.937 213.249C47.9667 213.319 47.6071 213.541 47.129 213.744C46.6508 213.948 46.2394 214.055 46.2097 213.985C46.18 213.915 46.5433 213.693 47.0215 213.493C47.4996 213.293 47.9074 213.178 47.937 213.249Z" fill="#263238"/>
<path d="M48.6635 215.964C48.6635 216.038 48.2929 216.149 47.8369 216.205C47.381 216.26 46.9918 216.249 46.9807 216.172C46.9696 216.094 47.3514 215.99 47.8036 215.931C48.2558 215.872 48.6524 215.887 48.6635 215.964Z" fill="#263238"/>
<path d="M49.0381 219.305C49.0085 219.376 48.6156 219.272 48.1634 219.076C47.7112 218.88 47.3627 218.662 47.3924 218.591C47.422 218.521 47.8187 218.625 48.2709 218.821C48.7231 219.017 49.0715 219.235 49.0381 219.305Z" fill="#263238"/>
<path d="M48.7082 222.173C48.6822 222.243 48.1855 222.125 47.6666 221.785C47.1477 221.444 46.84 221.045 46.8919 220.989C46.9438 220.934 47.3256 221.233 47.8186 221.551C48.3116 221.87 48.7341 222.11 48.7082 222.173Z" fill="#263238"/>
<path d="M47.2109 224.781C47.1664 224.841 46.7698 224.611 46.3917 224.201C46.0136 223.79 45.8097 223.383 45.869 223.338C45.9283 223.294 46.2397 223.623 46.6104 224.012C46.981 224.4 47.2627 224.722 47.2109 224.781Z" fill="#263238"/>
<path d="M33.0144 225.089C33.0477 225.155 32.6437 225.459 32.084 225.725C31.5243 225.991 31.0647 226.18 31.0165 226.121C30.9683 226.062 31.3871 225.751 31.9431 225.481C32.4991 225.211 32.9773 225.022 33.0144 225.089Z" fill="#263238"/>
<path d="M31.7168 222.728C31.7465 222.798 31.4129 223.016 30.9755 223.216C30.5381 223.416 30.1489 223.523 30.1156 223.453C30.0822 223.383 30.4195 223.164 30.8569 222.965C31.2943 222.765 31.6835 222.658 31.7168 222.728Z" fill="#263238"/>
<path d="M30.7642 220.63C30.7642 220.704 30.3639 220.826 29.8449 220.9C29.326 220.974 28.9034 220.97 28.8923 220.9C28.8812 220.83 29.2926 220.704 29.8079 220.634C30.3231 220.563 30.7531 220.56 30.7642 220.63Z" fill="#263238"/>
<path d="M33.8888 219.483C33.911 219.557 33.5181 219.742 32.9806 219.801C32.4432 219.86 32.0132 219.768 32.0206 219.694C32.028 219.62 32.4432 219.587 32.9473 219.527C33.4514 219.468 33.8665 219.409 33.8888 219.483Z" fill="#263238"/>
<path d="M36.4875 216.904C36.5097 216.975 36.1909 217.137 35.7461 217.178C35.3013 217.219 34.9751 217.126 34.9825 217.052C34.99 216.978 35.3236 216.945 35.7239 216.904C36.1242 216.864 36.4652 216.83 36.4875 216.904Z" fill="#263238"/>
<path d="M36.9841 214.836C36.9581 214.91 36.6134 214.854 36.2131 214.718C35.8127 214.581 35.5088 214.41 35.5347 214.348C35.5607 214.285 35.9054 214.329 36.3057 214.47C36.7061 214.61 37.01 214.766 36.9841 214.836Z" fill="#263238"/>
<path d="M37.9364 212.745C37.8846 212.801 37.6473 212.645 37.4768 212.349C37.3063 212.053 37.2915 211.776 37.3656 211.757C37.4398 211.739 37.5658 211.954 37.7363 212.213C37.9068 212.472 37.992 212.694 37.9364 212.745Z" fill="#263238"/>
<path d="M36.7876 221.303C36.8061 221.377 36.5096 221.514 36.1204 221.611C35.9375 221.659 35.7497 221.686 35.5607 221.692L35.5088 221.529C35.6089 221.529 35.6719 221.529 35.6867 221.548C35.7015 221.566 35.6571 221.625 35.5755 221.688L35.5199 221.525C35.6917 221.444 35.872 221.382 36.0574 221.34C36.4429 221.248 36.7691 221.229 36.7876 221.303Z" fill="#263238"/>
<path d="M37.3178 224.97C37.3437 225.04 36.9471 225.255 36.4652 225.451C35.9834 225.647 35.5423 225.747 35.5163 225.677C35.4904 225.606 35.887 225.388 36.3652 225.196C36.8433 225.003 37.2955 224.9 37.3178 224.97Z" fill="#263238"/>
<path d="M34.3891 223.342C34.415 223.413 34.1593 223.564 33.822 223.679C33.4846 223.794 33.1918 223.831 33.1659 223.757C33.1399 223.683 33.3957 223.535 33.733 223.42C34.0703 223.305 34.352 223.268 34.3891 223.342Z" fill="#263238"/>
<path d="M34.6118 215.883C34.6118 215.957 34.1522 215.913 33.6444 215.731C33.1365 215.55 32.7622 215.306 32.7955 215.239C32.8289 215.173 33.2403 215.295 33.737 215.469C34.2337 215.642 34.6303 215.82 34.6118 215.883Z" fill="#263238"/>
<path d="M41.7139 215.08C41.7584 215.143 41.51 215.38 41.1616 215.609C40.8132 215.839 40.4944 215.979 40.4499 215.909C40.4054 215.839 40.6575 215.609 41.0059 215.38C41.3543 215.15 41.6731 215.006 41.7139 215.08Z" fill="#263238"/>
<path d="M42.1028 218.75C42.1028 218.824 41.8545 218.943 41.5172 219.013C41.1799 219.083 40.8944 219.08 40.8759 219.013C40.8574 218.947 41.1243 218.821 41.4616 218.75C41.7989 218.68 42.0843 218.676 42.1028 218.75Z" fill="#263238"/>
<path d="M42.5515 222.891C42.5181 222.957 42.1401 222.854 41.7101 222.654C41.2801 222.454 40.9688 222.236 40.9688 222.166C40.9688 222.095 41.3802 222.203 41.8102 222.402C42.2401 222.602 42.5812 222.821 42.5515 222.891Z" fill="#263238"/>
<path d="M41.599 226.92C41.5397 226.972 41.295 226.772 41.0541 226.476C40.8132 226.18 40.6834 225.903 40.7242 225.855C40.765 225.806 41.0245 226.006 41.2691 226.302C41.5137 226.598 41.6583 226.868 41.599 226.92Z" fill="#263238"/>
<path d="M41.3951 212.361C41.4433 212.42 41.2802 212.623 41.0022 212.76C40.7242 212.897 40.4685 212.908 40.4499 212.834C40.4314 212.76 40.6315 212.642 40.8799 212.516C41.1282 212.39 41.3581 212.301 41.3951 212.361Z" fill="#263238"/>
<path d="M44.8866 216.072C44.9126 216.142 44.5901 216.32 44.1453 216.382C43.7005 216.445 43.3484 216.36 43.3521 216.286C43.3558 216.212 43.6968 216.164 44.0934 216.109C44.49 216.053 44.8607 216.001 44.8866 216.072Z" fill="#263238"/>
<path d="M44.1935 212.742C44.2269 212.808 43.9081 213.038 43.4522 213.182C42.9963 213.326 42.6071 213.326 42.596 213.252C42.5848 213.178 42.937 213.056 43.3669 212.916C43.7969 212.775 44.1565 212.671 44.1935 212.742Z" fill="#263238"/>
<path d="M45.6465 221.233C45.6465 221.307 45.0979 221.355 44.4381 221.233C43.7783 221.111 43.2853 220.863 43.3261 220.808C43.3669 220.752 43.871 220.848 44.5048 220.959C45.1386 221.07 45.6465 221.155 45.6465 221.233Z" fill="#263238"/>
<path d="M44.3602 226.073C44.3157 226.132 43.9117 225.895 43.5113 225.492C43.111 225.088 42.8775 224.7 42.9257 224.641C42.9739 224.582 43.2964 224.907 43.7004 225.299C44.1044 225.692 44.4009 226.013 44.3602 226.073Z" fill="#263238"/>
<path d="M38.6666 208.79C37.7814 209.327 36.966 209.971 36.2387 210.707C34.5518 212.552 33.493 214.884 33.214 217.367C33.0884 218.731 33.1495 220.107 33.3957 221.455C33.5942 222.562 33.8503 223.657 34.163 224.737C34.4298 225.658 34.6745 226.398 34.8376 226.913C34.9362 227.175 35.0143 227.445 35.0711 227.719C34.9353 227.474 34.8236 227.216 34.7375 226.95C34.541 226.446 34.2667 225.714 33.9776 224.793C33.6325 223.713 33.3552 222.613 33.1473 221.5C32.8785 220.129 32.8086 218.727 32.9398 217.337C33.2175 214.793 34.3274 212.41 36.0978 210.559C36.6355 210.014 37.2439 209.544 37.9067 209.16C38.0852 209.051 38.271 208.955 38.4627 208.871C38.5267 208.835 38.5952 208.808 38.6666 208.79Z" fill="#263238"/>
<path d="M42.4438 227.919C42.3808 227.886 43.0628 226.839 43.6855 224.959C44.5191 222.506 44.7728 219.893 44.4268 217.326C44.24 215.91 43.8427 214.529 43.2481 213.23C42.7508 212.186 42.0704 211.238 41.2391 210.433C40.6512 209.918 39.9857 209.498 39.2672 209.19C38.7556 208.979 38.448 208.927 38.4517 208.905C38.5266 208.893 38.6029 208.893 38.6778 208.905C38.8908 208.943 39.1004 208.999 39.3042 209.071C40.0565 209.347 40.7542 209.753 41.3651 210.27C42.2416 211.073 42.9584 212.033 43.4779 213.101C44.0961 214.411 44.5086 215.809 44.7011 217.245C45.0555 219.853 44.7693 222.508 43.8671 224.981C43.7115 225.459 43.4965 225.866 43.3593 226.236C43.2222 226.606 43.0331 226.902 42.8997 227.146C42.7675 227.415 42.6151 227.673 42.4438 227.919Z" fill="#263238"/>
<path d="M31.7168 227.264H46.9808L47.0735 230.313H31.7168V227.264Z" fill="#6F5FFE"/>
<path d="M33.0142 228.789L33.8889 238.098H45.0497L45.9467 228.892L33.0142 228.789Z" fill="#6F5FFE"/>
<path d="M47.0737 230.35C47.0737 230.428 43.6376 230.487 39.3972 230.487C35.1568 230.487 31.7207 230.428 31.7207 230.35C31.7207 230.272 35.1568 230.213 39.3972 230.213C43.6376 230.213 47.0737 230.272 47.0737 230.35Z" fill="#263238"/>
<path d="M45.5239 233.184C45.4444 233.394 45.3345 233.591 45.1977 233.769C44.8534 234.275 44.4558 234.742 44.0116 235.164L43.9412 235.23L43.8745 235.156C42.9574 234.197 41.955 233.323 40.8795 232.544H41.05L39.723 233.706L38.1551 235.06L38.0698 235.138L37.9809 235.064L35.4344 232.925L35.5826 232.907C35.0563 233.551 34.6115 234.087 34.2631 234.516C34.1111 234.722 33.937 234.911 33.7441 235.079C33.8663 234.854 34.009 234.641 34.1704 234.442L35.4158 232.781L35.4826 232.696L35.5678 232.762L38.1625 234.857H37.992L39.5525 233.488L40.8832 232.33L40.9647 232.259L41.0537 232.322C42.1319 233.118 43.1255 234.022 44.019 235.019H43.8782C44.4765 234.454 45.027 233.84 45.5239 233.184Z" fill="#263238"/>
<path d="M228.933 121.755H67.3523C64.3696 121.755 61.9517 124.168 61.9517 127.146V230.154C61.9517 233.131 64.3696 235.545 67.3523 235.545H228.933C231.916 235.545 234.334 233.131 234.334 230.154V127.146C234.334 124.168 231.916 121.755 228.933 121.755Z" fill="#455A64"/>
<path d="M56.3102 228.193H243.071V231.564C243.071 233.31 242.376 234.985 241.138 236.221C239.901 237.456 238.223 238.15 236.473 238.15H62.8933C61.1434 238.15 59.4652 237.456 58.2279 236.221C56.9905 234.985 56.2954 233.31 56.2954 231.564V228.193H56.3102Z" fill="#455A64"/>
<path d="M131.151 227.127L133.468 230.809H166.079L168.229 227.127H131.151Z" fill="#263238"/>
<path d="M232.851 227.127C232.851 227.19 194.591 227.238 147.409 227.238C100.227 227.238 61.9517 227.19 61.9517 227.127C61.9517 227.064 100.204 227.016 147.409 227.016C194.613 227.016 232.851 227.064 232.851 227.127Z" fill="#263238"/>
<path d="M227.51 128.296H68.1012C67.4318 128.296 66.8892 128.838 66.8892 129.506V222.909C66.8892 223.577 67.4318 224.119 68.1012 224.119H227.51C228.18 224.119 228.722 223.577 228.722 222.909V129.506C228.722 128.838 228.18 128.296 227.51 128.296Z" fill="#EBEBEB"/>
<path d="M228.548 224.26H66.7148L66.8891 135.46H228.548V224.26Z" fill="white"/>
<path d="M80.1624 132C80.1646 132.256 80.0906 132.507 79.9498 132.721C79.809 132.934 79.6078 133.102 79.3716 133.201C79.1354 133.301 78.875 133.328 78.6233 133.279C78.3716 133.231 78.1401 133.108 77.958 132.928C77.776 132.748 77.6517 132.518 77.6009 132.267C77.5501 132.017 77.575 131.756 77.6726 131.52C77.7702 131.283 77.936 131.081 78.1489 130.938C78.3619 130.796 78.6125 130.72 78.8688 130.72C79.2102 130.719 79.5382 130.853 79.7807 131.093C80.0232 131.333 80.1604 131.659 80.1624 132Z" fill="#263238"/>
<path d="M72.3304 132C72.3326 132.257 72.2583 132.508 72.117 132.722C71.9757 132.936 71.7738 133.103 71.537 133.202C71.3001 133.301 71.0391 133.328 70.7871 133.278C70.5352 133.229 70.3036 133.106 70.1221 132.924C69.9405 132.743 69.817 132.512 69.7675 132.26C69.7179 132.009 69.7445 131.748 69.8438 131.512C69.9431 131.276 70.1106 131.074 70.325 130.933C70.5394 130.792 70.7911 130.718 71.0479 130.72C71.3874 130.722 71.7125 130.857 71.9526 131.097C72.1927 131.337 72.3284 131.661 72.3304 132Z" fill="#263238"/>
<path d="M76.0892 132C76.0892 132.256 76.0133 132.505 75.8712 132.718C75.729 132.93 75.527 133.096 75.2906 133.193C75.0543 133.291 74.7941 133.317 74.5432 133.267C74.2923 133.217 74.0618 133.094 73.8808 132.913C73.6999 132.733 73.5767 132.503 73.5268 132.252C73.4769 132.002 73.5025 131.742 73.6004 131.506C73.6983 131.27 73.8641 131.069 74.0769 130.927C74.2896 130.785 74.5397 130.709 74.7956 130.709C74.9656 130.709 75.134 130.742 75.2912 130.806C75.4484 130.871 75.5912 130.966 75.7114 131.086C75.8316 131.206 75.9269 131.349 75.9917 131.506C76.0566 131.662 76.0897 131.831 76.0892 132Z" fill="#263238"/>
<path d="M228.722 215.683H66.7148V224.26H228.722V215.683Z" fill="#263238"/>
<path d="M72.8384 220.963V221.237H71.5485V221.022L72.2416 220.364C72.4121 220.201 72.4418 220.097 72.4418 219.994C72.4418 219.835 72.3306 219.742 72.1156 219.742C72.0381 219.738 71.9607 219.752 71.8898 219.784C71.8189 219.815 71.7565 219.863 71.7078 219.923L71.478 219.749C71.5593 219.653 71.6618 219.577 71.7776 219.527C71.8934 219.477 72.0192 219.454 72.1452 219.461C72.5159 219.461 72.7717 219.65 72.7717 219.96C72.7692 220.069 72.7415 220.175 72.6906 220.271C72.6398 220.366 72.5673 220.449 72.4788 220.512L72.0118 220.956L72.8384 220.963Z" fill="white"/>
<path d="M73.0126 220.097C73.0126 220.056 73.0249 220.016 73.0478 219.982C73.0708 219.948 73.1035 219.921 73.1416 219.906C73.1798 219.89 73.2217 219.886 73.262 219.894C73.3024 219.903 73.3394 219.923 73.3683 219.952C73.3971 219.982 73.4166 220.019 73.4242 220.059C73.4318 220.1 73.4271 220.141 73.4109 220.179C73.3946 220.217 73.3674 220.249 73.3328 220.271C73.2982 220.294 73.2577 220.305 73.2165 220.305C73.1892 220.305 73.1622 220.3 73.137 220.29C73.1117 220.279 73.0889 220.264 73.0698 220.245C73.0507 220.225 73.0358 220.202 73.026 220.177C73.0161 220.152 73.0116 220.124 73.0126 220.097ZM73.0126 221.048C73.0086 221.019 73.011 220.989 73.0196 220.961C73.0281 220.933 73.0426 220.906 73.0621 220.884C73.0815 220.862 73.1056 220.844 73.1325 220.832C73.1595 220.82 73.1887 220.813 73.2183 220.813C73.2479 220.813 73.2772 220.82 73.3041 220.832C73.3311 220.844 73.3551 220.862 73.3746 220.884C73.3941 220.906 73.4085 220.933 73.4171 220.961C73.4256 220.989 73.428 221.019 73.424 221.048C73.428 221.077 73.4256 221.107 73.4171 221.136C73.4085 221.164 73.3941 221.19 73.3746 221.212C73.3551 221.234 73.3311 221.252 73.3041 221.265C73.2772 221.277 73.2479 221.283 73.2183 221.283C73.1887 221.283 73.1595 221.277 73.1325 221.265C73.1056 221.252 73.0815 221.234 73.0621 221.212C73.0426 221.19 73.0281 221.164 73.0196 221.136C73.011 221.107 73.0086 221.077 73.0126 221.048Z" fill="white"/>
<path d="M74.2356 219.49V221.237H73.9131V219.757H73.5425V219.483L74.2356 219.49Z" fill="white"/>
<path d="M76.1446 220.841H75.8332V221.237H75.5181V220.841H74.5581V220.63L75.4218 219.52H75.7702L74.9547 220.597H75.5293V220.245H75.8332V220.597H76.1446V220.841Z" fill="white"/>
<path d="M211.79 220.142H79.0024V220.745H211.79V220.142Z" fill="white"/>
<path d="M120.398 219.494H78.9023V221.107H120.398V219.494Z" fill="#6F5FFE"/>
<path d="M121.74 220.445C121.74 220.844 121.622 221.234 121.4 221.565C121.178 221.897 120.863 222.155 120.493 222.308C120.124 222.461 119.718 222.501 119.326 222.423C118.934 222.345 118.574 222.153 118.292 221.871C118.009 221.589 117.817 221.23 117.739 220.838C117.661 220.447 117.701 220.042 117.854 219.673C118.007 219.305 118.266 218.99 118.598 218.768C118.93 218.547 119.321 218.428 119.72 218.428C120.256 218.428 120.77 218.641 121.149 219.019C121.528 219.397 121.74 219.91 121.74 220.445Z" fill="#6F5FFE"/>
<path d="M215.134 220.426C215.133 220.507 215.115 220.586 215.082 220.66C215.049 220.733 215.001 220.799 214.941 220.853C214.881 220.907 214.811 220.948 214.734 220.973C214.657 220.999 214.576 221.008 214.496 221C214.018 221 213.755 220.693 213.755 220.13C213.74 220.011 213.752 219.89 213.789 219.775C213.826 219.661 213.887 219.556 213.969 219.467C214.051 219.379 214.151 219.309 214.263 219.263C214.374 219.218 214.494 219.197 214.615 219.202C214.775 219.198 214.934 219.237 215.074 219.316L214.952 219.561C214.853 219.5 214.738 219.47 214.622 219.475C214.292 219.475 214.085 219.679 214.085 220.075C214.144 220.012 214.217 219.964 214.298 219.933C214.379 219.901 214.465 219.888 214.552 219.894C214.625 219.889 214.699 219.899 214.769 219.923C214.839 219.947 214.903 219.986 214.957 220.035C215.012 220.085 215.055 220.146 215.086 220.213C215.116 220.28 215.132 220.353 215.134 220.426ZM214.818 220.426C214.818 220.245 214.681 220.13 214.47 220.13C214.426 220.123 214.38 220.125 214.336 220.137C214.293 220.148 214.252 220.169 214.217 220.197C214.182 220.225 214.154 220.261 214.133 220.301C214.113 220.341 214.101 220.385 214.099 220.43C214.099 220.593 214.229 220.722 214.47 220.722C214.512 220.729 214.555 220.727 214.595 220.716C214.636 220.706 214.674 220.686 214.707 220.66C214.74 220.633 214.767 220.6 214.786 220.562C214.805 220.525 214.816 220.483 214.818 220.441V220.426Z" fill="white"/>
<path d="M215.293 219.827C215.289 219.798 215.291 219.768 215.3 219.74C215.308 219.711 215.323 219.685 215.342 219.663C215.362 219.641 215.386 219.623 215.413 219.611C215.44 219.599 215.469 219.592 215.499 219.592C215.528 219.592 215.557 219.599 215.584 219.611C215.611 219.623 215.635 219.641 215.655 219.663C215.674 219.685 215.689 219.711 215.697 219.74C215.706 219.768 215.708 219.798 215.704 219.827C215.708 219.856 215.706 219.886 215.697 219.914C215.689 219.943 215.674 219.969 215.655 219.991C215.635 220.013 215.611 220.031 215.584 220.043C215.557 220.056 215.528 220.062 215.499 220.062C215.469 220.062 215.44 220.056 215.413 220.043C215.386 220.031 215.362 220.013 215.342 219.991C215.323 219.969 215.308 219.943 215.3 219.914C215.291 219.886 215.289 219.856 215.293 219.827ZM215.293 220.778C215.289 220.749 215.291 220.719 215.3 220.691C215.308 220.662 215.323 220.636 215.342 220.614C215.362 220.592 215.386 220.574 215.413 220.562C215.44 220.549 215.469 220.543 215.499 220.543C215.528 220.543 215.557 220.549 215.584 220.562C215.611 220.574 215.635 220.592 215.655 220.614C215.674 220.636 215.689 220.662 215.697 220.691C215.706 220.719 215.708 220.749 215.704 220.778C215.708 220.807 215.706 220.837 215.697 220.865C215.689 220.894 215.674 220.92 215.655 220.942C215.635 220.964 215.611 220.982 215.584 220.994C215.557 221.007 215.528 221.013 215.499 221.013C215.469 221.013 215.44 221.007 215.413 220.994C215.386 220.982 215.362 220.964 215.342 220.942C215.323 220.92 215.308 220.894 215.3 220.865C215.291 220.837 215.289 220.807 215.293 220.778Z" fill="white"/>
<path d="M215.912 220.093C215.912 219.52 216.227 219.194 216.653 219.194C217.08 219.194 217.395 219.52 217.395 220.093C217.395 220.667 217.08 220.993 216.653 220.993C216.227 220.993 215.912 220.667 215.912 220.093ZM217.046 220.093C217.046 219.672 216.883 219.479 216.642 219.479C216.401 219.479 216.238 219.672 216.238 220.093C216.238 220.515 216.405 220.711 216.642 220.711C216.88 220.711 217.046 220.515 217.046 220.093Z" fill="white"/>
<path d="M217.591 220.093C217.591 219.52 217.906 219.194 218.332 219.194C218.758 219.194 219.073 219.52 219.073 220.093C219.073 220.667 218.758 220.993 218.332 220.993C217.906 220.993 217.591 220.667 217.591 220.093ZM218.729 220.093C218.729 219.672 218.562 219.479 218.321 219.479C218.08 219.479 217.921 219.672 217.921 220.093C217.921 220.515 218.084 220.711 218.321 220.711C218.558 220.711 218.729 220.515 218.729 220.093Z" fill="white"/>
<path d="M221.883 219.986H221.275V218.243H223.021V218.847H221.883V219.986Z" fill="white"/>
<path d="M223.021 222.258H221.275V220.519H221.88V221.655H223.021V222.258Z" fill="white"/>
<path d="M225.801 222.258H224.059V221.655H225.193V220.515H225.801V222.258Z" fill="white"/>
<path d="M225.802 219.982H225.197V218.847H224.056V218.243H225.802V219.982Z" fill="white"/>
<path d="M88.9103 140.74H79.3693L74.6025 148.987L79.3693 157.23H88.9103L93.677 148.987L88.9103 140.74Z" fill="#EBEBEB"/>
<path d="M80.1479 150.6C79.7044 150.145 79.3139 149.641 78.984 149.098C78.6514 148.55 78.5118 147.906 78.5874 147.27C78.6875 146.913 78.7679 146.551 78.8283 146.186C78.8654 145.675 78.6504 145.142 78.8283 144.665C79.1101 143.925 80.1146 143.803 80.7262 143.289C81.2006 142.885 81.4341 142.234 81.9568 141.898C82.4422 141.641 83.0031 141.565 83.5395 141.683C84.0702 141.805 84.6155 141.852 85.1593 141.824C85.535 141.743 85.9062 141.643 86.2713 141.524C86.6385 141.409 87.0358 141.436 87.3833 141.602C87.5531 141.694 87.6799 141.849 87.7367 142.034C87.7935 142.218 87.7757 142.418 87.6873 142.589C88.3137 142.301 89.1069 142.789 89.2774 143.452C89.3428 143.791 89.3118 144.141 89.188 144.463C89.0642 144.786 88.8525 145.067 88.5769 145.276C88.0223 145.688 87.3718 145.953 86.6865 146.045C84.7701 146.415 82.6944 146.204 81.0449 145.168" fill="#263238"/>
<path d="M88.9919 152.635C88.9289 151.455 88.599 149.035 88.2728 146.848C88.1041 145.716 87.5151 144.687 86.6225 143.968C85.73 143.248 84.5991 142.89 83.4542 142.963H83.2169C80.6816 143.282 79.5362 145.609 79.9254 148.143L80.6667 157.227H86.8569C86.8569 157.227 86.7086 155.632 86.7086 155.617C86.7086 155.603 89.1254 155.077 88.9919 152.635Z" fill="#FFBE9D"/>
<path d="M86.7048 155.588C85.5766 155.682 84.4455 155.442 83.4541 154.896C83.4541 154.896 84.3289 156.601 86.753 156.22L86.7048 155.588Z" fill="#EB996E"/>
<path d="M87.4832 148.943C87.4904 149.033 87.4618 149.122 87.4035 149.191C87.3452 149.261 87.262 149.304 87.1718 149.313C87.1284 149.318 87.0843 149.315 87.0421 149.304C86.9999 149.292 86.9604 149.273 86.9259 149.246C86.8914 149.219 86.8626 149.185 86.8412 149.147C86.8198 149.109 86.8062 149.067 86.8011 149.024C86.7949 148.934 86.8238 148.845 86.8819 148.776C86.94 148.707 87.0227 148.663 87.1125 148.654C87.1559 148.648 87.1999 148.651 87.2421 148.663C87.2844 148.674 87.3239 148.694 87.3584 148.721C87.3928 148.748 87.4216 148.781 87.4431 148.819C87.4645 148.857 87.4781 148.899 87.4832 148.943Z" fill="#263238"/>
<path d="M87.8282 148.077C87.7874 148.125 87.5094 147.947 87.1313 147.973C86.7532 147.999 86.4938 148.206 86.4493 148.162C86.4048 148.117 86.4493 148.058 86.5827 147.962C86.7378 147.84 86.9266 147.767 87.1239 147.755C87.3196 147.741 87.5146 147.79 87.6799 147.895C87.8022 147.977 87.8467 148.054 87.8282 148.077Z" fill="#263238"/>
<path d="M83.9325 149.198C83.9337 149.286 83.9029 149.373 83.8457 149.441C83.7886 149.508 83.7089 149.554 83.6212 149.568C83.5334 149.577 83.4453 149.552 83.376 149.497C83.3067 149.443 83.2617 149.363 83.2505 149.275C83.2494 149.187 83.2802 149.101 83.3373 149.033C83.3945 148.965 83.4742 148.92 83.5619 148.905C83.6497 148.896 83.7377 148.921 83.807 148.976C83.8763 149.031 83.9214 149.11 83.9325 149.198Z" fill="#263238"/>
<path d="M84.1363 148.395C84.0955 148.443 83.8175 148.265 83.4394 148.291C83.0613 148.317 82.8019 148.521 82.7574 148.48C82.7129 148.439 82.7574 148.376 82.8908 148.28C83.0461 148.155 83.2364 148.081 83.4356 148.068C83.6348 148.056 83.833 148.105 84.0028 148.21C84.1103 148.291 84.1548 148.373 84.1363 148.395Z" fill="#263238"/>
<path d="M85.6855 151.07C85.8796 150.994 86.0827 150.943 86.2897 150.918C86.3861 150.918 86.475 150.878 86.4861 150.811C86.4876 150.712 86.4592 150.616 86.4046 150.534L86.071 149.823C85.7673 149.227 85.5108 148.609 85.3037 147.973C85.6572 148.548 85.9634 149.151 86.2193 149.775C86.3305 150.023 86.4379 150.263 86.5417 150.489C86.6065 150.601 86.6325 150.731 86.6159 150.859C86.6037 150.894 86.5841 150.925 86.5585 150.951C86.5329 150.978 86.5019 150.998 86.4676 151.011C86.4147 151.028 86.36 151.039 86.3045 151.044C86.1001 151.079 85.8921 151.088 85.6855 151.07Z" fill="#263238"/>
<path d="M84.1324 146.915C84.1027 147.018 83.7247 146.996 83.2873 147.081C82.8499 147.166 82.5015 147.307 82.4347 147.218C82.368 147.129 82.4644 147.078 82.6015 146.967C82.7841 146.831 82.9963 146.741 83.2206 146.704C83.4436 146.66 83.6739 146.671 83.8915 146.737C84.0583 146.793 84.1472 146.867 84.1324 146.915Z" fill="#263238"/>
<path d="M87.6166 147C87.5536 147.089 87.2904 147.018 86.979 147.033C86.6677 147.048 86.4082 147.129 86.3415 147.033C86.2748 146.937 86.3415 146.904 86.4564 146.815C86.6031 146.705 86.7808 146.644 86.9642 146.641C87.1471 146.633 87.3281 146.681 87.4831 146.778C87.598 146.87 87.6425 146.956 87.6166 147Z" fill="#263238"/>
<path d="M80.2403 149.96C80.1958 149.96 78.5241 149.59 78.6909 151.244C78.8577 152.898 80.6666 152.354 80.6628 152.317C80.6591 152.28 80.2403 149.96 80.2403 149.96Z" fill="#FFBE9D"/>
<path d="M79.9217 151.754C79.9217 151.754 79.8957 151.777 79.8513 151.803C79.7845 151.839 79.7061 151.849 79.6326 151.828C79.518 151.771 79.4208 151.684 79.351 151.577C79.2813 151.47 79.2416 151.346 79.236 151.218C79.2167 151.076 79.2306 150.932 79.2767 150.796C79.2863 150.742 79.3093 150.691 79.3436 150.647C79.3779 150.604 79.4224 150.57 79.4732 150.548C79.5056 150.537 79.5408 150.537 79.5731 150.549C79.6054 150.56 79.6329 150.582 79.6511 150.611C79.6808 150.656 79.6733 150.693 79.6808 150.693C79.6882 150.693 79.7141 150.663 79.6808 150.593C79.6673 150.553 79.6413 150.519 79.6066 150.496C79.5821 150.481 79.5546 150.471 79.5259 150.466C79.4972 150.462 79.4679 150.463 79.4398 150.471C79.373 150.492 79.3125 150.529 79.264 150.579C79.2154 150.63 79.1803 150.692 79.1618 150.759C79.1062 150.91 79.0884 151.073 79.1099 151.233C79.114 151.382 79.1633 151.527 79.2513 151.648C79.3393 151.768 79.4619 151.86 79.6029 151.91C79.6493 151.918 79.6969 151.916 79.7424 151.904C79.7879 151.892 79.8302 151.87 79.8661 151.84C79.9439 151.81 79.9439 151.754 79.9217 151.754Z" fill="#EB996E"/>
<path d="M88.1507 144.565C88.0358 145.228 86.6865 145.838 85.556 145.805C84.5255 145.775 84.014 145.265 83.269 144.902C82.7945 144.673 82.7945 144.673 82.157 144.776C81.6381 144.861 81.3675 145.472 81.0783 145.912C81.6343 147.122 81.4082 148.528 81.171 149.838C81.1619 149.985 81.1031 150.125 81.0042 150.234C80.8974 150.299 80.7709 150.325 80.6469 150.307C80.5228 150.289 80.4092 150.228 80.3259 150.134C80.0516 149.839 79.8688 149.472 79.7995 149.076C79.5661 148.191 79.5106 147.27 79.6365 146.364C79.7594 145.457 80.146 144.607 80.7485 143.918C81.5427 143.082 82.6313 142.587 83.7842 142.538C84.9323 142.496 86.0645 142.815 87.0201 143.452C87.476 143.726 87.8578 144.107 88.1321 144.562" fill="#263238"/>
<path d="M85.9339 151.928L85.0814 151.532C85.0341 151.506 84.9801 151.493 84.9257 151.495C84.8663 151.509 84.8145 151.545 84.7811 151.595C84.6812 151.714 84.6186 151.86 84.6015 152.014C84.5843 152.168 84.6133 152.324 84.6848 152.461C84.7626 152.596 84.8854 152.699 85.0318 152.753C85.1782 152.806 85.3388 152.806 85.4854 152.753C85.6287 152.675 85.748 152.559 85.8309 152.418C85.9137 152.278 85.957 152.117 85.9562 151.954L85.9339 151.928Z" fill="#EB996E"/>
<path d="M85.5038 152.816C85.5038 152.816 85.3259 152.953 85.0034 152.861C84.8152 152.797 84.6577 152.665 84.5624 152.491C84.5018 152.386 84.4653 152.27 84.4557 152.149C84.4461 152.029 84.4635 151.908 84.5068 151.795C84.552 151.677 84.6229 151.571 84.7143 151.484C84.7586 151.444 84.8071 151.408 84.8589 151.377C84.8931 151.359 84.9313 151.349 84.9701 151.349C85.0089 151.349 85.047 151.359 85.0813 151.377C85.2777 151.484 85.4075 151.577 85.5372 151.658C85.7856 151.825 85.9338 151.939 85.9079 151.962C85.8819 151.984 85.7225 151.913 85.4557 151.777L84.9997 151.54C84.9664 151.54 84.9701 151.54 84.933 151.54C84.8958 151.565 84.861 151.593 84.8292 151.625C84.7594 151.693 84.7062 151.777 84.6736 151.869C84.6404 151.956 84.6258 152.049 84.631 152.142C84.6361 152.235 84.6607 152.326 84.7032 152.409C84.7754 152.549 84.8931 152.66 85.0368 152.724C85.3148 152.842 85.5038 152.783 85.5038 152.816Z" fill="#263238"/>
<path d="M85.2407 148.983C85.2407 148.983 85.2407 148.832 85.1518 148.569C85.0444 148.202 84.819 147.881 84.5105 147.655C84.2635 147.472 83.9703 147.36 83.6637 147.334C83.357 147.307 83.049 147.366 82.774 147.504C82.4989 147.642 82.2677 147.854 82.1062 148.115C81.9446 148.377 81.8591 148.678 81.8591 148.985C81.8591 149.292 81.9446 149.594 82.1062 149.855C82.2677 150.117 82.4989 150.328 82.774 150.466C83.049 150.604 83.357 150.663 83.6637 150.636C83.9703 150.61 84.2635 150.499 84.5105 150.315C84.819 150.089 85.0444 149.768 85.1518 149.401C85.2259 149.139 85.2222 148.983 85.2407 148.983C85.2593 148.983 85.2407 149.024 85.2407 149.098C85.2431 149.206 85.2319 149.314 85.2074 149.42C85.124 149.818 84.9021 150.173 84.581 150.423C84.3409 150.61 84.0575 150.733 83.757 150.782C83.4565 150.832 83.1484 150.805 82.8611 150.704C82.5056 150.578 82.1979 150.345 81.9804 150.037C81.7628 149.729 81.646 149.362 81.646 148.985C81.646 148.608 81.7628 148.241 81.9804 147.933C82.1979 147.626 82.5056 147.393 82.8611 147.266C83.1484 147.166 83.4565 147.139 83.757 147.188C84.0575 147.237 84.3409 147.361 84.581 147.548C84.9021 147.797 85.124 148.153 85.2074 148.55C85.2321 148.656 85.2433 148.764 85.2407 148.872C85.2519 148.946 85.2482 148.983 85.2407 148.983Z" fill="#263238"/>
<path d="M89.4033 148.82C89.3847 148.82 89.4033 148.672 89.3143 148.417C89.2105 148.061 88.9916 147.748 88.6916 147.529C88.4512 147.351 88.1658 147.243 87.8675 147.217C87.5691 147.191 87.2694 147.248 87.0018 147.383C86.7342 147.517 86.5093 147.723 86.3522 147.977C86.195 148.232 86.1118 148.525 86.1118 148.824C86.1118 149.123 86.195 149.416 86.3522 149.671C86.5093 149.925 86.7342 150.131 87.0018 150.265C87.2694 150.4 87.5691 150.457 87.8675 150.431C88.1658 150.405 88.4512 150.297 88.6916 150.119C88.9916 149.9 89.2105 149.587 89.3143 149.231C89.3884 148.976 89.3847 148.824 89.4033 148.824C89.4218 148.824 89.4033 148.861 89.4033 148.935C89.4053 149.041 89.3954 149.146 89.3736 149.25C89.2909 149.637 89.0744 149.982 88.762 150.226C88.5278 150.409 88.2511 150.53 87.9576 150.578C87.6641 150.626 87.3633 150.599 87.0829 150.5C86.7365 150.377 86.4369 150.149 86.225 149.849C86.0131 149.549 85.8994 149.191 85.8994 148.824C85.8994 148.457 86.0131 148.099 86.225 147.799C86.4369 147.499 86.7365 147.271 87.0829 147.148C87.3633 147.049 87.6641 147.022 87.9576 147.07C88.2511 147.118 88.5278 147.239 88.762 147.422C89.0746 147.667 89.2911 148.014 89.3736 148.402C89.3957 148.506 89.4056 148.611 89.4033 148.717C89.4144 148.783 89.4107 148.82 89.4033 148.82Z" fill="#263238"/>
<path d="M86.0081 148.439C85.971 148.473 85.8042 148.365 85.5818 148.373C85.3594 148.38 85.2111 148.487 85.1592 148.454C85.1073 148.421 85.263 148.188 85.5781 148.18C85.8932 148.173 86.0563 148.41 86.0081 148.439Z" fill="#263238"/>
<path d="M81.8602 148.739C81.8936 148.78 81.5674 149.076 81.1374 149.398C80.8943 149.619 80.6095 149.79 80.2997 149.901C80.2664 149.86 80.5925 149.564 81.0225 149.242C81.265 149.02 81.5499 148.849 81.8602 148.739Z" fill="#263238"/>
<path d="M116.269 148.902C116.269 148.954 111.981 148.998 106.691 148.998C101.402 148.998 97.1133 148.954 97.1133 148.902C97.1133 148.85 101.402 148.806 106.691 148.806C111.981 148.806 116.269 148.85 116.269 148.902Z" fill="#263238"/>
<path d="M107.406 150.903C107.406 150.955 105.131 151 102.321 151C99.5112 151 97.2354 150.955 97.2354 150.903C97.2354 150.852 99.5112 150.803 102.321 150.803C105.131 150.803 107.406 150.848 107.406 150.903Z" fill="#263238"/>
<path d="M173.645 163.683C175.323 164.636 176.795 165.911 177.975 167.435C179.156 168.959 180.023 170.702 180.524 172.563C182.314 178.957 187.789 195.607 187.789 195.607C187.789 195.607 190.918 199.281 191.251 202C191.585 204.72 190.918 211.302 189.909 212.531C189.617 212.887 189.243 213.167 188.817 213.345C188.392 213.524 187.93 213.596 187.47 213.555L174.301 212.309L169.111 177.647L173.645 163.683Z" fill="#6F5FFE"/>
<path d="M130.099 163.08C130.099 163.08 120.68 166.04 118.334 168.593L126.044 204.394L125.907 215.694H170.565C170.565 215.135 170.965 178.183 170.965 178.183L173.645 163.683L157.784 160.897L154.656 158.44L137.001 159.336L134.317 162.011L130.099 163.08Z" fill="#6F5FFE"/>
<g opacity="0.3">
<path d="M133.691 194.142C133.554 193.838 133.353 193.509 133.027 193.442C132.49 193.331 132.13 193.964 131.949 194.482C130.525 198.541 128.552 202.386 126.085 205.911L125.97 211.409C128.564 209.223 131.137 206.881 132.797 203.917C134.458 200.953 135.077 197.235 133.691 194.142Z" fill="black"/>
</g>
<path d="M118.334 168.593C118.334 168.593 115.231 172.815 113.945 175.571C112.659 178.328 101.98 201.471 101.343 203.865C100.705 206.259 99.0444 213.785 103.919 215.531H113.953L124.02 195.207L124.535 171.62L118.334 168.593Z" fill="#6F5FFE"/>
<path d="M114.586 200.85C114.586 200.85 114.364 200.654 113.901 200.391C113.239 200.037 112.53 199.78 111.795 199.629C111.29 199.518 110.777 199.446 110.261 199.414C109.666 199.369 109.068 199.412 108.485 199.54C107.167 199.878 105.986 200.618 105.108 201.656C104.216 202.683 103.562 203.895 103.196 205.205C102.893 206.275 102.692 207.371 102.595 208.479C102.499 209.426 102.465 210.2 102.432 210.729C102.432 210.98 102.402 211.184 102.395 211.343C102.395 211.415 102.385 211.488 102.365 211.557C102.361 211.486 102.361 211.414 102.365 211.343C102.365 211.18 102.365 210.973 102.365 210.729C102.365 210.192 102.388 209.423 102.465 208.468C102.544 207.342 102.734 206.227 103.033 205.138C103.397 203.799 104.059 202.559 104.971 201.512C105.876 200.444 107.096 199.688 108.455 199.351C109.05 199.228 109.66 199.194 110.264 199.251C110.788 199.29 111.307 199.37 111.817 199.492C112.561 199.657 113.273 199.936 113.93 200.321C114.107 200.43 114.274 200.553 114.431 200.691C114.488 200.738 114.54 200.791 114.586 200.85Z" fill="#263238"/>
<path d="M109.831 196.802C109.94 196.77 110.054 196.752 110.168 196.75C110.478 196.726 110.789 196.726 111.098 196.75C111.559 196.777 112.017 196.845 112.466 196.953C113.571 197.22 114.607 197.714 115.509 198.404C115.877 198.683 116.218 198.995 116.529 199.336C116.739 199.568 116.931 199.815 117.103 200.076C117.173 200.167 117.23 200.266 117.274 200.372C117.244 200.394 116.97 200.002 116.428 199.44C116.109 199.12 115.765 198.824 115.402 198.556C114.954 198.23 114.477 197.945 113.978 197.705C113.477 197.471 112.956 197.28 112.422 197.135C111.983 197.022 111.537 196.943 111.087 196.898C110.316 196.798 109.831 196.839 109.831 196.802Z" fill="#263238"/>
<path d="M118.897 195.688C118.742 195.694 118.587 195.683 118.434 195.655C118.137 195.618 117.711 195.573 117.177 195.533C114.405 195.326 111.619 195.659 108.974 196.513C108.467 196.676 108.059 196.82 107.781 196.928C107.639 196.99 107.491 197.039 107.34 197.072C107.467 196.983 107.606 196.911 107.751 196.857C108.022 196.728 108.426 196.565 108.93 196.384C111.577 195.448 114.399 195.112 117.192 195.4C117.722 195.455 118.152 195.518 118.445 195.581C118.599 195.602 118.75 195.638 118.897 195.688Z" fill="#263238"/>
<path d="M147.472 175.912C147.431 175.877 147.396 175.835 147.368 175.79L147.094 175.42L146.086 174.028C145.222 172.807 144.014 171.105 142.594 169.107L142.75 169.085C142.209 170.669 141.612 172.415 140.985 174.265L140.945 174.38L140.841 174.313L140.633 174.18C139.826 173.664 139.091 173.042 138.45 172.33C137.857 171.668 137.334 170.946 136.889 170.177C136.149 168.875 135.572 167.487 135.173 166.044C134.905 165.069 134.689 164.081 134.525 163.084C134.465 162.751 134.421 162.481 134.384 162.277C134.373 162.208 134.357 162.14 134.336 162.074C134.336 162.029 134.31 162.007 134.313 162.003C134.317 162 134.465 162.373 134.599 163.073C134.732 163.772 134.943 164.778 135.307 165.996C135.717 167.425 136.301 168.8 137.045 170.088C137.489 170.843 138.007 171.552 138.591 172.204C139.221 172.899 139.942 173.506 140.733 174.01L140.937 174.143L140.796 174.195C141.43 172.345 142.031 170.61 142.579 169.015L142.635 168.852L142.735 168.993C144.129 171.009 145.33 172.726 146.171 173.954C146.575 174.554 146.912 175.031 147.138 175.379L147.387 175.749C147.421 175.8 147.449 175.855 147.472 175.912Z" fill="#263238"/>
<g opacity="0.3">
<path d="M159.092 193.002C158.692 197.177 159.599 201.373 161.687 205.012C163.763 208.616 166.809 211.831 170.601 213.555C170.724 209.881 170.546 205.552 170.668 201.878L159.092 193.002Z" fill="black"/>
</g>
<path d="M158.673 188.166C158.673 188.166 157.05 188.614 158.266 191.933C159.481 195.252 159.889 195.048 160.701 198.149C161.513 201.249 162.458 204.069 163.874 205.837C165.29 207.606 170.564 211.165 170.564 211.165L175.294 206.725C175.294 206.725 174.516 203.395 174.701 201.153C174.886 198.911 175.361 193.383 175.294 192.425C175.227 191.466 174.212 189.187 174.212 189.187V187.618L171.78 180.152C171.78 180.152 170.427 179.545 169.956 181.702L169.145 179.412C169.145 179.412 167.862 179.208 167.525 181.839C167.188 184.47 167.796 188.111 167.796 188.111L167.117 192.695L166.105 195.799L165.227 195.932C165.227 195.932 163.904 195.562 163.181 193.087C162.458 190.612 160.497 187.626 158.673 188.166Z" fill="#FFBE9D"/>
<path d="M173.723 199.91C173.723 199.91 173.723 199.854 173.7 199.743C173.678 199.632 173.678 199.451 173.667 199.248C173.641 198.796 173.608 198.171 173.567 197.398C173.493 195.788 173.393 193.546 173.274 190.93L173.293 190.986C173.171 190.86 173.018 190.771 172.85 190.726C172.681 190.682 172.503 190.685 172.336 190.734C172.155 190.778 171.984 190.857 171.834 190.968C171.684 191.079 171.557 191.218 171.461 191.378C171.046 192.04 171.024 192.906 170.894 193.738C170.639 195.629 170.394 197.438 170.172 199.07C170.06 199.891 169.942 200.668 169.782 201.39C169.632 202.059 169.435 202.717 169.193 203.358C168.985 203.947 168.8 204.468 168.685 204.96C168.583 205.366 168.532 205.782 168.533 206.2C168.546 206.559 168.609 206.916 168.719 207.258C168.674 207.175 168.637 207.089 168.607 206.999C168.519 206.743 168.469 206.475 168.459 206.204C168.441 205.775 168.483 205.345 168.581 204.927C168.711 204.378 168.873 203.837 169.067 203.307C169.296 202.667 169.482 202.013 169.623 201.349C169.775 200.635 169.89 199.869 169.994 199.04C170.209 197.398 170.45 195.599 170.702 193.705C170.761 193.287 170.805 192.869 170.879 192.454C170.94 192.036 171.081 191.632 171.295 191.267C171.405 191.087 171.55 190.931 171.721 190.808C171.892 190.685 172.086 190.597 172.292 190.549C172.492 190.489 172.704 190.486 172.905 190.541C173.107 190.596 173.288 190.707 173.43 190.86L173.448 190.886V190.915C173.541 193.531 173.619 195.773 173.674 197.387C173.674 198.167 173.708 198.793 173.723 199.237C173.723 199.44 173.723 199.607 173.723 199.732C173.729 199.791 173.729 199.851 173.723 199.91Z" fill="#EB996E"/>
<path d="M171.128 191.4C171.044 191.268 170.976 191.127 170.928 190.978C170.773 190.584 170.64 190.181 170.531 189.772C170.372 189.165 170.259 188.546 170.194 187.922C170.148 187.554 170.141 187.182 170.172 186.812C170.206 186.399 170.346 186.001 170.579 185.657C170.787 185.35 171.093 185.12 171.447 185.006L171.517 184.988L171.554 185.051C172.24 186.257 172.837 187.322 173.252 188.088L173.737 188.995C173.804 189.101 173.856 189.216 173.893 189.335C173.81 189.241 173.738 189.138 173.678 189.028L173.144 188.151C172.699 187.411 172.08 186.349 171.391 185.147L171.499 185.191C171.188 185.295 170.921 185.498 170.739 185.768C170.525 186.086 170.398 186.453 170.368 186.834C170.331 187.196 170.331 187.56 170.368 187.922C170.424 188.544 170.522 189.163 170.661 189.772C170.779 190.29 170.909 190.704 170.994 190.989C171.052 191.121 171.097 191.259 171.128 191.4Z" fill="#EB996E"/>
<path d="M169.994 192.007C169.961 191.865 169.946 191.719 169.949 191.574C169.949 191.256 169.92 190.863 169.901 190.401C169.872 189.409 169.838 188.04 169.82 186.527C169.764 185.233 169.784 183.937 169.879 182.646C169.925 182.254 170.01 181.867 170.131 181.491C170.167 181.35 170.226 181.215 170.305 181.092C170.169 181.607 170.071 182.131 170.012 182.661C169.92 183.641 170.012 185.01 170.012 186.523C170.012 188.037 170.042 189.406 170.038 190.397C170.038 190.863 170.038 191.256 170.038 191.574C170.039 191.719 170.025 191.865 169.994 192.007Z" fill="#EB996E"/>
<path d="M165.994 204.442C165.968 204.42 166.265 204.073 166.628 203.44C166.841 203.071 167.026 202.686 167.18 202.289C167.362 201.801 167.504 201.298 167.603 200.787C167.69 200.273 167.733 199.754 167.733 199.233C167.727 198.808 167.69 198.384 167.621 197.964C167.499 197.242 167.343 196.813 167.377 196.802C167.435 196.892 167.48 196.991 167.51 197.094C167.615 197.368 167.697 197.65 167.755 197.938C167.846 198.363 167.898 198.795 167.911 199.229C167.943 200.3 167.75 201.365 167.343 202.356C167.18 202.758 166.98 203.144 166.747 203.51C166.592 203.758 166.417 203.994 166.224 204.213C166.087 204.369 166.005 204.45 165.994 204.442Z" fill="#EB996E"/>
<path d="M174.297 202.13L178.4 203.551C178.4 203.551 182.322 201.527 185.024 203.551C187.726 205.575 190.073 210.906 189.331 213.063C189.331 213.063 187.478 215.365 186.047 215.701C184.616 216.038 179.112 214.702 176.818 214.221C174.523 213.74 170.564 211.173 170.564 211.173L174.297 202.13Z" fill="#FFBE9D"/>
<path d="M174.801 208.157C174.772 208.036 174.757 207.912 174.757 207.787C174.757 207.51 174.723 207.18 174.701 206.796C174.656 205.959 174.601 204.805 174.582 203.525C174.564 202.245 174.601 201.086 174.675 200.25C174.712 199.832 174.76 199.51 174.801 199.262C174.81 199.135 174.839 199.011 174.886 198.892C174.916 198.892 174.853 199.41 174.812 200.247C174.771 201.083 174.757 202.233 174.775 203.51C174.794 204.786 174.82 205.889 174.834 206.777C174.834 207.195 174.834 207.536 174.834 207.769C174.844 207.899 174.833 208.03 174.801 208.157Z" fill="#EB996E"/>
<path d="M188.334 203.381C187.909 202.94 187.453 202.529 186.97 202.152C185.783 201.266 184.36 200.75 182.88 200.669C181.4 200.588 179.929 200.945 178.653 201.697C178.135 202.019 177.639 202.377 177.17 202.766C177.268 202.631 177.381 202.506 177.507 202.396C177.841 202.087 178.205 201.812 178.593 201.575C179.882 200.773 181.388 200.388 182.904 200.473C184.421 200.557 185.874 201.106 187.067 202.045C187.427 202.322 187.758 202.635 188.053 202.981C188.162 203.103 188.257 203.237 188.334 203.381Z" fill="#263238"/>
<path d="M187.808 199.965C187.278 199.585 186.704 199.27 186.099 199.026C184.612 198.499 182.997 198.451 181.481 198.889C180.647 199.122 179.844 199.455 179.09 199.88C178.476 200.233 177.896 200.641 177.359 201.101C176.899 201.494 176.547 201.841 176.306 202.075C176.188 202.209 176.058 202.333 175.917 202.445C176.013 202.295 176.125 202.156 176.251 202.03C176.571 201.67 176.911 201.327 177.27 201.005C177.803 200.525 178.383 200.1 179.001 199.736C179.763 199.292 180.579 198.947 181.429 198.711C182.982 198.258 184.641 198.327 186.151 198.907C186.602 199.087 187.027 199.326 187.415 199.618C187.552 199.718 187.645 199.814 187.715 199.873C187.786 199.932 187.808 199.962 187.808 199.965Z" fill="#263238"/>
<path d="M187.841 197.005C187.841 197.042 187.1 196.824 185.921 196.665C185.225 196.572 184.522 196.527 183.82 196.532C182.959 196.541 182.1 196.618 181.251 196.761C180.404 196.917 179.57 197.137 178.756 197.42C178.093 197.655 177.448 197.937 176.825 198.263C175.761 198.818 175.161 199.27 175.139 199.237C175.265 199.115 175.402 199.005 175.55 198.911C175.712 198.784 175.881 198.668 176.058 198.563C176.262 198.434 176.492 198.282 176.758 198.141C177.382 197.797 178.03 197.501 178.697 197.253C179.516 196.955 180.359 196.727 181.218 196.573C182.075 196.428 182.943 196.355 183.812 196.354C184.524 196.358 185.234 196.416 185.936 196.528C186.236 196.565 186.503 196.635 186.737 196.684C186.94 196.725 187.14 196.776 187.337 196.839C187.51 196.88 187.679 196.935 187.841 197.005Z" fill="#263238"/>
<path d="M156.398 160.775C156.551 161.119 156.647 161.487 156.679 161.863C156.79 162.924 156.738 163.996 156.524 165.041C156.394 165.791 156.217 166.533 155.994 167.261C155.702 168.108 155.342 168.931 154.919 169.722C154.033 171.424 152.921 173.277 151.631 175.272L151.483 175.505V175.227C151.483 173.917 151.483 172.545 151.483 171.12L151.627 171.19L148.147 173.962L148.176 173.917C147.351 176.618 146.843 179.406 146.664 182.224C146.323 186.727 146.597 191.034 146.809 194.941C147.02 198.848 147.113 202.374 147.235 205.334C147.357 208.294 147.457 210.684 147.546 212.338C147.598 213.16 147.635 213.796 147.661 214.24C147.661 214.451 147.687 214.61 147.695 214.736C147.702 214.862 147.695 214.906 147.695 214.906C147.695 214.906 147.695 214.85 147.669 214.739C147.643 214.628 147.639 214.455 147.617 214.244C147.576 213.811 147.524 213.171 147.468 212.342C147.357 210.692 147.227 208.298 147.098 205.338C146.968 202.378 146.809 198.859 146.631 194.948C146.453 191.037 146.13 186.727 146.471 182.209C146.659 179.374 147.18 176.571 148.024 173.858V173.832H148.047L151.516 171.054L151.661 170.935V171.12C151.661 172.545 151.661 173.917 151.661 175.227L151.509 175.179C154.055 171.239 156.127 167.812 156.446 165.041C156.666 164.006 156.734 162.944 156.646 161.889C156.616 161.611 156.565 161.337 156.494 161.067C156.42 160.867 156.398 160.775 156.398 160.775Z" fill="#263238"/>
<path d="M149.748 208.501H149.629C149.359 208.519 149.107 208.64 148.925 208.84C148.743 209.04 148.646 209.302 148.655 209.572C148.663 209.842 148.777 210.098 148.971 210.286C149.166 210.473 149.425 210.578 149.696 210.578C149.966 210.578 150.226 210.473 150.42 210.286C150.615 210.098 150.728 209.842 150.737 209.572C150.746 209.302 150.649 209.04 150.467 208.84C150.285 208.64 150.032 208.519 149.763 208.501H149.748Z" fill="white"/>
<path d="M149.748 194.241H149.629C149.36 194.259 149.109 194.38 148.928 194.579C148.747 194.778 148.65 195.04 148.659 195.309C148.667 195.577 148.781 195.832 148.974 196.02C149.168 196.207 149.427 196.311 149.696 196.311C149.966 196.311 150.224 196.207 150.418 196.02C150.612 195.832 150.725 195.577 150.733 195.309C150.742 195.04 150.646 194.778 150.464 194.579C150.283 194.38 150.032 194.259 149.763 194.241H149.748Z" fill="white"/>
<path d="M149.629 181.484C149.906 181.502 150.179 181.41 150.387 181.227C150.596 181.045 150.723 180.787 150.741 180.511C150.759 180.235 150.667 179.963 150.484 179.754C150.301 179.546 150.043 179.419 149.766 179.401H149.629C149.352 179.401 149.086 179.511 148.89 179.706C148.694 179.902 148.584 180.168 148.584 180.444C148.584 180.721 148.694 180.986 148.89 181.182C149.086 181.378 149.352 181.488 149.629 181.488V181.484Z" fill="white"/>
<path d="M133.605 144.066C132.308 142.626 131.011 141.176 130.051 139.489C129.091 137.802 128.538 135.83 128.85 133.939C129.035 132.829 129.51 131.756 129.591 130.609C129.695 129.055 129.043 127.431 129.591 125.976C130.451 123.697 133.524 123.346 135.385 121.773C136.834 120.549 137.538 118.562 139.132 117.533C140.526 116.63 142.316 116.652 143.951 116.882C145.585 117.111 147.246 117.529 148.892 117.307C150.063 117.152 151.168 116.678 152.313 116.393C153.458 116.109 154.745 116.023 155.764 116.63C156.783 117.237 157.361 118.669 156.691 119.642C158.596 118.765 161.016 120.249 161.539 122.276C162.061 124.304 161.016 126.498 159.4 127.826C157.784 129.155 155.693 129.787 153.636 130.176C147.802 131.286 141.467 130.653 136.437 127.501" fill="#263238"/>
<path d="M154.129 163.65C153.844 161.43 153.61 159.606 153.596 159.376C153.596 159.376 160.979 157.719 160.572 150.267C160.375 146.663 159.367 139.278 158.374 132.607C157.863 129.149 156.066 126.009 153.34 123.815C150.614 121.621 147.159 120.532 143.665 120.767L142.924 120.811C135.196 121.784 131.7 128.881 132.886 136.57L137.06 162.348C137.06 162.348 138.839 168.049 142.646 169.037L147.465 175.89L148.258 172.93L151.839 169.814C152.525 169.009 153.118 168.129 153.607 167.191C154.153 166.096 154.336 164.856 154.129 163.65Z" fill="#FFBE9D"/>
<path d="M153.599 159.273C153.599 159.273 148.91 159.968 143.688 157.16C143.688 157.16 146.349 162.366 153.747 161.201L153.599 159.273Z" fill="#EB996E"/>
<path d="M155.975 139.015C155.996 139.293 155.908 139.567 155.729 139.781C155.551 139.994 155.296 140.13 155.019 140.159C154.884 140.178 154.746 140.171 154.615 140.137C154.483 140.102 154.359 140.042 154.251 139.959C154.143 139.877 154.052 139.773 153.985 139.655C153.917 139.536 153.875 139.406 153.859 139.271C153.834 138.991 153.921 138.713 154.101 138.498C154.281 138.282 154.539 138.146 154.819 138.12C154.954 138.101 155.091 138.109 155.223 138.144C155.355 138.179 155.479 138.24 155.587 138.323C155.695 138.407 155.785 138.511 155.851 138.63C155.918 138.749 155.96 138.88 155.975 139.015Z" fill="#263238"/>
<path d="M157.017 136.373C156.894 136.521 156.045 135.978 154.9 136.059C153.755 136.14 152.965 136.766 152.817 136.64C152.754 136.584 152.873 136.325 153.221 136.033C153.693 135.656 154.271 135.435 154.874 135.4C155.471 135.357 156.066 135.506 156.572 135.826C156.942 136.063 157.076 136.307 157.017 136.373Z" fill="#263238"/>
<path d="M145.144 139.789C145.166 140.066 145.078 140.34 144.899 140.553C144.721 140.766 144.465 140.901 144.188 140.928C144.053 140.949 143.916 140.942 143.784 140.908C143.652 140.874 143.529 140.814 143.42 140.732C143.312 140.649 143.222 140.546 143.154 140.428C143.087 140.309 143.044 140.179 143.028 140.044C143.007 139.767 143.095 139.493 143.273 139.28C143.45 139.067 143.704 138.931 143.981 138.901C144.116 138.881 144.253 138.888 144.385 138.923C144.518 138.957 144.642 139.017 144.75 139.1C144.858 139.183 144.949 139.286 145.017 139.404C145.085 139.523 145.128 139.653 145.144 139.789Z" fill="#263238"/>
<path d="M145.763 137.339C145.637 137.487 144.792 136.943 143.647 137.025C142.501 137.106 141.697 137.731 141.564 137.598C141.497 137.543 141.616 137.284 141.964 136.991C142.438 136.615 143.016 136.394 143.621 136.359C144.217 136.316 144.81 136.465 145.315 136.784C145.685 137.028 145.823 137.273 145.763 137.339Z" fill="#263238"/>
<path d="M150.489 145.549C150.489 145.483 151.186 145.313 152.343 145.087C152.632 145.039 152.906 144.961 152.943 144.761C152.947 144.457 152.858 144.159 152.687 143.907L151.672 141.738C150.26 138.653 149.214 136.103 149.34 136.048C149.466 135.992 150.712 138.449 152.128 141.539L153.106 143.722C153.314 144.062 153.395 144.464 153.336 144.858C153.3 144.963 153.241 145.059 153.163 145.139C153.084 145.218 152.989 145.279 152.884 145.316C152.725 145.371 152.559 145.406 152.391 145.42C151.22 145.56 150.501 145.612 150.489 145.549Z" fill="#263238"/>
<path d="M145.756 132.833C145.663 133.155 144.51 133.081 143.161 133.332C141.812 133.584 140.763 134.024 140.566 133.758C140.477 133.628 140.648 133.325 141.067 132.992C141.628 132.585 142.274 132.311 142.956 132.189C143.639 132.067 144.34 132.101 145.007 132.289C145.53 132.455 145.796 132.685 145.756 132.833Z" fill="#263238"/>
<path d="M156.372 133.088C156.19 133.362 155.382 133.147 154.429 133.195C153.477 133.243 152.687 133.487 152.483 133.228C152.394 133.103 152.506 132.833 152.854 132.562C153.307 132.237 153.846 132.053 154.403 132.034C154.961 132.014 155.511 132.159 155.986 132.451C156.327 132.696 156.453 132.94 156.372 133.088Z" fill="#263238"/>
<path d="M133.883 142.064C133.754 142.02 128.657 140.895 129.161 145.975C129.665 151.055 135.173 149.397 135.173 149.253C135.173 149.109 133.883 142.064 133.883 142.064Z" fill="#FFBE9D"/>
<path d="M132.92 147.585C132.894 147.585 132.838 147.655 132.694 147.736C132.493 147.848 132.256 147.877 132.034 147.818C131.474 147.673 130.922 146.867 130.822 145.968C130.766 145.534 130.808 145.092 130.944 144.676C130.977 144.514 131.049 144.362 131.154 144.233C131.258 144.104 131.392 144.003 131.545 143.936C131.644 143.9 131.753 143.899 131.854 143.934C131.954 143.969 132.038 144.038 132.093 144.129C132.175 144.266 132.152 144.369 132.178 144.373C132.204 144.377 132.278 144.28 132.219 144.073C132.177 143.95 132.095 143.844 131.986 143.774C131.91 143.723 131.826 143.688 131.737 143.67C131.647 143.652 131.556 143.652 131.467 143.67C131.262 143.733 131.077 143.846 130.929 144C130.781 144.155 130.675 144.344 130.622 144.551C130.448 145.012 130.391 145.509 130.455 145.997C130.588 147.018 131.196 147.925 131.963 148.062C132.104 148.089 132.25 148.083 132.388 148.046C132.527 148.009 132.655 147.941 132.764 147.847C132.923 147.707 132.949 147.592 132.92 147.585Z" fill="#EB996E"/>
<path d="M157.999 125.669C157.65 127.693 153.551 129.547 150.133 129.447C146.994 129.355 145.441 127.801 143.161 126.694C141.716 125.995 141.716 125.995 139.755 126.324C138.172 126.58 137.349 128.448 136.459 129.78C138.153 133.48 137.468 137.757 136.749 141.753C136.718 142.204 136.536 142.631 136.233 142.967C135.663 143.47 134.751 143.17 134.172 142.656C133.272 141.831 132.86 140.61 132.567 139.426C131.849 136.733 131.678 133.924 132.063 131.164C132.453 128.39 133.649 125.792 135.503 123.69C137.928 121.139 141.25 119.628 144.77 119.476C148.272 119.35 151.724 120.329 154.637 122.273C155.986 123.157 157.232 124.249 158.01 125.666" fill="#263238"/>
<path d="M151.242 148.11L148.647 146.904C148.505 146.82 148.341 146.779 148.176 146.785C147.994 146.826 147.834 146.935 147.728 147.089C147.424 147.452 147.234 147.897 147.183 148.368C147.131 148.839 147.22 149.314 147.439 149.734C147.676 150.144 148.05 150.457 148.495 150.621C148.939 150.784 149.427 150.787 149.874 150.63C150.793 150.26 151.238 149.183 151.312 148.191L151.242 148.11Z" fill="#EB996E"/>
<path d="M149.955 150.822C149.955 150.844 149.833 150.918 149.585 150.974C149.213 151.04 148.831 151.012 148.473 150.892C147.926 150.708 147.467 150.327 147.187 149.823C147.009 149.516 146.903 149.173 146.875 148.82C146.848 148.466 146.9 148.111 147.027 147.781C147.158 147.438 147.363 147.128 147.628 146.874C147.756 146.753 147.898 146.646 148.05 146.556C148.141 146.502 148.244 146.47 148.35 146.463C148.453 146.459 148.556 146.478 148.651 146.519C148.789 146.589 148.924 146.665 149.055 146.748L149.407 146.967L150.041 147.359C150.808 147.847 151.271 148.173 151.245 148.217C151.219 148.262 150.708 148.025 149.904 147.596L149.247 147.226L148.877 147.022C148.751 146.959 148.617 146.874 148.506 146.83C148.46 146.808 148.41 146.799 148.359 146.804C148.309 146.81 148.261 146.829 148.221 146.859C148.098 146.937 147.983 147.027 147.88 147.129C147.66 147.348 147.488 147.61 147.376 147.899C147.268 148.179 147.222 148.479 147.242 148.779C147.261 149.078 147.344 149.37 147.487 149.634C147.718 150.077 148.097 150.425 148.558 150.619C148.877 150.747 149.219 150.811 149.563 150.807C149.807 150.818 149.944 150.796 149.955 150.822Z" fill="#263238"/>
<path d="M149.136 139.145C149.099 138.711 149.031 138.281 148.932 137.857C148.749 137.149 148.419 136.486 147.964 135.913C147.508 135.339 146.938 134.867 146.289 134.527C145.64 134.186 144.927 133.985 144.196 133.936C143.464 133.887 142.73 133.991 142.042 134.242C141.567 134.412 141.121 134.653 140.718 134.956C140.289 135.263 139.914 135.638 139.606 136.066C138.946 136.958 138.589 138.038 138.589 139.147C138.589 140.256 138.946 141.335 139.606 142.227C139.914 142.655 140.289 143.03 140.718 143.337C141.121 143.64 141.567 143.881 142.042 144.051C142.731 144.3 143.464 144.402 144.194 144.352C144.925 144.302 145.637 144.1 146.286 143.76C146.934 143.42 147.504 142.949 147.96 142.377C148.416 141.804 148.747 141.143 148.932 140.436C149.031 140.014 149.099 139.584 149.136 139.152C149.141 139.18 149.141 139.209 149.136 139.237C149.136 139.304 149.136 139.389 149.136 139.489C149.14 139.626 149.13 139.764 149.107 139.9C149.086 140.087 149.053 140.272 149.007 140.455C148.889 140.958 148.695 141.441 148.432 141.887C147.799 142.967 146.807 143.791 145.628 144.217C144.449 144.643 143.158 144.643 141.979 144.218C141.488 144.042 141.026 143.793 140.611 143.478C140.168 143.161 139.78 142.775 139.462 142.334C138.777 141.411 138.408 140.292 138.408 139.143C138.408 137.994 138.777 136.875 139.462 135.952C139.778 135.51 140.165 135.124 140.607 134.808C141.023 134.493 141.484 134.244 141.975 134.068C142.883 133.743 143.863 133.666 144.811 133.846C145.561 133.99 146.272 134.292 146.896 134.732C147.52 135.172 148.043 135.741 148.428 136.399C148.692 136.845 148.886 137.328 149.003 137.831C149.049 138.014 149.082 138.199 149.103 138.386C149.126 138.522 149.136 138.659 149.133 138.797C149.133 138.897 149.133 138.982 149.133 139.049C149.139 139.08 149.14 139.113 149.136 139.145Z" fill="#263238"/>
<path d="M161.828 138.645C161.792 138.223 161.726 137.804 161.632 137.391C161.335 136.272 160.669 135.285 159.741 134.59C159.109 134.11 158.373 133.787 157.591 133.647C156.695 133.482 155.771 133.56 154.915 133.872C154.455 134.039 154.021 134.272 153.629 134.564C153.216 134.866 152.853 135.231 152.554 135.645C151.913 136.514 151.568 137.566 151.568 138.645C151.568 139.725 151.913 140.776 152.554 141.646C152.853 142.06 153.215 142.423 153.629 142.723C154.02 143.018 154.454 143.252 154.915 143.418C155.772 143.729 156.695 143.806 157.591 143.644C158.373 143.504 159.109 143.18 159.741 142.701C160.669 142.005 161.335 141.019 161.632 139.9C161.726 139.487 161.792 139.067 161.828 138.645C161.837 138.755 161.837 138.865 161.828 138.975C161.83 139.11 161.82 139.245 161.798 139.378C161.779 139.56 161.747 139.741 161.702 139.918C161.466 140.887 160.956 141.768 160.234 142.457C159.511 143.145 158.606 143.613 157.625 143.803C156.7 143.977 155.745 143.902 154.86 143.585C153.88 143.229 153.027 142.593 152.406 141.757C151.739 140.856 151.379 139.766 151.379 138.645C151.379 137.525 151.739 136.435 152.406 135.534C153.027 134.698 153.88 134.062 154.86 133.706C155.745 133.389 156.7 133.313 157.625 133.488C158.606 133.678 159.511 134.145 160.234 134.834C160.956 135.522 161.466 136.404 161.702 137.373C161.747 137.55 161.779 137.731 161.798 137.913C161.82 138.046 161.83 138.181 161.828 138.316C161.837 138.426 161.837 138.536 161.828 138.645Z" fill="#263238"/>
<path d="M151.483 137.476C151.46 137.495 151.338 137.395 151.112 137.287C150.82 137.149 150.501 137.079 150.178 137.084C149.856 137.088 149.539 137.17 149.255 137.321C149.032 137.435 148.914 137.543 148.884 137.52C148.854 137.498 148.951 137.358 149.173 137.202C149.466 137.003 149.811 136.894 150.165 136.888C150.52 136.882 150.868 136.98 151.167 137.169C151.394 137.317 151.483 137.461 151.483 137.476Z" fill="#263238"/>
<path d="M138.824 138.39C138.091 139.055 137.316 139.673 136.504 140.24C135.727 140.856 134.913 141.424 134.065 141.938C134.798 141.271 135.574 140.653 136.389 140.088C137.163 139.47 137.977 138.903 138.824 138.39Z" fill="#263238"/>
<g opacity="0.3">
<path d="M134.432 162.469C133.917 167.49 135.829 172.792 139.866 175.834C140.181 176.074 140.578 176.311 140.952 176.174C141.202 176.054 141.401 175.849 141.515 175.597C142.646 173.648 143.07 171.369 142.716 169.144C142.079 170.824 141.53 172.474 140.885 174.228C137.375 172.097 135.173 167.568 134.432 162.469Z" fill="black"/>
</g>
<path opacity="0.3" d="M148.099 173.888L151.064 172.807L151.553 177.806C151.553 177.806 154.748 171.993 156.072 169.344C157.395 166.695 156.713 162.011 156.713 162.011C156.713 162.011 157.184 166.081 153.985 171.287L151.568 175.209V171.102L148.099 173.888Z" fill="black"/>
<g opacity="0.3">
<path d="M113.675 199.292C112.323 198.719 110.838 198.533 109.386 198.755C107.839 198.882 106.359 199.441 105.116 200.369C103.915 201.334 103.103 202.859 103.263 204.39L103.411 204.409C104.445 201.619 106.499 199.599 109.149 199.344C111.799 199.088 114.383 200.272 116.191 202.215C115.995 200.765 114.979 199.91 113.675 199.292Z" fill="black"/>
</g>
<g opacity="0.3">
<path d="M188.527 202.13C187.5 201.077 186.157 200.388 184.702 200.165C183.434 199.954 182.136 200.029 180.901 200.386C179.667 200.742 178.528 201.371 177.57 202.226L178.134 201.767C179.567 200.906 181.213 200.46 182.886 200.48C184.565 200.508 186.175 201.151 187.412 202.285C188.524 203.336 189.187 204.761 189.821 206.148C189.923 205.424 189.86 204.687 189.636 203.991C189.412 203.295 189.033 202.659 188.527 202.13Z" fill="black"/>
</g>
<path d="M169.441 178.931C169.472 178.792 169.516 178.657 169.575 178.527C169.69 178.235 169.831 177.876 169.994 177.451C170.364 176.544 170.846 175.294 171.365 173.899C171.884 172.504 172.333 171.235 172.655 170.317L173.026 169.226C173.066 169.089 173.12 168.958 173.189 168.833C173.177 168.975 173.146 169.115 173.096 169.248C173.026 169.514 172.915 169.892 172.77 170.358C172.481 171.29 172.051 172.578 171.532 173.965C171.013 175.353 170.498 176.611 170.105 177.503C169.912 177.95 169.734 178.309 169.627 178.557C169.581 178.689 169.518 178.814 169.441 178.931Z" fill="#263238"/>
<path d="M122.712 179.293C122.66 179.293 122.256 177.543 121.811 175.36C121.366 173.177 121.047 171.42 121.088 171.39C121.129 171.361 121.54 173.14 121.985 175.323C122.43 177.506 122.763 179.282 122.712 179.293Z" fill="#263238"/>
<path d="M122.011 201.305C122.13 201.364 120.654 189.776 120.654 189.776C120.654 189.776 121.585 180.981 122.107 180.574V177.469C122.107 177.469 123.549 176.6 123.935 178.006C123.935 178.006 125.213 176.896 125.417 179.534C125.621 182.172 125.688 184.866 125.688 184.866L128.531 191.962L128.998 192.199C128.998 192.199 129.61 186.649 129.965 185.82C130.321 184.992 130.566 183.012 131.911 183.312C133.257 183.611 133.372 184.721 133.131 186.534C132.89 188.347 132.586 190.234 132.701 191.396C132.816 192.558 133.346 195.144 133.183 197.194C133.02 199.244 131.893 201.405 130.714 202.922C129.535 204.439 127.278 207.58 126.055 208.524C125.658 208.857 122.011 201.305 122.011 201.305Z" fill="#FFBE9D"/>
<path d="M123.449 191.873C123.431 191.709 123.431 191.542 123.449 191.378C123.471 191.008 123.505 190.571 123.542 190.031C123.627 188.895 123.761 187.326 123.913 185.591C123.994 184.729 124.072 183.907 124.142 183.153C124.185 182.805 124.185 182.453 124.142 182.105C124.103 181.808 123.974 181.529 123.772 181.306C123.624 181.147 123.444 181.019 123.245 180.932C123.045 180.845 122.829 180.8 122.612 180.799C122.448 180.807 122.286 180.827 122.126 180.859C122.162 180.833 122.202 180.813 122.245 180.799C122.363 180.755 122.488 180.729 122.615 180.722C122.849 180.708 123.083 180.745 123.301 180.83C123.519 180.915 123.716 181.046 123.879 181.214C124.103 181.454 124.247 181.758 124.291 182.083C124.337 182.443 124.337 182.807 124.291 183.167C124.224 183.907 124.15 184.747 124.076 185.609C123.916 187.341 123.761 188.906 123.638 190.049L123.486 191.392C123.488 191.554 123.475 191.714 123.449 191.873Z" fill="#EB996E"/>
<path d="M124.976 187.134C124.769 187.415 124.6 187.722 124.472 188.048C124.246 188.867 124.089 189.703 124.001 190.549C123.846 191.54 123.698 192.436 123.579 193.083C123.536 193.436 123.459 193.785 123.349 194.123C123.351 193.767 123.383 193.412 123.445 193.061C123.527 192.41 123.657 191.511 123.816 190.519C123.976 189.528 124.079 188.621 124.354 188C124.451 187.756 124.588 187.53 124.758 187.33C124.88 187.182 124.969 187.126 124.976 187.134Z" fill="#EB996E"/>
<path d="M123.931 177.854C123.983 177.972 124.016 178.097 124.031 178.224C124.083 178.461 124.146 178.805 124.217 179.234C124.357 180.089 124.513 181.277 124.613 182.598C124.713 183.919 124.732 185.117 124.717 185.983C124.717 186.416 124.698 186.768 124.68 187.008C124.683 187.133 124.668 187.257 124.635 187.378C124.59 186.913 124.572 186.446 124.58 185.979C124.561 185.114 124.517 183.922 124.42 182.609C124.324 181.295 124.191 180.108 124.083 179.249C124.005 178.788 123.954 178.322 123.931 177.854Z" fill="#EB996E"/>
<path d="M132.134 188.717C131.993 188.808 131.833 188.863 131.666 188.877C131.499 188.891 131.332 188.864 131.178 188.799C130.633 188.636 130.381 188.218 130.436 188.199C130.691 188.361 130.961 188.5 131.241 188.614C131.535 188.673 131.834 188.708 132.134 188.717Z" fill="#EB996E"/>
<path d="M122.17 199.862L114.661 203.014H110.183C110.183 203.014 105.757 204.394 105.075 208.538C104.393 212.682 104.297 214.81 106.243 215.324C108.189 215.838 113.686 215.894 116.41 214.991C119.135 214.088 126.274 208.331 126.274 208.331L126.959 204.172L122.17 199.862Z" fill="#FFBE9D"/>
<path d="M123.931 204.442C123.931 204.442 123.846 204.379 123.716 204.246C123.537 204.053 123.375 203.845 123.23 203.625C122.76 202.893 122.406 202.093 122.181 201.253C121.949 200.42 121.794 199.568 121.718 198.707C121.668 198.352 121.658 197.992 121.688 197.634C121.769 197.981 121.823 198.334 121.852 198.689C121.966 199.537 122.138 200.376 122.367 201.201C122.591 202.024 122.919 202.815 123.345 203.554C123.683 204.113 123.957 204.416 123.931 204.442Z" fill="#EB996E"/>
<path d="M127.204 205.756C127.403 205.237 127.546 204.699 127.63 204.15C127.798 202.811 127.437 201.46 126.622 200.383C126.166 199.747 125.651 199.192 125.217 198.652C124.822 198.181 124.482 197.667 124.202 197.12C124.018 196.747 123.893 196.347 123.831 195.936C123.808 195.786 123.808 195.634 123.831 195.485C123.918 196.032 124.091 196.563 124.343 197.057C124.634 197.585 124.981 198.081 125.377 198.537C125.81 199.063 126.329 199.618 126.796 200.269C127.251 200.879 127.57 201.579 127.734 202.322C127.86 202.931 127.877 203.558 127.782 204.172C127.72 204.582 127.605 204.983 127.441 205.364C127.382 205.497 127.326 205.597 127.289 205.663C127.252 205.73 127.208 205.76 127.204 205.756Z" fill="#EB996E"/>
<path d="M115.621 187.7C114.954 186.621 114.343 185.51 113.789 184.37C112.826 182.52 112.084 180.981 112.129 180.955C112.795 182.033 113.406 183.145 113.96 184.285C114.571 185.394 115.126 186.534 115.621 187.7Z" fill="white"/>
<path d="M127.76 174.199C128.076 173.25 128.453 172.323 128.89 171.424C129.269 170.499 129.706 169.6 130.199 168.73C129.881 169.678 129.503 170.605 129.068 171.505C128.69 172.43 128.253 173.329 127.76 174.199Z" fill="white"/>
<path d="M139.669 182.96C139.054 182.369 138.484 181.734 137.964 181.058C137.397 180.423 136.878 179.746 136.411 179.034C137.027 179.624 137.595 180.259 138.112 180.936C138.681 181.571 139.202 182.248 139.669 182.96Z" fill="white"/>
<path d="M136.93 195.011C137.306 194.335 137.735 193.689 138.213 193.08C138.643 192.436 139.125 191.828 139.655 191.263C139.279 191.94 138.851 192.586 138.372 193.194C137.944 193.84 137.462 194.448 136.93 195.011Z" fill="white"/>
<path d="M133.246 212.035C133.073 211.806 132.927 211.558 132.812 211.295C132.567 210.821 132.252 210.159 131.934 209.415C131.615 208.672 131.359 207.98 131.192 207.48C131.081 207.214 131.002 206.936 130.955 206.651C131.108 206.897 131.232 207.159 131.326 207.432L132.123 209.338C132.43 210.044 132.705 210.684 132.946 211.236C133.075 211.49 133.176 211.758 133.246 212.035Z" fill="white"/>
<path d="M143.699 204.798C142.941 204.748 142.188 204.635 141.449 204.461C140.694 204.349 139.95 204.174 139.225 203.936C140.729 204.097 142.217 204.386 143.673 204.798H143.699Z" fill="white"/>
<path d="M151.854 188.891C152.518 188.033 153.233 187.215 153.996 186.442C154.713 185.623 155.478 184.847 156.287 184.118C155.62 184.977 154.903 185.796 154.141 186.572C153.423 187.388 152.66 188.162 151.854 188.891Z" fill="white"/>
<path d="M160.008 210.103C159.967 210.14 158.77 208.753 157.332 207.014C155.894 205.275 154.763 203.832 154.804 203.799C154.845 203.765 156.042 205.149 157.48 206.888C158.918 208.627 160.041 210.07 160.008 210.103Z" fill="white"/>
<path d="M109.301 201.064C109.327 201.116 108.233 201.671 107.04 202.585C105.846 203.499 105.016 204.402 104.971 204.361C105.106 204.127 105.276 203.915 105.475 203.732C105.919 203.259 106.403 202.824 106.921 202.433C107.437 202.04 107.985 201.691 108.559 201.39C108.789 201.246 109.039 201.136 109.301 201.064Z" fill="white"/>
<path d="M112.355 192.88C112.119 193.403 111.827 193.9 111.484 194.36C111.191 194.855 110.844 195.317 110.45 195.736C110.686 195.213 110.978 194.717 111.321 194.256C111.613 193.76 111.96 193.298 112.355 192.88Z" fill="white"/>
<path d="M119.234 200.916C118.641 199.974 118.387 198.858 118.515 197.753C118.571 197.753 118.589 198.493 118.793 199.355C118.997 200.217 119.286 200.89 119.234 200.916Z" fill="white"/>
<path d="M120.254 175.416C119.793 175.576 119.313 175.677 118.827 175.716C118.348 175.816 117.858 175.852 117.37 175.823C117.832 175.663 118.313 175.562 118.801 175.523C119.279 175.425 119.767 175.389 120.254 175.416Z" fill="white"/>
<path d="M125.421 166.266C124.623 166.856 123.75 167.338 122.826 167.701C123.206 167.38 123.625 167.11 124.075 166.899C124.495 166.632 124.947 166.419 125.421 166.266Z" fill="white"/>
<path d="M139.955 170.132C139.431 169.601 138.953 169.026 138.524 168.415C138.049 167.842 137.622 167.229 137.249 166.584C138.252 167.687 139.157 168.874 139.955 170.132Z" fill="white"/>
<path d="M158.403 179.33C157.382 178.325 156.613 177.093 156.161 175.734C156.216 175.712 156.613 176.574 157.236 177.562C157.858 178.55 158.448 179.293 158.403 179.33Z" fill="white"/>
<path d="M165.446 181.647C164.998 182.948 164.428 184.203 163.741 185.395C163.938 184.735 164.195 184.095 164.508 183.482C164.762 182.842 165.076 182.227 165.446 181.647Z" fill="white"/>
<path d="M166.432 172.052C165.758 171.399 165.131 170.7 164.556 169.958C163.931 169.258 163.356 168.517 162.833 167.738C164.13 169.093 165.332 170.534 166.432 172.052Z" fill="white"/>
<path d="M155.675 164.26C155.557 163.671 155.501 163.071 155.508 162.47C155.452 161.87 155.461 161.266 155.534 160.668C155.651 161.257 155.707 161.857 155.701 162.459C155.759 163.058 155.75 163.663 155.675 164.26Z" fill="white"/>
<path d="M164.456 163.776C163.704 163.972 162.938 164.107 162.165 164.179C161.401 164.313 160.628 164.383 159.852 164.39C160.603 164.193 161.369 164.058 162.143 163.987C162.907 163.852 163.68 163.782 164.456 163.776Z" fill="white"/>
<path d="M178.256 173.903C177.741 173.059 177.281 172.185 176.877 171.283C176.419 170.408 176.018 169.505 175.676 168.578C176.193 169.421 176.655 170.296 177.059 171.198C177.516 172.073 177.916 172.976 178.256 173.903Z" fill="white"/>
<path d="M175.947 182.653C176.102 181.24 176.382 179.843 176.784 178.479C176.74 179.189 176.632 179.894 176.462 180.585C176.354 181.288 176.181 181.981 175.947 182.653Z" fill="white"/>
<path d="M182.337 189.55C181.905 188.628 181.533 187.679 181.225 186.708C180.858 185.759 180.552 184.788 180.31 183.8C180.739 184.724 181.111 185.675 181.422 186.645C181.787 187.593 182.093 188.563 182.337 189.55Z" fill="white"/>
<path d="M181.443 193.587C180.782 193.487 180.146 193.26 179.572 192.917C178.968 192.628 178.43 192.22 177.989 191.718C178.026 191.674 178.708 192.236 179.664 192.747C180.62 193.257 181.462 193.531 181.443 193.587Z" fill="white"/>
<path d="M189.661 202.785C189.162 201.977 188.774 201.106 188.508 200.195C189.007 201.003 189.395 201.874 189.661 202.785Z" fill="white"/>
<path d="M141.182 215.616C141.024 215.083 140.927 214.533 140.893 213.977C140.799 213.429 140.767 212.872 140.796 212.316C140.966 212.853 141.069 213.408 141.104 213.97C141.193 214.514 141.219 215.066 141.182 215.616Z" fill="white"/>
<path d="M166.361 214.98C166.378 214.438 166.459 213.901 166.602 213.378C166.686 212.842 166.831 212.318 167.036 211.816C167.019 212.358 166.937 212.896 166.791 213.419C166.71 213.954 166.566 214.478 166.361 214.98Z" fill="white"/>
<path d="M171.188 141.613L174.464 135.9C172.443 132.644 171.716 128.751 172.425 124.987C173.134 121.223 175.228 117.859 178.296 115.558C181.363 113.257 185.182 112.185 189.001 112.552C192.821 112.919 196.364 114.699 198.936 117.542C201.507 120.385 202.919 124.086 202.896 127.916C202.872 131.746 201.414 135.429 198.808 138.24C196.202 141.051 192.636 142.788 188.813 143.108C184.989 143.428 181.184 142.309 178.145 139.97L171.188 141.613Z" fill="#FAFAFA"/>
<path d="M171.187 141.613L178.145 140.029H178.215L178.171 139.97L178.104 140.033C179.079 140.787 180.139 141.426 181.262 141.935C182.601 142.533 184.019 142.937 185.473 143.134C186.278 143.246 187.092 143.287 187.904 143.256C188.323 143.233 188.746 143.222 189.176 143.189L190.473 142.993C194.339 142.236 197.771 140.037 200.07 136.844C201.347 135.077 202.231 133.059 202.664 130.924C203.105 128.665 203.043 126.337 202.483 124.104C201.9 121.777 200.772 119.621 199.191 117.814L198.557 117.093C198.35 116.86 198.105 116.671 197.883 116.457C197.66 116.242 197.438 116.027 197.186 115.85L196.445 115.302C196.203 115.116 195.948 114.948 195.681 114.799L194.903 114.325L194.087 113.929C193.82 113.79 193.546 113.667 193.264 113.559C191.078 112.699 188.726 112.339 186.381 112.505C184.17 112.653 182.019 113.285 180.08 114.355C176.583 116.296 173.97 119.507 172.781 123.32C172.305 124.938 172.08 126.618 172.114 128.304C172.152 129.766 172.402 131.216 172.855 132.607C173.238 133.763 173.754 134.871 174.394 135.907V135.859C172.34 139.533 171.336 141.328 171.176 141.609C171.339 141.332 172.37 139.548 174.471 135.904V135.882V135.859C173.847 134.825 173.347 133.721 172.981 132.57C172.53 131.188 172.281 129.749 172.24 128.297C172.216 126.627 172.444 124.962 172.918 123.361C174.108 119.599 176.696 116.434 180.15 114.518C182.07 113.45 184.203 112.818 186.396 112.668C188.712 112.505 191.035 112.863 193.194 113.715C193.472 113.822 193.743 113.946 194.006 114.085L194.814 114.477L195.592 114.958C195.85 115.106 196.098 115.272 196.333 115.454L197.075 115.998C197.323 116.175 197.531 116.397 197.76 116.597C197.99 116.797 198.224 116.997 198.428 117.226L199.047 117.903C200.61 119.693 201.725 121.827 202.301 124.13C202.858 126.334 202.92 128.634 202.483 130.864C202.059 132.977 201.187 134.974 199.925 136.721C197.656 139.883 194.266 142.065 190.444 142.823L189.161 143.023C188.735 143.056 188.316 143.071 187.901 143.093C187.096 143.126 186.29 143.088 185.491 142.982C184.047 142.795 182.637 142.404 181.303 141.82C180.184 141.321 179.128 140.692 178.156 139.948L177.871 139.73L178.089 140.014L178.115 139.94L171.187 141.613Z" fill="#263238"/>
<path d="M191.663 127.223C191.667 127.515 191.756 127.798 191.921 128.039C192.085 128.279 192.317 128.466 192.587 128.576C192.857 128.685 193.154 128.713 193.44 128.655C193.725 128.598 193.988 128.457 194.194 128.251C194.4 128.046 194.541 127.784 194.599 127.498C194.657 127.213 194.629 126.917 194.519 126.647C194.409 126.377 194.222 126.146 193.981 125.982C193.74 125.818 193.456 125.729 193.164 125.725C192.967 125.722 192.77 125.76 192.587 125.834C192.404 125.908 192.237 126.019 192.097 126.158C191.957 126.298 191.847 126.464 191.772 126.647C191.698 126.83 191.661 127.026 191.663 127.223Z" fill="#263238"/>
<path d="M185.662 127.224C185.665 127.515 185.755 127.8 185.921 128.041C186.086 128.282 186.319 128.468 186.59 128.578C186.861 128.687 187.158 128.714 187.445 128.654C187.731 128.595 187.994 128.453 188.199 128.245C188.405 128.037 188.544 127.774 188.6 127.487C188.656 127.201 188.625 126.904 188.512 126.635C188.4 126.365 188.21 126.135 187.966 125.973C187.723 125.811 187.437 125.725 187.144 125.725C186.948 125.725 186.754 125.764 186.573 125.839C186.392 125.915 186.227 126.026 186.089 126.165C185.951 126.304 185.843 126.47 185.769 126.652C185.696 126.833 185.659 127.028 185.662 127.224Z" fill="#263238"/>
<path d="M179.676 126.476C179.532 126.73 179.467 127.02 179.489 127.311C179.51 127.602 179.617 127.88 179.796 128.11C179.975 128.34 180.218 128.512 180.495 128.605C180.771 128.698 181.07 128.708 181.351 128.632C181.633 128.557 181.887 128.4 182.08 128.181C182.273 127.963 182.397 127.692 182.437 127.403C182.476 127.114 182.429 126.82 182.302 126.558C182.175 126.296 181.973 126.077 181.722 125.929C181.552 125.828 181.364 125.763 181.168 125.736C180.973 125.71 180.774 125.722 180.584 125.773C180.393 125.824 180.215 125.913 180.059 126.033C179.903 126.154 179.773 126.305 179.676 126.476Z" fill="#263238"/>
<defs>
<filter id="filter0_f_566_8061" x="3.06551" y="85.2132" width="211.174" height="165.545" filterUnits="userSpaceOnUse" color-interpolation-filters="sRGB">
<feFlood flood-opacity="0" result="BackgroundImageFix"/>
<feBlend mode="normal" in="SourceGraphic" in2="BackgroundImageFix" result="shape"/>
<feGaussianBlur stdDeviation="17.135" result="effect1_foregroundBlur_566_8061"/>
</filter>
<filter id="filter1_f_566_8061" x="107.951" y="81.8158" width="182.597" height="191.737" filterUnits="userSpaceOnUse" color-interpolation-filters="sRGB">
<feFlood flood-opacity="0" result="BackgroundImageFix"/>
<feBlend mode="normal" in="SourceGraphic" in2="BackgroundImageFix" result="shape"/>
<feGaussianBlur stdDeviation="17.135" result="effect1_foregroundBlur_566_8061"/>
</filter>
<filter id="filter2_f_566_8061" x="23.3995" y="82.1102" width="190.539" height="178.65" filterUnits="userSpaceOnUse" color-interpolation-filters="sRGB">
<feFlood flood-opacity="0" result="BackgroundImageFix"/>
<feBlend mode="normal" in="SourceGraphic" in2="BackgroundImageFix" result="shape"/>
<feGaussianBlur stdDeviation="17.135" result="effect1_foregroundBlur_566_8061"/>
</filter>
<filter id="filter3_f_566_8061" x="30.9903" y="90.2782" width="190.539" height="178.65" filterUnits="userSpaceOnUse" color-interpolation-filters="sRGB">
<feFlood flood-opacity="0" result="BackgroundImageFix"/>
<feBlend mode="normal" in="SourceGraphic" in2="BackgroundImageFix" result="shape"/>
<feGaussianBlur stdDeviation="17.135" result="effect1_foregroundBlur_566_8061"/>
</filter>
<linearGradient id="paint0_linear_566_8061" x1="164.196" y1="161.739" x2="60.7213" y2="146.67" gradientUnits="userSpaceOnUse">
<stop stop-color="#FF2E00"/>
<stop offset="1" stop-color="#8C4E96"/>
</linearGradient>
<linearGradient id="paint1_linear_566_8061" x1="143.281" y1="191.395" x2="79.8545" y2="127.969" gradientUnits="userSpaceOnUse">
<stop stop-color="#00FFA3" stop-opacity="0.58"/>
<stop offset="1" stop-color="#3300FF" stop-opacity="0.2"/>
</linearGradient>
<linearGradient id="paint2_linear_566_8061" x1="226.676" y1="227.934" x2="210.321" y2="124.655" gradientUnits="userSpaceOnUse">
<stop stop-color="#FF2E00"/>
<stop offset="1" stop-color="#1400FF" stop-opacity="0.2"/>
</linearGradient>
<linearGradient id="paint3_linear_566_8061" x1="192.145" y1="216.775" x2="233.863" y2="137.368" gradientUnits="userSpaceOnUse">
<stop stop-color="#6F5FFE"/>
<stop offset="1" stop-color="#6F5FFE"/>
</linearGradient>
<linearGradient id="paint4_linear_566_8061" x1="161.998" y1="193.461" x2="94.2526" y2="125.715" gradientUnits="userSpaceOnUse">
<stop stop-color="#00FFA3" stop-opacity="0.48"/>
<stop offset="1" stop-color="#3300FF" stop-opacity="0.2"/>
</linearGradient>
<linearGradient id="paint5_linear_566_8061" x1="169.589" y1="201.629" x2="101.843" y2="133.883" gradientUnits="userSpaceOnUse">
<stop stop-color="#C785D3"/>
<stop offset="1" stop-color="#66396E"/>
</linearGradient>
</defs>
</svg>
