<svg width="300" height="330" viewBox="0 0 300 330" fill="none" xmlns="http://www.w3.org/2000/svg">
<g clip-path="url(#clip0_566_8576)">
<g filter="url(#filter0_f_566_8576)">
<path d="M43.8469 238.67C26.3322 221.155 64.2503 174.573 81.8545 156.969C99.4586 139.365 160.75 151.926 178.265 169.441C195.779 186.956 146.462 201.243 128.858 218.847C111.254 236.452 61.3616 256.185 43.8469 238.67Z" fill="url(#paint0_linear_566_8576)"/>
<path d="M43.8469 238.67C26.3322 221.155 64.2503 174.573 81.8545 156.969C99.4586 139.365 160.75 151.926 178.265 169.441C195.779 186.956 146.462 201.243 128.858 218.847C111.254 236.452 61.3616 256.185 43.8469 238.67Z" fill="url(#paint1_linear_566_8576)"/>
</g>
<g filter="url(#filter1_f_566_8576)">
<path d="M146.558 154.351C158.078 132.424 213.823 154.789 235.862 166.368C257.902 177.947 264.118 240.203 252.598 262.13C241.078 284.058 212.783 241.213 190.743 229.634C168.704 218.055 135.038 176.279 146.558 154.351Z" fill="url(#paint2_linear_566_8576)"/>
<path d="M146.558 154.351C158.078 132.424 213.823 154.789 235.862 166.368C257.902 177.947 264.118 240.203 252.598 262.13C241.078 284.058 212.783 241.213 190.743 229.634C168.704 218.055 135.038 176.279 146.558 154.351Z" fill="url(#paint3_linear_566_8576)"/>
</g>
<g filter="url(#filter2_f_566_8576)">
<path d="M78.5769 240.137C59.8694 221.429 51.456 186.104 70.24 167.32C89.024 148.536 145.429 135.869 164.137 154.577C182.844 173.284 189.105 223.817 170.321 242.601C151.537 261.385 97.2843 258.844 78.5769 240.137Z" fill="url(#paint4_linear_566_8576)"/>
</g>
<g filter="url(#filter3_f_566_8576)">
<path d="M86.1677 248.305C67.4603 229.597 59.0469 194.272 77.8308 175.488C96.6148 156.704 153.02 144.037 171.728 162.745C190.435 181.452 196.696 231.985 177.912 250.769C159.128 269.553 104.875 267.012 86.1677 248.305Z" fill="url(#paint5_linear_566_8576)"/>
</g>
<rect y="230" width="300" height="100" rx="10" fill="#4F4F53"/>
<path d="M258.715 147.176H181.896C172.47 147.176 164.828 154.817 164.828 164.244V226.768C164.828 236.194 172.47 243.835 181.896 243.835H258.715C268.142 243.835 275.783 236.194 275.783 226.768V164.244C275.783 154.817 268.142 147.176 258.715 147.176Z" fill="#6F5FFE"/>
<g opacity="0.4">
<path d="M258.715 147.176H181.896C172.47 147.176 164.828 154.817 164.828 164.244V226.768C164.828 236.194 172.47 243.835 181.896 243.835H258.715C268.142 243.835 275.783 236.194 275.783 226.768V164.244C275.783 154.817 268.142 147.176 258.715 147.176Z" fill="black"/>
</g>
<path d="M275.752 180.871H292.371L275.378 197.868L275.752 180.871Z" fill="#6F5FFE"/>
<g opacity="0.4">
<path d="M275.752 180.871H292.371L275.378 197.868L275.752 180.871Z" fill="black"/>
</g>
<path d="M162.17 191.321L155.205 183.401C153.322 181.518 152.675 180.612 153.054 180.282C153.555 179.842 153.34 179.987 157.251 182.922C157.251 182.922 151.707 178.684 153.63 178.658C153.969 178.658 154.91 179.204 155.918 179.864C154.545 178.698 154.158 177.91 154.426 177.536C154.866 176.885 158.263 179.239 159.825 180.37C158.549 179.419 156.116 177.576 155.689 176.995C155.1 176.203 156.292 176.269 157.26 176.599C158.347 176.968 164.353 180.035 166.13 180.827C166.273 180.912 166.432 180.965 166.597 180.983C166.762 181.001 166.929 180.982 167.086 180.929C167.244 180.876 167.388 180.789 167.508 180.675C167.629 180.561 167.723 180.422 167.785 180.268C168.44 177.514 170.425 175.723 171.182 175.49C171.938 175.257 172.524 176.225 171.982 176.929C171.473 177.748 171.079 178.633 170.812 179.56C170.567 180.287 170.446 181.05 170.456 181.817C170.456 182.697 170.517 183.458 170.574 184.096L176.941 192.83L166.293 198.99L162.17 191.321Z" fill="#B78876"/>
<path d="M159.68 184.154C159.609 184.25 158.36 183.401 156.917 182.253C155.473 181.104 154.347 180.092 154.431 180C154.514 179.908 155.751 180.761 157.194 181.901C158.637 183.04 159.741 184.052 159.68 184.154Z" fill="#AA6550"/>
<path d="M161.026 182.763C160.956 182.864 159.587 182.028 157.968 180.902C156.349 179.776 155.091 178.777 155.161 178.68C155.231 178.583 156.6 179.41 158.219 180.537C159.838 181.663 161.097 182.662 161.026 182.763Z" fill="#AA6550"/>
<path d="M162.012 181.285C161.942 181.386 160.63 180.621 159.086 179.573C157.542 178.526 156.345 177.598 156.411 177.492C156.477 177.387 157.788 178.157 159.337 179.204C160.886 180.251 162.078 181.184 162.012 181.285Z" fill="#AA6550"/>
<path d="M171.168 185.28L196.548 217.462L190.735 230.992C190.735 230.992 183.774 229.452 181.662 226.521C179.55 223.591 162.17 191.321 162.17 191.321L171.168 185.28Z" fill="#B78876"/>
<path d="M235.593 140.259C237.419 141.843 237.415 144.633 237.204 147.04C236.992 149.446 236.83 152.188 238.497 153.939C239.874 155.382 242.369 156.011 242.686 157.978C242.761 158.44 242.691 158.914 242.486 159.335C242.28 159.756 241.95 160.103 241.539 160.328C241.129 160.553 240.659 160.646 240.194 160.593C239.728 160.54 239.291 160.344 238.942 160.033C239.478 161.586 239.109 163.526 237.762 164.468C236.416 165.41 234.159 164.829 233.741 163.24C233.809 163.506 233.822 163.782 233.779 164.053C233.736 164.323 233.637 164.582 233.49 164.812C233.342 165.043 233.149 165.241 232.921 165.393C232.694 165.546 232.437 165.65 232.168 165.699C231.899 165.748 231.622 165.741 231.355 165.679C231.089 165.616 230.838 165.499 230.618 165.336C230.399 165.172 230.216 164.964 230.08 164.727C229.944 164.489 229.859 164.226 229.829 163.953" fill="#263238"/>
<path d="M209.444 156.504C209.198 157.093 208.729 157.561 208.138 157.804C207.548 158.047 206.885 158.045 206.296 157.8C205.707 157.554 205.239 157.084 204.996 156.494C204.753 155.904 204.754 155.241 205 154.652C205.418 153.736 206.408 153.076 206.505 152.073C206.619 150.863 205.383 149.996 204.305 149.468C203.227 148.94 201.924 148.254 201.806 147.04C201.687 145.825 202.738 144.958 203.614 144.175C204.49 143.392 205.374 142.178 204.815 141.135C204.538 140.598 203.962 140.294 203.588 139.815C202.765 138.768 203.196 137.1 204.248 136.295C205.299 135.49 206.751 135.362 208.062 135.595C209.374 135.828 210.606 136.374 211.882 136.757C213.997 137.372 216.217 137.542 218.401 137.255C220.585 136.969 222.686 136.233 224.571 135.094" fill="#263238"/>
<path d="M217.236 184.88C219.51 185.338 221.872 184.885 223.814 183.617C225.756 182.35 227.121 180.369 227.616 178.104L233.86 149.477C234.249 147.824 234.304 146.11 234.019 144.436C233.735 142.761 233.118 141.161 232.204 139.729C231.291 138.298 230.099 137.064 228.7 136.1C227.302 135.137 225.724 134.464 224.061 134.121L223.41 134.024C220.229 133.557 216.988 134.305 214.334 136.119C211.68 137.933 209.807 140.681 209.088 143.814C207.697 149.856 206.241 156.548 205.801 159.835C204.89 166.642 211.521 168.692 211.521 168.692L210.328 174.412C210.092 175.552 210.083 176.727 210.302 177.87C210.521 179.013 210.964 180.102 211.605 181.073C212.246 182.045 213.073 182.88 214.038 183.531C215.003 184.182 216.087 184.636 217.228 184.866L217.236 184.88Z" fill="#B78876"/>
<path d="M210.311 148.32C210.272 148.573 210.333 148.83 210.481 149.039C210.629 149.247 210.851 149.39 211.103 149.438C211.224 149.465 211.35 149.469 211.473 149.447C211.596 149.425 211.714 149.379 211.819 149.312C211.924 149.244 212.014 149.156 212.084 149.053C212.155 148.95 212.204 148.834 212.229 148.712C212.27 148.459 212.211 148.201 212.063 147.992C211.916 147.783 211.693 147.64 211.441 147.594C211.319 147.566 211.193 147.563 211.07 147.585C210.947 147.606 210.829 147.652 210.724 147.72C210.618 147.787 210.528 147.875 210.457 147.978C210.386 148.081 210.336 148.198 210.311 148.32Z" fill="#263238"/>
<path d="M210.06 147.352C210.161 147.497 210.975 147.057 212.022 147.216C213.07 147.374 213.752 148.003 213.884 147.893C213.95 147.845 213.857 147.598 213.562 147.308C213.156 146.929 212.643 146.684 212.093 146.608C211.55 146.526 210.996 146.619 210.509 146.872C210.152 147.075 210.012 147.286 210.06 147.352Z" fill="#263238"/>
<path d="M220.514 149.992C220.475 150.245 220.535 150.503 220.683 150.712C220.831 150.921 221.055 151.063 221.306 151.11C221.428 151.137 221.555 151.14 221.678 151.118C221.801 151.096 221.919 151.05 222.024 150.982C222.129 150.914 222.219 150.826 222.289 150.722C222.359 150.618 222.408 150.502 222.433 150.379C222.472 150.127 222.412 149.869 222.264 149.661C222.116 149.453 221.892 149.311 221.641 149.266C221.519 149.238 221.393 149.234 221.27 149.255C221.146 149.277 221.029 149.323 220.924 149.39C220.819 149.458 220.728 149.546 220.658 149.65C220.588 149.753 220.539 149.869 220.514 149.992Z" fill="#263238"/>
<path d="M220.295 149.05C220.396 149.191 221.21 148.756 222.253 148.914C223.295 149.072 223.986 149.702 224.118 149.592C224.18 149.543 224.092 149.297 223.793 149.006C223.387 148.627 222.873 148.383 222.323 148.307C221.78 148.225 221.226 148.317 220.739 148.571C220.4 148.76 220.242 148.984 220.295 149.05Z" fill="#263238"/>
<path d="M215.371 156.24C215.371 156.178 214.75 155.972 213.721 155.686C213.457 155.62 213.215 155.527 213.197 155.338C213.215 155.061 213.316 154.796 213.488 154.577C213.837 153.97 214.199 153.332 214.574 152.663C216.092 149.93 217.214 147.673 217.122 147.612C217.03 147.55 215.692 149.715 214.174 152.452L213.118 154.379C212.905 154.678 212.802 155.042 212.828 155.408C212.855 155.506 212.903 155.596 212.969 155.672C213.035 155.748 213.118 155.808 213.21 155.848C213.351 155.909 213.499 155.952 213.65 155.976C214.211 156.135 214.789 156.224 215.371 156.24Z" fill="#263238"/>
<path d="M220.62 144.919C220.682 145.218 221.746 145.236 222.948 145.561C224.149 145.887 225.09 146.366 225.293 146.138C225.381 146.028 225.249 145.733 224.892 145.403C224.409 144.987 223.837 144.688 223.22 144.527C222.603 144.366 221.958 144.348 221.333 144.474C220.84 144.589 220.598 144.8 220.62 144.919Z" fill="#263238"/>
<path d="M210.887 144.387C211.037 144.651 211.767 144.51 212.647 144.624C213.527 144.739 214.223 145.02 214.407 144.796C214.5 144.686 214.407 144.43 214.135 144.158C213.744 143.826 213.263 143.618 212.754 143.56C212.245 143.502 211.73 143.596 211.275 143.832C210.958 144.03 210.821 144.259 210.887 144.387Z" fill="#263238"/>
<path d="M227.577 140.946L227.607 140.981C228.566 141.992 229.096 143.336 229.086 144.73V144.866C229.086 146.846 228.729 148.826 228.734 150.784C228.738 152.742 229.117 154.828 230.353 156.368C230.859 157.006 231.845 157.534 232.421 156.962C232.624 156.718 232.754 156.422 232.795 156.108C233.842 151.484 235.725 147.524 236.434 142.631C236.532 141.976 236.473 141.307 236.261 140.679C236.049 140.052 235.69 139.484 235.215 139.023C234.3 138.143 233.16 137.192 231.941 137.566C230.723 137.94 228.941 139.854 227.924 140.646" fill="#263238"/>
<path d="M231.118 152.214C231.241 152.179 235.989 151.514 235.157 156.139C234.326 160.763 229.877 158.977 229.877 158.84C229.877 158.704 231.118 152.214 231.118 152.214Z" fill="#B78876"/>
<path d="M231.602 157.344C231.602 157.344 231.673 157.415 231.796 157.498C231.973 157.616 232.189 157.66 232.399 157.622C232.918 157.529 233.468 156.83 233.64 155.998C233.728 155.606 233.728 155.198 233.64 154.806C233.621 154.654 233.567 154.508 233.48 154.382C233.393 154.255 233.278 154.152 233.142 154.08C233.054 154.038 232.954 154.029 232.86 154.054C232.766 154.079 232.684 154.136 232.628 154.216C232.544 154.33 232.557 154.432 232.531 154.432C232.504 154.432 232.447 154.339 232.531 154.154C232.576 154.045 232.659 153.955 232.764 153.899C232.908 153.826 233.076 153.811 233.23 153.86C233.415 153.933 233.577 154.052 233.702 154.206C233.827 154.361 233.91 154.544 233.943 154.74C234.065 155.169 234.082 155.622 233.992 156.06C233.794 156.988 233.16 157.771 232.46 157.846C232.329 157.86 232.197 157.844 232.073 157.8C231.949 157.756 231.836 157.684 231.743 157.591C231.589 157.454 231.585 157.349 231.602 157.344Z" fill="#AA6550"/>
<path d="M231.994 138.31C233.411 136.616 230.674 133.492 228.474 132.432C226.274 131.371 223.106 132.049 220.712 132.471C219.203 132.74 217.672 133.197 216.167 132.911C215.168 132.661 214.213 132.262 213.333 131.728C212.451 131.202 211.473 130.86 210.456 130.72C209.944 130.657 209.425 130.735 208.955 130.945C208.484 131.155 208.08 131.489 207.785 131.912C207.261 132.792 207.627 134.17 208.612 134.456C208.315 134.23 207.968 134.08 207.6 134.018C207.232 133.956 206.855 133.985 206.501 134.101C206.146 134.217 205.825 134.417 205.565 134.685C205.305 134.952 205.114 135.278 205.008 135.636C204.902 135.993 204.884 136.371 204.956 136.737C205.028 137.103 205.188 137.446 205.421 137.737C205.655 138.027 205.956 138.257 206.298 138.406C206.64 138.555 207.013 138.618 207.385 138.592C206.799 137.993 205.664 138.675 205.625 139.511C205.585 140.347 206.245 141.056 206.945 141.5C208.753 142.635 211.05 142.692 213.153 142.314C215.256 141.936 217.271 141.152 219.366 140.721C221.46 140.29 224.976 139.472 226.868 140.47C228.258 141.201 229.024 143.11 229.908 142.851C230.327 142.696 230.704 142.447 231.01 142.121C231.315 141.796 231.541 141.404 231.668 140.976C231.907 140.118 232.006 139.226 231.963 138.336" fill="#263238"/>
<path d="M241.045 159.76C241.131 159.74 241.214 159.704 241.287 159.654C241.505 159.515 241.678 159.316 241.789 159.082C241.959 158.708 242.011 158.291 241.938 157.886C241.824 157.353 241.532 156.875 241.111 156.53C240.611 156.119 240.048 155.79 239.443 155.558C238.764 155.31 238.111 154.995 237.494 154.616C236.848 154.162 236.355 153.522 236.082 152.782C235.781 151.984 235.642 151.134 235.673 150.282C235.717 148.522 236.205 146.872 236.324 145.319C236.443 143.766 236.245 142.31 235.585 141.302C235.088 140.492 234.301 139.901 233.385 139.652C233.139 139.59 232.885 139.565 232.632 139.577C232.544 139.579 232.457 139.592 232.373 139.617C232.707 139.615 233.039 139.656 233.363 139.74C234.234 140.016 234.974 140.603 235.439 141.39C236.051 142.367 236.262 143.784 236.108 145.302C235.954 146.82 235.483 148.47 235.431 150.278C235.403 151.161 235.552 152.041 235.871 152.865C236.165 153.648 236.692 154.322 237.38 154.797C238.011 155.176 238.679 155.491 239.373 155.738C239.961 155.957 240.512 156.265 241.005 156.654C241.407 156.972 241.692 157.414 241.815 157.912C241.895 158.291 241.858 158.685 241.709 159.043C241.573 159.349 241.34 159.601 241.045 159.76Z" fill="#455A64"/>
<path d="M208.463 134.346C208.401 134.299 208.333 134.262 208.261 134.236C208.178 134.195 208.093 134.161 208.005 134.134C207.884 134.093 207.759 134.062 207.631 134.042C207.214 133.976 206.787 134.006 206.383 134.13C205.979 134.253 205.609 134.467 205.299 134.755C204.986 135.136 204.752 135.576 204.61 136.049C204.468 136.522 204.421 137.018 204.472 137.509C204.531 138.119 204.712 138.711 205.004 139.25C205.296 139.789 205.692 140.264 206.171 140.646C207.27 141.532 208.609 142.07 210.016 142.191C211.544 142.322 213.083 142.229 214.583 141.914C216.963 141.447 219.242 140.566 221.315 139.309C222.204 138.759 223.134 138.278 224.096 137.87C224.936 137.529 225.831 137.346 226.736 137.329C228.054 137.3 229.358 137.603 230.529 138.209C230.952 138.446 231.362 138.706 231.757 138.988C231.404 138.642 231.006 138.345 230.573 138.108C229.399 137.454 228.076 137.116 226.732 137.126C225.804 137.134 224.885 137.311 224.021 137.65C223.049 138.058 222.109 138.539 221.21 139.089C219.151 140.32 216.894 141.185 214.539 141.645C213.061 141.958 211.545 142.055 210.038 141.931C208.674 141.818 207.375 141.304 206.303 140.453C205.842 140.088 205.458 139.636 205.174 139.121C204.89 138.607 204.711 138.041 204.648 137.456C204.595 136.988 204.634 136.514 204.764 136.061C204.893 135.608 205.111 135.185 205.405 134.816C205.698 134.536 206.05 134.325 206.435 134.198C206.821 134.071 207.229 134.031 207.631 134.082C207.916 134.144 208.195 134.232 208.463 134.346Z" fill="#455A64"/>
<path d="M211.037 130.496C211.021 130.849 211.076 131.202 211.2 131.534C211.543 132.451 212.184 133.226 213.021 133.734C213.584 134.1 214.208 134.36 214.865 134.5C215.618 134.651 216.388 134.691 217.153 134.618C218.768 134.5 220.457 133.945 222.23 133.488C224.004 133.03 225.777 132.788 227.308 133.197C228.667 133.557 229.876 134.342 230.758 135.437C231.364 136.164 231.814 137.009 232.078 137.918C232.254 138.565 232.276 138.944 232.306 138.939C232.312 138.848 232.312 138.757 232.306 138.666C232.282 138.407 232.24 138.15 232.179 137.896C231.944 136.958 231.507 136.083 230.898 135.331C230.008 134.191 228.773 133.369 227.378 132.986C225.794 132.546 223.973 132.797 222.191 133.259C220.409 133.721 218.732 134.275 217.153 134.403C216.409 134.48 215.657 134.449 214.922 134.31C214.286 134.181 213.678 133.94 213.127 133.598C212.311 133.117 211.672 132.385 211.305 131.512C211.187 131.181 211.098 130.841 211.037 130.496Z" fill="#455A64"/>
<path d="M213.285 159.694C213.343 160.148 213.463 160.592 213.642 161.014C213.735 161.222 213.872 161.408 214.042 161.56C214.213 161.712 214.414 161.826 214.632 161.894C214.868 161.943 215.112 161.932 215.343 161.862C215.573 161.792 215.783 161.665 215.952 161.494C216.289 161.138 216.506 160.686 216.572 160.2C216.643 159.76 216.572 159.21 216.132 159.069C215.954 159.025 215.769 159.025 215.591 159.069L213.153 159.509" fill="#AA6550"/>
<path d="M213.712 161.542C214.1 161.691 214.511 161.769 214.926 161.771C215.356 161.746 215.761 161.56 216.062 161.252C216.239 161.063 216.374 160.839 216.458 160.594C216.543 160.349 216.574 160.088 216.55 159.83C216.537 159.698 216.507 159.568 216.462 159.443C216.405 159.324 216.422 159.333 216.321 159.32C216.22 159.307 216.062 159.32 215.93 159.342L215.52 159.373C214.992 159.412 214.517 159.443 214.117 159.465C213.678 159.526 213.233 159.517 212.797 159.439C213.208 159.289 213.64 159.2 214.077 159.175C214.473 159.118 214.957 159.06 215.472 158.999L215.877 158.955C216.023 158.934 216.17 158.92 216.317 158.915C216.433 158.918 216.546 158.958 216.638 159.03C216.72 159.102 216.782 159.195 216.818 159.298C216.878 159.457 216.917 159.622 216.933 159.791C216.962 160.108 216.92 160.427 216.812 160.726C216.703 161.025 216.529 161.296 216.304 161.52C215.928 161.877 215.427 162.072 214.909 162.061C214.57 162.063 214.238 161.97 213.95 161.793C213.8 161.67 213.699 161.56 213.712 161.542Z" fill="#263238"/>
<path d="M211.53 168.692C211.53 168.692 215.965 170.373 220.281 169.132C220.281 169.132 217.025 171.864 211.085 170.817L211.53 168.692Z" fill="#AA6550"/>
<path d="M218.297 231.775C218.083 231.635 217.88 231.479 217.69 231.308C217.5 231.154 217.25 230.965 216.981 230.763C216.713 230.56 216.387 230.323 216.013 230.081C215.639 229.839 215.252 229.575 214.799 229.324C214.346 229.073 213.866 228.809 213.351 228.545C211.094 227.434 208.667 226.709 206.17 226.398C205.594 226.336 205.048 226.266 204.534 226.253C204.019 226.239 203.539 226.217 203.104 226.222C202.668 226.226 202.268 226.248 201.92 226.262C201.572 226.275 201.273 226.301 201.04 226.328C200.788 226.366 200.534 226.384 200.279 226.38C200.526 226.317 200.778 226.27 201.031 226.239C201.323 226.19 201.616 226.154 201.911 226.134C202.259 226.108 202.655 226.059 203.099 226.059C203.544 226.059 204.023 226.033 204.542 226.059C205.062 226.085 205.616 226.129 206.197 226.182C207.456 226.339 208.701 226.595 209.919 226.948C211.129 227.32 212.306 227.789 213.439 228.352C213.954 228.624 214.451 228.875 214.887 229.157C215.322 229.438 215.736 229.689 216.097 229.944C216.458 230.2 216.774 230.446 217.052 230.657C217.329 230.868 217.558 231.071 217.738 231.238C217.939 231.401 218.126 231.58 218.297 231.775Z" fill="#FAFAFA"/>
<path d="M192.438 209.176L196.046 193.543C197.428 187.665 199.065 182.015 201.815 181.346V183.164L200.635 227.828C200.635 227.828 193.283 236.188 183.915 231.55C180.985 230.094 175.639 219.864 175.639 219.864C175.639 219.864 163.2 197.67 163.719 196.663C164.239 195.655 171.837 185.861 172.612 185.372L192.438 209.176Z" fill="#6F5FFE"/>
<path d="M229.565 176.92C236.737 178.293 244.811 182.477 248.529 193.2C249.885 197.116 259.758 225.984 259.758 225.984L242.919 225.632L240.2 219.688L241.52 229.346L242.66 243.118L200.138 243.835L200.437 223.085L200.847 181.813C200.847 181.813 201.322 181.188 208.657 177.144C213.206 174.632 229.565 176.92 229.565 176.92Z" fill="#6F5FFE"/>
<g opacity="0.2">
<path d="M233.807 204.526C234.506 213.238 235.307 215.93 236.007 224.642C236.023 225.467 236.172 226.284 236.447 227.062C236.594 227.449 236.829 227.796 237.135 228.075C237.441 228.354 237.808 228.557 238.207 228.668C239.447 228.919 241.058 229.817 241.405 228.602L240.231 220.212C239.978 218.991 239.588 217.803 239.069 216.67C236.46 210.875 235.496 210.536 233.789 204.526" fill="black"/>
</g>
<path d="M208.652 181.61L208.793 180.704L210.152 172.01C210.191 171.757 210.325 171.528 210.526 171.37C210.726 171.212 210.98 171.135 211.235 171.156L227.977 172.555C228.482 172.597 228.951 172.836 229.281 173.222C229.611 173.608 229.774 174.108 229.737 174.614L229.363 179.666L224.135 186.486L216.607 187.66" fill="#6F5FFE"/>
<path d="M200.244 197.956C200.31 197.956 200.358 204.768 200.358 213.167C200.358 221.567 200.31 228.378 200.244 228.378C200.178 228.378 200.129 221.567 200.129 213.167C200.129 204.768 200.182 197.956 200.244 197.956Z" fill="#263238"/>
<path d="M243.28 227.032C243.28 227.032 243.28 227.001 243.227 226.935C243.174 226.869 243.144 226.759 243.086 226.636L242.576 225.478L240.741 221.206L234.762 207.078C233.6 204.314 232.496 201.683 231.492 199.285C230.985 198.162 230.622 196.979 230.41 195.765C230.224 194.704 230.127 193.63 230.12 192.553C230.064 190.993 230.29 189.435 230.788 187.955L230.925 187.59L231.079 187.282C231.151 187.118 231.24 186.962 231.343 186.816L231.528 186.543C231.549 186.512 231.572 186.482 231.598 186.455C231.309 186.941 231.066 187.454 230.872 187.986C230.412 189.463 230.212 191.008 230.282 192.553C230.29 194.848 230.768 197.116 231.686 199.219L234.973 207.003L240.891 221.158L242.651 225.456L243.122 226.631L243.24 226.939C243.257 226.969 243.27 227 243.28 227.032Z" fill="#263238"/>
<path d="M234.784 178.456C234.63 178.612 234.467 178.759 234.295 178.896C233.801 179.273 233.261 179.588 232.689 179.833C231.784 180.211 230.835 180.477 229.865 180.625C228.582 180.824 227.289 180.952 225.993 181.008C224.549 181.069 222.974 181.043 221.285 181.074C219.49 181.071 217.702 181.289 215.961 181.725C214.032 182.181 212.286 183.21 210.953 184.677C210.29 185.476 209.814 186.415 209.563 187.423C209.294 188.457 209.313 189.544 209.616 190.569C209.784 191.074 210.032 191.55 210.351 191.977C210.671 192.391 211.076 192.733 211.539 192.98C211.987 193.226 212.499 193.333 213.008 193.288C213.507 193.237 213.968 193.001 214.302 192.628C214.599 192.235 214.811 191.784 214.923 191.304C215.035 190.825 215.045 190.327 214.953 189.843C214.88 189.365 214.731 188.901 214.513 188.47C214.296 188.049 214.035 187.652 213.734 187.286C212.558 185.931 210.974 184.994 209.22 184.616C207.7 184.257 206.115 184.275 204.604 184.668C203.361 184.99 202.174 185.499 201.084 186.178C200.254 186.695 199.471 187.284 198.743 187.938C198.141 188.466 197.714 188.923 197.423 189.222L197.098 189.574C197.062 189.616 197.022 189.655 196.979 189.689C197.497 189.034 198.071 188.426 198.695 187.872C199.415 187.205 200.196 186.607 201.027 186.085C202.127 185.385 203.33 184.86 204.591 184.528C206.127 184.116 207.741 184.088 209.29 184.448C211.09 184.828 212.716 185.784 213.923 187.172C214.231 187.539 214.499 187.937 214.724 188.36C214.946 188.813 215.095 189.299 215.164 189.799C215.241 190.309 215.232 190.828 215.138 191.334C215.043 191.862 214.811 192.355 214.465 192.764C214.095 193.18 213.583 193.442 213.03 193.499C212.475 193.552 211.917 193.437 211.429 193.169C210.938 192.907 210.507 192.544 210.166 192.104C209.83 191.656 209.568 191.157 209.391 190.626C209.075 189.562 209.057 188.431 209.339 187.357C209.595 186.313 210.088 185.343 210.777 184.519C212.142 183.022 213.927 181.971 215.899 181.505C217.66 181.074 219.468 180.864 221.28 180.88C222.974 180.854 224.549 180.88 225.984 180.84C227.275 180.795 228.564 180.679 229.843 180.493C230.807 180.354 231.752 180.103 232.659 179.745C233.227 179.514 233.768 179.219 234.269 178.865C234.445 178.746 234.564 178.636 234.652 178.574C234.692 178.531 234.736 178.491 234.784 178.456Z" fill="#FAFAFA"/>
<path d="M249.334 196.768C249.273 196.786 249.209 196.796 249.145 196.799C249.022 196.799 248.841 196.83 248.604 196.839C247.939 196.861 247.274 196.845 246.611 196.79C245.77 196.729 244.776 196.601 243.676 196.447C242.576 196.293 241.37 196.13 240.094 196.064C238.901 195.999 237.705 196.09 236.535 196.333C235.578 196.527 234.66 196.877 233.815 197.367C233.051 197.834 232.372 198.43 231.809 199.127C231.833 199.068 231.866 199.013 231.906 198.964C231.999 198.809 232.105 198.661 232.223 198.524C232.649 198.003 233.159 197.557 233.732 197.204C234.582 196.685 235.513 196.313 236.486 196.104C237.675 195.844 238.893 195.747 240.107 195.814C241.397 195.88 242.607 196.056 243.707 196.218C244.807 196.381 245.792 196.526 246.624 196.606C247.455 196.685 248.137 196.72 248.604 196.724C248.848 196.724 249.092 196.739 249.334 196.768Z" fill="#FAFAFA"/>
<path d="M238.761 216.494C237.934 216.301 237.083 216.229 236.236 216.278C235.241 216.345 234.257 216.521 233.301 216.802C232.179 217.105 230.925 217.55 229.517 217.985C227.988 218.504 226.388 218.781 224.774 218.808C222.915 218.808 221.076 218.426 219.37 217.686C217.475 216.885 215.789 215.66 214.442 214.105C213.714 213.292 213.12 212.368 212.682 211.368C212.217 210.333 212.042 209.19 212.176 208.063C212.33 206.927 212.883 205.883 213.738 205.12C214.163 204.749 214.672 204.489 215.221 204.363C215.758 204.249 216.315 204.264 216.845 204.407C217.375 204.551 217.863 204.817 218.27 205.186C218.668 205.55 218.944 206.028 219.062 206.554C219.176 207.069 219.135 207.607 218.944 208.098C218.758 208.571 218.478 209.001 218.121 209.361C217.438 210.045 216.614 210.569 215.705 210.897C215.277 211.059 214.836 211.182 214.385 211.262C214.165 211.302 213.945 211.35 213.73 211.381L213.074 211.46C211.466 211.619 209.843 211.505 208.274 211.121C206.979 210.813 205.732 210.334 204.564 209.696C203.681 209.219 202.854 208.646 202.096 207.988L201.656 207.606L201.295 207.241C201.101 207.056 200.918 206.859 200.75 206.651L200.433 206.272C200.397 206.231 200.364 206.187 200.336 206.141C200.379 206.177 200.418 206.217 200.455 206.259L200.785 206.62C200.959 206.822 201.146 207.013 201.344 207.192L201.709 207.548L202.149 207.922C202.91 208.562 203.737 209.118 204.617 209.581C205.779 210.202 207.017 210.666 208.3 210.963C209.854 211.333 211.459 211.437 213.048 211.271L213.69 211.192C213.906 211.157 214.13 211.108 214.341 211.068C214.781 210.989 215.213 210.868 215.63 210.708C216.509 210.388 217.307 209.878 217.967 209.216C218.303 208.875 218.567 208.47 218.741 208.024C218.914 207.57 218.952 207.077 218.851 206.602C218.721 206.118 218.46 205.678 218.098 205.331C217.736 204.983 217.286 204.742 216.796 204.631C216.295 204.487 215.765 204.472 215.256 204.588C214.748 204.704 214.277 204.948 213.888 205.296C213.073 206.022 212.547 207.017 212.405 208.098C212.279 209.183 212.446 210.282 212.889 211.28C213.315 212.256 213.891 213.161 214.596 213.959C215.92 215.486 217.576 216.69 219.436 217.479C221.115 218.212 222.925 218.595 224.756 218.606C226.354 218.586 227.939 218.319 229.455 217.814C230.859 217.374 232.095 216.96 233.252 216.665C234.218 216.394 235.211 216.23 236.214 216.177C236.578 216.154 236.944 216.154 237.309 216.177C237.622 216.225 237.89 216.247 238.101 216.296L238.581 216.415C238.644 216.432 238.705 216.459 238.761 216.494Z" fill="#FAFAFA"/>
<path d="M200.098 211.799C200.059 211.799 199.856 211.359 199.429 210.62C198.313 208.744 196.684 207.225 194.735 206.242C193.987 205.863 193.494 205.696 193.507 205.656C193.631 205.667 193.752 205.695 193.868 205.74C194.188 205.835 194.501 205.953 194.805 206.092C195.813 206.552 196.74 207.171 197.551 207.927C198.362 208.682 199.045 209.565 199.57 210.54C199.737 210.833 199.884 211.135 200.01 211.447C200.055 211.56 200.085 211.678 200.098 211.799Z" fill="#FAFAFA"/>
<path d="M183.026 230.631C183.026 230.631 182.996 230.596 182.956 230.521C182.916 230.446 182.85 230.327 182.776 230.191C182.617 229.9 182.388 229.465 182.107 228.902C181.289 227.312 180.615 225.652 180.092 223.943C179.742 222.755 179.53 221.531 179.462 220.295C179.427 219.605 179.455 218.912 179.546 218.227C179.655 217.502 179.829 216.788 180.065 216.093C180.579 214.592 181.468 213.247 182.648 212.186C183.278 211.608 184.019 211.163 184.826 210.88C185.633 210.596 186.489 210.479 187.343 210.536C188.23 210.602 189.058 211.005 189.657 211.662C189.942 211.987 190.149 212.373 190.263 212.79C190.377 213.207 190.394 213.645 190.313 214.069C190.218 214.486 190 214.864 189.688 215.156C189.383 215.435 189.014 215.636 188.614 215.741C187.84 215.943 187.018 215.844 186.313 215.464C185.66 215.111 185.088 214.624 184.637 214.034C184.204 213.488 183.847 212.885 183.576 212.243C183.1 211.091 182.903 209.843 183 208.6C183.089 207.574 183.388 206.578 183.88 205.674C184.244 204.992 184.71 204.368 185.262 203.826C185.606 203.482 185.985 203.174 186.392 202.906C186.529 202.814 186.643 202.757 186.718 202.713L186.832 202.656C186.832 202.656 186.692 202.757 186.419 202.946C186.026 203.226 185.659 203.541 185.323 203.888C184.796 204.435 184.351 205.056 184.003 205.731C183.536 206.624 183.256 207.603 183.18 208.609C183.095 209.827 183.3 211.049 183.779 212.173C184.046 212.796 184.395 213.38 184.817 213.911C185.255 214.475 185.807 214.942 186.436 215.279C187.094 215.633 187.861 215.724 188.584 215.534C188.954 215.448 189.293 215.261 189.564 214.993C189.835 214.726 190.027 214.39 190.119 214.021C190.189 213.632 190.171 213.232 190.066 212.852C189.96 212.471 189.771 212.119 189.512 211.821C188.95 211.208 188.176 210.834 187.347 210.774C186.525 210.719 185.7 210.832 184.923 211.105C184.146 211.378 183.432 211.806 182.824 212.362C181.672 213.398 180.802 214.709 180.294 216.172C180.057 216.852 179.881 217.551 179.77 218.262C179.679 218.936 179.648 219.616 179.678 220.295C179.74 221.518 179.94 222.73 180.276 223.908C180.783 225.613 181.431 227.273 182.212 228.871L182.842 230.191C182.908 230.332 182.96 230.446 183.004 230.534C183.048 230.622 183.026 230.631 183.026 230.631Z" fill="#FAFAFA"/>
<path d="M177.592 191.788C177.592 191.788 177.614 191.849 177.632 191.968C177.663 192.146 177.685 192.325 177.698 192.505C177.756 193.162 177.756 193.823 177.698 194.48C177.52 196.669 176.772 198.772 175.527 200.581C174.283 202.39 172.586 203.841 170.605 204.79C170.013 205.079 169.396 205.316 168.762 205.498C168.542 205.568 168.361 205.599 168.242 205.63C168.124 205.661 168.058 205.665 168.058 205.656C168.278 205.561 168.504 205.481 168.735 205.414C169.352 205.2 169.954 204.943 170.535 204.644C172.462 203.671 174.114 202.228 175.338 200.449C176.562 198.67 177.319 196.611 177.54 194.463C177.609 193.814 177.634 193.161 177.614 192.509C177.592 192.269 177.584 192.028 177.592 191.788Z" fill="#FAFAFA"/>
<path d="M253.184 210.866C252.53 211.276 251.955 211.801 251.486 212.415C251.046 212.982 250.606 213.735 250.109 214.527C249.563 215.414 248.934 216.246 248.23 217.013C246.942 218.404 245.414 219.553 243.72 220.405C243.21 220.663 242.684 220.888 242.145 221.078C241.948 221.155 241.745 221.214 241.538 221.254C241.72 221.15 241.911 221.063 242.11 220.995C242.479 220.832 243.016 220.603 243.645 220.26C245.289 219.376 246.776 218.227 248.045 216.859C248.742 216.104 249.368 215.286 249.915 214.417C250.353 213.69 250.83 212.988 251.345 212.314C251.703 211.862 252.129 211.468 252.608 211.148C252.738 211.061 252.875 210.986 253.017 210.923C253.132 210.879 253.184 210.857 253.184 210.866Z" fill="#FAFAFA"/>
<path d="M229.407 177.448C229.342 177.476 229.274 177.493 229.204 177.501L228.619 177.606C228.109 177.69 227.37 177.8 226.459 177.923C224.628 178.17 222.094 178.46 219.282 178.667C217.966 178.787 216.644 178.834 215.322 178.808C214.232 178.781 213.152 178.596 212.115 178.258C211.415 178.031 210.754 177.697 210.157 177.268C209.994 177.153 209.838 177.028 209.69 176.894C209.594 176.797 209.545 176.748 209.55 176.74C209.554 176.731 209.778 176.916 210.205 177.18C210.813 177.57 211.472 177.875 212.163 178.086C213.191 178.399 214.257 178.565 215.331 178.579C216.653 178.593 217.975 178.54 219.291 178.42C222.094 178.214 224.628 177.954 226.459 177.747L228.628 177.501C228.886 177.465 229.146 177.447 229.407 177.448Z" fill="#263238"/>
<path d="M259.56 229.1C259.891 230.802 259.844 232.556 259.421 234.238C258.999 235.92 258.212 237.488 257.115 238.832C256.019 240.175 254.641 241.261 253.078 242.013C251.515 242.764 249.806 243.162 248.072 243.18L214.742 242.81L215.622 232.017L244.16 227.731" fill="#B78876"/>
<path d="M217.663 232.488C217.509 232.536 215.586 231.674 213.862 230.877C212.032 230.03 210.024 229.64 208.01 229.742L200.063 230.147C200.063 230.147 200.552 231.467 201.383 231.907C202.215 232.347 207.2 232.488 207.2 232.488L206.945 232.747C205.902 233.821 204.481 234.443 202.985 234.481H202.224C201.66 234.436 201.104 234.327 200.565 234.155L198.607 233.363C198.013 233.099 197.388 233.139 197.128 233.737C196.869 234.336 197.067 235.022 198.686 235.836C199.588 236.276 202.941 237.451 202.941 237.451C202.964 237.928 203.03 238.402 203.139 238.868C203.284 239.356 204.6 239.844 204.6 239.844C204.942 240.568 205.333 241.268 205.77 241.939C205.924 242.115 207.116 242.489 208.388 242.845C210.438 243.419 212.608 243.402 214.649 242.797L217.676 241.89V232.65" fill="#B78876"/>
<path d="M206.795 238.52C205.395 238.484 204.022 238.123 202.787 237.464C202.787 237.411 203.667 237.746 204.78 238.032C205.893 238.318 206.799 238.454 206.795 238.52Z" fill="#AA6550"/>
<path d="M206.514 240.372C206.141 240.45 205.754 240.421 205.396 240.289C205.023 240.22 204.676 240.049 204.393 239.796C204.753 239.868 205.106 239.969 205.449 240.099C205.81 240.163 206.166 240.254 206.514 240.372Z" fill="#AA6550"/>
<path d="M207.966 231.771C207.792 232.015 207.586 232.236 207.354 232.426C206.827 232.929 206.245 233.372 205.62 233.746C204.99 234.114 204.306 234.378 203.592 234.529C203.305 234.606 203.008 234.639 202.712 234.626C203.695 234.4 204.645 234.047 205.537 233.575C206.148 233.206 206.729 232.79 207.275 232.329C207.488 232.123 207.719 231.936 207.966 231.771Z" fill="#AA6550"/>
<path d="M218.473 231.04L217.663 243.246H249.057C251.189 243.247 253.28 242.667 255.107 241.569C257.175 240.327 258.809 238.478 259.789 236.273C260.768 234.069 261.045 231.616 260.581 229.249C260.129 226.931 259.451 224.663 258.557 222.478L242.769 225.078L243.275 227.04L218.473 231.04Z" fill="#6F5FFE"/>
<path d="M250.549 226.015C250.445 226.045 250.339 226.069 250.232 226.085L249.313 226.253L245.92 226.816L234.762 228.576L223.59 230.287L220.202 230.78L219.278 230.903C219.17 230.918 219.062 230.927 218.953 230.93C219.057 230.894 219.164 230.869 219.274 230.855L220.189 230.692L223.568 230.125L234.727 228.365L245.92 226.64L249.308 226.147L250.232 226.024C250.337 226.01 250.443 226.007 250.549 226.015Z" fill="#263238"/>
<path d="M234.48 243.254C234.423 243.254 234.669 242.374 234.7 240.936C234.707 240.545 234.69 240.154 234.651 239.765C234.614 239.322 234.549 238.881 234.458 238.445C234.24 237.441 233.897 236.469 233.437 235.55C232.966 234.636 232.39 233.779 231.721 232.998L231.281 232.483C231.131 232.316 230.969 232.171 230.819 232.021C230.524 231.718 230.212 231.476 229.939 231.242C228.817 230.362 228.021 229.922 228.047 229.883C228.242 229.961 228.429 230.056 228.606 230.169C228.825 230.283 229.036 230.411 229.239 230.552C229.473 230.719 229.763 230.882 230.04 231.119C230.357 231.356 230.66 231.612 230.947 231.885C231.101 232.034 231.272 232.175 231.426 232.325L231.906 232.844C232.595 233.63 233.186 234.498 233.666 235.427C234.132 236.364 234.475 237.358 234.687 238.384C234.777 238.832 234.836 239.286 234.863 239.743C234.891 240.139 234.891 240.536 234.863 240.931C234.854 241.26 234.825 241.588 234.775 241.912C234.75 242.157 234.708 242.4 234.647 242.638C234.609 242.848 234.553 243.054 234.48 243.254Z" fill="#FAFAFA"/>
<path d="M253.594 242.335C253.104 242.332 252.615 242.274 252.137 242.163C251.575 242.034 251.028 241.841 250.509 241.587C249.822 241.245 249.2 240.783 248.675 240.223C248.037 239.536 247.574 238.706 247.324 237.803C247.185 237.301 247.106 236.784 247.091 236.263C247.059 235.712 247.103 235.16 247.223 234.622C247.34 234.048 247.561 233.501 247.874 233.007C248.2 232.483 248.655 232.05 249.194 231.748C249.752 231.423 250.393 231.27 251.037 231.308C251.369 231.331 251.692 231.421 251.988 231.572C252.283 231.724 252.545 231.933 252.758 232.188C252.978 232.44 253.143 232.735 253.243 233.054C253.343 233.373 253.376 233.709 253.339 234.041C253.285 234.363 253.159 234.669 252.972 234.937C252.785 235.205 252.54 235.428 252.256 235.59C251.191 236.147 249.965 236.315 248.789 236.065C247.12 235.805 245.595 234.969 244.477 233.703C243.359 232.436 242.719 230.819 242.669 229.13C242.641 228.64 242.682 228.148 242.792 227.67C242.751 228.154 242.739 228.64 242.757 229.126C242.839 230.45 243.271 231.729 244.011 232.831C244.562 233.64 245.272 234.327 246.098 234.852C246.924 235.376 247.849 235.726 248.815 235.88C249.939 236.122 251.111 235.966 252.133 235.44C252.388 235.296 252.608 235.097 252.777 234.857C252.946 234.617 253.06 234.343 253.11 234.054C253.136 233.753 253.102 233.45 253.011 233.162C252.919 232.874 252.772 232.606 252.577 232.375C252.382 232.144 252.143 231.954 251.874 231.816C251.606 231.677 251.312 231.593 251.011 231.568C250.414 231.527 249.819 231.664 249.299 231.96C248.811 232.252 248.39 232.646 248.068 233.115C247.745 233.584 247.527 234.118 247.429 234.679C247.31 235.201 247.264 235.737 247.293 236.272C247.305 236.776 247.378 237.276 247.509 237.763C247.741 238.643 248.181 239.453 248.794 240.126C249.297 240.678 249.892 241.138 250.554 241.486C251.061 241.745 251.595 241.947 252.146 242.088C253.07 242.295 253.598 242.304 253.594 242.335Z" fill="#FAFAFA"/>
<path d="M129.06 109.367H50.4367C45.8412 109.367 41.434 111.192 38.1845 114.442C34.935 117.691 33.1095 122.098 33.1095 126.694V154.713H16.1475L33.1095 171.675V190.723C33.1095 195.318 34.935 199.725 38.1845 202.975C41.434 206.224 45.8412 208.05 50.4367 208.05H129.06C133.656 208.05 138.063 206.224 141.312 202.975C144.562 199.725 146.387 195.318 146.387 190.723V126.694C146.387 122.098 144.562 117.691 141.312 114.442C138.063 111.192 133.656 109.367 129.06 109.367Z" fill="#6F5FFE"/>
<path d="M96.9401 112.328C96.4429 113.617 97.2965 115.021 98.2601 116.015C99.2237 117.009 100.376 117.951 100.68 119.297C100.931 120.428 100.513 121.603 100.614 122.756C100.715 123.909 101.353 124.995 101.714 126.122C102.37 128.163 102.106 130.394 101.52 132.458C101.098 134.173 100.292 135.769 99.1621 137.126C98.593 137.798 97.8876 138.342 97.0927 138.721C96.2978 139.101 95.4314 139.307 94.5509 139.326C94.3019 139.342 94.0523 139.306 93.8177 139.221C93.5831 139.137 93.3684 139.005 93.1869 138.833C92.9401 138.477 92.8038 138.057 92.7953 137.623C91.7876 128.764 91.7876 119.819 92.7953 110.959" fill="#263238"/>
<path d="M96.0119 140.879C99.8399 140.712 103.377 144.377 103.074 148.197C106.95 149.143 109.674 153.406 108.93 157.322C108.679 158.616 108.103 159.848 108.024 161.159C107.936 162.593 108.464 163.988 108.723 165.396C109.222 167.962 108.955 170.618 107.958 173.035C107.355 174.491 106.229 175.996 104.653 176.04C104.12 176.017 103.6 175.864 103.139 175.593C102.679 175.322 102.292 174.942 102.013 174.487C101.465 173.564 101.103 172.543 100.949 171.481C100.267 168.041 100.069 164.507 99.1183 161.133C98.1679 157.758 96.3199 154.431 93.2707 152.72C91.5855 151.769 89.5615 151.321 88.2195 149.926C87.5444 149.165 87.0943 148.231 86.9195 147.228C86.7447 146.226 86.852 145.195 87.2295 144.25C87.625 143.314 88.2134 142.471 88.9564 141.777C89.6994 141.084 90.5802 140.554 91.5415 140.224" fill="#263238"/>
<path d="M69.5148 115.483C69.4708 113.846 70.98 112.583 72.5024 111.963C74.0248 111.342 75.7188 111.136 77.074 110.203C78.2796 109.393 79.0848 108.13 80.1012 107.123C81.3563 105.85 82.9275 104.934 84.6535 104.469C86.3795 104.004 88.1981 104.007 89.9226 104.478C91.6471 104.948 93.2154 105.869 94.4664 107.146C95.7174 108.422 96.6061 110.009 97.0412 111.743C97.6264 114.07 97.226 116.825 95.3912 118.374C93.2616 120.169 90.1112 119.768 87.37 119.21C84.6288 118.651 81.5488 118.101 79.2696 119.707C77.8968 120.67 77.1048 122.246 76.2644 123.702C75.424 125.158 74.3724 126.641 72.784 127.191C71.1956 127.741 69.0352 126.791 68.9736 125.114" fill="#263238"/>
<path d="M75.9656 115.817C75.2843 115.891 74.6555 116.217 74.2033 116.732C73.7512 117.247 73.5086 117.913 73.5236 118.598L75.156 155.558C75.2264 159.923 81.6064 162.374 86.2792 162.264C91.0004 162.154 91.15 159.839 91.2116 155.686C91.3084 148.751 91.2996 146.146 91.304 146.186C91.3084 146.226 97.266 145.183 98.4848 137.386C99.0876 133.518 98.8808 127.174 98.542 121.986C98.2384 117.318 95.132 111.598 90.4812 112.099L75.9656 115.817Z" fill="#FFBE9D"/>
<path d="M97.1998 126.887C97.2023 127.147 97.1036 127.398 96.9245 127.586C96.7454 127.774 96.5001 127.885 96.2406 127.895C96.1151 127.906 95.9886 127.892 95.8686 127.853C95.7486 127.814 95.6374 127.752 95.5416 127.671C95.4458 127.589 95.3672 127.489 95.3105 127.376C95.2537 127.263 95.2199 127.141 95.211 127.015C95.2074 126.755 95.3058 126.504 95.4851 126.316C95.6644 126.127 95.9104 126.017 96.1702 126.007C96.2958 125.997 96.4223 126.011 96.5423 126.049C96.6623 126.088 96.7735 126.15 96.8693 126.232C96.9651 126.314 97.0437 126.414 97.1004 126.526C97.1572 126.639 97.191 126.762 97.1998 126.887Z" fill="#263238"/>
<path d="M97.1733 125.303C97.0501 125.435 96.2933 124.863 95.2197 124.863C94.1461 124.863 93.3585 125.409 93.2397 125.277C93.1825 125.22 93.3101 124.982 93.6533 124.731C94.1165 124.409 94.6685 124.238 95.2329 124.243C95.7917 124.24 96.337 124.414 96.7905 124.74C97.1205 125 97.2349 125.246 97.1733 125.303Z" fill="#263238"/>
<path d="M86.882 126.887C86.8845 127.147 86.7857 127.398 86.6066 127.586C86.4276 127.774 86.1823 127.885 85.9228 127.895C85.7972 127.906 85.6707 127.892 85.5507 127.853C85.4307 127.814 85.3195 127.752 85.2237 127.671C85.1279 127.589 85.0493 127.489 84.9926 127.376C84.9358 127.263 84.902 127.141 84.8932 127.015C84.8895 126.755 84.9879 126.504 85.1672 126.316C85.3465 126.127 85.5925 126.017 85.8524 126.007C85.9779 125.997 86.1044 126.011 86.2244 126.049C86.3444 126.088 86.4556 126.15 86.5514 126.232C86.6472 126.314 86.7258 126.414 86.7826 126.526C86.8393 126.639 86.8731 126.762 86.882 126.887Z" fill="#263238"/>
<path d="M86.6399 125.528C86.5167 125.66 85.7599 125.088 84.6863 125.088C83.6127 125.088 82.8251 125.634 82.7107 125.502C82.6535 125.444 82.7767 125.207 83.1199 124.956C83.583 124.633 84.1347 124.461 84.6995 124.463C85.2587 124.461 85.8041 124.637 86.2571 124.965C86.5651 125.233 86.6795 125.471 86.6399 125.528Z" fill="#263238"/>
<path d="M90.5338 133.483C90.5338 133.422 91.1938 133.307 92.2938 133.166C92.5666 133.136 92.8262 133.078 92.8746 132.894C92.8948 132.61 92.8305 132.327 92.6898 132.08L91.8714 129.994C90.7406 127.024 89.9178 124.582 90.041 124.538C90.1642 124.494 91.1762 126.866 92.307 129.818L93.0902 131.917C93.2608 132.247 93.3121 132.626 93.2354 132.99C93.1968 133.086 93.1373 133.172 93.0612 133.242C92.985 133.312 92.8943 133.365 92.7954 133.395C92.6521 133.435 92.5041 133.455 92.3554 133.457C91.2114 133.536 90.5382 133.545 90.5338 133.483Z" fill="#263238"/>
<path d="M91.304 146.19C87.6396 146.253 84.0297 145.298 80.876 143.431C80.876 143.431 83.4148 148.773 91.2028 148.025L91.304 146.19Z" fill="#EB996E"/>
<path d="M90.0848 136.07C89.8777 135.81 89.6068 135.608 89.2985 135.483C88.9901 135.358 88.6548 135.315 88.3248 135.358C88.0879 135.379 87.8578 135.448 87.6483 135.561C87.4388 135.673 87.2544 135.827 87.106 136.013C86.963 136.193 86.8786 136.412 86.8644 136.641C86.8503 136.87 86.907 137.098 87.0268 137.294C87.1991 137.487 87.4255 137.624 87.6766 137.687C87.9277 137.749 88.1919 137.735 88.4348 137.646C88.9414 137.466 89.4067 137.186 89.8032 136.823C89.9251 136.738 90.0296 136.63 90.1112 136.506C90.1513 136.447 90.1728 136.377 90.1728 136.306C90.1728 136.234 90.1513 136.165 90.1112 136.106" fill="#EB996E"/>
<path d="M87.3748 134.24C87.5508 134.24 87.5553 135.397 88.5541 136.22C89.5529 137.043 90.7937 136.915 90.8025 137.1C90.8025 137.175 90.5252 137.329 90.0016 137.342C89.3188 137.354 88.6534 137.125 88.1228 136.695C87.6151 136.28 87.2886 135.684 87.2121 135.032C87.1637 134.517 87.2956 134.24 87.3748 134.24Z" fill="#263238"/>
<path d="M87.08 123.645C86.9744 123.94 85.9008 123.803 84.6424 123.957C83.384 124.111 82.3632 124.459 82.196 124.195C82.1212 124.072 82.2972 123.794 82.7064 123.513C83.2527 123.162 83.8719 122.94 84.5168 122.863C85.1618 122.787 85.8156 122.859 86.4288 123.073C86.9084 123.28 87.1416 123.508 87.08 123.645Z" fill="#263238"/>
<path d="M96.7596 122.197C96.5704 122.439 95.8312 122.197 94.938 122.197C94.0448 122.197 93.2968 122.364 93.1252 122.109C93.046 121.986 93.1648 121.744 93.4948 121.511C93.9364 121.235 94.4498 121.095 94.9705 121.11C95.4911 121.125 95.9957 121.293 96.4208 121.594C96.7596 121.828 96.852 122.078 96.7596 122.197Z" fill="#263238"/>
<path d="M70.5314 141.416C71.6043 141.633 72.7133 141.592 73.7671 141.296C74.8208 141 75.789 140.457 76.5919 139.713C77.3947 138.97 78.0092 138.045 78.3845 137.017C78.7599 135.989 78.8854 134.886 78.7506 133.8C78.5086 131.886 77.479 129.946 78.1434 128.133C79.0234 125.744 82.3718 125.009 83.2606 122.62C83.7754 121.234 83.3134 119.61 83.8986 118.25C84.4486 116.974 85.795 116.24 87.1062 115.764C88.4174 115.289 89.8166 114.964 90.9166 114.11C92.0166 113.256 92.6986 111.646 91.9902 110.445C86.1791 111.142 80.4717 112.529 74.9886 114.576C73.717 115.052 72.3838 115.624 71.6314 116.75C70.8394 117.947 70.879 119.487 70.945 120.921C71.2706 127.908 70.2058 134.451 70.5314 141.438" fill="#263238"/>
<path d="M68.679 139.225C68.6347 139.218 68.5917 139.205 68.5514 139.185C68.4258 139.142 68.3061 139.083 68.195 139.009C67.7664 138.732 67.4295 138.334 67.227 137.865C66.894 137.125 66.8046 136.297 66.9718 135.503C67.2367 134.47 67.7182 133.506 68.3842 132.673C69.0662 131.723 69.933 130.759 70.5226 129.532C70.837 128.908 71.0126 128.224 71.0374 127.525C71.012 126.784 70.8633 126.053 70.5974 125.361C70.3008 124.612 70.1442 123.816 70.1354 123.011C70.178 122.15 70.4308 121.312 70.8719 120.571C71.3129 119.83 71.9287 119.209 72.6654 118.761C73.4555 118.33 74.3319 118.08 75.2306 118.03C76.1003 117.988 76.9616 117.84 77.7958 117.59C78.579 117.294 79.2227 116.714 79.5998 115.967C79.9592 115.231 80.2451 114.462 80.4534 113.67C80.676 112.91 80.9707 112.174 81.3334 111.47C81.9949 110.136 83.0024 109.004 84.2506 108.192C85.3527 107.499 86.6422 107.164 87.9422 107.233C89.0189 107.288 90.0446 107.709 90.8506 108.425C91.4514 108.965 91.8991 109.654 92.1486 110.423C92.3107 110.904 92.3721 111.413 92.329 111.919C92.32 112.095 92.2905 112.269 92.241 112.438C92.241 112.438 92.2718 112.257 92.285 111.914C92.3061 111.416 92.2314 110.919 92.065 110.449C91.7621 109.584 91.2061 108.831 90.4693 108.286C89.7325 107.742 88.8489 107.431 87.9334 107.395C86.6693 107.34 85.4188 107.675 84.3518 108.355C83.1372 109.153 82.1587 110.262 81.5182 111.567C81.1628 112.271 80.8769 113.007 80.6646 113.767C80.4497 114.573 80.1549 115.355 79.7846 116.103C79.5806 116.49 79.3145 116.841 78.997 117.141C78.6687 117.445 78.2826 117.68 77.8618 117.832C77.0045 118.097 76.1177 118.253 75.2218 118.299C74.3556 118.344 73.5107 118.583 72.749 118.998C72.0447 119.426 71.4556 120.019 71.0331 120.726C70.6105 121.433 70.3673 122.232 70.3246 123.055C70.3324 123.835 70.4815 124.607 70.7646 125.334C71.0446 126.048 71.2009 126.804 71.2266 127.569C71.1969 128.296 71.0108 129.007 70.681 129.655C70.065 130.913 69.1894 131.855 68.503 132.81C67.8405 133.619 67.3576 134.559 67.0862 135.569C66.9109 136.337 66.9833 137.141 67.293 137.865C67.4833 138.327 67.8007 138.725 68.2082 139.014C68.503 139.163 68.6834 139.207 68.679 139.225Z" fill="#455A64"/>
<path d="M91.2905 105.297C91.3973 105.305 91.501 105.336 91.5941 105.389C91.8582 105.501 92.1055 105.649 92.3289 105.829C93.0955 106.424 93.6033 107.291 93.7467 108.251C93.8901 109.211 93.6581 110.188 93.0989 110.981C92.9364 111.218 92.7442 111.432 92.5269 111.619C92.3685 111.751 92.2717 111.809 92.2629 111.795C92.5111 111.514 92.7446 111.221 92.9625 110.915C93.4584 110.142 93.6572 109.216 93.5221 108.307C93.387 107.398 92.9271 106.57 92.2277 105.974C91.9286 105.73 91.6157 105.504 91.2905 105.297Z" fill="#455A64"/>
<path d="M108.53 158.7C108.622 158.429 108.697 158.153 108.754 157.872C108.857 157.104 108.724 156.323 108.371 155.633C107.828 154.619 106.965 153.815 105.916 153.345C105.302 153.054 104.661 152.826 104.002 152.663C103.316 152.487 102.59 152.342 101.864 152.104C101.133 151.905 100.46 151.537 99.8969 151.03C99.393 150.526 99.0671 149.871 98.9685 149.165C98.8497 148.509 98.8101 147.889 98.6649 147.334C98.5348 146.821 98.2929 146.344 97.9565 145.935C97.4644 145.337 96.8107 144.892 96.0733 144.655C95.5497 144.496 95.2373 144.496 95.2373 144.47C95.3119 144.463 95.3871 144.463 95.4617 144.47C95.6769 144.485 95.8904 144.519 96.0997 144.571C96.8714 144.784 97.5613 145.224 98.0797 145.834C98.4421 146.256 98.7052 146.753 98.8497 147.29C99.0081 147.867 99.0565 148.496 99.1797 149.13C99.2702 149.797 99.5797 150.416 100.06 150.89C100.599 151.369 101.242 151.716 101.939 151.906C102.647 152.135 103.373 152.284 104.064 152.465C104.732 152.628 105.38 152.861 106 153.16C107.083 153.656 107.967 154.504 108.508 155.567C108.86 156.289 108.974 157.104 108.833 157.894C108.791 158.105 108.725 158.31 108.635 158.506C108.607 158.574 108.572 158.639 108.53 158.7Z" fill="#455A64"/>
<path d="M74.6849 144.919C70.7249 143.863 67.3369 140.004 65.9553 136.163C64.5737 132.322 64.5737 128.128 64.9301 124.063C65.1853 121.119 65.7045 118.004 67.6581 115.786C70.6061 112.442 73.8181 110.735 78.2533 110.876" fill="#263238"/>
<path d="M97.697 153.499L94.023 152.575C94.4235 152.299 94.7155 151.893 94.8488 151.426C94.9821 150.958 94.9484 150.459 94.7534 150.014C94.5208 149.443 94.136 148.947 93.641 148.58C93.146 148.213 92.5598 147.989 91.9462 147.933L75.1998 146.041C74.907 146.002 74.6096 146.062 74.3551 146.212C74.1007 146.362 73.9038 146.593 73.7962 146.868C73.054 148.757 73.0291 150.312 73.7214 151.532H73.6422L70.4126 152.174L64.939 200.46L100.79 198.783L97.697 153.499Z" fill="#F5F5F5"/>
<path d="M92.4258 152.76C92.2058 152.824 91.9805 152.868 91.7526 152.892C91.3126 152.962 90.6834 153.037 89.9002 153.116C85.8014 153.497 81.6692 153.291 77.6286 152.504C76.8542 152.35 76.2338 152.21 75.807 152.095C75.5828 152.052 75.3632 151.987 75.1514 151.902C75.3786 151.918 75.6039 151.955 75.8246 152.012C76.2646 152.095 76.885 152.214 77.6594 152.346C81.6959 153.041 85.8015 153.244 89.887 152.953C90.6702 152.9 91.3038 152.843 91.7438 152.799C91.9697 152.768 92.1977 152.755 92.4258 152.76Z" fill="#263238"/>
<path d="M76.2207 160.433C76.5734 159.701 76.9932 159.002 77.4747 158.347C77.895 157.651 78.3796 156.995 78.9223 156.389C78.569 157.122 78.1477 157.821 77.6639 158.475C77.2459 159.172 76.7627 159.828 76.2207 160.433Z" fill="#E0E0E0"/>
<path d="M87.7752 161.251C86.6569 160.103 85.6506 158.851 84.77 157.511C85.3562 158.06 85.8895 158.663 86.3628 159.311C86.8952 159.911 87.3682 160.561 87.7752 161.251Z" fill="#E0E0E0"/>
<path d="M82.4068 167.39C82.1539 166.607 81.9727 165.803 81.8656 164.987C81.6825 164.185 81.5779 163.367 81.5532 162.545C81.8068 163.328 81.988 164.132 82.0944 164.948C82.2726 165.75 82.3771 166.568 82.4068 167.39Z" fill="#E0E0E0"/>
<path d="M91.2289 167.768C90.6077 168.54 89.9281 169.264 89.1961 169.933C88.5163 170.656 87.7807 171.326 86.9961 171.935C87.6172 171.162 88.2968 170.438 89.0289 169.77C89.7116 169.049 90.4469 168.38 91.2289 167.768Z" fill="#E0E0E0"/>
<path d="M79.3973 175.996C77.776 175.027 76.4554 173.627 75.5825 171.952C75.6441 171.913 76.3173 172.969 77.3777 174.082C78.4381 175.195 79.4413 175.939 79.3973 175.996Z" fill="#E0E0E0"/>
<path d="M83.1991 182.35C83.1991 182.416 82.1959 182.737 81.0343 183.357C79.8727 183.978 79.0235 184.629 78.9795 184.572C79.5333 183.979 80.1948 183.496 80.9287 183.15C81.6266 182.739 82.3976 182.467 83.1991 182.35Z" fill="#E0E0E0"/>
<path d="M89.381 182.759C89.1188 182.537 88.8839 182.284 88.6814 182.006C88.2766 181.522 87.7354 180.832 87.1722 180.044C86.609 179.256 86.1338 178.522 85.8038 177.976C85.6074 177.694 85.445 177.39 85.3198 177.07C85.5539 177.321 85.7617 177.595 85.9402 177.888L87.3614 179.912L88.809 181.91C89.0292 182.172 89.2209 182.456 89.381 182.759Z" fill="#E0E0E0"/>
<path d="M90.0013 188.179C89.146 188.479 88.2609 188.686 87.3613 188.795C86.4714 188.981 85.5643 189.071 84.6553 189.064C85.5342 188.843 86.4262 188.678 87.3261 188.571C88.2093 188.388 89.1026 188.257 90.0013 188.179Z" fill="#E0E0E0"/>
<path d="M79.9916 152.078C79.9608 152.078 80.172 151.814 80.3524 151.347C80.5758 150.737 80.6424 150.08 80.546 149.438C80.4368 148.79 80.2461 148.159 79.9784 147.559C79.8487 147.313 79.7483 147.053 79.6792 146.784C79.863 146.995 80.0115 147.235 80.1192 147.493C80.4393 148.089 80.6578 148.734 80.766 149.402C80.8724 150.085 80.7792 150.783 80.4976 151.413C80.3993 151.68 80.223 151.912 79.9916 152.078Z" fill="#E0E0E0"/>
<path d="M86.688 148.461C87.0018 148.893 87.226 149.383 87.3477 149.903C87.4693 150.423 87.4859 150.962 87.3964 151.488C87.3304 151.488 87.3216 150.788 87.1236 149.957C86.9256 149.125 86.6396 148.496 86.688 148.461Z" fill="#E0E0E0"/>
<path d="M116.894 182.864L133.57 153.574L135.581 148.492C135.581 148.492 140.782 137.316 141.143 136.172C141.561 134.852 142.295 134.746 142.771 134.931C143.51 135.226 143.747 136.326 143.422 137.465C143.307 137.857 141.288 143.999 141.288 143.999C141.831 143.531 142.407 143.103 143.013 142.719C144.293 141.839 146.638 141.883 148.812 142.657C150.985 143.432 151.522 143.841 151.263 144.694C151.205 144.855 151.113 145 150.992 145.119C150.87 145.239 150.724 145.33 150.563 145.385C150.051 145.599 149.478 145.612 148.957 145.42C145.463 144.232 143.915 145.808 143.915 145.808L143.655 146.472C143.655 146.472 146.295 145.632 147.773 146.82C147.994 146.994 148.179 147.209 148.319 147.453C148.798 147.609 149.227 147.888 149.565 148.261C149.902 148.634 150.137 149.089 150.245 149.581C150.353 150.072 150.331 150.584 150.18 151.064C150.03 151.544 149.757 151.977 149.388 152.32C149.228 152.502 149.016 152.632 148.78 152.692C148.545 152.752 148.296 152.738 148.068 152.654C147.855 152.509 147.684 152.31 147.571 152.078C147.499 151.961 147.418 151.851 147.329 151.748L146.335 153.508C146.335 153.508 143.884 157.336 143.004 159.126L131.52 189.72C131.142 190.727 130.568 191.648 129.83 192.431C129.092 193.214 128.206 193.842 127.223 194.278C126.24 194.714 125.18 194.95 124.104 194.972C123.029 194.994 121.96 194.801 120.96 194.406C119.881 193.98 118.906 193.327 118.101 192.491C117.296 191.656 116.68 190.657 116.294 189.562C115.909 188.468 115.763 187.304 115.866 186.148C115.97 184.993 116.32 183.873 116.894 182.864Z" fill="#FFBE9D"/>
<path d="M134.719 153.472C135.308 153.859 136.122 153.595 136.65 153.138C137.178 152.68 137.53 152.051 138.041 151.554C139.524 150.071 142.001 149.93 143.422 148.377C143.62 148.161 143.796 147.831 143.624 147.594C143.453 147.356 143.136 147.4 142.872 147.453L136.048 148.804" fill="#FFBE9D"/>
<path d="M136.048 148.804C136.278 148.7 136.52 148.626 136.769 148.584C137.24 148.465 137.926 148.311 138.771 148.144L141.746 147.515L142.626 147.334C142.965 147.21 143.338 147.223 143.668 147.369C143.763 147.439 143.834 147.536 143.873 147.646C143.912 147.757 143.918 147.876 143.888 147.99C143.843 148.176 143.752 148.348 143.624 148.491C143.394 148.746 143.136 148.973 142.854 149.169C141.719 149.957 140.474 150.278 139.48 150.801C139.005 151.026 138.569 151.323 138.186 151.681C137.834 152.02 137.557 152.407 137.266 152.737C137.057 153.029 136.787 153.27 136.475 153.446C136.162 153.622 135.815 153.727 135.458 153.754C134.934 153.754 134.719 153.494 134.736 153.49C134.966 153.568 135.207 153.606 135.449 153.6C135.774 153.546 136.084 153.426 136.359 153.246C136.635 153.067 136.87 152.832 137.051 152.557C137.333 152.172 137.634 151.802 137.953 151.448C138.352 151.053 138.81 150.723 139.312 150.471C140.338 149.917 141.578 149.591 142.626 148.843C142.878 148.664 143.111 148.459 143.321 148.232C143.514 148.016 143.58 147.757 143.444 147.682C143.308 147.607 143.004 147.642 142.7 147.704L141.82 147.867L138.828 148.417C137.975 148.566 137.284 148.681 136.804 148.751C136.556 148.808 136.301 148.826 136.048 148.804Z" fill="#EB996E"/>
<path d="M143.563 146.481C143.738 146.072 144.006 145.711 144.346 145.425C144.727 145.139 145.19 144.985 145.666 144.985C146.264 144.988 146.858 145.086 147.426 145.275C148.006 145.471 148.605 145.607 149.212 145.68C149.722 145.739 150.239 145.66 150.708 145.451C150.87 145.377 151.012 145.265 151.122 145.126C151.233 144.987 151.31 144.824 151.346 144.65C151.38 144.528 151.38 144.399 151.346 144.276C151.32 144.276 151.32 144.408 151.254 144.628C151.206 144.777 151.125 144.913 151.019 145.027C150.913 145.141 150.783 145.23 150.638 145.288C150.19 145.455 149.708 145.509 149.234 145.447C148.644 145.354 148.064 145.207 147.501 145.007C146.913 144.813 146.298 144.718 145.679 144.725C145.16 144.737 144.659 144.923 144.258 145.253C143.992 145.475 143.787 145.761 143.664 146.085C143.554 146.344 143.545 146.476 143.563 146.481Z" fill="#EB996E"/>
<path d="M143.541 137.025C143.368 137.419 143.23 137.827 143.127 138.244C142.868 139.089 142.56 140.092 142.216 141.201C141.873 142.31 141.534 143.304 141.262 144.144C141.102 144.543 140.98 144.955 140.896 145.376C141.115 145.006 141.295 144.613 141.433 144.206C141.724 143.467 142.093 142.446 142.463 141.28C142.832 140.114 143.118 139.08 143.303 138.292C143.427 137.879 143.506 137.455 143.541 137.025Z" fill="#EB996E"/>
<path d="M144.504 148.32C144.639 148.339 144.775 148.339 144.909 148.32C145.078 148.291 145.251 148.299 145.417 148.343C145.582 148.387 145.736 148.466 145.868 148.575C145.945 148.656 145.999 148.755 146.026 148.863C146.053 148.971 146.052 149.084 146.022 149.191C145.951 149.461 145.846 149.722 145.71 149.965C145.534 150.272 145.476 150.632 145.547 150.977C145.607 151.161 145.709 151.327 145.845 151.464C145.981 151.601 146.147 151.704 146.33 151.765C146.511 151.822 146.701 151.842 146.89 151.823C147.078 151.804 147.26 151.747 147.426 151.655C147.734 151.498 147.987 151.251 148.152 150.947C148.39 150.445 148.553 149.912 148.636 149.363C148.7 148.994 148.7 148.618 148.636 148.249C148.622 148.111 148.569 147.98 148.482 147.871C148.46 147.871 148.517 148.012 148.539 148.263C148.558 148.622 148.527 148.981 148.447 149.332C148.342 149.852 148.171 150.356 147.936 150.832C147.793 151.1 147.565 151.313 147.288 151.438C147.011 151.563 146.701 151.593 146.405 151.523C146.26 151.476 146.128 151.396 146.02 151.289C145.911 151.182 145.829 151.051 145.78 150.907C145.723 150.62 145.771 150.321 145.917 150.067C146.054 149.8 146.157 149.518 146.225 149.226C146.254 149.087 146.248 148.942 146.205 148.805C146.163 148.669 146.086 148.546 145.983 148.447C145.83 148.326 145.651 148.243 145.46 148.203C145.269 148.163 145.071 148.169 144.883 148.219C144.752 148.232 144.624 148.266 144.504 148.32Z" fill="#EB996E"/>
<path d="M147.382 151.4C147.382 151.4 147.298 151.514 147.307 151.761C147.32 151.934 147.372 152.101 147.461 152.25C147.55 152.399 147.672 152.525 147.818 152.619C148.043 152.748 148.299 152.817 148.559 152.817C148.819 152.817 149.075 152.748 149.3 152.619C149.843 152.306 150.244 151.795 150.418 151.193C150.61 150.604 150.61 149.969 150.418 149.38C150.262 148.904 149.981 148.479 149.604 148.148C149.356 147.926 149.068 147.753 148.755 147.638C148.644 147.584 148.522 147.557 148.398 147.559C148.791 147.749 149.155 147.991 149.481 148.28C149.85 148.64 150.111 149.097 150.234 149.598C150.357 150.098 150.337 150.624 150.176 151.114C150.019 151.654 149.666 152.117 149.186 152.412C148.994 152.524 148.777 152.587 148.555 152.593C148.333 152.599 148.112 152.549 147.914 152.447C147.783 152.371 147.67 152.267 147.582 152.143C147.494 152.02 147.433 151.879 147.404 151.73C147.36 151.536 147.404 151.4 147.382 151.4Z" fill="#EB996E"/>
<path d="M141.829 154.163C141.655 154.045 141.45 153.983 141.239 153.983C140.703 153.93 140.164 154.059 139.708 154.348L139.897 154.475C139.957 154.185 139.998 153.891 140.021 153.595C140.175 151.897 139.633 150.586 139.581 150.621C139.75 151.595 139.813 152.585 139.77 153.573C139.748 153.855 139.712 154.136 139.66 154.414L139.607 154.7L139.849 154.537C140.261 154.268 140.743 154.124 141.235 154.123C141.6 154.132 141.82 154.194 141.829 154.163Z" fill="#EB996E"/>
<path d="M145.301 143.726C145.231 143.726 145.327 144.254 145.794 144.659C146.26 145.064 146.784 145.099 146.784 145.024C146.784 144.95 146.366 144.822 145.965 144.466C145.565 144.109 145.371 143.7 145.301 143.726Z" fill="#EB996E"/>
<path d="M93.2397 207.17L110.686 207.342L107.76 194.683L108.741 197.072C109.645 199.278 111.185 201.165 113.165 202.493C115.145 203.821 117.476 204.53 119.86 204.53C125.377 204.53 129.192 200.425 131.524 195.426C136.98 183.74 142.238 164.921 142.238 164.921L131.603 155.576C123.903 170.14 116.67 182.785 116.67 182.785C116.67 182.785 114.58 176.436 112.965 170.769C111.35 165.102 111.363 162.127 108.886 159.302C105.071 154.955 99.6461 153.877 94.5949 152.575L94.4057 176.088L93.2397 207.17Z" fill="#6F5FFE"/>
<path d="M73.2769 189.68L105.045 195.84L106.589 208.046H57.8813C56.548 208.062 55.2259 207.8 53.9995 207.277C52.773 206.754 51.6691 205.98 50.7582 205.007C49.8474 204.033 49.1495 202.88 48.7093 201.621C48.269 200.363 48.096 199.026 48.2013 197.697C48.9009 188.8 49.6621 177.844 50.2429 173.211C50.6829 169.598 52.1349 165.863 53.8377 162.651C56.2973 158.022 64.4945 152.091 71.6797 151.783L73.0393 182.042" fill="#6F5FFE"/>
<g opacity="0.4">
<path d="M93.2397 207.17L110.686 207.342L107.76 194.683L108.741 197.072C109.645 199.278 111.185 201.165 113.165 202.493C115.145 203.821 117.476 204.53 119.86 204.53C125.377 204.53 129.192 200.425 131.524 195.426C136.98 183.74 142.238 164.921 142.238 164.921L131.603 155.576C123.903 170.14 116.67 182.785 116.67 182.785C116.67 182.785 114.58 176.436 112.965 170.769C111.35 165.102 111.363 162.127 108.886 159.302C105.071 154.955 99.6461 153.877 94.5949 152.575L94.4057 176.088L93.2397 207.17Z" fill="black"/>
<path d="M73.2769 189.68L101.93 194.933C102.514 195.042 103.052 195.32 103.478 195.735C103.903 196.149 104.196 196.68 104.319 197.261L106.589 208.072H57.8813C56.548 208.088 55.2259 207.827 53.9995 207.303C52.773 206.78 51.6691 206.007 50.7582 205.033C49.8474 204.059 49.1495 202.906 48.7093 201.648C48.269 200.389 48.096 199.052 48.2013 197.723C48.9009 188.826 49.6621 177.87 50.2429 173.237C50.6829 169.625 52.1349 165.889 53.8377 162.677C56.2973 158.048 64.4945 152.117 71.6797 151.809L73.0393 182.068" fill="black"/>
</g>
<path d="M67.227 188.773C67.2156 188.677 67.2156 188.579 67.227 188.483C67.227 188.267 67.227 187.99 67.227 187.651C67.227 186.899 67.227 185.861 67.227 184.571C67.227 181.989 67.1786 178.411 66.9806 174.482C66.8794 172.511 66.7518 170.637 66.6154 168.938C66.5515 167.431 66.3378 165.933 65.9774 164.468C65.7257 163.49 65.2463 162.585 64.5782 161.828C64.3194 161.564 64.0462 161.314 63.7598 161.08C64.0957 161.253 64.4005 161.48 64.6618 161.753C65.3741 162.505 65.8869 163.423 66.1534 164.424C66.5376 165.901 66.7677 167.414 66.8398 168.938C66.9894 170.641 67.1214 172.515 67.2226 174.487C67.425 178.447 67.447 182.006 67.403 184.607C67.3766 185.9 67.3414 186.947 67.3106 187.687L67.2622 188.518C67.2605 188.604 67.2487 188.69 67.227 188.773Z" fill="#263238"/>
<path d="M104.429 196.72C104.094 196.35 103.704 196.033 103.272 195.783C102.758 195.503 102.213 195.286 101.648 195.136C100.993 194.947 100.223 194.801 99.3735 194.63C95.9767 193.935 91.2907 192.971 86.0987 191.99C80.9067 191.009 76.1811 190.23 72.7623 189.684L68.7098 189.037L67.6098 188.853C67.4803 188.837 67.3523 188.81 67.2271 188.773C67.3569 188.774 67.4864 188.786 67.6142 188.809L68.723 188.949C69.6822 189.077 71.0726 189.271 72.7842 189.526C76.2118 190.036 80.9418 190.793 86.1383 191.765C91.3347 192.738 96.0207 193.723 99.4043 194.454C100.253 194.639 101.023 194.797 101.683 194.999C102.255 195.161 102.803 195.395 103.316 195.695C103.645 195.881 103.942 196.118 104.196 196.399C104.264 196.468 104.325 196.543 104.381 196.623C104.411 196.676 104.433 196.72 104.429 196.72Z" fill="#263238"/>
<path d="M67.3239 188.773C67.3239 188.813 66.7387 188.949 65.8323 189.319C65.3032 189.538 64.7887 189.791 64.2923 190.076C63.692 190.434 63.1199 190.837 62.5807 191.281C62.0564 191.736 61.568 192.23 61.1199 192.76C60.7512 193.197 60.4131 193.658 60.1079 194.141C59.5887 194.973 59.3511 195.536 59.3115 195.519C59.3389 195.377 59.3847 195.239 59.4479 195.109C59.5978 194.748 59.7713 194.397 59.9671 194.058C60.2609 193.556 60.5918 193.076 60.9571 192.623C61.8604 191.515 62.9651 190.588 64.2131 189.891C64.7186 189.606 65.247 189.363 65.7927 189.165C66.1598 189.028 66.5362 188.918 66.9191 188.835C67.0505 188.796 67.1868 188.775 67.3239 188.773Z" fill="#263238"/>
<path d="M108.345 196.377C108.315 196.277 108.293 196.176 108.279 196.073C108.244 195.853 108.195 195.563 108.138 195.193C108.015 194.432 107.852 193.332 107.667 191.968C107.298 189.244 106.849 185.469 106.471 181.289C106.092 177.109 105.868 173.316 105.745 170.566C105.683 169.194 105.648 168.08 105.63 167.31C105.63 166.944 105.63 166.65 105.63 166.43C105.621 166.328 105.621 166.225 105.63 166.122C105.654 166.223 105.666 166.327 105.665 166.43L105.723 167.31C105.771 168.102 105.833 169.207 105.912 170.558C106.075 173.303 106.33 177.092 106.704 181.267C107.078 185.443 107.505 189.218 107.835 191.946C107.997 193.292 108.134 194.388 108.231 195.18C108.27 195.545 108.305 195.836 108.332 196.06C108.35 196.165 108.354 196.271 108.345 196.377Z" fill="#263238"/>
<path d="M118.878 191.647C118.878 191.647 118.777 191.55 118.623 191.356C118.41 191.076 118.215 190.782 118.038 190.476C116.857 188.461 116.313 186.136 116.476 183.806C116.498 183.455 116.545 183.107 116.617 182.763C116.632 182.635 116.665 182.509 116.714 182.389C116.753 182.389 116.67 182.935 116.639 183.815C116.565 186.112 117.096 188.388 118.179 190.415C118.592 191.176 118.914 191.62 118.878 191.647Z" fill="#263238"/>
<path d="M67.0995 172.423C67.0995 172.423 67.0423 172.445 66.9367 172.458C66.7779 172.484 66.6178 172.5 66.4571 172.507C65.8669 172.532 65.2759 172.484 64.6971 172.366C63.8375 172.193 62.9983 171.931 62.1935 171.583C61.2827 171.204 60.3147 170.703 59.3027 170.214C58.3553 169.739 57.3745 169.333 56.3679 169C55.5511 168.726 54.7021 168.558 53.8423 168.503C53.0458 168.477 52.2498 168.567 51.4795 168.771C51.5268 168.74 51.5788 168.716 51.6335 168.701C51.7761 168.638 51.9231 168.587 52.0735 168.547C52.647 168.393 53.2401 168.325 53.8335 168.344C54.712 168.372 55.5825 168.52 56.4207 168.784C57.4403 169.112 58.4319 169.521 59.3863 170.008C60.4027 170.509 61.3619 171.002 62.2595 171.385C63.0497 171.736 63.8719 172.01 64.7147 172.203C65.4992 172.363 66.2989 172.437 67.0995 172.423Z" fill="#FAFAFA"/>
<path d="M72.5597 171.354C71.7145 171.611 70.849 171.797 69.9725 171.908C69.1042 172.097 68.2206 172.208 67.3325 172.238C68.1778 171.981 69.0433 171.796 69.9197 171.684C70.788 171.495 71.6716 171.384 72.5597 171.354Z" fill="#FAFAFA"/>
<path d="M66.9017 180.796C66.6992 180.911 66.4854 181.004 66.2637 181.074C65.8457 181.236 65.2341 181.456 64.4729 181.703C62.4824 182.341 60.4508 182.844 58.3921 183.208C57.1865 183.419 56.0293 183.573 54.9733 183.678C54.0367 183.799 53.0902 183.824 52.1485 183.753C51.5097 183.702 50.8875 183.524 50.3181 183.23C50.1633 183.149 50.016 183.055 49.8781 182.948C49.8273 182.913 49.7814 182.872 49.7417 182.825C49.7417 182.825 49.9529 182.961 50.3533 183.15C50.9236 183.408 51.5368 183.557 52.1617 183.59C53.0919 183.639 54.0246 183.597 54.9469 183.467C55.9985 183.348 57.1469 183.19 58.3481 182.979C60.3971 182.615 62.4243 182.138 64.4201 181.549C65.1857 181.32 65.8017 181.109 66.2285 180.99C66.4478 180.909 66.6728 180.844 66.9017 180.796Z" fill="#FAFAFA"/>
<path d="M72.4146 183.115C71.6219 183.241 70.819 183.293 70.0167 183.269C69.2167 183.32 68.4139 183.295 67.6187 183.194C68.4114 183.069 69.2143 183.017 70.0167 183.04C70.8166 182.99 71.6194 183.015 72.4146 183.115Z" fill="#FAFAFA"/>
<path d="M49.7725 203.162C49.7776 203.08 49.7938 203.001 49.8209 202.924C49.8649 202.748 49.9265 202.532 49.9969 202.264L50.1289 201.789C50.1861 201.617 50.2609 201.437 50.3313 201.239C50.4895 200.789 50.6716 200.349 50.8769 199.919L51.2333 199.166C51.3609 198.902 51.5237 198.647 51.6733 198.374C52.0051 197.797 52.3664 197.238 52.7557 196.698C54.5532 194.213 56.8969 192.173 59.6065 190.736C60.1957 190.425 60.8008 190.144 61.4193 189.896C61.7141 189.786 61.9869 189.658 62.2641 189.57L63.0605 189.319C63.5167 189.174 63.9809 189.055 64.4509 188.963C64.6577 188.919 64.8469 188.87 65.0229 188.84L65.5157 188.774L66.1933 188.69C66.272 188.678 66.3521 188.678 66.4309 188.69C66.3558 188.719 66.2775 188.738 66.1977 188.747L65.5289 188.875L65.0449 188.958L64.4773 189.099C64.0725 189.209 63.5973 189.302 63.1089 189.486L62.3257 189.75C62.0529 189.843 61.7801 189.97 61.4941 190.085C60.8847 190.338 60.2885 190.621 59.7077 190.934C58.3845 191.666 57.1388 192.53 55.9897 193.512C54.8546 194.514 53.8227 195.627 52.9097 196.834C52.5137 197.406 52.1221 197.943 51.8229 198.484C51.6689 198.753 51.5061 199.004 51.3829 199.263L51.0133 200.002C50.7625 200.469 50.6085 200.918 50.4413 201.322C50.3665 201.516 50.2873 201.696 50.2257 201.864L50.0717 202.33L49.8561 202.977C49.835 203.041 49.807 203.103 49.7725 203.162Z" fill="#FAFAFA"/>
<path d="M71.8385 189.645C71.1025 190.284 70.491 191.054 70.0345 191.915C69.5546 192.857 69.2137 193.863 69.0225 194.903C68.7949 196.181 68.648 197.473 68.5825 198.77C68.5277 200.077 68.3806 201.378 68.1425 202.664C67.927 203.719 67.5547 204.734 67.0381 205.678C66.693 206.311 66.2472 206.883 65.7181 207.372C65.574 207.506 65.4195 207.628 65.2561 207.738C65.1461 207.812 65.0845 207.852 65.0801 207.843C65.8293 207.218 66.4534 206.457 66.9193 205.599C67.4068 204.663 67.7565 203.661 67.9577 202.625C68.1919 201.347 68.3389 200.055 68.3977 198.757C68.4548 197.449 68.6018 196.147 68.8377 194.859C69.0426 193.805 69.4045 192.787 69.9113 191.84C70.2571 191.202 70.7027 190.622 71.2313 190.124C71.3697 189.992 71.5167 189.868 71.6713 189.755C71.7221 189.711 71.7783 189.674 71.8385 189.645Z" fill="#FAFAFA"/>
<path d="M79.3491 208.12C79.2875 208.12 79.3491 204.328 79.5119 199.655C79.6747 194.982 79.8419 191.194 79.9035 191.194C79.9651 191.194 79.9035 194.986 79.7407 199.664C79.5779 204.341 79.4107 208.125 79.3491 208.12Z" fill="#FAFAFA"/>
<path d="M91.2907 207.469C91.2079 207.293 91.1431 207.109 91.0971 206.919C91.0258 206.702 90.9655 206.482 90.9167 206.259C90.8595 206 90.7803 205.705 90.7319 205.379C90.5951 204.603 90.5171 203.818 90.4987 203.03C90.4555 201.093 90.7534 199.165 91.3787 197.332C91.6337 196.585 91.944 195.858 92.3071 195.158C92.4523 194.854 92.6151 194.599 92.7471 194.37C92.8589 194.171 92.9824 193.979 93.1167 193.794C93.2149 193.626 93.3315 193.47 93.4643 193.328C93.5039 193.35 93.0243 194.032 92.4479 195.233C92.1059 195.934 91.8119 196.657 91.5679 197.398C90.9652 199.212 90.6679 201.114 90.6879 203.025C90.6979 203.804 90.7582 204.582 90.8683 205.353C91.0883 206.664 91.3347 207.456 91.2907 207.469Z" fill="#FAFAFA"/>
<path d="M71.0113 158.84C71.0113 158.875 70.3161 158.572 69.1721 158.202C66.1924 157.24 63.0345 156.961 59.9321 157.384C58.7441 157.547 58.0181 157.731 58.0093 157.692C58.167 157.616 58.3342 157.561 58.5065 157.529C58.9668 157.402 59.434 157.3 59.9057 157.225C63.0316 156.706 66.2383 156.989 69.2249 158.048C69.6736 158.207 70.1142 158.387 70.5449 158.589C70.7101 158.654 70.8667 158.738 71.0113 158.84Z" fill="#FAFAFA"/>
<path d="M105.771 177.36C105.227 177.388 104.682 177.38 104.139 177.334C103.131 177.294 101.741 177.241 100.205 177.206C98.6696 177.171 97.2792 177.149 96.2716 177.14C95.7268 177.157 95.1814 177.138 94.6392 177.083C94.7834 177.049 94.931 177.031 95.0792 177.03C95.3608 177.03 95.77 176.99 96.276 176.977C97.2836 176.946 98.674 176.938 100.214 176.977C101.754 177.017 103.144 177.096 104.174 177.18C104.676 177.219 105.08 177.254 105.362 177.29C105.5 177.298 105.638 177.322 105.771 177.36Z" fill="#FAFAFA"/>
<path d="M114.457 175.692C114.457 175.732 113.907 175.921 113.049 176.344C110.804 177.448 108.903 179.142 107.549 181.245C107.03 182.05 106.779 182.587 106.744 182.565C106.768 182.426 106.816 182.292 106.884 182.169C107.039 181.819 107.215 181.48 107.412 181.153C108.058 180.065 108.868 179.084 109.815 178.244C110.759 177.403 111.826 176.71 112.978 176.19C113.326 176.033 113.683 175.898 114.048 175.785C114.179 175.736 114.317 175.705 114.457 175.692Z" fill="#FAFAFA"/>
<path d="M110.171 161.59C109.413 161.564 108.657 161.67 107.936 161.903C107.157 162.175 106.402 162.51 105.679 162.906C104.785 163.401 103.852 163.82 102.889 164.16C101.109 164.73 99.2148 164.853 97.3758 164.516C96.8231 164.416 96.2799 164.269 95.7522 164.076C95.5548 164.014 95.3645 163.932 95.1846 163.83C95.1846 163.786 96.0118 164.133 97.3846 164.358C99.198 164.641 101.052 164.498 102.801 163.94C103.753 163.603 104.678 163.194 105.569 162.717C106.305 162.326 107.075 162.002 107.87 161.749C108.41 161.577 108.975 161.495 109.542 161.507C109.689 161.511 109.836 161.526 109.982 161.551C110.118 161.568 110.175 161.581 110.171 161.59Z" fill="#FAFAFA"/>
<path d="M107.975 191.079C107.816 191.18 107.644 191.262 107.465 191.321C107.298 191.391 107.091 191.475 106.845 191.554C106.598 191.633 106.321 191.739 106.009 191.818C105.272 192.024 104.522 192.179 103.765 192.285C102.837 192.405 101.901 192.453 100.966 192.43C100.031 192.395 99.1003 192.291 98.1809 192.117C97.4347 191.967 96.6997 191.765 95.9809 191.515C95.6685 191.418 95.4001 191.299 95.1625 191.202C94.9249 191.105 94.7225 191.013 94.5553 190.934C94.3803 190.861 94.2136 190.77 94.0581 190.661C94.0581 190.621 94.8017 190.973 96.0337 191.361C96.7551 191.588 97.4898 191.77 98.2337 191.906C100.054 192.243 101.914 192.3 103.751 192.073C104.501 191.981 105.245 191.843 105.978 191.66C107.219 191.343 107.962 191.039 107.975 191.079Z" fill="#FAFAFA"/>
<path d="M118.086 204.103C118.024 204.063 117.966 204.016 117.915 203.962C117.814 203.861 117.646 203.725 117.475 203.522C116.944 202.954 116.477 202.328 116.084 201.657C114.815 199.407 114.139 196.87 114.122 194.287C114.125 191.721 114.461 189.167 115.121 186.688C115.358 185.738 115.561 184.972 115.724 184.448C115.798 184.206 115.86 184.008 115.908 183.845C115.957 183.683 115.979 183.634 115.988 183.639C115.987 183.712 115.975 183.785 115.952 183.854C115.917 184.022 115.869 184.224 115.812 184.47C115.68 185.038 115.499 185.79 115.279 186.728C114.672 189.198 114.363 191.733 114.36 194.278C114.374 196.82 115.01 199.32 116.212 201.56C116.589 202.231 117.031 202.863 117.532 203.448C117.88 203.87 118.1 204.086 118.086 204.103Z" fill="#FAFAFA"/>
<path d="M134.098 189.161C133.395 188.603 132.61 188.158 131.771 187.841C130.853 187.523 129.911 187.277 128.955 187.106C127.767 186.906 126.592 186.637 125.435 186.301C123.346 185.621 121.439 184.475 119.86 182.948C119.384 182.487 118.942 181.992 118.54 181.465C118.395 181.28 118.298 181.126 118.228 181.025C118.157 180.924 118.126 180.867 118.135 180.862C118.305 181.034 118.464 181.216 118.61 181.408C119.033 181.91 119.487 182.385 119.97 182.829C121.556 184.301 123.443 185.41 125.501 186.081C126.646 186.415 127.808 186.688 128.981 186.899C129.946 187.084 130.893 187.347 131.815 187.687C132.437 187.922 133.022 188.248 133.548 188.655C133.692 188.763 133.828 188.882 133.953 189.011C134.063 189.108 134.107 189.156 134.098 189.161Z" fill="#FAFAFA"/>
<path d="M139.132 174.478C138.962 174.357 138.805 174.22 138.661 174.069C138.516 173.932 138.34 173.765 138.12 173.58C137.9 173.396 137.68 173.176 137.381 172.964C136.731 172.44 136.049 171.957 135.339 171.517C133.598 170.44 131.706 169.63 129.725 169.114C128.915 168.906 128.094 168.746 127.265 168.635C126.913 168.578 126.592 168.556 126.31 168.529C126.029 168.503 125.782 168.481 125.584 168.472C125.376 168.471 125.169 168.452 124.964 168.415C125.169 168.383 125.377 168.373 125.584 168.384C125.829 168.372 126.074 168.372 126.319 168.384C126.601 168.384 126.931 168.406 127.287 168.454C128.125 168.546 128.955 168.693 129.773 168.894C130.775 169.151 131.758 169.481 132.712 169.88C133.659 170.293 134.574 170.775 135.449 171.323C136.161 171.777 136.841 172.279 137.486 172.824C137.768 173.048 137.997 173.264 138.208 173.475C138.388 173.639 138.56 173.812 138.723 173.994C138.876 174.14 139.013 174.302 139.132 174.478Z" fill="#FAFAFA"/>
<path d="M100.632 154.282C100.374 154.454 100.092 154.589 99.7961 154.682C99.102 154.954 98.3887 155.175 97.6621 155.342C96.9383 155.513 96.203 155.63 95.4621 155.694C95.1558 155.741 94.8443 155.741 94.5381 155.694C94.5381 155.624 95.9329 155.509 97.6181 155.109C99.3033 154.709 100.606 154.216 100.632 154.282Z" fill="#FAFAFA"/>
<path d="M116.239 216.251C116.296 216.448 116.303 216.655 116.259 216.855C116.216 217.055 116.123 217.24 115.989 217.395C115.855 217.549 115.684 217.668 115.493 217.739C115.301 217.811 115.095 217.833 114.892 217.805C114.658 217.771 114.438 217.67 114.26 217.514C114.081 217.358 113.953 217.153 113.889 216.925L113.515 215.543H113.572C113.611 215.743 113.601 215.948 113.544 216.143C113.487 216.338 113.384 216.517 113.244 216.664C113.104 216.812 112.932 216.924 112.74 216.991C112.549 217.059 112.344 217.08 112.142 217.052C111.566 217.052 111.069 216.212 110.902 215.767C110.466 215.81 110.028 215.732 109.634 215.543C109.24 215.353 108.905 215.06 108.666 214.694L106.084 210.663L101.301 207.165L104.196 196.83L114.488 203.491C114.892 203.808 114.954 203.931 115.596 204.534L122.24 210.646C121.488 211.086 120.85 211.064 119.803 210.646C118.756 210.228 114.171 207.126 114.171 207.126L116.239 216.212" fill="#FFBE9D"/>
<path d="M107.434 207.751C107.434 207.751 107.553 207.804 107.738 207.931L108.081 208.169C108.244 208.271 108.392 208.395 108.521 208.538C108.673 208.713 108.793 208.915 108.873 209.132C108.952 209.366 109.036 209.603 109.124 209.854L109.687 211.508C110.079 212.688 110.422 213.752 110.659 214.531C110.81 214.944 110.923 215.37 110.998 215.803C110.798 215.41 110.634 215.001 110.505 214.58C110.228 213.814 109.859 212.758 109.467 211.583C109.278 210.998 109.093 210.439 108.921 209.924C108.842 209.669 108.767 209.427 108.693 209.198C108.627 208.997 108.527 208.808 108.398 208.64C108.286 208.502 108.159 208.378 108.019 208.27L107.703 208.002C107.513 207.852 107.425 207.764 107.434 207.751Z" fill="#EB996E"/>
<path d="M113.625 215.781C113.56 215.64 113.511 215.492 113.48 215.341L113.15 214.161C112.868 213.167 112.494 211.79 112.015 210.289C111.535 208.789 111.034 207.451 110.431 206.624C110.206 206.294 109.921 206.009 109.59 205.784C109.348 205.634 109.194 205.59 109.199 205.564C109.24 205.563 109.28 205.57 109.318 205.586C109.427 205.614 109.533 205.654 109.634 205.705C110 205.908 110.317 206.189 110.563 206.527C111.218 207.363 111.746 208.727 112.23 210.219C112.714 211.711 113.066 213.114 113.304 214.122C113.423 214.623 113.511 215.033 113.568 215.319C113.61 215.469 113.63 215.625 113.625 215.781Z" fill="#EB996E"/>
<path d="M116.283 216.406C116.203 216.26 116.143 216.105 116.102 215.944C115.992 215.592 115.856 215.165 115.693 214.659C115.359 213.572 114.914 212.067 114.435 210.404C113.955 208.741 113.555 207.28 113.225 206.136C113.111 205.712 112.864 205.336 112.521 205.062C112.381 204.973 112.234 204.896 112.081 204.834C112.124 204.823 112.169 204.823 112.213 204.834C112.336 204.861 112.454 204.91 112.56 204.979C112.944 205.243 113.228 205.629 113.365 206.074C113.726 207.161 114.153 208.666 114.641 210.329C115.13 211.992 115.543 213.51 115.838 214.606C115.97 215.116 116.085 215.552 116.173 215.926C116.226 216.082 116.263 216.242 116.283 216.406Z" fill="#EB996E"/>
<path d="M178.807 120.991C178.807 121.296 178.897 121.594 179.067 121.847C179.236 122.1 179.476 122.298 179.758 122.414C180.039 122.531 180.349 122.561 180.648 122.502C180.946 122.442 181.221 122.296 181.436 122.08C181.651 121.865 181.798 121.591 181.858 121.292C181.917 120.993 181.886 120.683 181.77 120.402C181.653 120.121 181.456 119.88 181.203 119.711C180.949 119.542 180.652 119.451 180.347 119.451C179.939 119.451 179.547 119.614 179.258 119.902C178.969 120.191 178.807 120.583 178.807 120.991Z" fill="#455A64"/>
<path d="M174.183 122.531C175.033 122.531 175.723 121.842 175.723 120.991C175.723 120.141 175.033 119.451 174.183 119.451C173.332 119.451 172.643 120.141 172.643 120.991C172.643 121.842 173.332 122.531 174.183 122.531Z" fill="#455A64"/>
<path d="M166.496 120.221C166.343 120.485 166.273 120.788 166.292 121.092C166.312 121.396 166.422 121.687 166.607 121.929C166.792 122.171 167.045 122.352 167.334 122.45C167.622 122.548 167.933 122.558 168.227 122.48C168.522 122.401 168.786 122.237 168.987 122.008C169.188 121.779 169.316 121.495 169.356 121.193C169.396 120.891 169.345 120.584 169.21 120.311C169.075 120.038 168.863 119.811 168.599 119.658C168.424 119.557 168.231 119.491 168.03 119.464C167.83 119.437 167.626 119.45 167.43 119.503C167.235 119.555 167.052 119.645 166.891 119.769C166.731 119.892 166.596 120.046 166.496 120.221Z" fill="#455A64"/>
<path d="M174.086 103C173.983 102.992 173.88 102.992 173.778 103L172.863 103.026C172.66 103.026 172.423 103.026 172.185 103.057L171.38 103.172L170.438 103.308L169.382 103.568C167.573 104.017 165.85 104.76 164.283 105.768C161.964 107.244 160.013 109.231 158.579 111.577C157.146 113.922 156.267 116.565 156.011 119.302C155.941 120.123 155.925 120.947 155.962 121.77C155.993 122.184 155.984 122.611 156.046 123.029C156.107 123.447 156.173 123.874 156.235 124.3C156.557 126.049 157.135 127.741 157.951 129.321C158.819 130.976 159.924 132.497 161.229 133.835C162.62 135.203 164.214 136.347 165.955 137.227C167.756 138.149 169.706 138.745 171.714 138.987C172.223 139.063 172.736 139.106 173.25 139.115C173.767 139.154 174.285 139.164 174.803 139.146C175.848 139.103 176.887 138.972 177.909 138.754C180.117 138.276 182.216 137.391 184.1 136.145L183.915 136.167L190.221 138.697L190.595 138.847L190.489 138.46L188.632 131.719L188.601 131.882C190.313 129.615 191.466 126.977 191.967 124.182C192.209 122.876 192.291 121.547 192.214 120.222C192.199 119.586 192.138 118.952 192.033 118.325C191.986 118.014 191.938 117.706 191.888 117.401C191.835 117.097 191.743 116.803 191.668 116.521C190.612 112.376 188.117 108.741 184.628 106.265C183.341 105.343 181.933 104.603 180.444 104.065L179.498 103.726L178.618 103.497L177.799 103.295C177.535 103.246 177.28 103.22 177.043 103.18C176.567 103.123 176.163 103.04 175.78 103.022L174.856 102.991H174.288C174.224 102.986 174.159 102.986 174.095 102.991C174.157 103.011 174.223 103.02 174.288 103.018L174.851 103.066L175.771 103.128C176.136 103.154 176.55 103.246 177.025 103.317C180.448 103.911 183.624 105.487 186.169 107.852C188.714 110.217 190.517 113.27 191.36 116.64C191.426 116.93 191.519 117.221 191.571 117.52C191.624 117.819 191.659 118.118 191.708 118.426C191.808 119.042 191.864 119.664 191.875 120.287C191.944 121.582 191.859 122.881 191.62 124.155C191.109 126.889 189.965 129.466 188.28 131.679L188.223 131.754L188.249 131.846C188.836 134.023 189.449 136.271 190.089 138.592L190.357 138.354L184.052 135.815L183.955 135.776L183.863 135.833C181.158 137.624 178.014 138.638 174.772 138.763C174.266 138.781 173.759 138.772 173.254 138.737C172.752 138.728 172.25 138.685 171.754 138.609C169.79 138.371 167.883 137.789 166.122 136.889C164.419 136.027 162.858 134.91 161.493 133.576C160.213 132.272 159.128 130.79 158.272 129.176C157.478 127.625 156.914 125.966 156.6 124.252C156.534 123.812 156.468 123.42 156.407 123.007C156.345 122.593 156.354 122.18 156.323 121.77C156.282 120.964 156.293 120.155 156.358 119.35C156.598 116.656 157.448 114.052 158.844 111.735C160.24 109.418 162.145 107.45 164.415 105.979C165.955 104.96 167.651 104.196 169.435 103.717L170.473 103.44L171.406 103.286L172.207 103.154C172.453 103.128 172.678 103.119 172.876 103.106L173.787 103.039C173.887 103.037 173.988 103.024 174.086 103Z" fill="#455A64"/>
</g>
<defs>
<filter id="filter0_f_566_8576" x="5.06551" y="114.213" width="211.174" height="165.545" filterUnits="userSpaceOnUse" color-interpolation-filters="sRGB">
<feFlood flood-opacity="0" result="BackgroundImageFix"/>
<feBlend mode="normal" in="SourceGraphic" in2="BackgroundImageFix" result="shape"/>
<feGaussianBlur stdDeviation="17.135" result="effect1_foregroundBlur_566_8576"/>
</filter>
<filter id="filter1_f_566_8576" x="109.951" y="110.816" width="182.597" height="191.737" filterUnits="userSpaceOnUse" color-interpolation-filters="sRGB">
<feFlood flood-opacity="0" result="BackgroundImageFix"/>
<feBlend mode="normal" in="SourceGraphic" in2="BackgroundImageFix" result="shape"/>
<feGaussianBlur stdDeviation="17.135" result="effect1_foregroundBlur_566_8576"/>
</filter>
<filter id="filter2_f_566_8576" x="25.3995" y="111.11" width="190.539" height="178.65" filterUnits="userSpaceOnUse" color-interpolation-filters="sRGB">
<feFlood flood-opacity="0" result="BackgroundImageFix"/>
<feBlend mode="normal" in="SourceGraphic" in2="BackgroundImageFix" result="shape"/>
<feGaussianBlur stdDeviation="17.135" result="effect1_foregroundBlur_566_8576"/>
</filter>
<filter id="filter3_f_566_8576" x="32.9903" y="119.278" width="190.539" height="178.65" filterUnits="userSpaceOnUse" color-interpolation-filters="sRGB">
<feFlood flood-opacity="0" result="BackgroundImageFix"/>
<feBlend mode="normal" in="SourceGraphic" in2="BackgroundImageFix" result="shape"/>
<feGaussianBlur stdDeviation="17.135" result="effect1_foregroundBlur_566_8576"/>
</filter>
<linearGradient id="paint0_linear_566_8576" x1="166.196" y1="190.739" x2="62.7213" y2="175.67" gradientUnits="userSpaceOnUse">
<stop stop-color="#FF2E00"/>
<stop offset="1" stop-color="#8C4E96"/>
</linearGradient>
<linearGradient id="paint1_linear_566_8576" x1="145.281" y1="220.395" x2="81.8545" y2="156.969" gradientUnits="userSpaceOnUse">
<stop stop-color="#00FFA3" stop-opacity="0.58"/>
<stop offset="1" stop-color="#3300FF" stop-opacity="0.2"/>
</linearGradient>
<linearGradient id="paint2_linear_566_8576" x1="228.676" y1="256.934" x2="212.321" y2="153.655" gradientUnits="userSpaceOnUse">
<stop stop-color="#FF2E00"/>
<stop offset="1" stop-color="#1400FF" stop-opacity="0.2"/>
</linearGradient>
<linearGradient id="paint3_linear_566_8576" x1="194.145" y1="245.775" x2="235.863" y2="166.368" gradientUnits="userSpaceOnUse">
<stop stop-color="#703E78"/>
<stop offset="1" stop-color="#C47FD0"/>
</linearGradient>
<linearGradient id="paint4_linear_566_8576" x1="163.998" y1="222.461" x2="96.2526" y2="154.715" gradientUnits="userSpaceOnUse">
<stop stop-color="#00FFA3" stop-opacity="0.48"/>
<stop offset="1" stop-color="#3300FF" stop-opacity="0.2"/>
</linearGradient>
<linearGradient id="paint5_linear_566_8576" x1="171.589" y1="230.629" x2="103.843" y2="162.883" gradientUnits="userSpaceOnUse">
<stop stop-color="#6F5FFE"/>
<stop offset="1" stop-color="#433998"/>
</linearGradient>
<clipPath id="clip0_566_8576">
<rect width="300" height="330" rx="10" fill="white"/>
</clipPath>
</defs>
</svg>
