<svg width="300" height="350" viewBox="0 0 300 350" fill="none" xmlns="http://www.w3.org/2000/svg">
<g filter="url(#filter0_f_559_6912)">
<path d="M43.8469 258.67C26.3322 241.155 64.2503 194.573 81.8545 176.969C99.4586 159.365 160.75 171.926 178.265 189.441C195.779 206.956 146.462 221.243 128.858 238.847C111.254 256.452 61.3616 276.185 43.8469 258.67Z" fill="url(#paint0_linear_559_6912)"/>
<path d="M43.8469 258.67C26.3322 241.155 64.2503 194.573 81.8545 176.969C99.4586 159.365 160.75 171.926 178.265 189.441C195.779 206.956 146.462 221.243 128.858 238.847C111.254 256.452 61.3616 276.185 43.8469 258.67Z" fill="url(#paint1_linear_559_6912)"/>
</g>
<g filter="url(#filter1_f_559_6912)">
<path d="M146.558 174.351C158.078 152.424 213.823 174.789 235.862 186.368C257.902 197.947 264.118 260.203 252.598 282.13C241.078 304.058 212.783 261.213 190.743 249.634C168.704 238.055 135.038 196.279 146.558 174.351Z" fill="url(#paint2_linear_559_6912)"/>
<path d="M146.558 174.351C158.078 152.424 213.823 174.789 235.862 186.368C257.902 197.947 264.118 260.203 252.598 282.13C241.078 304.058 212.783 261.213 190.743 249.634C168.704 238.055 135.038 196.279 146.558 174.351Z" fill="url(#paint3_linear_559_6912)"/>
</g>
<g filter="url(#filter2_f_559_6912)">
<path d="M78.5769 260.137C59.8694 241.429 51.456 206.104 70.24 187.32C89.024 168.536 145.429 155.869 164.137 174.577C182.844 193.284 189.105 243.817 170.321 262.601C151.537 281.385 97.2843 278.844 78.5769 260.137Z" fill="url(#paint4_linear_559_6912)"/>
</g>
<g filter="url(#filter3_f_559_6912)">
<path d="M86.1677 268.305C67.4603 249.597 59.0469 214.272 77.8308 195.488C96.6148 176.704 153.02 164.037 171.728 182.745C190.435 201.452 196.696 251.985 177.912 270.769C159.128 289.553 104.875 287.012 86.1677 268.305Z" fill="url(#paint5_linear_559_6912)"/>
</g>
<rect y="250" width="300" height="100" rx="10" fill="#4F4F53"/>
<path d="M76.4519 193.632C35.8904 217.049 35.8904 255.019 76.4519 278.436C117.013 301.852 182.784 301.857 223.345 278.436C263.907 255.014 263.911 217.049 223.345 193.632C182.779 170.215 117.013 170.21 76.4519 193.632Z" fill="#BA68C8"/>
<path opacity="0.15" d="M76.4519 193.632C35.8904 217.049 35.8904 255.019 76.4519 278.436C117.013 301.852 182.784 301.857 223.345 278.436C263.907 255.014 263.911 217.049 223.345 193.632C182.779 170.215 117.013 170.21 76.4519 193.632Z" fill="white"/>
<path d="M81.504 245.338L85.4802 242.33C85.4802 242.33 86.7104 231.418 84.5116 222.013C81.4071 208.811 71.9533 204.844 68.7568 206.418C65.5603 207.992 65.0566 212.017 71.6046 219.306C75.4549 223.606 80.7 232.915 81.504 245.338Z" fill="#BA68C8"/>
<g opacity="0.65">
<path d="M81.504 245.338L85.4802 242.33C85.4802 242.33 86.7104 231.418 84.5116 222.013C81.4071 208.811 71.9533 204.844 68.7568 206.418C65.5603 207.992 65.0566 212.017 71.6046 219.306C75.4549 223.606 80.7 232.915 81.504 245.338Z" fill="white"/>
</g>
<path d="M82.6329 239.913H82.5893C82.5499 239.91 82.5113 239.9 82.4758 239.883C82.4403 239.865 82.4086 239.841 82.3825 239.811C82.3564 239.782 82.3364 239.747 82.3237 239.71C82.311 239.672 82.3058 239.633 82.3084 239.593C83.1172 226.943 77.0681 213.59 70.9996 208.476C70.9396 208.424 70.9023 208.351 70.896 208.272C70.8896 208.193 70.9147 208.115 70.9657 208.055C70.9909 208.024 71.0219 207.999 71.0568 207.981C71.0918 207.963 71.13 207.952 71.1693 207.949C71.2085 207.946 71.248 207.951 71.2854 207.963C71.3228 207.975 71.3574 207.995 71.3871 208.021C77.5621 213.227 83.7275 226.793 82.909 239.632C82.9045 239.704 82.8742 239.772 82.8234 239.824C82.7727 239.876 82.7051 239.907 82.6329 239.913Z" fill="white"/>
<path d="M71.4978 252.907C70.9021 253.314 69.0181 252.069 68.4999 251.774C67.6065 251.26 66.8609 250.524 66.335 249.638C65.7453 248.636 65.4845 247.474 65.5891 246.316C65.6446 245.703 65.7416 245.094 65.8797 244.495C66.0056 243.904 66.1316 243.313 66.2526 242.722C66.4124 242.147 66.4552 241.546 66.3786 240.954C66.1364 239.777 65.0225 239.017 64.0151 238.378C62.8963 237.666 61.7146 236.697 61.6177 235.268C61.6126 234.155 61.9772 233.072 62.6542 232.188C63.2741 231.273 64.0296 230.449 64.5914 229.49C65.0312 228.817 65.2277 228.014 65.1484 227.214C65.0448 226.729 64.8456 226.27 64.5624 225.863C63.9909 224.972 63.2596 224.168 62.8382 223.194C62.4169 222.221 62.3539 220.976 63.1046 220.201C63.7003 219.567 64.6447 219.417 65.5262 219.412C66.3446 219.449 67.1448 219.666 67.8703 220.046C70.2337 221.141 71.7448 223.732 74.2051 224.521C75.1821 224.744 76.172 224.906 77.1691 225.006C78.1378 225.19 79.179 225.611 79.6924 226.459C80.7046 228.159 79.2081 230.454 79.9879 232.27C80.6562 233.888 82.3126 234.401 83.3296 235.83C83.748 236.463 83.9517 237.213 83.9108 237.971C83.9274 239.258 83.7041 240.538 83.2521 241.744C82.7439 242.976 82.16 244.177 81.5038 245.337C81.5038 245.337 71.5898 252.844 71.4978 252.907Z" fill="#BA68C8"/>
<g opacity="0.3">
<path d="M71.4978 252.907C70.9021 253.314 69.0181 252.069 68.4999 251.774C67.6065 251.26 66.8609 250.524 66.335 249.638C65.7453 248.636 65.4845 247.474 65.5891 246.316C65.6446 245.703 65.7416 245.094 65.8797 244.495C66.0056 243.904 66.1316 243.313 66.2526 242.722C66.4124 242.147 66.4552 241.546 66.3786 240.954C66.1364 239.777 65.0225 239.017 64.0151 238.378C62.8963 237.666 61.7146 236.697 61.6177 235.268C61.6126 234.155 61.9772 233.072 62.6542 232.188C63.2741 231.273 64.0296 230.449 64.5914 229.49C65.0312 228.817 65.2277 228.014 65.1484 227.214C65.0448 226.729 64.8456 226.27 64.5624 225.863C63.9909 224.972 63.2596 224.168 62.8382 223.194C62.4169 222.221 62.3539 220.976 63.1046 220.201C63.7003 219.567 64.6447 219.417 65.5262 219.412C66.3446 219.449 67.1448 219.666 67.8703 220.046C70.2337 221.141 71.7448 223.732 74.2051 224.521C75.1821 224.744 76.172 224.906 77.1691 225.006C78.1378 225.19 79.179 225.611 79.6924 226.459C80.7046 228.159 79.2081 230.454 79.9879 232.27C80.6562 233.888 82.3126 234.401 83.3296 235.83C83.748 236.463 83.9517 237.213 83.9108 237.971C83.9274 239.258 83.7041 240.538 83.2521 241.744C82.7439 242.976 82.16 244.177 81.5038 245.337C81.5038 245.337 71.5898 252.844 71.4978 252.907Z" fill="white"/>
</g>
<path d="M77.2951 248.902C77.2578 248.904 77.2205 248.898 77.1853 248.886C77.1502 248.873 77.1179 248.853 77.0904 248.828C77.0629 248.803 77.0407 248.772 77.0251 248.739C77.0095 248.705 77.0009 248.668 76.9996 248.631C76.6364 237.385 70.442 225.383 66.3447 222.08C66.287 222.033 66.2501 221.965 66.2419 221.891C66.2338 221.816 66.255 221.742 66.3011 221.683C66.3493 221.625 66.4182 221.588 66.4933 221.58C66.5683 221.572 66.6435 221.593 66.7031 221.64C70.8876 225.03 77.2079 237.206 77.576 248.611C77.5766 248.649 77.5699 248.686 77.5561 248.721C77.5423 248.756 77.5218 248.788 77.4957 248.815C77.4696 248.842 77.4385 248.863 77.4041 248.878C77.3696 248.893 77.3326 248.901 77.2951 248.902Z" fill="white"/>
<path d="M74.4859 235.331H74.3987C71.6884 234.794 68.9275 234.555 66.1653 234.619C66.0903 234.621 66.0179 234.592 65.9635 234.541C65.9091 234.489 65.8772 234.418 65.8747 234.343C65.8721 234.306 65.8771 234.269 65.8895 234.234C65.902 234.198 65.9215 234.166 65.947 234.139C65.9724 234.112 66.0032 234.09 66.0375 234.075C66.0717 234.06 66.1086 234.053 66.1459 234.053C68.957 233.986 71.7669 234.23 74.5246 234.779C74.561 234.787 74.5955 234.802 74.6259 234.824C74.6564 234.845 74.6823 234.872 74.7022 234.904C74.722 234.936 74.7354 234.971 74.7415 235.008C74.7476 235.044 74.7463 235.082 74.7377 235.118C74.7229 235.175 74.6907 235.227 74.6456 235.265C74.6005 235.303 74.5447 235.326 74.4859 235.331Z" fill="white"/>
<path d="M218.619 245.337L214.642 242.33C214.642 242.33 213.412 231.418 215.611 222.013C218.711 208.791 228.16 204.844 231.371 206.418C234.582 207.992 235.066 212.016 228.523 219.305C224.663 223.606 219.418 232.915 218.619 245.337Z" fill="#BA68C8"/>
<g opacity="0.65">
<path d="M218.619 245.337L214.642 242.33C214.642 242.33 213.412 231.418 215.611 222.013C218.711 208.791 228.16 204.844 231.371 206.418C234.582 207.992 235.066 212.016 228.523 219.305C224.663 223.606 219.418 232.915 218.619 245.337Z" fill="white"/>
</g>
<path d="M217.491 239.913H217.534C217.574 239.911 217.612 239.901 217.648 239.884C217.684 239.867 217.715 239.843 217.741 239.813C217.767 239.783 217.786 239.748 217.798 239.71C217.81 239.672 217.814 239.633 217.81 239.593C217.006 226.943 223.055 213.59 229.124 208.476C229.184 208.424 229.221 208.351 229.228 208.272C229.234 208.193 229.209 208.115 229.158 208.055C229.133 208.024 229.102 207.999 229.067 207.981C229.032 207.963 228.994 207.952 228.954 207.949C228.915 207.946 228.876 207.951 228.838 207.963C228.801 207.975 228.766 207.995 228.736 208.021C222.557 213.227 216.396 226.793 217.215 239.632C217.219 239.704 217.249 239.772 217.3 239.824C217.351 239.876 217.419 239.907 217.491 239.913Z" fill="white"/>
<path d="M228.62 252.907C229.221 253.314 231.105 252.069 231.623 251.774C232.512 251.257 233.253 250.522 233.778 249.638C234.364 248.634 234.624 247.474 234.524 246.316C234.467 245.703 234.368 245.094 234.228 244.495C234.107 243.904 233.981 243.313 233.86 242.722C233.698 242.148 233.655 241.546 233.734 240.954C233.972 239.777 235.086 239.017 236.098 238.378C237.217 237.666 238.394 236.697 238.52 235.268C238.522 234.156 238.158 233.073 237.483 232.188C236.863 231.273 236.108 230.449 235.546 229.49C235.11 228.816 234.915 228.014 234.994 227.214C235.097 226.729 235.297 226.27 235.58 225.863C236.151 224.972 236.878 224.168 237.299 223.194C237.72 222.221 237.783 220.976 237.038 220.201C236.442 219.567 235.497 219.417 234.616 219.412C233.797 219.448 232.997 219.665 232.272 220.046C229.908 221.141 228.397 223.732 225.937 224.521C224.96 224.744 223.97 224.906 222.973 225.006C222.004 225.19 220.963 225.611 220.45 226.459C219.437 228.159 220.934 230.454 220.154 232.27C219.486 233.888 217.825 234.401 216.812 235.83C216.395 236.463 216.189 237.213 216.226 237.971C216.215 239.244 216.433 240.509 216.871 241.705C217.382 242.937 217.967 244.137 218.624 245.299L228.62 252.907Z" fill="#BA68C8"/>
<g opacity="0.3">
<path d="M228.62 252.907C229.221 253.314 231.105 252.069 231.623 251.774C232.512 251.257 233.253 250.522 233.778 249.638C234.364 248.634 234.624 247.474 234.524 246.316C234.467 245.703 234.368 245.094 234.228 244.495C234.107 243.904 233.981 243.313 233.86 242.722C233.698 242.148 233.655 241.546 233.734 240.954C233.972 239.777 235.086 239.017 236.098 238.378C237.217 237.666 238.394 236.697 238.52 235.268C238.522 234.156 238.158 233.073 237.483 232.188C236.863 231.273 236.108 230.449 235.546 229.49C235.11 228.816 234.915 228.014 234.994 227.214C235.097 226.729 235.297 226.27 235.58 225.863C236.151 224.972 236.878 224.168 237.299 223.194C237.72 222.221 237.783 220.976 237.038 220.201C236.442 219.567 235.497 219.417 234.616 219.412C233.797 219.448 232.997 219.665 232.272 220.046C229.908 221.141 228.397 223.732 225.937 224.521C224.96 224.744 223.97 224.906 222.973 225.006C222.004 225.19 220.963 225.611 220.45 226.459C219.437 228.159 220.934 230.454 220.154 232.27C219.486 233.888 217.825 234.401 216.812 235.83C216.395 236.463 216.189 237.213 216.226 237.971C216.215 239.244 216.433 240.509 216.871 241.705C217.382 242.937 217.967 244.137 218.624 245.299L228.62 252.907Z" fill="white"/>
</g>
<path d="M222.823 248.902C222.86 248.904 222.897 248.898 222.932 248.886C222.967 248.873 223 248.854 223.027 248.828C223.055 248.803 223.077 248.773 223.093 248.739C223.108 248.705 223.117 248.668 223.118 248.631C223.481 237.385 229.676 225.383 233.773 222.08C233.802 222.057 233.826 222.028 233.843 221.995C233.861 221.963 233.872 221.927 233.875 221.89C233.879 221.853 233.875 221.816 233.864 221.78C233.853 221.745 233.835 221.712 233.812 221.683C233.764 221.626 233.696 221.589 233.622 221.581C233.548 221.572 233.473 221.594 233.415 221.64C229.225 225.03 222.91 237.206 222.542 248.611C222.54 248.649 222.547 248.687 222.56 248.722C222.574 248.757 222.594 248.789 222.62 248.816C222.647 248.843 222.678 248.865 222.713 248.88C222.748 248.894 222.785 248.902 222.823 248.902Z" fill="white"/>
<path d="M225.637 235.331H225.724C228.434 234.794 231.195 234.555 233.957 234.619C234.032 234.621 234.105 234.592 234.159 234.541C234.214 234.489 234.246 234.418 234.248 234.343C234.25 234.306 234.244 234.268 234.231 234.233C234.218 234.198 234.198 234.166 234.173 234.139C234.147 234.111 234.116 234.09 234.081 234.075C234.047 234.06 234.009 234.053 233.972 234.053C231.161 233.986 228.351 234.23 225.593 234.779C225.525 234.792 225.464 234.829 225.422 234.884C225.38 234.939 225.359 235.008 225.365 235.077C225.37 235.146 225.401 235.211 225.451 235.259C225.501 235.307 225.568 235.334 225.637 235.336V235.331Z" fill="white"/>
<path opacity="0.15" d="M107.531 281.283C128.437 281.283 145.385 271.497 145.385 259.426C145.385 247.355 128.437 237.569 107.531 237.569C86.6246 237.569 69.6768 247.355 69.6768 259.426C69.6768 271.497 86.6246 281.283 107.531 281.283Z" fill="black"/>
<path opacity="0.15" d="M192.757 281.283C213.663 281.283 230.611 271.497 230.611 259.426C230.611 247.355 213.663 237.569 192.757 237.569C171.85 237.569 154.902 247.355 154.902 259.426C154.902 271.497 171.85 281.283 192.757 281.283Z" fill="black"/>
<path d="M214.967 246.621C214.783 240.978 215.214 237.273 215.132 227.485C215.132 224.55 215.074 221.407 214.923 218.613C214.415 209.207 213.02 205.972 212.913 204.156C212.913 204.156 212.913 189.534 212.633 168.97C212.502 159.284 209.751 155.555 207.596 150.387H180.982C177.801 162.979 176.338 190.992 176.212 204.044C176.149 210.699 178.735 240.479 178.774 241.298C178.914 244.204 178.454 245.841 177.297 247.042C174.875 249.56 171.374 251.125 168.347 253.304C168.763 254.452 172.856 255.024 174.643 254.186C176.991 253.006 179.234 251.627 181.346 250.064C183.83 248.287 187.516 247.788 187.598 245.022C187.598 244.679 187.768 243.787 187.753 243.734C187.826 242.116 190.553 223.79 191.366 218.312C192.088 213.44 192.088 205.362 192.088 205.362L194.461 185.422C194.461 185.422 196.316 197.317 197.934 205.507C199.135 211.575 201.735 224.1 203.368 230.735C204.53 235.462 205.867 241.099 206.792 246.291C206.646 248.374 208.622 259.256 209.107 261.789C209.591 264.322 215.078 264.473 215.5 260.148C215.795 257.242 215.02 248.001 214.967 246.621Z" fill="#FFA8A7"/>
<path d="M164.603 257.242C164.448 257.242 164.24 258.922 165.087 259.625C166.056 260.438 168.86 261.756 172.55 261.242C176.241 260.729 178.212 259.547 179.665 258.298C181.118 257.048 183.186 255.275 184.852 254.907C186.402 254.549 188.082 253.827 188.572 253.343C189.061 252.859 188.974 250.723 188.974 250.723L164.603 257.242Z" fill="#263238"/>
<path d="M187.899 242.335C188.027 242.374 188.14 242.449 188.226 242.551C188.312 242.654 188.367 242.779 188.383 242.911C188.504 243.497 188.262 245.304 188.514 246.263C188.868 247.604 189.124 250.35 188.93 251.445C188.737 252.539 186.213 253.324 184.606 253.958C182.71 254.808 180.954 255.942 179.399 257.319C177.675 258.772 174.038 260.225 171.65 260.303C167.974 260.395 165.582 259.421 164.831 258.109C163.906 256.482 164.085 254.995 168.294 252.99C169.088 252.612 171.883 250.922 172.832 250.311C173.841 249.668 174.795 248.942 175.684 248.142C176.135 247.735 176.562 247.303 176.963 246.849C177.384 246.447 177.74 245.983 178.019 245.473C178.067 245.362 178.096 245.231 178.14 245.115C178.254 244.799 178.343 244.475 178.406 244.146C178.469 243.793 178.508 243.279 178.837 243.066C179.314 242.866 179.836 242.799 180.348 242.872C181.12 242.968 181.885 243.111 182.639 243.299C182.969 243.343 183.284 243.464 183.558 243.653C183.832 243.841 184.058 244.091 184.218 244.383C184.471 244.851 184.597 245.377 184.581 245.909C184.581 246.156 184.581 246.393 184.581 246.65C184.581 246.757 184.538 246.945 184.683 246.902C184.828 246.858 184.978 246.49 185.032 246.364C185.143 246.083 185.216 245.788 185.342 245.517C185.478 245.197 185.652 244.894 185.86 244.616C186.054 244.364 186.275 244.133 186.519 243.928C186.768 243.781 187.009 243.619 187.24 243.444C187.532 243.122 187.756 242.745 187.899 242.335Z" fill="#37474F"/>
<path d="M167.591 253.319C172.918 253.634 175.151 257.44 175.393 259.47C174.187 259.939 172.916 260.22 171.625 260.303C167.949 260.395 165.406 259.426 164.656 258.109C163.784 256.578 163.828 254.791 167.591 253.319Z" fill="#FAFAFA"/>
<path d="M176.091 253.852C176.141 253.853 176.19 253.84 176.232 253.813C176.275 253.787 176.308 253.749 176.33 253.704C176.351 253.658 176.358 253.608 176.351 253.559C176.344 253.509 176.322 253.463 176.29 253.426C175.539 252.525 172.865 250.815 170.933 251.043C170.868 251.055 170.809 251.092 170.77 251.145C170.731 251.199 170.713 251.266 170.721 251.332C170.729 251.398 170.762 251.458 170.813 251.501C170.864 251.543 170.93 251.565 170.996 251.561C172.798 251.348 175.297 253.048 175.892 253.76C175.916 253.789 175.947 253.813 175.981 253.829C176.016 253.845 176.053 253.852 176.091 253.852Z" fill="#F0F0F0"/>
<path d="M178.372 252.471C178.432 252.472 178.491 252.449 178.536 252.408C178.563 252.387 178.584 252.36 178.6 252.33C178.616 252.3 178.626 252.268 178.629 252.234C178.632 252.2 178.629 252.166 178.618 252.134C178.608 252.101 178.592 252.071 178.57 252.045C177.819 251.144 175.146 249.425 173.214 249.662C173.18 249.666 173.147 249.677 173.118 249.693C173.088 249.709 173.062 249.732 173.041 249.758C173.02 249.785 173.004 249.815 172.994 249.848C172.985 249.88 172.982 249.914 172.986 249.948C172.99 249.982 173 250.014 173.017 250.044C173.033 250.074 173.055 250.1 173.082 250.121C173.108 250.142 173.139 250.158 173.171 250.167C173.204 250.177 173.238 250.18 173.272 250.176C175.078 249.963 177.572 251.663 178.168 252.375C178.193 252.405 178.224 252.429 178.259 252.446C178.294 252.462 178.333 252.471 178.372 252.471Z" fill="#F0F0F0"/>
<path d="M180.479 250.946C180.529 250.947 180.578 250.934 180.62 250.907C180.663 250.881 180.697 250.843 180.718 250.798C180.739 250.753 180.746 250.702 180.739 250.653C180.732 250.603 180.711 250.557 180.678 250.52C179.927 249.619 177.249 247.904 175.321 248.137C175.256 248.149 175.197 248.186 175.158 248.239C175.119 248.293 175.101 248.36 175.109 248.426C175.117 248.492 175.15 248.552 175.201 248.595C175.252 248.637 175.318 248.659 175.384 248.655C177.186 248.442 179.685 250.142 180.281 250.854C180.305 250.883 180.335 250.907 180.369 250.923C180.404 250.939 180.441 250.947 180.479 250.946Z" fill="#F0F0F0"/>
<path d="M182.571 249.377C182.62 249.376 182.668 249.361 182.709 249.334C182.75 249.308 182.783 249.27 182.803 249.226C182.824 249.181 182.832 249.132 182.826 249.083C182.82 249.034 182.8 248.988 182.77 248.95C181.738 247.677 178.895 246.316 176.958 246.529C176.924 246.533 176.891 246.543 176.862 246.559C176.832 246.576 176.806 246.598 176.785 246.625C176.764 246.651 176.748 246.681 176.739 246.714C176.729 246.747 176.726 246.781 176.73 246.815C176.734 246.848 176.744 246.881 176.761 246.911C176.777 246.94 176.799 246.966 176.826 246.988C176.852 247.009 176.883 247.024 176.915 247.034C176.948 247.043 176.982 247.046 177.016 247.042C178.755 246.839 181.433 248.127 182.343 249.26C182.368 249.298 182.402 249.328 182.442 249.349C182.482 249.369 182.526 249.379 182.571 249.377Z" fill="#F0F0F0"/>
<path d="M207.358 263.717C207.464 266.231 207.842 267.902 208.695 269.389C209.547 270.876 211.232 271.365 212.942 270.963C214.652 270.561 216.851 269.442 217.374 267.287C217.897 265.132 218.207 263.65 217.858 261.315L207.358 263.717Z" fill="#263238"/>
<path d="M214.938 245.463C215.64 245.531 215.582 249.101 215.931 252.481C216.304 256.104 217.36 257.62 217.699 260.593C218.086 263.984 217.5 265.495 216.28 267.524C215.059 269.553 210.821 271.491 208.797 268.522C207.15 266.1 207.31 263.456 207.344 260.066C207.389 257.199 207.227 254.332 206.86 251.488C206.477 248.452 206.216 246.563 206.831 246.292C206.869 246.664 206.908 247.139 206.952 247.502C207.005 247.953 207.131 248.844 207.131 248.844C207.199 249.033 207.378 249.251 207.446 248.946C207.48 248.735 207.48 248.521 207.446 248.311C207.359 247.376 207.833 247.309 208.085 247.241C208.642 247.091 211.267 246.679 211.795 246.655C212.323 246.631 214.183 246.577 214.415 246.882C214.565 247.183 214.642 247.515 214.638 247.851C214.686 248.36 214.696 248.679 214.817 248.578C214.938 248.476 214.967 247.488 214.962 247.26C214.957 247.033 214.962 246.539 214.962 246.316C214.962 246.093 214.953 245.681 214.938 245.463Z" fill="#37474F"/>
<path d="M217.926 262.569C218.022 264.385 217.531 266.183 216.526 267.698C215.306 269.728 210.715 271.665 208.71 268.701C207.702 267.224 207.455 265.49 207.344 263.727C208.642 261.475 216.018 260.603 217.926 262.569Z" fill="#FAFAFA"/>
<path d="M208.952 260.056C208.981 260.06 209.011 260.06 209.039 260.056C209.068 260.056 212.333 258.753 215.481 259.537C215.548 259.552 215.617 259.541 215.676 259.506C215.735 259.471 215.777 259.414 215.796 259.349C215.812 259.282 215.801 259.211 215.766 259.152C215.73 259.094 215.673 259.051 215.607 259.034C212.279 258.206 208.947 259.518 208.826 259.581C208.778 259.611 208.741 259.655 208.72 259.707C208.699 259.76 208.696 259.818 208.711 259.872C208.725 259.927 208.757 259.975 208.802 260.01C208.846 260.044 208.901 260.064 208.957 260.065L208.952 260.056Z" fill="#F0F0F0"/>
<path d="M215.365 256.99C215.414 256.985 215.462 256.966 215.502 256.936C215.541 256.905 215.571 256.863 215.587 256.816C215.599 256.784 215.604 256.75 215.602 256.716C215.601 256.683 215.593 256.649 215.578 256.619C215.564 256.588 215.544 256.561 215.519 256.538C215.493 256.515 215.464 256.498 215.432 256.486C212.304 255.368 208.787 256.908 208.652 256.971C208.62 256.986 208.592 257.007 208.568 257.034C208.545 257.06 208.526 257.09 208.515 257.124C208.503 257.157 208.498 257.192 208.5 257.228C208.502 257.263 208.511 257.297 208.526 257.329C208.541 257.361 208.563 257.389 208.589 257.413C208.615 257.436 208.646 257.455 208.679 257.466C208.712 257.478 208.748 257.483 208.783 257.481C208.818 257.479 208.853 257.47 208.884 257.455C208.918 257.455 212.342 255.949 215.248 256.971C215.285 256.985 215.325 256.991 215.365 256.99Z" fill="#F0F0F0"/>
<path d="M215.292 254.607C215.341 254.602 215.387 254.583 215.426 254.553C215.466 254.523 215.496 254.483 215.514 254.437C215.527 254.406 215.533 254.372 215.532 254.338C215.531 254.303 215.523 254.27 215.509 254.239C215.495 254.208 215.475 254.18 215.45 254.156C215.425 254.133 215.396 254.115 215.364 254.103C211.926 252.805 208.584 254.5 208.463 254.587C208.433 254.605 208.407 254.627 208.387 254.654C208.366 254.681 208.351 254.712 208.343 254.745C208.334 254.778 208.332 254.812 208.337 254.846C208.342 254.879 208.353 254.912 208.371 254.941C208.387 254.971 208.41 254.997 208.437 255.018C208.464 255.039 208.495 255.054 208.528 255.063C208.561 255.072 208.595 255.073 208.629 255.068C208.663 255.063 208.695 255.051 208.724 255.033C208.753 255.033 211.979 253.401 215.18 254.602C215.217 254.61 215.254 254.612 215.292 254.607Z" fill="#F0F0F0"/>
<path d="M215.161 252.258C215.209 252.254 215.255 252.237 215.294 252.207C215.332 252.178 215.362 252.139 215.379 252.094C215.392 252.062 215.399 252.029 215.399 251.995C215.398 251.96 215.391 251.927 215.378 251.896C215.364 251.864 215.344 251.836 215.32 251.813C215.295 251.789 215.266 251.771 215.234 251.76C212.013 250.491 208.419 252.244 208.284 252.297C208.224 252.331 208.179 252.387 208.16 252.453C208.141 252.519 208.149 252.59 208.182 252.651C208.198 252.681 208.22 252.708 208.247 252.729C208.274 252.751 208.304 252.767 208.337 252.776C208.37 252.786 208.405 252.788 208.439 252.784C208.473 252.78 208.506 252.769 208.535 252.752C208.569 252.752 212.052 251.062 215.045 252.239C215.081 252.257 215.121 252.264 215.161 252.258Z" fill="#EBEBEB"/>
<path d="M209.451 150.387C212.512 156.199 214.134 161.715 214.168 178.811C214.202 195.908 213.572 200.775 213.601 202.838C213.63 204.902 215.437 209.493 215.485 219.702C215.524 228.352 215.446 234.91 215.446 234.91C215.446 234.91 214.444 236.954 210.555 237.239C208.431 237.399 206.301 237.016 204.365 236.125C204.365 236.125 200.006 221.795 198.805 215.639C197.444 208.524 194.727 191.597 194.727 191.597L192.79 205.362C192.954 209.414 192.77 213.473 192.238 217.494C191.061 226.391 189.603 233.147 189.603 233.147C187.535 233.685 185.406 233.953 183.269 233.946C181.405 233.875 179.582 233.378 177.941 232.493C177.941 232.493 175.897 213.489 175.723 200.901C175.582 190.808 176.29 165.299 177.307 150.397L209.451 150.387Z" fill="#37474F"/>
<path d="M181.908 165.59C183.361 169.784 188.848 172.796 191.274 173.416L193.183 191.607L192.756 205.362L194.694 191.598L192.321 170.171C192.321 170.171 185.593 169.581 181.908 165.59ZM205.024 163.938C205.397 165.585 205.731 167.241 206.09 168.893C206.448 170.544 206.792 172.201 207.17 173.867C207.219 172.16 207.135 170.451 206.918 168.757C206.722 167.062 206.441 165.378 206.075 163.711C205.709 162.041 205.25 160.394 204.7 158.775C204.161 157.149 203.452 155.584 202.583 154.107C203.067 155.744 203.494 157.376 203.896 159.013C204.298 160.65 204.675 162.316 205.024 163.938ZM207.93 160.834C208.463 161.832 208.966 162.839 209.475 163.846L210.976 166.931C210.879 165.775 210.635 164.636 210.25 163.541C209.879 162.442 209.421 161.375 208.879 160.35C208.338 159.325 207.727 158.34 207.049 157.4C206.381 156.454 205.624 155.575 204.787 154.775C205.271 155.831 205.809 156.838 206.341 157.846C206.874 158.853 207.431 159.826 207.949 160.834H207.93ZM204.734 203.938C203.93 199.182 203.382 194.378 202.84 189.573C202.297 184.769 201.794 179.95 201.203 175.141C201.416 179.984 201.687 184.827 202.084 189.67C202.481 194.513 202.98 199.327 203.77 204.122C204.559 208.917 205.484 213.653 206.4 218.409C207.315 223.165 208.274 227.907 209.305 232.639C208.66 227.844 207.943 223.056 207.155 218.274C206.404 213.46 205.581 208.67 204.753 203.923L204.734 203.938ZM181.932 186.919L183.056 172.995C182.261 177.586 181.627 182.197 181.118 186.827C180.61 191.457 180.15 196.078 180.058 200.785C180.14 205.468 180.416 210.099 180.721 214.743C181.026 219.388 181.414 224.027 181.883 228.658C181.832 224.002 181.724 219.351 181.559 214.704L181.322 207.735C181.244 205.415 181.142 203.086 181.133 200.785C181.123 198.485 181.307 196.17 181.452 193.855C181.598 191.539 181.782 189.224 181.951 186.905L181.932 186.919Z" fill="#263238"/>
<path d="M183.651 120.374C178.972 121.774 175.665 122.951 172.512 127.561C168.904 132.835 162.917 141.989 162.307 147.903C164.399 148.019 172.25 148.082 172.25 148.082L178.546 137.165L183.651 120.374Z" fill="#37474F"/>
<path d="M212.492 157.056C212.008 149.588 211.776 146.948 211.776 142.885C211.776 138.821 212.027 136.821 212.095 133.823C212.265 126.452 209.586 122.021 208.085 120.747C208.085 120.747 205.765 120.292 202.472 119.555C201.343 119.308 200.341 119.178 198.631 118.935C194.834 118.403 193.052 118.935 191.628 119.086C190.931 119.153 188.238 119.279 188.238 119.279C187.235 119.512 183.666 120.374 183.661 120.374C182.47 122.053 181.388 123.806 180.421 125.624C178.779 128.554 177.559 130.564 177.263 137.131C176.861 146.033 176.721 157.86 176.721 157.86C180.828 163.367 205.61 165.071 212.492 157.056Z" fill="#455A64"/>
<path d="M203.547 95.1411C202.83 90.7386 195.183 85.4208 186.528 89.9201C177.873 94.4194 180.232 99.9068 180.615 101.544C180.975 102.915 181.164 104.325 181.176 105.743C181.195 107.038 180.789 108.304 180.019 109.346C179.644 109.804 179.124 110.119 178.545 110.24C177.966 110.361 177.363 110.28 176.837 110.01C177.011 112.005 178.145 113.594 181.133 114.921C182.375 115.406 183.718 115.572 185.041 115.405C184.586 115.705 183.918 116.18 181.956 116.059C183.157 117.623 187.768 119.27 192.04 116.669C192.25 116.571 192.486 116.543 192.713 116.591C192.987 116.646 193.249 116.753 193.483 116.906C195.386 117.875 197.88 117.749 199.924 117.391C201.074 117.225 202.18 116.835 203.179 116.243C204.183 115.643 204.931 114.695 205.281 113.579C205.481 114.604 205.309 115.667 204.797 116.577C205.555 116.403 206.269 116.073 206.894 115.608C207.463 115.139 207.918 114.547 208.224 113.875C208.529 113.204 208.677 112.471 208.656 111.734C208.555 110.315 208.032 109.036 207.543 107.704C206.959 106.255 206.674 104.704 206.705 103.142C206.769 101.958 206.743 100.772 206.627 99.5919C206.39 97.4174 205.426 95.451 203.547 95.1411Z" fill="#263238"/>
<path d="M200.331 117.274C200.331 115.744 200.331 111.075 200.331 111.075C200.331 111.467 202.171 112.722 204.012 111.157C206.08 109.399 206.123 107.118 205.198 105.68C204.181 104.086 201.668 103.994 200.496 106.392C199.73 107.234 198.491 106.111 199.246 103.743C199.522 102.876 198.762 102.29 198.379 101.655C198.023 100.996 197.832 100.259 197.822 99.5096C197.667 97.3883 197.033 95.5091 194.577 95.3881C193.55 95.3696 192.536 95.6326 191.647 96.1484C191.238 96.4548 190.733 96.6059 190.223 96.5746C189.739 96.4584 189.429 95.9789 189.066 95.606C188.793 95.3005 188.441 95.077 188.048 94.9607C187.655 94.8443 187.238 94.8397 186.843 94.9473C185.477 95.4316 184.717 97.1897 184.378 98.4877C183.813 100.628 183.489 102.824 183.409 105.036C183.21 110.61 184.658 113.187 186.223 114.46C187.099 115.172 188.276 115.589 190.369 115.56C190.369 115.56 190.427 116.252 190.465 117.279C190.504 118.219 190.402 118.732 189.531 118.979C188.945 119.129 188.107 119.308 188.107 119.308C188.107 119.308 185.201 122.447 190.625 123.154C199.29 124.268 203.13 119.696 203.13 119.696C203.13 119.696 202.162 119.463 201.866 119.371C200.665 119.018 200.331 118.785 200.331 117.274Z" fill="#FFA8A7"/>
<path d="M190.374 115.555C194.137 115.444 197.663 114.039 198.936 111.051C198.847 111.806 198.596 112.533 198.2 113.182C197.804 113.83 197.272 114.386 196.641 114.809C194.773 115.959 192.638 116.604 190.446 116.679L190.374 115.555Z" fill="#F28F8F"/>
<path d="M185.521 99.3109L187.845 98.9041C187.826 98.7522 187.775 98.6059 187.697 98.4741C187.619 98.3422 187.515 98.2276 187.392 98.1371C187.268 98.0465 187.127 97.982 186.978 97.9473C186.829 97.9127 186.674 97.9087 186.523 97.9355C186.212 97.9924 185.934 98.1669 185.747 98.4229C185.561 98.6789 185.48 98.9968 185.521 99.3109Z" fill="#263238"/>
<path d="M195.565 99.9892L193.381 99.0206C193.436 98.8747 193.521 98.7418 193.63 98.63C193.739 98.5181 193.869 98.4298 194.014 98.3703C194.158 98.3109 194.313 98.2816 194.469 98.2844C194.625 98.2871 194.779 98.3217 194.921 98.3861C195.213 98.5208 195.442 98.7618 195.561 99.0598C195.681 99.3578 195.682 99.6903 195.565 99.9892Z" fill="#263238"/>
<path d="M187.617 102.508C187.616 102.768 187.515 103.018 187.335 103.205C187.154 103.393 186.909 103.504 186.649 103.515C186.392 103.515 186.146 103.413 185.964 103.231C185.782 103.05 185.68 102.803 185.68 102.546C185.681 102.286 185.782 102.036 185.963 101.849C186.143 101.661 186.389 101.55 186.649 101.539C186.906 101.539 187.152 101.641 187.334 101.823C187.515 102.004 187.617 102.251 187.617 102.508Z" fill="#263238"/>
<path d="M194.728 103.186C194.727 103.446 194.626 103.696 194.445 103.883C194.265 104.071 194.019 104.182 193.759 104.193C193.628 104.2 193.498 104.18 193.375 104.134C193.252 104.089 193.14 104.019 193.045 103.929C192.949 103.839 192.874 103.73 192.822 103.61C192.77 103.49 192.743 103.36 192.742 103.229C192.743 102.969 192.844 102.719 193.025 102.532C193.205 102.344 193.451 102.233 193.711 102.222C193.842 102.215 193.972 102.235 194.095 102.281C194.218 102.326 194.33 102.396 194.426 102.486C194.521 102.576 194.596 102.685 194.648 102.805C194.7 102.925 194.727 103.055 194.728 103.186Z" fill="#263238"/>
<path d="M198.031 100.934L203.717 104.58C203.403 104.5 203.076 104.482 202.755 104.529C202.434 104.575 202.125 104.685 201.847 104.852L197.75 102.261L198.031 100.934Z" fill="#455A64"/>
<path d="M182.464 101.234C182.837 101.965 182.687 103.268 183.036 104.106C183.385 105.772 186.291 106.886 187.947 105.346C188.212 105.079 188.433 104.772 188.601 104.435C189.041 103.592 189.022 102.362 189.666 102.26C191.434 102.149 189.618 106.697 194.413 106.74C196.737 106.794 197.318 104.609 197.677 102.866C197.812 102.382 198.229 102.289 198.321 101.66C198.413 101.03 197.895 100.798 197.386 100.749C195.933 100.473 193.86 100.217 192.684 100.454C191.231 100.759 190.678 101.195 189.87 101.127C189.061 101.059 188.659 100.551 187.312 100.018C186.116 99.5337 184.106 99.4708 182.619 99.5337C181.874 99.6645 182.116 100.885 182.464 101.234ZM191.589 101.776C192.664 100.686 196.098 100.861 196.766 101.67C197.134 102.154 196.766 103.709 196.514 104.435C196.481 104.527 196.442 104.614 196.403 104.701C196.069 105.67 195.008 106.101 193.982 106.033C193.613 106.028 193.25 105.944 192.916 105.788C192.582 105.632 192.285 105.407 192.044 105.128C191.731 104.734 191.527 104.265 191.453 103.767C191.332 103.035 191.289 102.173 191.589 101.776ZM185.346 100.246C187.981 100.686 188.974 101.369 188.024 103.98C187.676 105.229 185.816 105.781 184.552 105.036C183.583 104.469 183.414 103.34 183.331 102.822C183.012 100.667 183.167 100.115 185.346 100.26V100.246Z" fill="#455A64"/>
<path d="M186.693 106.135L189.696 107.835L190.538 103.084C190.489 102.849 190.379 102.632 190.219 102.454L186.693 106.135Z" fill="#F28F8F"/>
<path d="M192.616 108.295L188.867 109.293C188.921 109.545 189.024 109.783 189.172 109.994C189.32 110.204 189.509 110.383 189.727 110.518C189.946 110.654 190.189 110.744 190.443 110.783C190.698 110.822 190.957 110.81 191.206 110.746C191.713 110.6 192.143 110.263 192.406 109.806C192.669 109.348 192.744 108.807 192.616 108.295Z" fill="#B16668"/>
<path d="M192.19 108.939C192.351 108.921 192.513 108.921 192.674 108.939C192.651 109.355 192.499 109.754 192.239 110.08C191.978 110.406 191.622 110.642 191.221 110.755C191.019 110.81 190.809 110.826 190.601 110.804C190.577 110.349 190.729 109.902 191.024 109.555C191.32 109.208 191.737 108.988 192.19 108.939Z" fill="#F28F8F"/>
<path d="M208.085 120.747C213.683 122.471 214.216 125.338 214.294 127.527C214.405 130.554 212.323 136.938 210.671 141.805C207.581 150.896 204.695 154.601 201.469 154.601L198.936 141.975L201.755 133.005C201.755 133.005 204.268 122.941 208.085 120.747Z" fill="#37474F"/>
<path d="M187.898 130.409C191.187 133.271 194.471 136.047 197.415 138.463C199.924 140.517 201.692 141.917 202.655 143.573C203.619 145.229 204.23 151.477 203.082 153.714C201.934 155.952 195.909 153.714 193.545 151.37C191.182 149.026 189.38 144.74 187.438 141.626C185.496 138.512 184.072 136.429 182.401 135.553L187.898 130.409Z" fill="#FFA8A7"/>
<path d="M182.421 135.552L182.905 135.102C184.673 135.828 185.864 137.01 187.288 139.112C189.095 141.771 191.565 149.975 194.626 152.242C194.251 151.98 193.898 151.688 193.57 151.37C191.211 149.04 189.405 144.74 187.463 141.626C185.521 138.511 184.092 136.429 182.421 135.552Z" fill="#F28F8F"/>
<path d="M171.916 135.422C172.255 135.983 171.625 136.947 171.19 137.548C170.112 138.797 168.855 139.879 167.46 140.759C165.596 141.96 163.789 143.611 162.903 145.515C162.017 147.418 162.08 151.017 162.946 152.295C163.813 153.574 165.92 153.119 167.79 152.237C170.366 151.021 171.776 149.108 173.698 146.29C175.791 143.219 177.389 140.609 178.653 139.069C179.917 137.528 171.916 135.422 171.916 135.422Z" fill="#FFA8A7"/>
<path d="M171.035 149.041C172.255 147.408 175.481 140.163 174.754 138.792C174.028 137.422 172.018 136.511 171.534 137.015C171.873 136.468 172.154 135.838 171.902 135.422C171.902 135.422 179.903 137.543 178.643 139.083C177.384 140.623 175.781 143.234 173.689 146.304C171.752 149.123 170.357 151.036 167.78 152.252C168.982 151.306 170.073 150.229 171.035 149.041Z" fill="#F28F8F"/>
<path d="M169.519 134.376C170.652 134.487 171.587 135.18 172.478 135.829C173.369 136.478 176.314 138.579 178.004 138.681C179.694 138.783 172.555 132.535 169.519 134.376Z" fill="#B16668"/>
<path d="M174.274 131.484C172.526 131.145 171.272 131.901 169.673 132.017C168.075 132.133 167.14 131.973 166.027 132.642C164.913 133.31 164.457 134.211 165.838 134.618C167.218 135.025 168.535 134.322 169.882 134.41C171.272 134.429 172.605 134.966 173.621 135.916C175.122 137.146 177.214 139.306 178.464 140.105C179.713 140.904 180.44 140.299 180.44 140.299C180.874 140.812 181.408 141.232 182.009 141.534C182.14 141.585 182.282 141.601 182.421 141.579C182.56 141.557 182.691 141.498 182.799 141.409C182.908 141.319 182.991 141.203 183.039 141.07C183.088 140.938 183.1 140.796 183.074 140.657C183.743 140.725 184.319 140.371 184.164 139.548C184.009 138.725 182.711 137.209 182.711 137.209C182.711 137.209 183.491 137.863 183.903 138.178C184.673 138.744 185.462 138.129 184.997 137.001C184.532 135.872 180.638 132.642 179.185 132.157C178.285 131.855 177.314 131.833 176.401 132.094C175.71 131.834 174.998 131.63 174.274 131.484Z" fill="#FFA8A7"/>
<path d="M183.273 137.015C184.435 137.959 184.818 138.105 185.065 137.93C184.91 138.415 184.392 138.545 183.883 138.168C183.472 137.863 182.692 137.199 182.692 137.199L179.825 134.259C179.825 134.259 182.086 136.032 183.273 137.015Z" fill="#F28F8F"/>
<path d="M179.467 135.421C179.694 135.877 180.513 136.618 181.205 137.519C181.819 138.393 182.518 139.204 183.293 139.94C183.356 139.994 183.43 140.034 183.51 140.058C183.589 140.082 183.673 140.091 183.755 140.082C183.838 140.073 183.918 140.048 183.991 140.008C184.064 139.968 184.128 139.913 184.179 139.848C184.15 140.449 183.641 140.705 183.065 140.647C182.963 140.037 182.121 138.976 181.317 137.983C180.513 136.991 178.934 135.455 179.021 135.194C179.108 134.932 179.239 134.966 179.467 135.421Z" fill="#F28F8F"/>
<path d="M177.728 135.736C177.471 135.441 177.936 135.015 178.125 135.426C178.314 135.838 178.081 135.867 178.677 136.564C179.273 137.262 180.445 138.502 180.755 138.938C181.011 139.213 181.186 139.553 181.262 139.921C181.338 140.289 181.312 140.671 181.186 141.025C180.918 140.803 180.669 140.56 180.44 140.299C180.808 139.998 180.784 139.18 180.116 138.434C179.447 137.688 177.98 136.037 177.728 135.736Z" fill="#F28F8F"/>
<path d="M164.991 133.935C165.267 134.356 166.633 134.337 167.533 134.022C168.434 133.707 170.439 133.17 171.558 133.388C172.677 133.606 173.839 134.356 175.035 135.887C176.232 137.417 177.869 139.18 178.876 139.844C179.883 140.507 180.285 140.386 180.285 140.386C180.014 140.522 179.375 140.696 178.455 140.105C177.215 139.311 175.123 137.146 173.612 135.916C172.596 134.966 171.263 134.429 169.873 134.41C168.526 134.322 167.209 135.025 165.829 134.618C165.281 134.453 165.029 134.226 164.991 133.935Z" fill="#F28F8F"/>
<path d="M182.28 135.112C181.244 134.89 180.186 134.788 179.127 134.807C177.19 134.618 175.359 134.439 175.02 133.945C174.681 133.451 173.495 132.259 173.47 131.717C173.471 131.552 173.505 131.388 173.571 131.237C173.637 131.085 173.733 130.949 173.853 130.835C173.541 130.522 173.301 130.143 173.151 129.726C173.06 129.243 173.15 128.743 173.403 128.322C173.147 128.098 172.963 127.803 172.875 127.474C172.797 127.136 172.851 126.78 173.026 126.48C173.202 126.18 173.486 125.959 173.819 125.861C173.611 125.686 173.451 125.461 173.353 125.207C173.254 124.953 173.222 124.678 173.257 124.409C173.325 123.701 174.226 123.193 175.422 123.44C176.619 123.687 178.967 124.409 179.5 124.04C180.033 123.672 179.776 121.793 179.844 120.587C179.912 119.381 180.692 117.367 181.83 117.57C182.435 117.681 182.116 119.546 182.411 121.202C182.706 122.859 184.29 124.757 185.147 126.816C185.554 127.784 186.644 129.072 187.942 130.414C187.719 132.739 185.574 135.165 183.951 135.649C183.415 135.41 182.855 135.23 182.28 135.112Z" fill="#FFA8A7"/>
<path d="M179.476 124.055C179.805 123.837 179.834 123.047 179.825 122.185C180.052 123.008 181.084 123.982 180.619 124.364C180.154 124.747 178.536 124.185 177.485 123.948C178.367 124.113 179.18 124.224 179.476 124.055Z" fill="#F28F8F"/>
<path d="M173.307 126.128C173.448 126.005 173.613 125.913 173.791 125.856C173.791 125.856 175.07 126.491 176.213 126.961C175.197 126.886 174.208 126.602 173.307 126.128Z" fill="#F28F8F"/>
<path d="M173.369 128.317C174.009 128.772 175.394 129.499 175.394 129.499C175.394 129.499 173.984 129.155 173.146 128.845C173.202 128.661 173.276 128.484 173.369 128.317Z" fill="#F28F8F"/>
<path d="M173.853 130.835C174.487 131.342 175.148 131.815 175.834 132.249C175.05 131.994 174.29 131.67 173.562 131.281C173.626 131.113 173.725 130.961 173.853 130.835Z" fill="#F28F8F"/>
<path d="M173.805 132.419C174.4 133.175 175.18 133.945 177.34 134.182C179.176 134.385 181.084 134.395 182.9 135.102C183.265 135.255 183.62 135.433 183.961 135.635H183.903C182.164 135.02 180.842 134.957 179.127 134.792C177.19 134.603 175.359 134.424 175.02 133.93C174.798 133.601 174.192 132.962 173.805 132.405V132.419Z" fill="#F28F8F"/>
<path d="M179.128 134.807L177.399 134.56C176.825 134.492 176.256 134.382 175.699 134.23C175.425 134.181 175.179 134.031 175.011 133.809C174.827 133.577 174.638 133.354 174.444 133.136C174.25 132.918 174.066 132.7 173.887 132.467C173.692 132.253 173.55 131.996 173.471 131.717C173.527 132.005 173.648 132.277 173.824 132.511C173.989 132.753 174.173 132.995 174.352 133.213C174.531 133.431 174.725 133.664 174.899 133.891C174.939 133.958 174.986 134.02 175.04 134.075C175.1 134.127 175.165 134.172 175.234 134.211C175.366 134.283 175.505 134.34 175.65 134.381C176.219 134.528 176.799 134.629 177.384 134.681C177.965 134.744 178.546 134.778 179.128 134.807Z" fill="#B16668"/>
<path d="M176.759 126.907C176.888 127.011 177.01 127.125 177.123 127.246C177.254 127.372 177.407 127.473 177.573 127.547C177.672 127.585 177.774 127.615 177.878 127.634L178.396 127.673C178.467 127.682 178.535 127.707 178.595 127.745C178.599 127.749 178.602 127.753 178.605 127.758C178.607 127.763 178.608 127.769 178.608 127.774C178.608 127.78 178.607 127.785 178.605 127.79C178.602 127.795 178.599 127.8 178.595 127.803C178.487 127.855 178.37 127.883 178.251 127.886C178.125 127.886 178.004 127.934 177.878 127.934C177.693 127.932 177.512 127.883 177.35 127.794C177.203 127.694 177.079 127.563 176.987 127.411C176.878 127.269 176.803 127.103 176.769 126.927L176.759 126.907Z" fill="#F28F8F"/>
<path d="M175.994 129.382C176.12 129.488 176.24 129.601 176.352 129.721C176.487 129.845 176.641 129.947 176.808 130.022C176.905 130.06 177.005 130.089 177.108 130.109C177.19 130.109 177.592 130.143 177.631 130.152C177.701 130.16 177.767 130.185 177.825 130.225C177.825 130.225 177.825 130.273 177.825 130.283C177.716 130.331 177.599 130.357 177.481 130.361C177.358 130.384 177.233 130.4 177.108 130.409C176.925 130.407 176.745 130.359 176.585 130.269C176.436 130.169 176.311 130.038 176.217 129.886C176.107 129.744 176.033 129.578 175.999 129.402C175.999 129.402 175.989 129.382 175.994 129.382Z" fill="#F28F8F"/>
<path d="M175.791 131.547C175.917 131.653 176.037 131.766 176.149 131.886C176.284 132.01 176.438 132.112 176.605 132.186C176.702 132.226 176.802 132.255 176.905 132.274C176.987 132.274 177.389 132.307 177.423 132.317C177.494 132.325 177.561 132.348 177.622 132.385C177.622 132.385 177.622 132.438 177.622 132.443C177.514 132.495 177.397 132.523 177.278 132.525C177.155 132.549 177.03 132.565 176.905 132.574C176.72 132.571 176.539 132.523 176.377 132.433C176.23 132.333 176.106 132.203 176.014 132.051C175.904 131.909 175.83 131.743 175.796 131.566L175.791 131.547Z" fill="#F28F8F"/>
<path d="M227.612 82.854C224.258 85.0216 221.855 88.3843 220.89 92.2595L220.541 94.0272C220.025 97.9441 221.001 101.912 223.276 105.142C225.551 108.372 228.959 110.627 232.82 111.46C236.682 112.293 240.716 111.643 244.121 109.637C247.525 107.632 250.05 104.42 251.194 100.638L251.61 98.8849C252.16 95.8674 251.815 92.7551 250.618 89.9311C249.421 87.1071 247.425 84.6948 244.874 82.9911C242.324 81.2873 239.331 80.3666 236.264 80.3423C233.197 80.3179 230.189 81.191 227.612 82.854Z" fill="white"/>
<path d="M226.876 81.7401C223.49 83.9316 220.988 87.2495 219.812 91.1074C218.636 94.9653 218.862 99.1148 220.449 102.822L217.335 107.104C217.205 107.263 217.128 107.459 217.116 107.664C217.105 107.869 217.158 108.073 217.27 108.245C217.382 108.418 217.545 108.55 217.737 108.624C217.929 108.697 218.139 108.708 218.338 108.654L223.534 107.588C225.73 109.991 228.567 111.717 231.711 112.561C234.855 113.405 238.175 113.332 241.279 112.352C244.383 111.371 247.142 109.524 249.231 107.027C251.32 104.531 252.652 101.489 253.069 98.2603C253.486 95.0319 252.972 91.7515 251.586 88.8058C250.201 85.8601 248.002 83.3719 245.249 81.6346C242.496 79.8973 239.304 78.9833 236.049 79.0002C232.793 79.0172 229.611 79.9645 226.876 81.7305V81.7401ZM249.363 87.5519C251.526 90.9009 252.33 94.9491 251.61 98.8704L251.194 100.624C250.048 104.401 247.524 107.61 244.122 109.613C240.72 111.616 236.69 112.267 232.831 111.436C228.972 110.606 225.566 108.355 223.289 105.13C221.013 101.905 220.032 97.9418 220.541 94.0273L220.876 92.2595C221.618 89.2814 223.216 86.5855 225.472 84.5042C227.728 82.4229 230.543 81.047 233.571 80.5461C236.6 80.0452 239.708 80.4411 242.514 81.6851C245.32 82.9291 247.701 84.9668 249.363 87.5471V87.5519Z" fill="#455A64"/>
<path d="M244.767 91.223C243.798 88.0701 241.13 86.1231 237.986 85.5807C236.278 85.2514 234.509 85.5598 233.012 86.4476C231.681 87.2806 230.329 88.8692 230.45 90.5159C230.45 90.729 231.032 91.0002 231.128 90.6999C231.237 90.1715 231.419 89.6611 231.671 89.184C232.06 88.5881 232.543 88.0583 233.1 87.6148C234.267 86.8082 235.676 86.43 237.09 86.5445C239.856 86.6462 242.205 87.8667 243.425 90.419C243.973 91.6443 244.172 92.9968 244.001 94.3279C243.83 95.659 243.296 96.9173 242.457 97.9647C241.607 98.9954 240.616 99.9004 239.512 100.653C238.292 101.578 237.386 102.202 236.606 103.336C236.257 103.923 235.867 104.484 235.439 105.016C235.192 105.277 234.89 105.478 234.554 105.604C234.219 105.731 233.859 105.78 233.502 105.748C232.659 105.675 231.854 105.368 231.177 104.861C230.792 104.579 230.479 104.21 230.262 103.784C230.046 103.359 229.933 102.888 229.932 102.411C229.903 101.834 229.24 101.96 229.215 102.619C229.125 103.297 229.283 103.986 229.661 104.556C230.084 105.246 230.691 105.805 231.414 106.169C232.746 106.794 234.635 107.017 235.836 106.048C237.037 105.079 237.439 103.626 238.582 102.658C239.827 101.631 240.931 100.88 242.132 99.7905C244.505 97.6692 245.721 94.3226 244.767 91.223Z" fill="#BA68C8"/>
<path d="M241.28 91.32C241.435 91.1117 241.28 90.7146 241.227 90.5063C241.16 90.3317 241.067 90.1684 240.951 90.022C240.089 88.8693 238.437 88.3996 237.052 88.5255C235.178 88.6998 232.839 90.2012 233.003 92.3322C233.038 92.8079 233.227 93.2594 233.542 93.6178C233.856 93.9762 234.279 94.2221 234.747 94.3179C235.667 94.468 236.398 93.9014 237.241 93.6544C238.491 93.2911 238.989 94.623 239.004 95.6401C239.048 96.2327 238.984 96.8285 238.815 97.3982C238.626 97.8825 238.19 98.0375 237.716 98.1488C237.259 98.2207 236.816 98.3628 236.403 98.5702C235.885 98.8753 235.73 99.3645 235.434 99.8633C235.253 100.193 234.99 100.47 234.669 100.667C234.521 100.746 234.357 100.79 234.189 100.796C234.021 100.802 233.854 100.77 233.701 100.701C233.394 100.569 233.142 100.337 232.984 100.043C232.892 99.8924 232.839 99.6648 232.693 99.5582C232.388 99.3306 232.185 99.626 232.122 99.8972C232.094 100.073 232.103 100.252 232.148 100.423C232.193 100.595 232.273 100.756 232.383 100.895C232.614 101.176 232.914 101.392 233.254 101.522C233.594 101.652 233.961 101.691 234.321 101.636C235.024 101.513 235.652 101.122 236.074 100.546C236.369 100.149 236.461 99.5776 236.892 99.2725C237.271 99.0899 237.677 98.969 238.093 98.9141C238.474 98.8332 238.832 98.6677 239.14 98.4297C239.354 98.227 239.525 97.9831 239.643 97.7127C239.762 97.4422 239.824 97.1508 239.827 96.8557C239.934 95.8048 239.987 94.6521 239.343 93.7416C239.074 93.3414 238.68 93.041 238.223 92.8869C237.766 92.7328 237.271 92.7336 236.815 92.8892C236.069 93.1313 235.047 93.9159 234.345 93.204C233.434 92.2838 234.185 90.9083 235.008 90.2448C235.461 89.8823 235.986 89.6198 236.548 89.4746C237.11 89.3293 237.696 89.3046 238.268 89.4021C238.787 89.4965 239.281 89.6959 239.721 89.9881C240.101 90.2547 240.411 90.6084 240.626 91.0197C240.762 91.2376 240.961 91.6493 241.266 91.3539L241.28 91.32Z" fill="#BA68C8"/>
<path d="M226.125 99.8389C226.042 99.6346 226.044 99.4057 226.129 99.2023C226.214 98.9989 226.377 98.8377 226.581 98.754L246.399 90.5933C246.5 90.5513 246.608 90.5296 246.717 90.5295C246.826 90.5295 246.934 90.551 247.035 90.5928C247.136 90.6347 247.227 90.6961 247.304 90.7735C247.381 90.8508 247.442 90.9427 247.484 91.0437C247.526 91.1444 247.547 91.2525 247.548 91.3617C247.548 91.4708 247.526 91.5789 247.484 91.6798C247.442 91.7806 247.381 91.8721 247.304 91.9492C247.226 92.0262 247.134 92.0871 247.033 92.1285L227.215 100.275C227.115 100.318 227.007 100.341 226.898 100.342C226.789 100.344 226.681 100.324 226.58 100.283C226.479 100.243 226.386 100.183 226.308 100.106C226.23 100.03 226.168 99.9392 226.125 99.8389Z" fill="#455A64"/>
<path d="M84.8214 246.616C85.4413 239.351 84.8601 236.271 85.606 224.894C85.6931 221.988 85.8384 218.85 86.0661 216.075C86.841 206.742 88.323 203.56 88.4876 201.759C88.4876 201.759 88.0033 185.437 88.8557 164.999C89.2577 155.385 92.0958 152.504 94.3915 147.428L122.627 147.743C124.119 160.466 124.036 184.067 123.789 197.056C123.668 203.672 120.632 236.542 120.569 237.356C120.341 240.262 120.569 241.385 121.707 242.616C124.061 245.187 127.49 247.648 130.449 249.88C130.003 251.009 126.41 250.931 124.637 250.045C122.324 248.81 120.121 247.378 118.055 245.764C115.634 243.928 112.064 242.436 112.059 239.681C112.046 239.517 112.02 239.355 111.982 239.196C111.953 237.588 108.843 216.38 108.592 210.878C108.379 206.151 109.052 198.136 109.052 198.136L106.533 181.858C106.533 181.858 105.414 195.458 103.405 203.517C101.772 210.074 98.8956 218.729 97.0504 226.803C95.2584 236.106 92.6915 242.717 92.2072 247.376C92.0667 248.49 90.6671 259.412 90.1149 261.906C89.5628 264.4 84.0707 264.41 83.7704 260.099C83.5864 257.242 84.7051 247.987 84.8214 246.616Z" fill="#B16668"/>
<path d="M135.486 252.883C135.636 252.883 135.864 254.544 135.04 255.256C134.072 256.07 131.292 257.411 127.596 256.932C123.901 256.452 121.906 255.319 120.428 254.089C118.951 252.859 116.878 251.12 115.207 250.752C113.763 250.371 112.413 249.697 111.241 248.771C110.757 248.287 110.82 246.175 110.82 246.175L135.486 252.883Z" fill="#263238"/>
<path d="M111.909 238.431C111.909 238.431 111.628 238.431 111.531 238.915C111.42 239.496 111.294 241.196 111.047 242.16C110.727 243.709 110.673 245.301 110.887 246.868C111.091 247.953 113.851 249.168 115.469 249.774C117.37 250.601 119.135 251.711 120.704 253.067C122.438 254.491 126.09 255.92 128.497 255.973C132.173 256.026 134.551 255.038 135.278 253.721C136.188 252.098 135.476 251.154 131.258 249.207C130.459 248.839 127.65 247.182 126.695 246.582C125.68 245.953 124.719 245.241 123.823 244.451C123.37 244.053 122.94 243.629 122.535 243.182C122.111 242.786 121.75 242.327 121.465 241.821C121.416 241.71 121.387 241.584 121.344 241.468C121.224 241.153 121.132 240.829 121.068 240.499C121 240.145 120.961 239.637 120.627 239.429C120.149 239.231 119.626 239.169 119.116 239.249C118.569 239.289 118.025 239.365 117.489 239.477C116.864 239.617 116.147 239.671 115.774 240.252C115.53 240.721 115.41 241.244 115.425 241.773C115.425 242.02 115.425 242.257 115.425 242.514C115.425 242.615 115.469 242.804 115.319 242.761C115.169 242.717 115.023 242.354 114.97 242.228C114.854 241.952 114.776 241.661 114.65 241.39C114.511 241.074 114.336 240.775 114.127 240.499C113.779 240.239 113.409 240.007 113.023 239.806C112.773 239.658 112.53 239.496 112.297 239.322C112.082 239.07 111.947 238.76 111.909 238.431Z" fill="#37474F"/>
<path d="M131.945 249.541C126.618 249.904 124.947 253.174 124.719 255.193C125.929 255.654 127.204 255.922 128.497 255.988C132.173 256.041 134.701 255.053 135.437 253.74C136.299 252.205 135.718 250.97 131.945 249.541Z" fill="#FAFAFA"/>
<path d="M123.968 249.59C123.908 249.592 123.849 249.571 123.804 249.532C123.778 249.51 123.756 249.484 123.74 249.454C123.724 249.424 123.714 249.391 123.711 249.357C123.708 249.323 123.711 249.289 123.722 249.257C123.732 249.225 123.748 249.194 123.77 249.168C124.393 248.532 125.145 248.034 125.975 247.71C126.805 247.385 127.694 247.24 128.584 247.284C128.618 247.288 128.65 247.299 128.68 247.315C128.71 247.332 128.736 247.354 128.757 247.38C128.778 247.407 128.794 247.437 128.803 247.47C128.813 247.502 128.815 247.537 128.812 247.57C128.808 247.604 128.797 247.637 128.781 247.666C128.765 247.696 128.742 247.722 128.716 247.743C128.689 247.764 128.659 247.78 128.626 247.789C128.594 247.799 128.56 247.802 128.526 247.798C127.721 247.764 126.918 247.897 126.168 248.19C125.417 248.482 124.736 248.928 124.167 249.498C124.143 249.527 124.112 249.55 124.078 249.566C124.044 249.581 124.006 249.59 123.968 249.59Z" fill="#F0F0F0"/>
<path d="M121.678 248.263C121.618 248.263 121.56 248.242 121.514 248.205C121.462 248.16 121.429 248.098 121.423 248.03C121.417 247.962 121.437 247.894 121.48 247.841C122.101 247.202 122.852 246.702 123.683 246.377C124.513 246.052 125.403 245.909 126.294 245.957C126.328 245.96 126.36 245.97 126.39 245.986C126.42 246.002 126.446 246.023 126.467 246.05C126.488 246.076 126.504 246.106 126.514 246.138C126.523 246.171 126.526 246.205 126.522 246.238C126.519 246.273 126.509 246.306 126.493 246.336C126.477 246.366 126.455 246.393 126.428 246.415C126.401 246.437 126.37 246.453 126.338 246.462C126.305 246.472 126.27 246.475 126.236 246.471C125.431 246.436 124.629 246.569 123.878 246.861C123.128 247.152 122.446 247.597 121.877 248.166C121.853 248.195 121.822 248.219 121.788 248.236C121.754 248.253 121.717 248.262 121.678 248.263Z" fill="#F0F0F0"/>
<path d="M119.557 246.742C119.497 246.744 119.438 246.723 119.392 246.684C119.366 246.662 119.344 246.636 119.328 246.606C119.312 246.576 119.303 246.543 119.299 246.509C119.296 246.475 119.3 246.441 119.31 246.409C119.32 246.377 119.336 246.347 119.358 246.321C119.982 245.684 120.733 245.186 121.563 244.862C122.393 244.537 123.282 244.392 124.172 244.437C124.206 244.44 124.239 244.451 124.268 244.467C124.298 244.484 124.324 244.506 124.345 244.532C124.366 244.559 124.382 244.589 124.392 244.622C124.401 244.654 124.404 244.689 124.4 244.722C124.396 244.756 124.386 244.789 124.369 244.818C124.353 244.848 124.331 244.874 124.304 244.895C124.278 244.916 124.247 244.932 124.215 244.942C124.182 244.951 124.148 244.954 124.114 244.95C123.31 244.916 122.507 245.049 121.756 245.342C121.006 245.635 120.324 246.08 119.755 246.65C119.731 246.679 119.7 246.702 119.666 246.718C119.632 246.734 119.595 246.742 119.557 246.742Z" fill="#F0F0F0"/>
<path d="M117.479 245.226C117.43 245.225 117.383 245.211 117.342 245.185C117.301 245.159 117.268 245.122 117.247 245.078C117.226 245.034 117.217 244.986 117.222 244.937C117.227 244.889 117.246 244.843 117.275 244.805C118.297 243.526 120.602 242.683 122.53 242.896C122.564 242.899 122.598 242.909 122.628 242.925C122.658 242.941 122.685 242.964 122.707 242.99C122.728 243.017 122.745 243.048 122.754 243.081C122.764 243.114 122.767 243.148 122.763 243.182C122.754 243.25 122.719 243.312 122.666 243.354C122.613 243.397 122.545 243.417 122.477 243.41C120.738 243.221 118.602 243.991 117.682 245.129C117.658 245.16 117.627 245.184 117.592 245.201C117.556 245.218 117.518 245.226 117.479 245.226Z" fill="#F0F0F0"/>
<path d="M91.8292 263.882C91.6548 266.381 91.2431 268.028 90.3375 269.485C89.4318 270.943 87.7415 271.379 86.0464 270.938C84.3513 270.498 82.1719 269.321 81.7215 267.161C81.2711 265.001 80.995 263.519 81.4067 261.208L91.8292 263.882Z" fill="#263238"/>
<path d="M84.8894 245.725C84.1919 245.774 83.9207 249.115 83.4994 252.472C83.0151 256.065 81.9253 257.542 81.504 260.487C81.0197 263.853 81.5669 265.364 82.7293 267.418C83.8917 269.471 88.0568 271.515 90.1732 268.619C91.8926 266.255 91.9894 263.621 91.878 260.255C91.8217 257.408 91.9301 254.56 92.2025 251.726C92.372 249.207 92.9629 246.67 92.3575 246.398C92.3042 246.771 92.2558 247.241 92.1977 247.604C92.1706 248.059 92.0893 248.51 91.9555 248.946C91.8829 249.135 91.7231 249.328 91.6649 249.023C91.631 248.815 91.631 248.602 91.6649 248.394C91.7763 247.464 91.3065 247.386 91.0547 247.309C89.982 247.092 88.8989 246.931 87.8098 246.824C87.2722 246.781 85.4269 246.679 85.1799 246.984C85.0213 247.283 84.9366 247.615 84.9329 247.953C84.87 248.461 84.7441 248.83 84.7344 248.67C84.7053 248.306 84.7876 247.367 84.7973 247.134C84.807 246.902 84.8506 246.621 84.8555 246.403C84.8603 246.185 84.8748 245.938 84.8894 245.725Z" fill="#37474F"/>
<path d="M81.286 262.439C81.1365 264.24 81.5749 266.041 82.5355 267.572C83.6979 269.626 88.2165 271.679 90.3233 268.788C91.3694 267.335 91.6649 265.63 91.8295 263.882C90.6139 261.601 83.2862 260.545 81.286 262.439Z" fill="#FAFAFA"/>
<path d="M90.3422 260.201C90.3121 260.197 90.2827 260.189 90.255 260.177C90.226 260.177 87.0004 258.792 83.833 259.484C83.7656 259.499 83.6952 259.486 83.6371 259.449C83.5791 259.411 83.5381 259.353 83.523 259.286C83.5099 259.218 83.5232 259.149 83.5601 259.091C83.5971 259.033 83.655 258.992 83.7216 258.976C87.0731 258.249 90.3616 259.654 90.502 259.712C90.563 259.742 90.6095 259.795 90.6313 259.86C90.6531 259.924 90.6484 259.995 90.6183 260.056C90.594 260.106 90.554 260.148 90.5043 260.174C90.4545 260.2 90.3977 260.21 90.3422 260.201Z" fill="#F0F0F0"/>
<path d="M84.0218 256.976C83.9722 256.97 83.9253 256.95 83.8866 256.918C83.848 256.886 83.8193 256.844 83.8039 256.796C83.7933 256.764 83.7892 256.73 83.7918 256.697C83.7943 256.663 83.8035 256.63 83.8188 256.6C83.8341 256.57 83.8552 256.543 83.8809 256.521C83.9066 256.499 83.9364 256.482 83.9686 256.472C87.1263 255.445 90.594 257.072 90.749 257.145C90.7791 257.161 90.8056 257.182 90.8271 257.209C90.8487 257.235 90.8646 257.265 90.8741 257.298C90.8836 257.33 90.8864 257.364 90.8824 257.398C90.8784 257.432 90.8676 257.464 90.8507 257.494C90.8179 257.553 90.7631 257.598 90.698 257.618C90.6329 257.638 90.5626 257.631 90.502 257.6C90.4729 257.6 87.1118 256.007 84.1575 256.961C84.1139 256.976 84.0676 256.981 84.0218 256.976Z" fill="#F0F0F0"/>
<path d="M84.1577 254.607C84.1094 254.601 84.064 254.581 84.0263 254.55C83.9887 254.52 83.9604 254.479 83.9446 254.433C83.9331 254.401 83.9282 254.367 83.9301 254.333C83.9319 254.299 83.9406 254.265 83.9554 254.235C83.9703 254.204 83.9912 254.177 84.0167 254.154C84.0423 254.132 84.0721 254.114 84.1044 254.103C87.5769 252.912 90.8848 254.685 90.9865 254.762C91.0156 254.78 91.041 254.803 91.061 254.83C91.081 254.857 91.0952 254.888 91.1029 254.921C91.1106 254.954 91.1116 254.989 91.1057 255.022C91.0999 255.055 91.0873 255.087 91.0689 255.116C91.032 255.174 90.9737 255.215 90.9066 255.23C90.8395 255.246 90.769 255.234 90.7105 255.198C90.7105 255.198 87.5043 253.484 84.2739 254.593C84.2369 254.607 84.197 254.612 84.1577 254.607Z" fill="#F0F0F0"/>
<path d="M84.361 252.277C84.3123 252.273 84.2659 252.254 84.2273 252.224C84.1887 252.194 84.1594 252.154 84.143 252.108C84.1196 252.043 84.1227 251.971 84.1517 251.909C84.1807 251.846 84.2333 251.798 84.298 251.774C87.5526 250.607 91.0785 252.428 91.2286 252.505C91.2625 252.52 91.2928 252.542 91.3175 252.57C91.3423 252.597 91.3609 252.63 91.3721 252.665C91.3834 252.7 91.387 252.738 91.3827 252.774C91.3784 252.811 91.3664 252.847 91.3474 252.878C91.3284 252.91 91.3028 252.938 91.2724 252.959C91.242 252.98 91.2075 252.995 91.1711 253.001C91.1346 253.008 91.0972 253.007 91.0612 252.998C91.0252 252.99 90.9914 252.973 90.9622 252.951C90.9332 252.951 87.4994 251.173 84.4772 252.263C84.4402 252.277 84.4003 252.282 84.361 252.277Z" fill="#EBEBEB"/>
<path d="M91.4224 147.491C88.2017 153.172 88.0322 157.831 87.5479 174.831C87.0636 191.83 87.0636 198.383 86.9667 200.432C86.8699 202.48 86.4824 206.132 85.3346 216.22C84.6357 222.731 84.5529 229.294 85.0876 235.821C85.0876 235.821 85.7898 237.453 89.6692 237.84C93.2483 238.199 95.0354 236.872 95.0354 236.872C95.0354 236.872 99.9464 219.586 101.448 213.532C103.719 204.364 106.49 185.926 106.49 185.926L108.335 198.417C108.335 198.417 107.177 203.977 108.16 212.845C109.144 221.712 110.408 228.236 110.408 228.236C112.387 228.871 114.447 229.215 116.525 229.258C118.29 229.283 120.029 228.819 121.547 227.917C121.547 227.917 124.666 204.248 124.782 194.208C124.898 184.168 124.109 160.001 123.286 147.941L91.4224 147.491Z" fill="#37474F"/>
<path d="M85.737 236.552C85.9043 236.681 86.0807 236.797 86.2649 236.901C85.4609 221.02 87.7179 214.462 89.1272 208.403C89.2628 207.822 89.3887 207.265 89.505 206.737C90.5608 202.001 89.7132 194.043 89.7907 186.241C89.7907 183.892 89.8343 181.461 89.8876 178.884C89.9506 175.867 90.0813 172.743 90.3719 169.653C95.9415 169.058 97.2153 163.604 98.8184 156.722C99.0363 155.782 99.264 154.809 99.5061 153.816L99.0218 153.695C98.7748 154.698 98.5375 155.671 98.3292 156.601C96.7213 163.498 95.5444 168.505 90.4252 169.121C91.1129 162.108 92.653 155.322 96.1692 150.445L95.7575 150.15C90.5269 157.415 89.6067 168.738 89.3984 178.865C89.3452 181.446 89.3209 183.873 89.2967 186.227C89.2192 194 90.0668 201.933 89.0255 206.621C88.9093 207.149 88.7785 207.701 88.6477 208.282C87.2432 214.332 84.9863 220.831 85.737 236.552ZM109.924 168.215L106.49 185.926L108.335 198.417L108.519 186.416L110.829 174.467C110.892 175.659 110.965 176.889 111.033 178.124C111.619 188.392 111.972 196.276 111.406 198.717C109.846 205.415 110.229 209.653 110.921 217.344C110.994 218.129 111.067 218.942 111.144 219.799C111.527 224.158 112.026 225.907 112.316 228.706L112.839 228.837C112.549 226.042 112.04 224.197 111.648 219.756C111.575 218.899 111.498 218.08 111.43 217.3C110.733 209.658 110.35 205.449 111.914 198.833C112.5 196.32 112.171 188.9 111.561 178.095C111.449 176.133 111.343 174.22 111.241 172.428L111.725 170.273C114.147 169.721 118.084 167.91 118.835 164.578C116.452 166.905 113.255 168.211 109.924 168.215Z" fill="#263238"/>
<path d="M115.823 114.945C118.966 115.812 120.807 115.982 124.928 120.437C132.193 128.312 137.216 132.322 138.998 135.117L128.604 140.619L116.012 127.789L115.823 114.945Z" fill="#B16668"/>
<path d="M125.906 137.868L132.463 133.451C129.635 133.184 126.167 135.509 124.564 136.497L125.906 137.868Z" fill="#9A4A4D"/>
<path d="M115.392 114.586C121.542 115.637 122.172 117.202 125.412 120.437C128.652 123.672 132.289 127.857 132.289 127.857C132.289 127.857 130.139 128.365 127.407 130.671C124.933 132.768 123.615 136.095 123.615 136.095L115.498 127.784L115.392 114.586Z" fill="#BA68C8"/>
<path d="M96.8954 113.158L87.5045 116.548C87.5045 116.548 83.5816 118.354 86.2259 132.555C86.8894 136.134 88.2455 141.345 88.6136 145.772C88.8267 148.285 88.4538 154.262 88.1293 159.439C88.1293 159.439 96.1689 164.694 110.543 163.091C121.828 161.832 123.935 156.707 123.935 156.707C123.935 156.707 123.203 144.154 122.264 135.761C120.913 123.706 118.501 116.964 115.401 114.601L108.955 113.884L96.8954 113.158Z" fill="#455A64"/>
<path d="M93.316 101.883C93.9744 104.125 94.9619 106.256 96.2461 108.208C96.6204 108.836 97.2223 109.296 97.9267 109.492L97.6942 105.041L97.4472 101.936C97.4472 101.936 99.8688 99.602 100.014 97.3644C100.076 96.5322 100.018 95.6953 99.8397 94.8799L114.669 95.4804C114.669 95.4804 115.929 91.6883 113.899 88.7775C111.962 85.9878 109.143 84.2443 104.184 84.6463C98.1301 85.1306 95.0692 88.2012 94.706 90.7196C93.7107 91.1612 92.9186 91.962 92.4878 92.962C91.9502 94.0905 91.5967 96.1246 93.316 101.883Z" fill="#263238"/>
<path d="M93.9409 106.087C94.0783 106.181 94.2224 106.265 94.372 106.339C94.7578 106.547 95.1841 106.669 95.6215 106.697C95.9981 106.665 96.3617 106.544 96.6822 106.344C97.0461 106.147 97.3737 105.89 97.6508 105.583L96.8468 113.778C99.7527 119.28 113.12 120.558 108.65 114.746L108.814 111.768C109.477 111.737 110.136 111.654 110.785 111.521C111.85 111.312 112.834 110.806 113.622 110.061C114.411 109.316 114.972 108.363 115.241 107.312C116.04 104.014 115.406 97.1415 114.757 93.267C114.578 92.1773 113.44 90.9181 112.451 90.458C109.991 89.3101 107.792 91.1166 104.451 92.5357C103.065 93.1265 99.6752 93.4559 98.7696 93.0587C99.3984 93.8487 99.74 94.829 99.7382 95.8387C99.7413 96.5802 99.6134 97.3163 99.3604 98.0133C99.0772 98.6164 98.8487 99.2437 98.6775 99.8876C98.6654 100.196 98.5551 100.493 98.3627 100.735C98.2052 100.85 98.014 100.909 97.8193 100.903C97.6246 100.896 97.4375 100.826 97.2876 100.701C96.9844 100.45 96.7157 100.16 96.4884 99.8392C96.1749 99.4288 95.7468 99.1204 95.2583 98.9529C94.7819 98.8347 94.281 98.8641 93.8217 99.0371C93.3624 99.21 92.9666 99.5185 92.6865 99.9215C92.1472 100.754 91.9366 101.757 92.0957 102.735C92.1521 103.392 92.3455 104.029 92.6633 104.607C92.9811 105.184 93.4163 105.688 93.9409 106.087Z" fill="#B16668"/>
<path d="M108.8 111.787C106.146 111.845 103.782 111.574 102.199 110.949C100.615 110.325 99.1716 108.218 98.6582 106.106C98.7066 107.816 99.5251 110.828 101.932 112.025C104.339 113.221 106.988 113.163 108.713 113.158L108.8 111.787Z" fill="#9A4A4D"/>
<path d="M104.829 95.9307L102.853 97.3836C102.668 97.1083 102.595 96.7731 102.648 96.4458C102.701 96.1185 102.876 95.8236 103.138 95.6207C103.268 95.5263 103.416 95.4592 103.573 95.4236C103.73 95.3879 103.892 95.3845 104.05 95.4135C104.208 95.4425 104.359 95.5033 104.492 95.5922C104.626 95.6811 104.741 95.7962 104.829 95.9307Z" fill="#263238"/>
<path d="M113.799 96.1003L111.377 95.7225C111.392 95.5627 111.439 95.4075 111.516 95.2667C111.593 95.1259 111.698 95.0024 111.825 94.9039C111.951 94.8053 112.097 94.7339 112.252 94.6939C112.408 94.6539 112.57 94.6463 112.728 94.6715C113.054 94.7297 113.346 94.9096 113.545 95.1748C113.744 95.44 113.834 95.7708 113.799 96.1003Z" fill="#263238"/>
<path d="M104.242 98.7157C104.268 98.9029 104.348 99.0783 104.473 99.2205C104.598 99.3626 104.761 99.4652 104.943 99.5157C105.125 99.5661 105.318 99.5621 105.498 99.5043C105.678 99.4464 105.837 99.3372 105.956 99.1901C106.074 99.043 106.147 98.8643 106.166 98.6762C106.184 98.4882 106.147 98.2988 106.059 98.1315C105.971 97.9642 105.836 97.8263 105.671 97.7348C105.505 97.6432 105.317 97.602 105.128 97.6163C104.997 97.6263 104.868 97.6632 104.751 97.7247C104.634 97.7863 104.53 97.8712 104.447 97.9742C104.364 98.0772 104.303 98.1962 104.268 98.3237C104.233 98.4512 104.224 98.5846 104.242 98.7157Z" fill="#263238"/>
<path d="M111.595 97.9935C111.621 98.1807 111.701 98.3562 111.826 98.4983C111.95 98.6405 112.113 98.7431 112.296 98.7935C112.478 98.8439 112.671 98.84 112.851 98.7821C113.03 98.7243 113.19 98.6151 113.308 98.4679C113.427 98.3208 113.5 98.1422 113.518 97.9541C113.536 97.766 113.499 97.5766 113.411 97.4093C113.324 97.242 113.189 97.1041 113.023 97.0126C112.858 96.921 112.669 96.8799 112.481 96.8941C112.35 96.9074 112.224 96.9464 112.108 97.009C111.993 97.0716 111.891 97.1565 111.808 97.2588C111.726 97.361 111.665 97.4786 111.628 97.6047C111.591 97.7309 111.58 97.863 111.595 97.9935Z" fill="#263238"/>
<path d="M108.345 97.1172L109.289 103.442L112.82 101.989C111.711 100.052 110.181 98.3868 108.345 97.1172Z" fill="#9A4A4D"/>
<path d="M87.558 116.896C81.0198 119.972 81.4266 125.508 83.5721 131.591C85.3544 136.647 86.1923 138.139 88.856 143.791C90.7303 147.772 94.1544 151.104 97.1427 150.702C100.131 150.3 102.32 146.871 101.066 142.42C99.8112 137.969 94.7356 127.295 94.7356 127.295C94.7356 127.295 91.5924 118.267 87.558 116.896Z" fill="#B16668"/>
<path d="M100.208 139.868C99.4959 137.969 98.5467 135.717 97.6361 133.649C93.5001 139.132 93.7083 141.883 94.3379 144.972L97.4812 143.398L100.208 139.868Z" fill="#9A4A4D"/>
<path d="M83.102 131.804C80.9614 125.74 80.971 119.619 87.5045 116.538C91.5437 117.914 95.0065 127.397 95.0065 127.397L97.2683 132.288C97.2683 132.288 97.3942 133.993 92.7738 136.618C88.1535 139.243 86.192 138.88 86.192 138.88L83.102 131.804Z" fill="#BA68C8"/>
<path d="M113.508 113.7C113.444 113.598 113.389 113.491 113.343 113.381C113.29 113.193 113.26 112.999 113.256 112.804C113.23 112.319 113.029 111.859 112.689 111.511C112.53 111.378 112.36 111.258 112.181 111.153C112.118 111.118 112.062 111.072 112.016 111.017C111.881 110.848 111.929 110.601 111.895 110.387C111.836 110.157 111.693 109.956 111.495 109.824C111.296 109.691 111.056 109.637 110.82 109.671C110.561 109.723 110.317 109.834 110.107 109.996C109.897 110.157 109.727 110.364 109.609 110.601C109.59 110.64 109.559 110.674 109.522 110.697C109.479 110.71 109.434 110.71 109.391 110.697C109.177 110.686 108.963 110.719 108.762 110.794C108.575 110.869 108.409 110.987 108.277 111.138C108.005 111.524 107.848 111.979 107.822 112.451C107.711 113.216 107.648 113.986 107.532 114.761C107.304 116.267 107.28 117.831 106.563 119.212C106.5 119.342 106.389 119.483 106.248 119.464C106.108 119.444 106.059 119.289 106.03 119.158C105.73 117.817 106.427 116.345 105.289 115.231C104.321 114.262 104.321 116.296 104.185 116.829C104.035 117.55 103.889 118.282 103.739 118.994C103.435 120.175 103.3 121.393 103.337 122.612C103.429 123.759 103.822 124.873 103.86 126.002C103.899 127.13 103.793 128.719 103.124 129.673C100.306 133.702 98.3295 135.199 98.3295 135.199C98.3295 135.199 95.2299 138.696 94.6342 142.154C93.8012 146.997 94.8327 150.629 96.7652 150.673C97.666 150.673 99.2158 150.315 100.775 148.9C101.563 148.177 102.284 147.384 102.931 146.532C106.698 141.97 108.66 136.802 111.585 129.402C112.946 125.91 113.874 122.265 114.351 118.548C114.428 117.691 114.409 116.829 114.293 115.976C114.159 115.179 113.894 114.41 113.508 113.7Z" fill="#B16668"/>
<path d="M102.92 146.561C106.184 142.527 108.16 137.679 110.049 132.894C111.502 129.295 112.877 125.692 113.628 121.88C114.011 120.001 114.369 118.088 114.112 116.18C113.981 115.232 113.669 114.317 113.192 113.487C113.106 113.17 113.049 112.846 113.023 112.518C112.989 112.305 112.911 112.101 112.794 111.92C112.678 111.738 112.524 111.582 112.345 111.463C112.193 111.372 112.05 111.266 111.919 111.148C111.807 110.983 111.754 110.785 111.768 110.586C111.765 110.485 111.742 110.386 111.7 110.294C111.659 110.203 111.599 110.12 111.525 110.052C111.451 109.983 111.365 109.93 111.27 109.895C111.175 109.861 111.075 109.845 110.974 109.85C110.359 109.85 110.005 110.378 109.666 110.818C109.604 110.865 109.526 110.888 109.449 110.881C109.158 110.844 108.864 110.914 108.621 111.078C108.379 111.242 108.204 111.489 108.131 111.773C107.865 112.809 107.744 114.485 107.56 115.574C107.4 116.863 107.269 118.19 106.625 119.357C106.538 119.541 106.242 119.691 106.078 119.488C105.879 119.017 105.81 118.502 105.879 117.996C105.928 117.052 106.005 116.015 105.279 115.308C105.08 115.09 104.741 114.901 104.571 115.25C104.286 115.817 104.334 116.499 104.165 117.124L103.753 119.018L104.121 117.115C104.276 116.49 104.203 115.821 104.494 115.206C104.697 114.795 105.109 114.964 105.356 115.206C106.407 116.175 105.923 117.696 106.102 118.931C106.131 119.163 106.218 119.58 106.455 119.221C107.303 117.57 107.255 115.405 107.545 113.594C107.695 112.349 107.69 110.416 109.482 110.542L109.521 110.484C109.658 110.208 109.863 109.972 110.118 109.798C110.372 109.624 110.667 109.518 110.974 109.491C111.26 109.486 111.537 109.592 111.746 109.788C111.955 109.983 112.079 110.252 112.093 110.538C112.093 110.818 112.127 110.896 112.321 111.022C112.593 111.16 112.83 111.358 113.015 111.602C113.199 111.845 113.326 112.127 113.386 112.426C113.416 112.738 113.469 113.048 113.546 113.351C114.35 114.793 114.706 116.443 114.568 118.088C114.083 123.29 112.34 128.259 110.33 132.986C108.32 137.713 106.31 142.594 102.939 146.546L102.92 146.561Z" fill="#9A4A4D"/>
<path d="M109.691 110.823C109.822 111.118 109.876 111.441 109.851 111.763C109.851 112.732 109.812 113.7 109.744 114.669C109.652 115.802 109.546 117.425 109.444 118.543C109.869 116.636 110.066 114.685 110.03 112.732C109.986 112.097 110.064 111.371 109.691 110.823ZM111.459 118.96C112.06 116.387 112.224 113.732 111.943 111.104C111.769 113.691 111.832 116.393 111.459 118.96ZM113.11 119.347C113.559 117.42 113.639 115.425 113.347 113.468C113.314 115.182 113.188 117.609 113.11 119.347Z" fill="#9A4A4D"/>
<path d="M106.369 104.145L110.127 105.167C110.074 105.418 109.97 105.657 109.822 105.867C109.675 106.078 109.486 106.256 109.267 106.392C109.049 106.528 108.805 106.618 108.551 106.657C108.297 106.696 108.037 106.683 107.788 106.62C107.274 106.476 106.837 106.136 106.572 105.673C106.306 105.21 106.233 104.661 106.369 104.145Z" fill="#9A4A4D"/>
<path d="M106.795 104.784C106.634 104.766 106.471 104.766 106.311 104.784C106.334 105.201 106.487 105.6 106.747 105.926C107.007 106.252 107.363 106.489 107.763 106.605C107.968 106.654 108.179 106.671 108.388 106.653C108.412 106.197 108.26 105.749 107.964 105.402C107.667 105.054 107.249 104.833 106.795 104.784Z" fill="#F28F8F"/>
<path d="M124.157 148.067C125.183 147.362 126.27 146.752 127.407 146.246C128.429 145.762 130.265 145.161 131.63 144.561C134.929 143.108 137.123 142.28 138.774 139.674C140.527 136.913 139.743 135.63 137.965 133.76C137.723 133.509 135.703 132.932 133.66 133.233C131.262 133.591 130.177 134.119 128.177 135.456C126.075 136.865 121.808 140.618 120.147 141.325C118.878 141.858 117.866 141.698 116.563 141.606C114.718 141.48 112.388 141.999 110.587 142.405C110.453 142.418 110.323 142.458 110.206 142.523C110.088 142.588 109.985 142.676 109.904 142.783C109.859 142.882 109.841 142.991 109.853 143.099C109.864 143.207 109.903 143.311 109.967 143.398C110.172 143.633 110.426 143.818 110.712 143.941C110.998 144.064 111.307 144.122 111.618 144.11C112.074 144.149 113.531 144.033 113.89 144.343C114.481 144.856 112.761 145.723 112.437 145.912C111.88 146.222 111.301 146.489 110.703 146.711C109.734 147.079 108.674 147.239 107.715 147.626C107.382 147.747 107.067 147.91 106.775 148.111C106.629 148.211 106.507 148.342 106.417 148.494C106.326 148.646 106.27 148.816 106.252 148.992C106.239 149.168 106.289 149.344 106.394 149.486C106.499 149.628 106.651 149.728 106.824 149.767C105.937 149.99 105.69 150.411 105.584 150.847C105.56 150.973 105.566 151.104 105.601 151.227C105.636 151.351 105.7 151.465 105.787 151.559C106.081 151.73 106.416 151.816 106.756 151.806C106.664 151.968 106.613 152.149 106.608 152.335C106.603 152.521 106.644 152.705 106.727 152.872C106.899 153.093 107.139 153.251 107.41 153.322C107.752 153.391 108.101 153.423 108.451 153.419C108.52 153.635 108.653 153.825 108.832 153.964C109.01 154.103 109.227 154.185 109.454 154.199C109.901 154.254 110.353 154.254 110.8 154.199C112.326 154.033 113.822 153.658 115.246 153.085C117.351 152.329 119.365 151.341 121.251 150.14C122.409 149.375 123.412 148.6 124.157 148.067Z" fill="#B16668"/>
<path d="M115.391 151.177C113.052 152.169 110.926 153.027 108.427 153.395C110.96 153.395 113.192 152.504 115.391 151.177Z" fill="#9A4A4D"/>
<path d="M106.882 149.854C107.254 149.915 107.634 149.915 108.006 149.854C110.23 149.525 112.366 148.749 114.282 147.573C112.272 148.506 110.159 149.2 107.986 149.641C107.357 149.782 106.311 149.932 106.262 148.92C106.241 149.123 106.291 149.328 106.404 149.498C106.517 149.669 106.686 149.795 106.882 149.854Z" fill="#9A4A4D"/>
<path d="M110.893 151.201C112.288 150.751 113.615 150.11 114.835 149.297C112.239 150.508 109.507 151.719 106.602 151.801C108.074 152.053 109.532 151.627 110.893 151.201Z" fill="#9A4A4D"/>
<path d="M71.5998 82.854C74.9567 85.0196 77.3623 88.3829 78.327 92.2594L78.6611 94.0272C79.1775 97.9441 78.2012 101.912 75.9261 105.142C73.651 108.372 70.2439 110.627 66.3819 111.46C62.5199 112.293 58.486 111.643 55.0818 109.637C51.6777 107.632 49.1527 104.42 48.0088 100.638L47.5874 98.8704C47.0412 95.8524 47.3892 92.7405 48.5885 89.9177C49.7878 87.0949 51.7862 84.6842 54.3377 82.9824C56.8893 81.2805 59.8826 80.3616 62.9496 80.3388C66.0165 80.316 69.0233 81.1903 71.5998 82.854Z" fill="white"/>
<path d="M48.7157 86.8254C46.4007 90.423 45.5207 94.7586 46.2499 98.9741C46.9792 103.19 49.2645 106.978 52.6536 109.588C56.0427 112.199 60.2885 113.442 64.5505 113.072C68.8125 112.701 72.7801 110.744 75.6679 107.588L80.8646 108.668C81.0654 108.726 81.2796 108.718 81.4753 108.645C81.6711 108.571 81.8378 108.437 81.9506 108.261C82.0634 108.085 82.1162 107.877 82.1012 107.668C82.0861 107.46 82.004 107.262 81.8672 107.104L78.753 102.808C80.4104 98.8794 80.5382 94.4731 79.1114 90.4552C77.6846 86.4373 74.8064 83.0984 71.0426 81.0951C67.2788 79.0918 62.9017 78.569 58.772 79.6293C54.6422 80.6897 51.0585 83.2566 48.7254 86.8254H48.7157ZM71.5997 82.854C74.9565 85.0196 77.3621 88.3829 78.3268 92.2595L78.661 94.0272C79.1774 97.9441 78.201 101.912 75.926 105.142C73.6509 108.372 70.2437 110.627 66.3818 111.46C62.5198 112.293 58.4858 111.643 55.0817 109.637C51.6775 107.632 49.1526 104.42 48.0086 100.638L47.5873 98.8704C47.0411 95.8524 47.389 92.7405 48.5884 89.9177C49.7877 87.0949 51.7861 84.6842 54.3376 82.9824C56.8891 81.2805 59.8825 80.3616 62.9494 80.3388C66.0164 80.316 69.0231 81.1903 71.5997 82.854Z" fill="#455A64"/>
<path d="M55.0408 94.6128L51.3818 95.4495C51.1289 95.5073 50.9707 95.7592 51.0285 96.0122L52.378 101.914C52.4359 102.167 52.6878 102.325 52.9407 102.267L56.5997 101.43C56.8527 101.373 57.0108 101.121 56.953 100.868L55.6035 94.966C55.5457 94.7131 55.2937 94.555 55.0408 94.6128Z" fill="#BA68C8"/>
<path d="M64.107 104.682L56.0673 101.549L54.5078 94.7343L60.3874 88.4091C60.5475 88.2354 60.7521 88.1088 60.9789 88.0432C61.2058 87.9775 61.4464 87.9752 61.6745 88.0366C61.9026 88.098 62.1095 88.2207 62.2728 88.3914C62.4361 88.5621 62.5495 88.7742 62.6007 89.0048L65.8505 103.19C65.9022 103.421 65.8902 103.661 65.8158 103.885C65.7413 104.108 65.6072 104.308 65.4279 104.461C65.2486 104.615 65.0309 104.716 64.7981 104.755C64.5654 104.794 64.3264 104.769 64.107 104.682Z" fill="#BA68C8"/>
<path d="M69.7254 94.8408C69.516 93.9188 69.0596 93.071 68.4052 92.3885C67.7509 91.706 66.9231 91.2143 66.0107 90.9663C65.8337 90.9198 65.646 90.937 65.4804 91.0149C65.3149 91.0928 65.182 91.2265 65.105 91.3925C65.0571 91.4935 65.0318 91.6037 65.0308 91.7155C65.0298 91.8273 65.0532 91.938 65.0992 92.0398C65.1453 92.1417 65.213 92.2323 65.2977 92.3053C65.3823 92.3784 65.4818 92.4321 65.5893 92.4628C66.2312 92.634 66.8143 92.9768 67.2761 93.4544C67.7378 93.932 68.0607 94.5264 68.2101 95.1737C68.3595 95.821 68.3297 96.4968 68.1239 97.1285C67.9182 97.7601 67.5442 98.3238 67.0423 98.7589C66.9558 98.8312 66.8862 98.9216 66.8385 99.0237C66.7908 99.1258 66.766 99.2371 66.766 99.3498C66.766 99.4625 66.7908 99.5738 66.8385 99.6759C66.8862 99.778 66.9558 99.8684 67.0423 99.9407C67.1819 100.058 67.3586 100.123 67.5411 100.123C67.7236 100.123 67.9003 100.058 68.04 99.9407C68.7574 99.3237 69.2934 98.5231 69.5903 97.6246C69.8872 96.7262 69.9339 95.7638 69.7254 94.8408Z" fill="#BA68C8"/>
<path d="M72.8003 94.1337C72.4855 92.7621 71.8302 91.492 70.8948 90.4407C69.9594 89.3893 68.7742 88.5907 67.4486 88.1185C67.2671 88.0535 67.0681 88.0575 66.8895 88.1299C66.7108 88.2022 66.565 88.3378 66.48 88.5108C66.434 88.6092 66.4093 88.7163 66.4073 88.8249C66.4054 88.9336 66.4264 89.0414 66.4689 89.1414C66.5114 89.2415 66.5744 89.3314 66.6539 89.4055C66.7334 89.4796 66.8276 89.5361 66.9304 89.5714C68.0144 89.9556 68.9835 90.6078 69.7475 91.4674C70.5115 92.327 71.0456 93.366 71.2998 94.4876C71.5541 95.6092 71.5204 96.7769 71.2019 97.882C70.8833 98.987 70.2902 99.9935 69.4779 100.808C69.4003 100.884 69.3396 100.976 69.2999 101.077C69.2601 101.178 69.2422 101.287 69.2472 101.396C69.2522 101.505 69.2801 101.611 69.329 101.708C69.378 101.806 69.4468 101.891 69.5312 101.96C69.6853 102.08 69.8782 102.139 70.0729 102.125C70.2677 102.112 70.4507 102.027 70.587 101.888C71.5795 100.886 72.3028 99.6506 72.6897 98.295C73.0767 96.9394 73.1147 95.5079 72.8003 94.1337Z" fill="#BA68C8"/>
<path d="M56.1113 106.252C55.9435 106.146 55.8243 105.978 55.7799 105.785C55.7354 105.591 55.7692 105.388 55.874 105.22L68.4178 85.2226C68.4701 85.1388 68.5385 85.0662 68.619 85.009C68.6995 84.9517 68.7904 84.9109 68.8867 84.8888C68.983 84.8668 69.0827 84.8639 69.1801 84.8805C69.2775 84.897 69.3706 84.9326 69.4542 84.9853C69.622 85.091 69.7412 85.2588 69.7856 85.4521C69.8301 85.6454 69.7963 85.8484 69.6915 86.0169L57.1332 106.014C57.0276 106.179 56.8615 106.297 56.6706 106.341C56.4796 106.385 56.2789 106.353 56.1113 106.252Z" fill="#455A64"/>
<defs>
<filter id="filter0_f_559_6912" x="5.06551" y="134.213" width="211.174" height="165.545" filterUnits="userSpaceOnUse" color-interpolation-filters="sRGB">
<feFlood flood-opacity="0" result="BackgroundImageFix"/>
<feBlend mode="normal" in="SourceGraphic" in2="BackgroundImageFix" result="shape"/>
<feGaussianBlur stdDeviation="17.135" result="effect1_foregroundBlur_559_6912"/>
</filter>
<filter id="filter1_f_559_6912" x="109.951" y="130.816" width="182.597" height="191.737" filterUnits="userSpaceOnUse" color-interpolation-filters="sRGB">
<feFlood flood-opacity="0" result="BackgroundImageFix"/>
<feBlend mode="normal" in="SourceGraphic" in2="BackgroundImageFix" result="shape"/>
<feGaussianBlur stdDeviation="17.135" result="effect1_foregroundBlur_559_6912"/>
</filter>
<filter id="filter2_f_559_6912" x="25.3995" y="131.11" width="190.539" height="178.65" filterUnits="userSpaceOnUse" color-interpolation-filters="sRGB">
<feFlood flood-opacity="0" result="BackgroundImageFix"/>
<feBlend mode="normal" in="SourceGraphic" in2="BackgroundImageFix" result="shape"/>
<feGaussianBlur stdDeviation="17.135" result="effect1_foregroundBlur_559_6912"/>
</filter>
<filter id="filter3_f_559_6912" x="32.9903" y="139.278" width="190.539" height="178.65" filterUnits="userSpaceOnUse" color-interpolation-filters="sRGB">
<feFlood flood-opacity="0" result="BackgroundImageFix"/>
<feBlend mode="normal" in="SourceGraphic" in2="BackgroundImageFix" result="shape"/>
<feGaussianBlur stdDeviation="17.135" result="effect1_foregroundBlur_559_6912"/>
</filter>
<linearGradient id="paint0_linear_559_6912" x1="166.196" y1="210.739" x2="62.7213" y2="195.67" gradientUnits="userSpaceOnUse">
<stop stop-color="#FF2E00"/>
<stop offset="1" stop-color="#8C4E96"/>
</linearGradient>
<linearGradient id="paint1_linear_559_6912" x1="145.281" y1="240.395" x2="81.8545" y2="176.969" gradientUnits="userSpaceOnUse">
<stop stop-color="#00FFA3" stop-opacity="0.58"/>
<stop offset="1" stop-color="#3300FF" stop-opacity="0.2"/>
</linearGradient>
<linearGradient id="paint2_linear_559_6912" x1="228.676" y1="276.934" x2="212.321" y2="173.655" gradientUnits="userSpaceOnUse">
<stop stop-color="#FF2E00"/>
<stop offset="1" stop-color="#1400FF" stop-opacity="0.2"/>
</linearGradient>
<linearGradient id="paint3_linear_559_6912" x1="194.145" y1="265.775" x2="235.863" y2="186.368" gradientUnits="userSpaceOnUse">
<stop stop-color="#703E78"/>
<stop offset="1" stop-color="#C47FD0"/>
</linearGradient>
<linearGradient id="paint4_linear_559_6912" x1="163.998" y1="242.461" x2="96.2526" y2="174.715" gradientUnits="userSpaceOnUse">
<stop stop-color="#00FFA3" stop-opacity="0.48"/>
<stop offset="1" stop-color="#3300FF" stop-opacity="0.2"/>
</linearGradient>
<linearGradient id="paint5_linear_559_6912" x1="171.589" y1="250.629" x2="103.843" y2="182.883" gradientUnits="userSpaceOnUse">
<stop stop-color="#C785D3"/>
<stop offset="1" stop-color="#66396E"/>
</linearGradient>
</defs>
</svg>
